<?xml version="1.0" encoding="UTF-8"?>
<!DOCTYPE xmeml>
<xmeml version="5">
<sequence id="From_Away_cut_1 ">
	<uuid>E134DEED-FA22-4A3D-B994-762E32AF6FFF</uuid>
	<updatebehavior>add</updatebehavior>
	<name>From_Away_cut_1</name>
	<duration>21171</duration>
	<rate>
		<ntsc>TRUE</ntsc>
		<timebase>30</timebase>
	</rate>
	<timecode>
		<rate>
			<ntsc>TRUE</ntsc>
			<timebase>30</timebase>
		</rate>
		<string>01:00:00;00</string>
		<frame>107892</frame>
		<source>source</source>
		<displayformat>DF</displayformat>
	</timecode>
	<in>-1</in>
	<out>-1</out>
	<media>
		<video>
			<format>
				<samplecharacteristics>
					<width>720</width>
					<height>486</height>
					<anamorphic>FALSE</anamorphic>
					<pixelaspectratio>NTSC-601</pixelaspectratio>
					<fielddominance>lower</fielddominance>
					<rate>
						<ntsc>TRUE</ntsc>
						<timebase>30</timebase>
					</rate>
					<colordepth>24</colordepth>
					<codec>
						<name>Apple ProRes 422 (Proxy)</name>
						<appspecificdata>
							<appname>Final Cut Pro</appname>
							<appmanufacturer>Apple Inc.</appmanufacturer>
							<appversion>7.0</appversion>
							<data>
								<qtcodec>
									<codecname>Apple ProRes 422 (Proxy)</codecname>
									<codectypename>Apple ProRes 422 (Proxy)</codectypename>
									<codectypecode>apco</codectypecode>
									<codecvendorcode>appl</codecvendorcode>
									<spatialquality>1024</spatialquality>
									<temporalquality>0</temporalquality>
									<keyframerate>0</keyframerate>
									<datarate>0</datarate>
								</qtcodec>
							</data>
						</appspecificdata>
					</codec>
				</samplecharacteristics>
				<appspecificdata>
					<appname>Final Cut Pro</appname>
					<appmanufacturer>Apple Inc.</appmanufacturer>
					<appversion>7.0</appversion>
					<data>
						<fcpimageprocessing>
							<useyuv>TRUE</useyuv>
							<usesuperwhite>FALSE</usesuperwhite>
							<rendermode>YUV8BPP</rendermode>
						</fcpimageprocessing>
					</data>
				</appspecificdata>
			</format>
			<track>
				<clipitem id="title2 ">
					<name>title2</name>
					<duration>494</duration>
					<rate>
						<ntsc>TRUE</ntsc>
						<timebase>30</timebase>
					</rate>
					<in>0</in>
					<out>494</out>
					<start>746</start>
					<end>1240</end>
					<filter>
						<effect>
							<name>Basic Motion</name>
							<effectid>basic</effectid>
							<effectcategory>motion</effectcategory>
							<effecttype>motion</effecttype>
							<mediatype>video</mediatype>
							<parameter>
								<parameterid>center</parameterid>
								<name>Center</name>
								<value>
									<horiz>0</horiz>
									<vert>0.00208333</vert>
								</value>
							</parameter>
							<parameter>
								<parameterid>scale</parameterid>
								<name>Scale</name>
								<value>100</value>
							</parameter>
						</effect>
					</filter>
					<sequence id="title2 1">
						<name>title2</name>
						<duration>494</duration>
						<rate>
							<ntsc>TRUE</ntsc>
							<timebase>30</timebase>
						</rate>
						<timecode>
							<rate>
								<ntsc>TRUE</ntsc>
								<timebase>30</timebase>
							</rate>
							<string>01:00:00;00</string>
							<frame>107892</frame>
							<source>source</source>
							<displayformat>DF</displayformat>
						</timecode>
						<in>-1</in>
						<out>-1</out>
						<media>
							<video>
								<format>
									<samplecharacteristics>
										<width>720</width>
										<height>480</height>
										<anamorphic>FALSE</anamorphic>
										<pixelaspectratio>NTSC-601</pixelaspectratio>
										<fielddominance>lower</fielddominance>
										<rate>
											<ntsc>TRUE</ntsc>
											<timebase>30</timebase>
										</rate>
										<colordepth>24</colordepth>
										<codec>
											<name>Apple DV - NTSC</name>
											<appspecificdata>
												<appname>Final Cut Pro</appname>
												<appmanufacturer>Apple Inc.</appmanufacturer>
												<appversion>7.0</appversion>
												<data>
													<qtcodec>
														<codecname>Apple DV - NTSC</codecname>
														<codectypename>DV - NTSC</codectypename>
														<codectypecode>dvc </codectypecode>
														<codecvendorcode>appl</codecvendorcode>
														<spatialquality>1023</spatialquality>
														<temporalquality>0</temporalquality>
														<keyframerate>0</keyframerate>
														<datarate>0</datarate>
													</qtcodec>
												</data>
											</appspecificdata>
										</codec>
									</samplecharacteristics>
									<appspecificdata>
										<appname>Final Cut Pro</appname>
										<appmanufacturer>Apple Inc.</appmanufacturer>
										<appversion>7.0</appversion>
										<data>
											<fcpimageprocessing>
												<useyuv>TRUE</useyuv>
												<usesuperwhite>FALSE</usesuperwhite>
												<rendermode>YUV8BPP</rendermode>
											</fcpimageprocessing>
										</data>
									</appspecificdata>
								</format>
								<track>
									<clipitem id="Roll 3 - Logged-Pro-res Proxy - Silent">
										<name>Roll 3 - Logged-Pro-res Proxy - Silent</name>
										<duration>5311</duration>
										<rate>
											<ntsc>TRUE</ntsc>
											<timebase>30</timebase>
										</rate>
										<in>2635</in>
										<out>3129</out>
										<start>0</start>
										<end>494</end>
										<pixelaspectratio>NTSC-601</pixelaspectratio>
										<enabled>TRUE</enabled>
										<anamorphic>FALSE</anamorphic>
										<alphatype>none</alphatype>
										<alphareverse>FALSE</alphareverse>
										<compositemode>add</compositemode>
										<masterclipid>Roll 3 - Logged-Pro-res Proxy - Silent1</masterclipid>
										<logginginfo>
											<scene/>
											<shottake/>
											<lognote/>
											<good>FALSE</good>
										</logginginfo>
										<labels>
											<label2/>
										</labels>
										<comments>
											<mastercomment1/>
											<mastercomment2/>
											<mastercomment3/>
											<mastercomment4/>
										</comments>
										<file id="Roll 3 - Logged-Pro-res Proxy - Silent2">
											<name>Roll 3 - Logged-Pro-res Proxy - Silent.mov</name>
											<pathurl>file://localhost/Volumes/FILMS/FROM%20AWAY/Roll%203%20-%20Logged-Pro-res%20Proxy%20-%20Silent.mov</pathurl>
											<rate>
												<timebase>30</timebase>
												<ntsc>TRUE</ntsc>
											</rate>
											<duration>5311</duration>
											<metadata>
												<storage>QuickTime</storage>
												<key>com.apple.finalcutstudio.media.uuid</key>
												<size>36</size>
												<type>UTF8</type>
												<value>5B297484-AEC3-4849-AC1E-EAE14BC56574</value>
											</metadata>
											<timecode>
												<rate>
													<timebase>30</timebase>
													<ntsc>TRUE</ntsc>
												</rate>
												<string>01:00:00;00</string>
												<frame>107892</frame>
												<displayformat>DF</displayformat>
												<source>source</source>
											</timecode>
											<media>
												<video>
													<duration>5311</duration>
													<samplecharacteristics>
														<width>720</width>
														<height>486</height>
													</samplecharacteristics>
												</video>
											</media>
										</file>
										<filter>
											<enabled>TRUE</enabled>
											<start>-1</start>
											<end>-1</end>
											<effect>
												<name>Color Corrector</name>
												<effectid>Color Corrector</effectid>
												<effectcategory>Color Correction</effectcategory>
												<effecttype>filter</effecttype>
												<mediatype>video</mediatype>
												<parameter>
													<parameterid>dispmode</parameterid>
													<name>Display Mode</name>
													<valuemin>1</valuemin>
													<valuemax>3</valuemax>
													<valuelist>
														<valueentry>
															<name>Final</name>
															<value>1</value>
														</valueentry>
														<valueentry>
															<name>Matte</name>
															<value>2</value>
														</valueentry>
														<valueentry>
															<name>Source</name>
															<value>3</value>
														</valueentry>
													</valuelist>
													<value>1</value>
												</parameter>
												<parameter>
													<parameterid>label1</parameterid>
													<name>Level Controls</name>
													<value/>
												</parameter>
												<parameter>
													<parameterid>highlights</parameterid>
													<name>Highlights</name>
													<valuemin>64</valuemin>
													<valuemax>509</valuemax>
													<value>255</value>
												</parameter>
												<parameter>
													<parameterid>mids</parameterid>
													<name>Mids</name>
													<valuemin>0</valuemin>
													<valuemax>200</valuemax>
													<value>100</value>
												</parameter>
												<parameter>
													<parameterid>blacklevel</parameterid>
													<name>Blacks</name>
													<valuemin>-196</valuemin>
													<valuemax>254</valuemax>
													<value>0</value>
												</parameter>
												<parameter>
													<parameterid>label2</parameterid>
													<name>Color Balance</name>
													<value/>
												</parameter>
												<parameter>
													<parameterid>hue</parameterid>
													<name>Angle</name>
													<valuemin>-180</valuemin>
													<valuemax>180</valuemax>
													<value>167.024</value>
												</parameter>
												<parameter>
													<parameterid>mag</parameterid>
													<name>Magnitude</name>
													<valuemin>0</valuemin>
													<valuemax>200</valuemax>
													<value>10.7377</value>
												</parameter>
												<parameter>
													<parameterid>label4</parameterid>
													<name>Color Controls</name>
													<value/>
												</parameter>
												<parameter>
													<parameterid>chroma</parameterid>
													<name>Saturation</name>
													<valuemin>0</valuemin>
													<valuemax>200</valuemax>
													<value>100</value>
												</parameter>
												<parameter>
													<parameterid>phase</parameterid>
													<name>Phase shift</name>
													<valuemin>-180</valuemin>
													<valuemax>180</valuemax>
													<value>0</value>
												</parameter>
												<parameter>
													<parameterid>label5</parameterid>
													<name>Limit Effect Controls</name>
													<value/>
												</parameter>
												<parameter>
													<parameterid>dochroma</parameterid>
													<name>Limit on Chroma</name>
													<value>FALSE</value>
												</parameter>
												<parameter>
													<parameterid>centerang</parameterid>
													<name>Chroma Center</name>
													<valuemin>-760</valuemin>
													<valuemax>760</valuemax>
													<value>-110</value>
												</parameter>
												<parameter>
													<parameterid>chromawidth</parameterid>
													<name>Chroma Width</name>
													<valuemin>0</valuemin>
													<valuemax>360</valuemax>
													<value>15</value>
												</parameter>
												<parameter>
													<parameterid>chromasoft</parameterid>
													<name>Chroma Softness</name>
													<valuemin>0</valuemin>
													<valuemax>180</valuemax>
													<value>10</value>
												</parameter>
												<parameter>
													<parameterid>dosat</parameterid>
													<name>Limit on Saturation</name>
													<value>FALSE</value>
												</parameter>
												<parameter>
													<parameterid>satmin</parameterid>
													<name>Sat. Minimum</name>
													<valuemin>0</valuemin>
													<valuemax>125</valuemax>
													<value>35</value>
												</parameter>
												<parameter>
													<parameterid>satwidth</parameterid>
													<name>Sat. Width</name>
													<valuemin>0</valuemin>
													<valuemax>125</valuemax>
													<value>40</value>
												</parameter>
												<parameter>
													<parameterid>satsoft</parameterid>
													<name>Sat. Softness</name>
													<valuemin>0</valuemin>
													<valuemax>125</valuemax>
													<value>20</value>
												</parameter>
												<parameter>
													<parameterid>doluma</parameterid>
													<name>Limit on Luma</name>
													<value>FALSE</value>
												</parameter>
												<parameter>
													<parameterid>lumamin</parameterid>
													<name>Luma Minimum</name>
													<valuemin>0</valuemin>
													<valuemax>120</valuemax>
													<value>0</value>
												</parameter>
												<parameter>
													<parameterid>lumawidth</parameterid>
													<name>Luma Width</name>
													<valuemin>0</valuemin>
													<valuemax>120</valuemax>
													<value>40</value>
												</parameter>
												<parameter>
													<parameterid>lumasoft</parameterid>
													<name>Luma Softness</name>
													<valuemin>0</valuemin>
													<valuemax>120</valuemax>
													<value>20</value>
												</parameter>
												<parameter>
													<parameterid>label6</parameterid>
													<name>Edge Control</name>
													<value/>
												</parameter>
												<parameter>
													<parameterid>edgethin</parameterid>
													<name>Thin/Spread</name>
													<valuemin>-100</valuemin>
													<valuemax>100</valuemax>
													<value>0</value>
												</parameter>
												<parameter>
													<parameterid>edgefeather</parameterid>
													<name>Softening</name>
													<valuemin>0</valuemin>
													<valuemax>100</valuemax>
													<value>0</value>
												</parameter>
												<parameter>
													<parameterid>label7</parameterid>
													<name>Mask Control</name>
													<value/>
												</parameter>
												<parameter>
													<parameterid>invertsel</parameterid>
													<name>Invert</name>
													<value>FALSE</value>
												</parameter>
												<parameter>
													<parameterid>debugshow</parameterid>
													<name>Show Stats</name>
													<value>FALSE</value>
												</parameter>
											</effect>
										</filter>
										<filter>
											<effect>
												<name>Basic Motion</name>
												<effectid>basic</effectid>
												<effectcategory>motion</effectcategory>
												<effecttype>motion</effecttype>
												<mediatype>video</mediatype>
												<parameter>
													<parameterid>center</parameterid>
													<name>Center</name>
													<value>
														<horiz>0</horiz>
														<vert>-0.00205761</vert>
													</value>
												</parameter>
												<parameter>
													<parameterid>scale</parameterid>
													<name>Scale</name>
													<value>98.7654</value>
												</parameter>
											</effect>
										</filter>
										<sourcetrack>
											<mediatype>video</mediatype>
										</sourcetrack>
										<fielddominance>lower</fielddominance>
										<itemhistory>
											<uuid>E13F6795-A0EB-4DC5-9930-F9A692D0D90B</uuid>
										</itemhistory>
									</clipitem>
									<enabled>TRUE</enabled>
									<locked>FALSE</locked>
								</track>
								<track>
									<clipitem id="fromAwayTitles.psd">
										<name>fromAwayTitles.psd</name>
										<duration>3900</duration>
										<rate>
											<ntsc>TRUE</ntsc>
											<timebase>30</timebase>
										</rate>
										<in>1800</in>
										<out>2010</out>
										<start>0</start>
										<end>210</end>
										<pixelaspectratio>Square</pixelaspectratio>
										<stillframe>TRUE</stillframe>
										<enabled>TRUE</enabled>
										<anamorphic>FALSE</anamorphic>
										<alphatype>straight</alphatype>
										<alphareverse>FALSE</alphareverse>
										<compositemode>normal</compositemode>
										<masterclipid>fromAwayTitles.psd1</masterclipid>
										<logginginfo>
											<scene/>
											<shottake/>
											<lognote/>
											<good>FALSE</good>
										</logginginfo>
										<labels>
											<label2/>
										</labels>
										<comments>
											<mastercomment1/>
											<mastercomment2/>
											<mastercomment3/>
											<mastercomment4/>
										</comments>
										<file id="fromAwayTitles">
											<name>fromAwayTitles.psd</name>
											<pathurl>file://localhost/Volumes/FILMS/FROM%20AWAY/fromAwayTitles.psd</pathurl>
											<rate>
												<timebase>30</timebase>
												<ntsc>TRUE</ntsc>
											</rate>
											<duration>300</duration>
											<width>3000</width>
											<height>2400</height>
											<media>
												<video>
													<duration>300</duration>
													<stillframe>TRUE</stillframe>
													<alphatype>straight</alphatype>
													<layerindex>0</layerindex>
													<samplecharacteristics>
														<width>2102</width>
														<height>469</height>
													</samplecharacteristics>
												</video>
												<video>
													<duration>300</duration>
													<stillframe>TRUE</stillframe>
													<alphatype>straight</alphatype>
													<layerindex>1</layerindex>
													<samplecharacteristics>
														<width>2532</width>
														<height>469</height>
													</samplecharacteristics>
												</video>
												<video>
													<duration>300</duration>
													<stillframe>TRUE</stillframe>
													<alphatype>straight</alphatype>
													<layerindex>2</layerindex>
													<samplecharacteristics>
														<width>2091</width>
														<height>359</height>
													</samplecharacteristics>
												</video>
											</media>
										</file>
										<filter>
											<effect>
												<name>Opacity</name>
												<effectid>opacity</effectid>
												<effectcategory>motion</effectcategory>
												<effecttype>motion</effecttype>
												<mediatype>video</mediatype>
												<parameter>
													<parameterid>opacity</parameterid>
													<name>opacity</name>
													<valuemin>0</valuemin>
													<valuemax>100</valuemax>
													<value>100</value>
												</parameter>
											</effect>
										</filter>
										<filter>
											<effect>
												<name>Basic Motion</name>
												<effectid>basic</effectid>
												<effectcategory>motion</effectcategory>
												<effecttype>motion</effecttype>
												<mediatype>video</mediatype>
												<parameter>
													<parameterid>center</parameterid>
													<name>Center</name>
													<value>
														<horiz>0</horiz>
														<vert>0</vert>
													</value>
												</parameter>
												<parameter>
													<parameterid>scale</parameterid>
													<name>Scale</name>
													<valuemin>0</valuemin>
													<valuemax>1000</valuemax>
													<value>20</value>
												</parameter>
												<parameter>
													<parameterid>rotation</parameterid>
													<name>Rotation</name>
													<valuemin>-8640</valuemin>
													<valuemax>8640</valuemax>
													<value>0</value>
												</parameter>
												<parameter>
													<parameterid>centerOffset</parameterid>
													<name>Anchor Point</name>
													<value>
														<horiz>0</horiz>
														<vert>0</vert>
													</value>
												</parameter>
											</effect>
										</filter>
										<filter>
											<enabled>FALSE</enabled>
											<effect>
												<name>Drop Shadow</name>
												<effectid>dropshadow</effectid>
												<effectcategory>motion</effectcategory>
												<effecttype>motion</effecttype>
												<mediatype>video</mediatype>
												<parameter>
													<parameterid>offset</parameterid>
													<name>offset</name>
													<valuemin>-100</valuemin>
													<valuemax>100</valuemax>
													<value>2</value>
												</parameter>
												<parameter>
													<parameterid>angle</parameterid>
													<name>angle</name>
													<valuemin>-720</valuemin>
													<valuemax>720</valuemax>
													<value>135</value>
												</parameter>
												<parameter>
													<parameterid>color</parameterid>
													<name>color</name>
													<value>
														<alpha>0</alpha>
														<red>0</red>
														<green>0</green>
														<blue>0</blue>
													</value>
												</parameter>
												<parameter>
													<parameterid>softness</parameterid>
													<name>softness</name>
													<valuemin>0</valuemin>
													<valuemax>100</valuemax>
													<value>10</value>
												</parameter>
												<parameter>
													<parameterid>opacity</parameterid>
													<name>opacity</name>
													<valuemin>0</valuemin>
													<valuemax>100</valuemax>
													<value>50</value>
												</parameter>
											</effect>
										</filter>
										<filter>
											<enabled>FALSE</enabled>
											<effect>
												<name>Motion Blur</name>
												<effectid>motionblur</effectid>
												<effectcategory>motion</effectcategory>
												<effecttype>motion</effecttype>
												<mediatype>video</mediatype>
												<parameter>
													<parameterid>duration</parameterid>
													<name>% Blur</name>
													<valuemin>0</valuemin>
													<valuemax>1000</valuemax>
													<value>500</value>
												</parameter>
												<parameter>
													<parameterid>samples</parameterid>
													<name>Samples</name>
													<valuemin>1</valuemin>
													<valuemax>16</valuemax>
													<value>4</value>
												</parameter>
											</effect>
										</filter>
										<filter>
											<effect>
												<name>Crop</name>
												<effectid>crop</effectid>
												<effectcategory>motion</effectcategory>
												<effecttype>motion</effecttype>
												<mediatype>video</mediatype>
												<parameter>
													<parameterid>left</parameterid>
													<name>left</name>
													<valuemin>0</valuemin>
													<valuemax>100</valuemax>
													<value>0</value>
												</parameter>
												<parameter>
													<parameterid>right</parameterid>
													<name>right</name>
													<valuemin>0</valuemin>
													<valuemax>100</valuemax>
													<value>0</value>
												</parameter>
												<parameter>
													<parameterid>top</parameterid>
													<name>top</name>
													<valuemin>0</valuemin>
													<valuemax>100</valuemax>
													<value>0</value>
												</parameter>
												<parameter>
													<parameterid>bottom</parameterid>
													<name>bottom</name>
													<valuemin>0</valuemin>
													<valuemax>100</valuemax>
													<value>0</value>
												</parameter>
												<parameter>
													<parameterid>edgefeather</parameterid>
													<name>edgefeather</name>
													<valuemin>0</valuemin>
													<valuemax>100</valuemax>
													<value>0</value>
												</parameter>
											</effect>
										</filter>
										<filter>
											<effect>
												<name>Distort</name>
												<effectid>deformation</effectid>
												<effectcategory>motion</effectcategory>
												<effecttype>motion</effecttype>
												<mediatype>video</mediatype>
												<parameter>
													<parameterid>ulcorner</parameterid>
													<name>Upper Left</name>
													<value>
														<horiz>-0.5</horiz>
														<vert>-0.5</vert>
													</value>
												</parameter>
												<parameter>
													<parameterid>urcorner</parameterid>
													<name>Upper Right</name>
													<value>
														<horiz>0.5</horiz>
														<vert>-0.5</vert>
													</value>
												</parameter>
												<parameter>
													<parameterid>lrcorner</parameterid>
													<name>Lower Right</name>
													<value>
														<horiz>0.5</horiz>
														<vert>0.5</vert>
													</value>
												</parameter>
												<parameter>
													<parameterid>llcorner</parameterid>
													<name>Lower Left</name>
													<value>
														<horiz>-0.5</horiz>
														<vert>0.5</vert>
													</value>
												</parameter>
												<parameter>
													<parameterid>aspect</parameterid>
													<name>Aspect</name>
													<valuemin>-10000</valuemin>
													<valuemax>10000</valuemax>
													<value>0</value>
												</parameter>
											</effect>
										</filter>
										<sourcetrack>
											<mediatype>video</mediatype>
											<trackindex>3</trackindex>
										</sourcetrack>
										<fielddominance>none</fielddominance>
										<itemhistory>
											<uuid>696705A6-E64E-4C9F-AE16-D7DF316F52B7</uuid>
										</itemhistory>
									</clipitem>
									<clipitem id="fromAwayTitles.psd2">
										<name>fromAwayTitles.psd</name>
										<duration>3900</duration>
										<rate>
											<ntsc>TRUE</ntsc>
											<timebase>30</timebase>
										</rate>
										<in>1800</in>
										<out>1933</out>
										<start>333</start>
										<end>-1</end>
										<pixelaspectratio>Square</pixelaspectratio>
										<stillframe>TRUE</stillframe>
										<enabled>TRUE</enabled>
										<anamorphic>FALSE</anamorphic>
										<alphatype>straight</alphatype>
										<alphareverse>FALSE</alphareverse>
										<compositemode>normal</compositemode>
										<masterclipid>fromAwayTitles.psd1</masterclipid>
										<logginginfo>
											<scene/>
											<shottake/>
											<lognote/>
											<good>FALSE</good>
										</logginginfo>
										<labels>
											<label2/>
										</labels>
										<comments>
											<mastercomment1/>
											<mastercomment2/>
											<mastercomment3/>
											<mastercomment4/>
										</comments>
										<file id="fromAwayTitles"/>
										<filter>
											<effect>
												<name>Opacity</name>
												<effectid>opacity</effectid>
												<effectcategory>motion</effectcategory>
												<effecttype>motion</effecttype>
												<mediatype>video</mediatype>
												<parameter>
													<parameterid>opacity</parameterid>
													<name>opacity</name>
													<valuemin>0</valuemin>
													<valuemax>100</valuemax>
													<value>100</value>
												</parameter>
											</effect>
										</filter>
										<filter>
											<effect>
												<name>Basic Motion</name>
												<effectid>basic</effectid>
												<effectcategory>motion</effectcategory>
												<effecttype>motion</effecttype>
												<mediatype>video</mediatype>
												<parameter>
													<parameterid>center</parameterid>
													<name>Center</name>
													<value>
														<horiz>0</horiz>
														<vert>0</vert>
													</value>
												</parameter>
												<parameter>
													<parameterid>scale</parameterid>
													<name>Scale</name>
													<valuemin>0</valuemin>
													<valuemax>1000</valuemax>
													<value>23</value>
												</parameter>
												<parameter>
													<parameterid>rotation</parameterid>
													<name>Rotation</name>
													<valuemin>-8640</valuemin>
													<valuemax>8640</valuemax>
													<value>0</value>
												</parameter>
												<parameter>
													<parameterid>centerOffset</parameterid>
													<name>Anchor Point</name>
													<value>
														<horiz>0</horiz>
														<vert>0</vert>
													</value>
												</parameter>
											</effect>
										</filter>
										<filter>
											<enabled>FALSE</enabled>
											<effect>
												<name>Drop Shadow</name>
												<effectid>dropshadow</effectid>
												<effectcategory>motion</effectcategory>
												<effecttype>motion</effecttype>
												<mediatype>video</mediatype>
												<parameter>
													<parameterid>offset</parameterid>
													<name>offset</name>
													<valuemin>-100</valuemin>
													<valuemax>100</valuemax>
													<value>2</value>
												</parameter>
												<parameter>
													<parameterid>angle</parameterid>
													<name>angle</name>
													<valuemin>-720</valuemin>
													<valuemax>720</valuemax>
													<value>135</value>
												</parameter>
												<parameter>
													<parameterid>color</parameterid>
													<name>color</name>
													<value>
														<alpha>0</alpha>
														<red>0</red>
														<green>0</green>
														<blue>0</blue>
													</value>
												</parameter>
												<parameter>
													<parameterid>softness</parameterid>
													<name>softness</name>
													<valuemin>0</valuemin>
													<valuemax>100</valuemax>
													<value>10</value>
												</parameter>
												<parameter>
													<parameterid>opacity</parameterid>
													<name>opacity</name>
													<valuemin>0</valuemin>
													<valuemax>100</valuemax>
													<value>50</value>
												</parameter>
											</effect>
										</filter>
										<filter>
											<enabled>FALSE</enabled>
											<effect>
												<name>Motion Blur</name>
												<effectid>motionblur</effectid>
												<effectcategory>motion</effectcategory>
												<effecttype>motion</effecttype>
												<mediatype>video</mediatype>
												<parameter>
													<parameterid>duration</parameterid>
													<name>% Blur</name>
													<valuemin>0</valuemin>
													<valuemax>1000</valuemax>
													<value>500</value>
												</parameter>
												<parameter>
													<parameterid>samples</parameterid>
													<name>Samples</name>
													<valuemin>1</valuemin>
													<valuemax>16</valuemax>
													<value>4</value>
												</parameter>
											</effect>
										</filter>
										<filter>
											<effect>
												<name>Crop</name>
												<effectid>crop</effectid>
												<effectcategory>motion</effectcategory>
												<effecttype>motion</effecttype>
												<mediatype>video</mediatype>
												<parameter>
													<parameterid>left</parameterid>
													<name>left</name>
													<valuemin>0</valuemin>
													<valuemax>100</valuemax>
													<value>0</value>
												</parameter>
												<parameter>
													<parameterid>right</parameterid>
													<name>right</name>
													<valuemin>0</valuemin>
													<valuemax>100</valuemax>
													<value>0</value>
												</parameter>
												<parameter>
													<parameterid>top</parameterid>
													<name>top</name>
													<valuemin>0</valuemin>
													<valuemax>100</valuemax>
													<value>0</value>
												</parameter>
												<parameter>
													<parameterid>bottom</parameterid>
													<name>bottom</name>
													<valuemin>0</valuemin>
													<valuemax>100</valuemax>
													<value>0</value>
												</parameter>
												<parameter>
													<parameterid>edgefeather</parameterid>
													<name>edgefeather</name>
													<valuemin>0</valuemin>
													<valuemax>100</valuemax>
													<value>0</value>
												</parameter>
											</effect>
										</filter>
										<filter>
											<effect>
												<name>Distort</name>
												<effectid>deformation</effectid>
												<effectcategory>motion</effectcategory>
												<effecttype>motion</effecttype>
												<mediatype>video</mediatype>
												<parameter>
													<parameterid>ulcorner</parameterid>
													<name>Upper Left</name>
													<value>
														<horiz>-0.5</horiz>
														<vert>-0.5</vert>
													</value>
												</parameter>
												<parameter>
													<parameterid>urcorner</parameterid>
													<name>Upper Right</name>
													<value>
														<horiz>0.5</horiz>
														<vert>-0.5</vert>
													</value>
												</parameter>
												<parameter>
													<parameterid>lrcorner</parameterid>
													<name>Lower Right</name>
													<value>
														<horiz>0.5</horiz>
														<vert>0.5</vert>
													</value>
												</parameter>
												<parameter>
													<parameterid>llcorner</parameterid>
													<name>Lower Left</name>
													<value>
														<horiz>-0.5</horiz>
														<vert>0.5</vert>
													</value>
												</parameter>
												<parameter>
													<parameterid>aspect</parameterid>
													<name>Aspect</name>
													<valuemin>-10000</valuemin>
													<valuemax>10000</valuemax>
													<value>0</value>
												</parameter>
											</effect>
										</filter>
										<sourcetrack>
											<mediatype>video</mediatype>
											<trackindex>2</trackindex>
										</sourcetrack>
										<fielddominance>none</fielddominance>
										<itemhistory>
											<uuid>AF905978-7FAB-4A75-B793-D8E1C613A055</uuid>
										</itemhistory>
									</clipitem>
									<transitionitem>
										<rate>
											<ntsc>TRUE</ntsc>
											<timebase>30</timebase>
										</rate>
										<start>444</start>
										<end>466</end>
										<alignment>end-black</alignment>
										<effect>
											<name>Cross Dissolve</name>
											<effectid>Cross Dissolve</effectid>
											<effectcategory>Dissolve</effectcategory>
											<effecttype>transition</effecttype>
											<mediatype>video</mediatype>
											<wipecode>0</wipecode>
											<wipeaccuracy>100</wipeaccuracy>
											<startratio>0</startratio>
											<endratio>1</endratio>
											<reverse>FALSE</reverse>
										</effect>
									</transitionitem>
									<enabled>TRUE</enabled>
									<locked>FALSE</locked>
								</track>
								<track>
									<clipitem id="fromAwayTitles.psd3">
										<name>fromAwayTitles.psd</name>
										<duration>3900</duration>
										<rate>
											<ntsc>TRUE</ntsc>
											<timebase>30</timebase>
										</rate>
										<in>1800</in>
										<out>1923</out>
										<start>210</start>
										<end>333</end>
										<pixelaspectratio>Square</pixelaspectratio>
										<stillframe>TRUE</stillframe>
										<enabled>TRUE</enabled>
										<anamorphic>FALSE</anamorphic>
										<alphatype>straight</alphatype>
										<alphareverse>FALSE</alphareverse>
										<compositemode>normal</compositemode>
										<masterclipid>fromAwayTitles.psd1</masterclipid>
										<logginginfo>
											<scene/>
											<shottake/>
											<lognote/>
											<good>FALSE</good>
										</logginginfo>
										<labels>
											<label2/>
										</labels>
										<comments>
											<mastercomment1/>
											<mastercomment2/>
											<mastercomment3/>
											<mastercomment4/>
										</comments>
										<file id="fromAwayTitles"/>
										<filter>
											<effect>
												<name>Opacity</name>
												<effectid>opacity</effectid>
												<effectcategory>motion</effectcategory>
												<effecttype>motion</effecttype>
												<mediatype>video</mediatype>
												<parameter>
													<parameterid>opacity</parameterid>
													<name>opacity</name>
													<valuemin>0</valuemin>
													<valuemax>100</valuemax>
													<value>100</value>
												</parameter>
											</effect>
										</filter>
										<filter>
											<effect>
												<name>Basic Motion</name>
												<effectid>basic</effectid>
												<effectcategory>motion</effectcategory>
												<effecttype>motion</effecttype>
												<mediatype>video</mediatype>
												<parameter>
													<parameterid>center</parameterid>
													<name>Center</name>
													<value>
														<horiz>0</horiz>
														<vert>0</vert>
													</value>
												</parameter>
												<parameter>
													<parameterid>scale</parameterid>
													<name>Scale</name>
													<valuemin>0</valuemin>
													<valuemax>1000</valuemax>
													<value>25</value>
												</parameter>
												<parameter>
													<parameterid>rotation</parameterid>
													<name>Rotation</name>
													<valuemin>-8640</valuemin>
													<valuemax>8640</valuemax>
													<value>0</value>
												</parameter>
												<parameter>
													<parameterid>centerOffset</parameterid>
													<name>Anchor Point</name>
													<value>
														<horiz>0</horiz>
														<vert>0</vert>
													</value>
												</parameter>
											</effect>
										</filter>
										<filter>
											<enabled>FALSE</enabled>
											<effect>
												<name>Drop Shadow</name>
												<effectid>dropshadow</effectid>
												<effectcategory>motion</effectcategory>
												<effecttype>motion</effecttype>
												<mediatype>video</mediatype>
												<parameter>
													<parameterid>offset</parameterid>
													<name>offset</name>
													<valuemin>-100</valuemin>
													<valuemax>100</valuemax>
													<value>2</value>
												</parameter>
												<parameter>
													<parameterid>angle</parameterid>
													<name>angle</name>
													<valuemin>-720</valuemin>
													<valuemax>720</valuemax>
													<value>135</value>
												</parameter>
												<parameter>
													<parameterid>color</parameterid>
													<name>color</name>
													<value>
														<alpha>0</alpha>
														<red>0</red>
														<green>0</green>
														<blue>0</blue>
													</value>
												</parameter>
												<parameter>
													<parameterid>softness</parameterid>
													<name>softness</name>
													<valuemin>0</valuemin>
													<valuemax>100</valuemax>
													<value>10</value>
												</parameter>
												<parameter>
													<parameterid>opacity</parameterid>
													<name>opacity</name>
													<valuemin>0</valuemin>
													<valuemax>100</valuemax>
													<value>50</value>
												</parameter>
											</effect>
										</filter>
										<filter>
											<enabled>FALSE</enabled>
											<effect>
												<name>Motion Blur</name>
												<effectid>motionblur</effectid>
												<effectcategory>motion</effectcategory>
												<effecttype>motion</effecttype>
												<mediatype>video</mediatype>
												<parameter>
													<parameterid>duration</parameterid>
													<name>% Blur</name>
													<valuemin>0</valuemin>
													<valuemax>1000</valuemax>
													<value>500</value>
												</parameter>
												<parameter>
													<parameterid>samples</parameterid>
													<name>Samples</name>
													<valuemin>1</valuemin>
													<valuemax>16</valuemax>
													<value>4</value>
												</parameter>
											</effect>
										</filter>
										<filter>
											<effect>
												<name>Crop</name>
												<effectid>crop</effectid>
												<effectcategory>motion</effectcategory>
												<effecttype>motion</effecttype>
												<mediatype>video</mediatype>
												<parameter>
													<parameterid>left</parameterid>
													<name>left</name>
													<valuemin>0</valuemin>
													<valuemax>100</valuemax>
													<value>0</value>
												</parameter>
												<parameter>
													<parameterid>right</parameterid>
													<name>right</name>
													<valuemin>0</valuemin>
													<valuemax>100</valuemax>
													<value>0</value>
												</parameter>
												<parameter>
													<parameterid>top</parameterid>
													<name>top</name>
													<valuemin>0</valuemin>
													<valuemax>100</valuemax>
													<value>0</value>
												</parameter>
												<parameter>
													<parameterid>bottom</parameterid>
													<name>bottom</name>
													<valuemin>0</valuemin>
													<valuemax>100</valuemax>
													<value>0</value>
												</parameter>
												<parameter>
													<parameterid>edgefeather</parameterid>
													<name>edgefeather</name>
													<valuemin>0</valuemin>
													<valuemax>100</valuemax>
													<value>0</value>
												</parameter>
											</effect>
										</filter>
										<filter>
											<effect>
												<name>Distort</name>
												<effectid>deformation</effectid>
												<effectcategory>motion</effectcategory>
												<effecttype>motion</effecttype>
												<mediatype>video</mediatype>
												<parameter>
													<parameterid>ulcorner</parameterid>
													<name>Upper Left</name>
													<value>
														<horiz>-0.5</horiz>
														<vert>-0.5</vert>
													</value>
												</parameter>
												<parameter>
													<parameterid>urcorner</parameterid>
													<name>Upper Right</name>
													<value>
														<horiz>0.5</horiz>
														<vert>-0.5</vert>
													</value>
												</parameter>
												<parameter>
													<parameterid>lrcorner</parameterid>
													<name>Lower Right</name>
													<value>
														<horiz>0.5</horiz>
														<vert>0.5</vert>
													</value>
												</parameter>
												<parameter>
													<parameterid>llcorner</parameterid>
													<name>Lower Left</name>
													<value>
														<horiz>-0.5</horiz>
														<vert>0.5</vert>
													</value>
												</parameter>
												<parameter>
													<parameterid>aspect</parameterid>
													<name>Aspect</name>
													<valuemin>-10000</valuemin>
													<valuemax>10000</valuemax>
													<value>0</value>
												</parameter>
											</effect>
										</filter>
										<sourcetrack>
											<mediatype>video</mediatype>
											<trackindex>1</trackindex>
										</sourcetrack>
										<fielddominance>none</fielddominance>
										<itemhistory>
											<uuid>35F6FE37-B2BF-463A-BAF4-BF702E98ACBB</uuid>
										</itemhistory>
									</clipitem>
									<enabled>TRUE</enabled>
									<locked>FALSE</locked>
								</track>
							</video>
							<audio>
								<format>
									<samplecharacteristics>
										<depth>16</depth>
										<samplerate>48000</samplerate>
									</samplecharacteristics>
								</format>
								<outputs>
									<group>
										<index>1</index>
										<numchannels>2</numchannels>
										<downmix>0</downmix>
										<channel>
											<index>1</index>
										</channel>
										<channel>
											<index>2</index>
										</channel>
									</group>
								</outputs>
								<in>-1</in>
								<out>-1</out>
								<track>
									<enabled>TRUE</enabled>
									<locked>FALSE</locked>
									<outputchannelindex>1</outputchannelindex>
								</track>
								<track>
									<enabled>TRUE</enabled>
									<locked>FALSE</locked>
									<outputchannelindex>2</outputchannelindex>
								</track>
								<track>
									<enabled>TRUE</enabled>
									<locked>FALSE</locked>
									<outputchannelindex>1</outputchannelindex>
								</track>
								<track>
									<enabled>TRUE</enabled>
									<locked>FALSE</locked>
									<outputchannelindex>2</outputchannelindex>
								</track>
								<filter>
									<effect>
										<name>Audio Levels</name>
										<effectid>audiolevels</effectid>
										<effectcategory>audiolevels</effectcategory>
										<effecttype>audiolevels</effecttype>
										<mediatype>audio</mediatype>
										<parameter>
											<name>Level</name>
											<parameterid>level</parameterid>
											<valuemin>0</valuemin>
											<valuemax>3.98109</valuemax>
											<value>1</value>
										</parameter>
									</effect>
								</filter>
							</audio>
						</media>
					</sequence>
					<sourcetrack>
						<mediatype>video</mediatype>
					</sourcetrack>
					<ismasterclip>FALSE</ismasterclip>
					<itemhistory>
						<uuid>45F79119-DB64-4562-AE15-4E16BDBC5323</uuid>
					</itemhistory>
				</clipitem>
				<clipitem id="Roll Hi-Con 2 - Logged">
					<name>Roll Hi-Con 2 - Logged</name>
					<duration>5035</duration>
					<rate>
						<ntsc>TRUE</ntsc>
						<timebase>30</timebase>
					</rate>
					<in>1260</in>
					<out>1611</out>
					<start>2038</start>
					<end>2389</end>
					<pixelaspectratio>NTSC-601</pixelaspectratio>
					<enabled>TRUE</enabled>
					<anamorphic>FALSE</anamorphic>
					<alphatype>none</alphatype>
					<masterclipid>Roll Hi-Con 2 - Logged1</masterclipid>
					<logginginfo>
						<scene/>
						<shottake/>
						<lognote/>
						<good>FALSE</good>
					</logginginfo>
					<labels>
						<label2/>
					</labels>
					<comments>
						<mastercomment1/>
						<mastercomment2/>
						<mastercomment3/>
						<mastercomment4/>
					</comments>
					<file id="Roll Hi-Con 2 - Logged2">
						<name>Roll Hi-Con 2 - Logged.mov</name>
						<pathurl>file://localhost/Volumes/FILMS/FROM%20AWAY/Roll%20Hi-Con%202%20-%20Logged.mov</pathurl>
						<rate>
							<timebase>24</timebase>
							<ntsc>TRUE</ntsc>
						</rate>
						<duration>4028</duration>
						<media>
							<video>
								<duration>4028</duration>
								<samplecharacteristics>
									<width>720</width>
									<height>486</height>
								</samplecharacteristics>
							</video>
						</media>
					</file>
					<sourcetrack>
						<mediatype>video</mediatype>
					</sourcetrack>
					<fielddominance>none</fielddominance>
					<itemhistory>
						<uuid>144636C9-2668-468B-BA7E-7382656BAFA8</uuid>
					</itemhistory>
				</clipitem>
				<clipitem id="Roll Hi-Con 2 - Logged3">
					<name>Roll Hi-Con 2 - Logged</name>
					<duration>5035</duration>
					<rate>
						<ntsc>TRUE</ntsc>
						<timebase>30</timebase>
					</rate>
					<in>3152</in>
					<out>3831</out>
					<start>2913</start>
					<end>3592</end>
					<pixelaspectratio>NTSC-601</pixelaspectratio>
					<enabled>TRUE</enabled>
					<anamorphic>FALSE</anamorphic>
					<alphatype>none</alphatype>
					<masterclipid>Roll Hi-Con 2 - Logged1</masterclipid>
					<logginginfo>
						<scene/>
						<shottake/>
						<lognote/>
						<good>FALSE</good>
					</logginginfo>
					<labels>
						<label2/>
					</labels>
					<comments>
						<mastercomment1/>
						<mastercomment2/>
						<mastercomment3/>
						<mastercomment4/>
					</comments>
					<file id="Roll Hi-Con 2 - Logged2"/>
					<sourcetrack>
						<mediatype>video</mediatype>
					</sourcetrack>
					<fielddominance>none</fielddominance>
					<itemhistory>
						<uuid>5B341228-9761-49F4-AB30-39242E75CB2C</uuid>
						<uuid>6B3C5B15-5269-4D4A-9813-76B3F8E54619</uuid>
					</itemhistory>
				</clipitem>
				<clipitem id="Roll Hi-Con 2 - Logged4">
					<name>Roll Hi-Con 2 - Logged</name>
					<duration>5035</duration>
					<rate>
						<ntsc>TRUE</ntsc>
						<timebase>30</timebase>
					</rate>
					<in>2582</in>
					<out>2700</out>
					<start>3850</start>
					<end>3968</end>
					<pixelaspectratio>NTSC-601</pixelaspectratio>
					<enabled>TRUE</enabled>
					<anamorphic>FALSE</anamorphic>
					<alphatype>none</alphatype>
					<masterclipid>Roll Hi-Con 2 - Logged1</masterclipid>
					<logginginfo>
						<scene/>
						<shottake/>
						<lognote/>
						<good>FALSE</good>
					</logginginfo>
					<labels>
						<label2/>
					</labels>
					<comments>
						<mastercomment1/>
						<mastercomment2/>
						<mastercomment3/>
						<mastercomment4/>
					</comments>
					<file id="Roll Hi-Con 2 - Logged2"/>
					<sourcetrack>
						<mediatype>video</mediatype>
					</sourcetrack>
					<fielddominance>none</fielddominance>
					<itemhistory>
						<uuid>1DB58388-6C20-4268-A6E3-FEA1EED114C9</uuid>
					</itemhistory>
				</clipitem>
				<clipitem id="Roll 2 - Logged-Pro-res Proxy - Silent">
					<name>Roll 2 - Logged-Pro-res Proxy - Silent</name>
					<duration>5083</duration>
					<rate>
						<ntsc>TRUE</ntsc>
						<timebase>30</timebase>
					</rate>
					<in>1064</in>
					<out>1268</out>
					<start>4068</start>
					<end>4272</end>
					<pixelaspectratio>NTSC-601</pixelaspectratio>
					<enabled>TRUE</enabled>
					<anamorphic>FALSE</anamorphic>
					<alphatype>none</alphatype>
					<masterclipid>Roll 2 - Logged-Pro-res Proxy - Silent1</masterclipid>
					<logginginfo>
						<scene/>
						<shottake/>
						<lognote/>
						<good>FALSE</good>
					</logginginfo>
					<labels>
						<label2/>
					</labels>
					<comments>
						<mastercomment1/>
						<mastercomment2/>
						<mastercomment3/>
						<mastercomment4/>
					</comments>
					<file id="Roll 2 - Logged-Pro-res Proxy - Silent2">
						<name>Roll 2 - Logged-Pro-res Proxy - Silent.mov</name>
						<pathurl>file://localhost/Volumes/FILMS/FROM%20AWAY/Roll%202%20-%20Logged-Pro-res%20Proxy%20-%20Silent.mov</pathurl>
						<rate>
							<timebase>30</timebase>
							<ntsc>TRUE</ntsc>
						</rate>
						<duration>5083</duration>
						<metadata>
							<storage>QuickTime</storage>
							<key>com.apple.finalcutstudio.media.uuid</key>
							<size>36</size>
							<type>UTF8</type>
							<value>85B0288A-E890-4AAF-BAA1-D33A420E2B76</value>
						</metadata>
						<timecode>
							<rate>
								<timebase>30</timebase>
								<ntsc>TRUE</ntsc>
							</rate>
							<string>01:00:00;00</string>
							<frame>107892</frame>
							<displayformat>DF</displayformat>
							<source>source</source>
						</timecode>
						<media>
							<video>
								<duration>5083</duration>
								<samplecharacteristics>
									<width>720</width>
									<height>486</height>
								</samplecharacteristics>
							</video>
						</media>
					</file>
					<sourcetrack>
						<mediatype>video</mediatype>
					</sourcetrack>
					<fielddominance>lower</fielddominance>
					<itemhistory>
						<uuid>14F1C13F-90EA-42DA-A914-C387F4D266D5</uuid>
						<uuid>7B64125C-39BA-4B79-95DB-F641F4B7E63A</uuid>
					</itemhistory>
				</clipitem>
				<clipitem id="Roll 1 - Logged-Pro-res Proxy - Silent">
					<name>Roll 1 - Logged-Pro-res Proxy - Silent</name>
					<duration>5071</duration>
					<rate>
						<ntsc>TRUE</ntsc>
						<timebase>30</timebase>
					</rate>
					<in>904</in>
					<out>1031</out>
					<start>4730</start>
					<end>4857</end>
					<pixelaspectratio>NTSC-601</pixelaspectratio>
					<enabled>TRUE</enabled>
					<anamorphic>FALSE</anamorphic>
					<alphatype>none</alphatype>
					<masterclipid>Roll 1 - Logged-Pro-res Proxy - Silent1</masterclipid>
					<logginginfo>
						<scene/>
						<shottake/>
						<lognote/>
						<good>FALSE</good>
					</logginginfo>
					<labels>
						<label2/>
					</labels>
					<comments>
						<mastercomment1/>
						<mastercomment2/>
						<mastercomment3/>
						<mastercomment4/>
					</comments>
					<file id="Roll 1 - Logged-Pro-res Proxy - Silent2">
						<name>Roll 1 - Logged-Pro-res Proxy - Silent.mov</name>
						<pathurl>file://localhost/Volumes/FILMS/FROM%20AWAY/Roll%201%20-%20Logged-Pro-res%20Proxy%20-%20Silent.mov</pathurl>
						<rate>
							<timebase>30</timebase>
							<ntsc>TRUE</ntsc>
						</rate>
						<duration>5071</duration>
						<metadata>
							<storage>QuickTime</storage>
							<key>com.apple.finalcutstudio.media.uuid</key>
							<size>36</size>
							<type>UTF8</type>
							<value>D3F3D0AB-CC49-4FA5-8A35-AAE1685FBCDF</value>
						</metadata>
						<timecode>
							<rate>
								<timebase>30</timebase>
								<ntsc>TRUE</ntsc>
							</rate>
							<string>01:00:00;00</string>
							<frame>107892</frame>
							<displayformat>DF</displayformat>
							<source>source</source>
						</timecode>
						<media>
							<video>
								<duration>5071</duration>
								<samplecharacteristics>
									<width>720</width>
									<height>486</height>
								</samplecharacteristics>
							</video>
						</media>
					</file>
					<filter>
						<enabled>TRUE</enabled>
						<start>-1</start>
						<end>-1</end>
						<effect>
							<name>Color Corrector</name>
							<effectid>Color Corrector</effectid>
							<effectcategory>Color Correction</effectcategory>
							<effecttype>filter</effecttype>
							<mediatype>video</mediatype>
							<parameter>
								<parameterid>dispmode</parameterid>
								<name>Display Mode</name>
								<valuemin>1</valuemin>
								<valuemax>3</valuemax>
								<valuelist>
									<valueentry>
										<name>Final</name>
										<value>1</value>
									</valueentry>
									<valueentry>
										<name>Matte</name>
										<value>2</value>
									</valueentry>
									<valueentry>
										<name>Source</name>
										<value>3</value>
									</valueentry>
								</valuelist>
								<value>1</value>
							</parameter>
							<parameter>
								<parameterid>label1</parameterid>
								<name>Level Controls</name>
								<value/>
							</parameter>
							<parameter>
								<parameterid>highlights</parameterid>
								<name>Highlights</name>
								<valuemin>64</valuemin>
								<valuemax>509</valuemax>
								<value>301</value>
							</parameter>
							<parameter>
								<parameterid>mids</parameterid>
								<name>Mids</name>
								<valuemin>0</valuemin>
								<valuemax>200</valuemax>
								<value>135</value>
							</parameter>
							<parameter>
								<parameterid>blacklevel</parameterid>
								<name>Blacks</name>
								<valuemin>-196</valuemin>
								<valuemax>254</valuemax>
								<value>0</value>
							</parameter>
							<parameter>
								<parameterid>label2</parameterid>
								<name>Color Balance</name>
								<value/>
							</parameter>
							<parameter>
								<parameterid>hue</parameterid>
								<name>Angle</name>
								<valuemin>-180</valuemin>
								<valuemax>180</valuemax>
								<value>124.18</value>
							</parameter>
							<parameter>
								<parameterid>mag</parameterid>
								<name>Magnitude</name>
								<valuemin>0</valuemin>
								<valuemax>200</valuemax>
								<value>189.059</value>
							</parameter>
							<parameter>
								<parameterid>label4</parameterid>
								<name>Color Controls</name>
								<value/>
							</parameter>
							<parameter>
								<parameterid>chroma</parameterid>
								<name>Saturation</name>
								<valuemin>0</valuemin>
								<valuemax>200</valuemax>
								<value>100</value>
							</parameter>
							<parameter>
								<parameterid>phase</parameterid>
								<name>Phase shift</name>
								<valuemin>-180</valuemin>
								<valuemax>180</valuemax>
								<value>0</value>
							</parameter>
							<parameter>
								<parameterid>label5</parameterid>
								<name>Limit Effect Controls</name>
								<value/>
							</parameter>
							<parameter>
								<parameterid>dochroma</parameterid>
								<name>Limit on Chroma</name>
								<value>FALSE</value>
							</parameter>
							<parameter>
								<parameterid>centerang</parameterid>
								<name>Chroma Center</name>
								<valuemin>-760</valuemin>
								<valuemax>760</valuemax>
								<value>-110</value>
							</parameter>
							<parameter>
								<parameterid>chromawidth</parameterid>
								<name>Chroma Width</name>
								<valuemin>0</valuemin>
								<valuemax>360</valuemax>
								<value>15</value>
							</parameter>
							<parameter>
								<parameterid>chromasoft</parameterid>
								<name>Chroma Softness</name>
								<valuemin>0</valuemin>
								<valuemax>180</valuemax>
								<value>10</value>
							</parameter>
							<parameter>
								<parameterid>dosat</parameterid>
								<name>Limit on Saturation</name>
								<value>FALSE</value>
							</parameter>
							<parameter>
								<parameterid>satmin</parameterid>
								<name>Sat. Minimum</name>
								<valuemin>0</valuemin>
								<valuemax>125</valuemax>
								<value>35</value>
							</parameter>
							<parameter>
								<parameterid>satwidth</parameterid>
								<name>Sat. Width</name>
								<valuemin>0</valuemin>
								<valuemax>125</valuemax>
								<value>40</value>
							</parameter>
							<parameter>
								<parameterid>satsoft</parameterid>
								<name>Sat. Softness</name>
								<valuemin>0</valuemin>
								<valuemax>125</valuemax>
								<value>20</value>
							</parameter>
							<parameter>
								<parameterid>doluma</parameterid>
								<name>Limit on Luma</name>
								<value>FALSE</value>
							</parameter>
							<parameter>
								<parameterid>lumamin</parameterid>
								<name>Luma Minimum</name>
								<valuemin>0</valuemin>
								<valuemax>120</valuemax>
								<value>0</value>
							</parameter>
							<parameter>
								<parameterid>lumawidth</parameterid>
								<name>Luma Width</name>
								<valuemin>0</valuemin>
								<valuemax>120</valuemax>
								<value>40</value>
							</parameter>
							<parameter>
								<parameterid>lumasoft</parameterid>
								<name>Luma Softness</name>
								<valuemin>0</valuemin>
								<valuemax>120</valuemax>
								<value>20</value>
							</parameter>
							<parameter>
								<parameterid>label6</parameterid>
								<name>Edge Control</name>
								<value/>
							</parameter>
							<parameter>
								<parameterid>edgethin</parameterid>
								<name>Thin/Spread</name>
								<valuemin>-100</valuemin>
								<valuemax>100</valuemax>
								<value>0</value>
							</parameter>
							<parameter>
								<parameterid>edgefeather</parameterid>
								<name>Softening</name>
								<valuemin>0</valuemin>
								<valuemax>100</valuemax>
								<value>0</value>
							</parameter>
							<parameter>
								<parameterid>label7</parameterid>
								<name>Mask Control</name>
								<value/>
							</parameter>
							<parameter>
								<parameterid>invertsel</parameterid>
								<name>Invert</name>
								<value>FALSE</value>
							</parameter>
							<parameter>
								<parameterid>debugshow</parameterid>
								<name>Show Stats</name>
								<value>FALSE</value>
							</parameter>
						</effect>
					</filter>
					<sourcetrack>
						<mediatype>video</mediatype>
					</sourcetrack>
					<fielddominance>lower</fielddominance>
					<itemhistory>
						<uuid>54DA5C75-4E5C-4DC5-9A8B-8D9C09544AC8</uuid>
					</itemhistory>
				</clipitem>
				<clipitem id="Roll 1 - Logged-Pro-res Proxy - Silent3">
					<name>Roll 1 - Logged-Pro-res Proxy - Silent</name>
					<duration>5071</duration>
					<rate>
						<ntsc>TRUE</ntsc>
						<timebase>30</timebase>
					</rate>
					<in>1485</in>
					<out>1684</out>
					<start>4857</start>
					<end>5056</end>
					<pixelaspectratio>NTSC-601</pixelaspectratio>
					<enabled>TRUE</enabled>
					<anamorphic>FALSE</anamorphic>
					<alphatype>none</alphatype>
					<masterclipid>Roll 1 - Logged-Pro-res Proxy - Silent1</masterclipid>
					<logginginfo>
						<scene/>
						<shottake/>
						<lognote/>
						<good>FALSE</good>
					</logginginfo>
					<labels>
						<label2/>
					</labels>
					<comments>
						<mastercomment1/>
						<mastercomment2/>
						<mastercomment3/>
						<mastercomment4/>
					</comments>
					<file id="Roll 1 - Logged-Pro-res Proxy - Silent2"/>
					<sourcetrack>
						<mediatype>video</mediatype>
					</sourcetrack>
					<fielddominance>lower</fielddominance>
					<itemhistory>
						<uuid>FE8186D9-420A-4105-A38B-0FFA454A1050</uuid>
					</itemhistory>
				</clipitem>
				<clipitem id="Roll 6 - Logged-Pro-res Proxy - Silent">
					<name>Roll 6 - Logged-Pro-res Proxy - Silent</name>
					<duration>5269</duration>
					<rate>
						<ntsc>TRUE</ntsc>
						<timebase>30</timebase>
					</rate>
					<in>2557</in>
					<out>2674</out>
					<start>5618</start>
					<end>5735</end>
					<pixelaspectratio>NTSC-601</pixelaspectratio>
					<enabled>TRUE</enabled>
					<anamorphic>FALSE</anamorphic>
					<alphatype>none</alphatype>
					<masterclipid>Roll 6 - Logged-Pro-res Proxy - Silent1</masterclipid>
					<logginginfo>
						<scene/>
						<shottake/>
						<lognote/>
						<good>FALSE</good>
					</logginginfo>
					<labels>
						<label2/>
					</labels>
					<comments>
						<mastercomment1/>
						<mastercomment2/>
						<mastercomment3/>
						<mastercomment4/>
					</comments>
					<file id="Roll 6 - Logged-Pro-res Proxy - Silent2">
						<name>Roll 6 - Logged-Pro-res Proxy - Silent.mov</name>
						<pathurl>file://localhost/Volumes/FILMS/FROM%20AWAY/Roll%206%20-%20Logged-Pro-res%20Proxy%20-%20Silent.mov</pathurl>
						<rate>
							<timebase>30</timebase>
							<ntsc>TRUE</ntsc>
						</rate>
						<duration>5269</duration>
						<metadata>
							<storage>QuickTime</storage>
							<key>com.apple.finalcutstudio.media.uuid</key>
							<size>36</size>
							<type>UTF8</type>
							<value>052DD2D1-B4BD-4C8E-89B9-C3EDC0E5C5D8</value>
						</metadata>
						<timecode>
							<rate>
								<timebase>30</timebase>
								<ntsc>TRUE</ntsc>
							</rate>
							<string>01:00:00;00</string>
							<frame>107892</frame>
							<displayformat>DF</displayformat>
							<source>source</source>
						</timecode>
						<media>
							<video>
								<duration>5269</duration>
								<samplecharacteristics>
									<width>720</width>
									<height>486</height>
								</samplecharacteristics>
							</video>
						</media>
					</file>
					<sourcetrack>
						<mediatype>video</mediatype>
					</sourcetrack>
					<fielddominance>lower</fielddominance>
					<itemhistory>
						<uuid>179B9B23-1E75-4976-9AC3-13D4140500BD</uuid>
					</itemhistory>
				</clipitem>
				<clipitem id="Roll 1 - Logged-Pro-res Proxy - Silent4">
					<name>Roll 1 - Logged-Pro-res Proxy - Silent</name>
					<duration>5071</duration>
					<rate>
						<ntsc>TRUE</ntsc>
						<timebase>30</timebase>
					</rate>
					<in>1209</in>
					<out>1444</out>
					<start>5868</start>
					<end>6103</end>
					<pixelaspectratio>NTSC-601</pixelaspectratio>
					<enabled>TRUE</enabled>
					<anamorphic>FALSE</anamorphic>
					<alphatype>none</alphatype>
					<masterclipid>Roll 1 - Logged-Pro-res Proxy - Silent1</masterclipid>
					<logginginfo>
						<scene/>
						<shottake/>
						<lognote/>
						<good>FALSE</good>
					</logginginfo>
					<labels>
						<label2/>
					</labels>
					<comments>
						<mastercomment1/>
						<mastercomment2/>
						<mastercomment3/>
						<mastercomment4/>
					</comments>
					<file id="Roll 1 - Logged-Pro-res Proxy - Silent2"/>
					<sourcetrack>
						<mediatype>video</mediatype>
					</sourcetrack>
					<fielddominance>lower</fielddominance>
					<itemhistory>
						<uuid>2040054B-6C3D-4C99-B0B0-FB45469EE8A9</uuid>
					</itemhistory>
				</clipitem>
				<clipitem id="Roll 2 - Logged-Pro-res Proxy - Silent3">
					<name>Roll 2 - Logged-Pro-res Proxy - Silent</name>
					<duration>5083</duration>
					<rate>
						<ntsc>TRUE</ntsc>
						<timebase>30</timebase>
					</rate>
					<in>2115</in>
					<out>2269</out>
					<start>6215</start>
					<end>6369</end>
					<pixelaspectratio>NTSC-601</pixelaspectratio>
					<enabled>TRUE</enabled>
					<anamorphic>FALSE</anamorphic>
					<alphatype>none</alphatype>
					<masterclipid>Roll 2 - Logged-Pro-res Proxy - Silent1</masterclipid>
					<logginginfo>
						<scene/>
						<shottake/>
						<lognote/>
						<good>FALSE</good>
					</logginginfo>
					<labels>
						<label2/>
					</labels>
					<comments>
						<mastercomment1/>
						<mastercomment2/>
						<mastercomment3/>
						<mastercomment4/>
					</comments>
					<file id="Roll 2 - Logged-Pro-res Proxy - Silent2"/>
					<sourcetrack>
						<mediatype>video</mediatype>
					</sourcetrack>
					<fielddominance>lower</fielddominance>
					<itemhistory>
						<uuid>C97BDB75-A0D7-4522-8AD7-97E70975AABB</uuid>
					</itemhistory>
				</clipitem>
				<clipitem id="Roll BW 1 ">
					<name>Roll BW 1</name>
					<duration>5196</duration>
					<rate>
						<ntsc>TRUE</ntsc>
						<timebase>30</timebase>
					</rate>
					<in>1818</in>
					<out>3002</out>
					<start>7109</start>
					<end>8293</end>
					<pixelaspectratio>NTSC-601</pixelaspectratio>
					<enabled>TRUE</enabled>
					<anamorphic>FALSE</anamorphic>
					<alphatype>none</alphatype>
					<masterclipid>Roll BW 1 1</masterclipid>
					<logginginfo>
						<scene/>
						<shottake/>
						<lognote/>
						<good>FALSE</good>
					</logginginfo>
					<labels>
						<label2/>
					</labels>
					<comments>
						<mastercomment1/>
						<mastercomment2/>
						<mastercomment3/>
						<mastercomment4/>
					</comments>
					<file id="Roll BW 1 2">
						<name>Roll BW 1.mov</name>
						<pathurl>file://localhost/Volumes/FILMS/FROM%20AWAY/Roll%20BW%201.mov</pathurl>
						<rate>
							<timebase>30</timebase>
							<ntsc>TRUE</ntsc>
						</rate>
						<duration>5196</duration>
						<media>
							<video>
								<duration>5196</duration>
								<samplecharacteristics>
									<width>720</width>
									<height>486</height>
								</samplecharacteristics>
							</video>
						</media>
					</file>
					<filter>
						<enabled>TRUE</enabled>
						<start>-1</start>
						<end>-1</end>
						<effect>
							<name>Color Corrector</name>
							<effectid>Color Corrector</effectid>
							<effectcategory>Color Correction</effectcategory>
							<effecttype>filter</effecttype>
							<mediatype>video</mediatype>
							<parameter>
								<parameterid>dispmode</parameterid>
								<name>Display Mode</name>
								<valuemin>1</valuemin>
								<valuemax>3</valuemax>
								<valuelist>
									<valueentry>
										<name>Final</name>
										<value>1</value>
									</valueentry>
									<valueentry>
										<name>Matte</name>
										<value>2</value>
									</valueentry>
									<valueentry>
										<name>Source</name>
										<value>3</value>
									</valueentry>
								</valuelist>
								<value>1</value>
							</parameter>
							<parameter>
								<parameterid>label1</parameterid>
								<name>Level Controls</name>
								<value/>
							</parameter>
							<parameter>
								<parameterid>highlights</parameterid>
								<name>Highlights</name>
								<valuemin>64</valuemin>
								<valuemax>509</valuemax>
								<value>262</value>
							</parameter>
							<parameter>
								<parameterid>mids</parameterid>
								<name>Mids</name>
								<valuemin>0</valuemin>
								<valuemax>200</valuemax>
								<value>124</value>
							</parameter>
							<parameter>
								<parameterid>blacklevel</parameterid>
								<name>Blacks</name>
								<valuemin>-196</valuemin>
								<valuemax>254</valuemax>
								<value>5</value>
							</parameter>
							<parameter>
								<parameterid>label2</parameterid>
								<name>Color Balance</name>
								<value/>
							</parameter>
							<parameter>
								<parameterid>hue</parameterid>
								<name>Angle</name>
								<valuemin>-180</valuemin>
								<valuemax>180</valuemax>
								<value>-33</value>
							</parameter>
							<parameter>
								<parameterid>mag</parameterid>
								<name>Magnitude</name>
								<valuemin>0</valuemin>
								<valuemax>200</valuemax>
								<value>0</value>
							</parameter>
							<parameter>
								<parameterid>label4</parameterid>
								<name>Color Controls</name>
								<value/>
							</parameter>
							<parameter>
								<parameterid>chroma</parameterid>
								<name>Saturation</name>
								<valuemin>0</valuemin>
								<valuemax>200</valuemax>
								<value>100</value>
							</parameter>
							<parameter>
								<parameterid>phase</parameterid>
								<name>Phase shift</name>
								<valuemin>-180</valuemin>
								<valuemax>180</valuemax>
								<value>0</value>
							</parameter>
							<parameter>
								<parameterid>label5</parameterid>
								<name>Limit Effect Controls</name>
								<value/>
							</parameter>
							<parameter>
								<parameterid>dochroma</parameterid>
								<name>Limit on Chroma</name>
								<value>FALSE</value>
							</parameter>
							<parameter>
								<parameterid>centerang</parameterid>
								<name>Chroma Center</name>
								<valuemin>-760</valuemin>
								<valuemax>760</valuemax>
								<value>-110</value>
							</parameter>
							<parameter>
								<parameterid>chromawidth</parameterid>
								<name>Chroma Width</name>
								<valuemin>0</valuemin>
								<valuemax>360</valuemax>
								<value>15</value>
							</parameter>
							<parameter>
								<parameterid>chromasoft</parameterid>
								<name>Chroma Softness</name>
								<valuemin>0</valuemin>
								<valuemax>180</valuemax>
								<value>10</value>
							</parameter>
							<parameter>
								<parameterid>dosat</parameterid>
								<name>Limit on Saturation</name>
								<value>FALSE</value>
							</parameter>
							<parameter>
								<parameterid>satmin</parameterid>
								<name>Sat. Minimum</name>
								<valuemin>0</valuemin>
								<valuemax>125</valuemax>
								<value>35</value>
							</parameter>
							<parameter>
								<parameterid>satwidth</parameterid>
								<name>Sat. Width</name>
								<valuemin>0</valuemin>
								<valuemax>125</valuemax>
								<value>40</value>
							</parameter>
							<parameter>
								<parameterid>satsoft</parameterid>
								<name>Sat. Softness</name>
								<valuemin>0</valuemin>
								<valuemax>125</valuemax>
								<value>20</value>
							</parameter>
							<parameter>
								<parameterid>doluma</parameterid>
								<name>Limit on Luma</name>
								<value>FALSE</value>
							</parameter>
							<parameter>
								<parameterid>lumamin</parameterid>
								<name>Luma Minimum</name>
								<valuemin>0</valuemin>
								<valuemax>120</valuemax>
								<value>0</value>
							</parameter>
							<parameter>
								<parameterid>lumawidth</parameterid>
								<name>Luma Width</name>
								<valuemin>0</valuemin>
								<valuemax>120</valuemax>
								<value>40</value>
							</parameter>
							<parameter>
								<parameterid>lumasoft</parameterid>
								<name>Luma Softness</name>
								<valuemin>0</valuemin>
								<valuemax>120</valuemax>
								<value>20</value>
							</parameter>
							<parameter>
								<parameterid>label6</parameterid>
								<name>Edge Control</name>
								<value/>
							</parameter>
							<parameter>
								<parameterid>edgethin</parameterid>
								<name>Thin/Spread</name>
								<valuemin>-100</valuemin>
								<valuemax>100</valuemax>
								<value>0</value>
							</parameter>
							<parameter>
								<parameterid>edgefeather</parameterid>
								<name>Softening</name>
								<valuemin>0</valuemin>
								<valuemax>100</valuemax>
								<value>0</value>
							</parameter>
							<parameter>
								<parameterid>label7</parameterid>
								<name>Mask Control</name>
								<value/>
							</parameter>
							<parameter>
								<parameterid>invertsel</parameterid>
								<name>Invert</name>
								<value>FALSE</value>
							</parameter>
							<parameter>
								<parameterid>debugshow</parameterid>
								<name>Show Stats</name>
								<value>FALSE</value>
							</parameter>
						</effect>
					</filter>
					<sourcetrack>
						<mediatype>video</mediatype>
					</sourcetrack>
					<fielddominance>none</fielddominance>
					<itemhistory>
						<uuid>B997BB84-5C36-4492-B758-B3D73BA5C346</uuid>
					</itemhistory>
				</clipitem>
				<clipitem id="Roll BW 1 3">
					<name>Roll BW 1</name>
					<duration>5196</duration>
					<rate>
						<ntsc>TRUE</ntsc>
						<timebase>30</timebase>
					</rate>
					<in>4691</in>
					<out>5196</out>
					<start>8724</start>
					<end>9229</end>
					<pixelaspectratio>NTSC-601</pixelaspectratio>
					<enabled>TRUE</enabled>
					<anamorphic>FALSE</anamorphic>
					<alphatype>none</alphatype>
					<masterclipid>Roll BW 1 1</masterclipid>
					<logginginfo>
						<scene/>
						<shottake/>
						<lognote/>
						<good>FALSE</good>
					</logginginfo>
					<labels>
						<label2/>
					</labels>
					<comments>
						<mastercomment1/>
						<mastercomment2/>
						<mastercomment3/>
						<mastercomment4/>
					</comments>
					<file id="Roll BW 1 2"/>
					<filter>
						<enabled>TRUE</enabled>
						<start>-1</start>
						<end>-1</end>
						<effect>
							<name>Color Corrector</name>
							<effectid>Color Corrector</effectid>
							<effectcategory>Color Correction</effectcategory>
							<effecttype>filter</effecttype>
							<mediatype>video</mediatype>
							<parameter>
								<parameterid>dispmode</parameterid>
								<name>Display Mode</name>
								<valuemin>1</valuemin>
								<valuemax>3</valuemax>
								<valuelist>
									<valueentry>
										<name>Final</name>
										<value>1</value>
									</valueentry>
									<valueentry>
										<name>Matte</name>
										<value>2</value>
									</valueentry>
									<valueentry>
										<name>Source</name>
										<value>3</value>
									</valueentry>
								</valuelist>
								<value>1</value>
							</parameter>
							<parameter>
								<parameterid>label1</parameterid>
								<name>Level Controls</name>
								<value/>
							</parameter>
							<parameter>
								<parameterid>highlights</parameterid>
								<name>Highlights</name>
								<valuemin>64</valuemin>
								<valuemax>509</valuemax>
								<value>407</value>
							</parameter>
							<parameter>
								<parameterid>mids</parameterid>
								<name>Mids</name>
								<valuemin>0</valuemin>
								<valuemax>200</valuemax>
								<value>153</value>
							</parameter>
							<parameter>
								<parameterid>blacklevel</parameterid>
								<name>Blacks</name>
								<valuemin>-196</valuemin>
								<valuemax>254</valuemax>
								<value>-3</value>
							</parameter>
							<parameter>
								<parameterid>label2</parameterid>
								<name>Color Balance</name>
								<value/>
							</parameter>
							<parameter>
								<parameterid>hue</parameterid>
								<name>Angle</name>
								<valuemin>-180</valuemin>
								<valuemax>180</valuemax>
								<value>-33</value>
							</parameter>
							<parameter>
								<parameterid>mag</parameterid>
								<name>Magnitude</name>
								<valuemin>0</valuemin>
								<valuemax>200</valuemax>
								<value>0</value>
							</parameter>
							<parameter>
								<parameterid>label4</parameterid>
								<name>Color Controls</name>
								<value/>
							</parameter>
							<parameter>
								<parameterid>chroma</parameterid>
								<name>Saturation</name>
								<valuemin>0</valuemin>
								<valuemax>200</valuemax>
								<value>100</value>
							</parameter>
							<parameter>
								<parameterid>phase</parameterid>
								<name>Phase shift</name>
								<valuemin>-180</valuemin>
								<valuemax>180</valuemax>
								<value>0</value>
							</parameter>
							<parameter>
								<parameterid>label5</parameterid>
								<name>Limit Effect Controls</name>
								<value/>
							</parameter>
							<parameter>
								<parameterid>dochroma</parameterid>
								<name>Limit on Chroma</name>
								<value>FALSE</value>
							</parameter>
							<parameter>
								<parameterid>centerang</parameterid>
								<name>Chroma Center</name>
								<valuemin>-760</valuemin>
								<valuemax>760</valuemax>
								<value>-110</value>
							</parameter>
							<parameter>
								<parameterid>chromawidth</parameterid>
								<name>Chroma Width</name>
								<valuemin>0</valuemin>
								<valuemax>360</valuemax>
								<value>15</value>
							</parameter>
							<parameter>
								<parameterid>chromasoft</parameterid>
								<name>Chroma Softness</name>
								<valuemin>0</valuemin>
								<valuemax>180</valuemax>
								<value>10</value>
							</parameter>
							<parameter>
								<parameterid>dosat</parameterid>
								<name>Limit on Saturation</name>
								<value>FALSE</value>
							</parameter>
							<parameter>
								<parameterid>satmin</parameterid>
								<name>Sat. Minimum</name>
								<valuemin>0</valuemin>
								<valuemax>125</valuemax>
								<value>35</value>
							</parameter>
							<parameter>
								<parameterid>satwidth</parameterid>
								<name>Sat. Width</name>
								<valuemin>0</valuemin>
								<valuemax>125</valuemax>
								<value>40</value>
							</parameter>
							<parameter>
								<parameterid>satsoft</parameterid>
								<name>Sat. Softness</name>
								<valuemin>0</valuemin>
								<valuemax>125</valuemax>
								<value>20</value>
							</parameter>
							<parameter>
								<parameterid>doluma</parameterid>
								<name>Limit on Luma</name>
								<value>FALSE</value>
							</parameter>
							<parameter>
								<parameterid>lumamin</parameterid>
								<name>Luma Minimum</name>
								<valuemin>0</valuemin>
								<valuemax>120</valuemax>
								<value>0</value>
							</parameter>
							<parameter>
								<parameterid>lumawidth</parameterid>
								<name>Luma Width</name>
								<valuemin>0</valuemin>
								<valuemax>120</valuemax>
								<value>40</value>
							</parameter>
							<parameter>
								<parameterid>lumasoft</parameterid>
								<name>Luma Softness</name>
								<valuemin>0</valuemin>
								<valuemax>120</valuemax>
								<value>20</value>
							</parameter>
							<parameter>
								<parameterid>label6</parameterid>
								<name>Edge Control</name>
								<value/>
							</parameter>
							<parameter>
								<parameterid>edgethin</parameterid>
								<name>Thin/Spread</name>
								<valuemin>-100</valuemin>
								<valuemax>100</valuemax>
								<value>0</value>
							</parameter>
							<parameter>
								<parameterid>edgefeather</parameterid>
								<name>Softening</name>
								<valuemin>0</valuemin>
								<valuemax>100</valuemax>
								<value>0</value>
							</parameter>
							<parameter>
								<parameterid>label7</parameterid>
								<name>Mask Control</name>
								<value/>
							</parameter>
							<parameter>
								<parameterid>invertsel</parameterid>
								<name>Invert</name>
								<value>FALSE</value>
							</parameter>
							<parameter>
								<parameterid>debugshow</parameterid>
								<name>Show Stats</name>
								<value>FALSE</value>
							</parameter>
						</effect>
					</filter>
					<sourcetrack>
						<mediatype>video</mediatype>
					</sourcetrack>
					<fielddominance>none</fielddominance>
					<itemhistory>
						<uuid>4588AB27-7737-411F-953F-4D45D43B5392</uuid>
					</itemhistory>
				</clipitem>
				<clipitem id="Roll 8 - Logged-Pro-res Proxy - Silent">
					<name>Roll 8 - Logged-Pro-res Proxy - Silent</name>
					<duration>4308</duration>
					<rate>
						<ntsc>TRUE</ntsc>
						<timebase>30</timebase>
					</rate>
					<in>3088</in>
					<out>4160</out>
					<start>9455</start>
					<end>10527</end>
					<pixelaspectratio>NTSC-601</pixelaspectratio>
					<enabled>TRUE</enabled>
					<anamorphic>FALSE</anamorphic>
					<alphatype>none</alphatype>
					<masterclipid>Roll 8 - Logged-Pro-res Proxy - Silent1</masterclipid>
					<logginginfo>
						<scene/>
						<shottake/>
						<lognote/>
						<good>FALSE</good>
					</logginginfo>
					<labels>
						<label2/>
					</labels>
					<comments>
						<mastercomment1/>
						<mastercomment2/>
						<mastercomment3/>
						<mastercomment4/>
					</comments>
					<file id="Roll 8 - Logged-Pro-res Proxy - Silent2">
						<name>Roll 8 - Logged-Pro-res Proxy - Silent.mov</name>
						<pathurl>file://localhost/Volumes/FILMS/FROM%20AWAY/Roll%208%20-%20Logged-Pro-res%20Proxy%20-%20Silent.mov</pathurl>
						<rate>
							<timebase>30</timebase>
							<ntsc>TRUE</ntsc>
						</rate>
						<duration>4308</duration>
						<metadata>
							<storage>QuickTime</storage>
							<key>com.apple.finalcutstudio.media.uuid</key>
							<size>36</size>
							<type>UTF8</type>
							<value>B02A39E5-8A29-4312-861E-4844F73287D3</value>
						</metadata>
						<timecode>
							<rate>
								<timebase>30</timebase>
								<ntsc>TRUE</ntsc>
							</rate>
							<string>01:00:00;00</string>
							<frame>107892</frame>
							<displayformat>DF</displayformat>
							<source>source</source>
						</timecode>
						<media>
							<video>
								<duration>4308</duration>
								<samplecharacteristics>
									<width>720</width>
									<height>486</height>
								</samplecharacteristics>
							</video>
						</media>
					</file>
					<sourcetrack>
						<mediatype>video</mediatype>
					</sourcetrack>
					<fielddominance>lower</fielddominance>
					<itemhistory>
						<uuid>2DD74EE5-F627-443A-B594-C66FCB76F8C7</uuid>
					</itemhistory>
				</clipitem>
				<clipitem id="Roll 2 - Logged-Pro-res Proxy - Silent4">
					<name>Roll 2 - Logged-Pro-res Proxy - Silent</name>
					<duration>5083</duration>
					<rate>
						<ntsc>TRUE</ntsc>
						<timebase>30</timebase>
					</rate>
					<in>4934</in>
					<out>5083</out>
					<start>11076</start>
					<end>11225</end>
					<pixelaspectratio>NTSC-601</pixelaspectratio>
					<enabled>TRUE</enabled>
					<anamorphic>FALSE</anamorphic>
					<alphatype>none</alphatype>
					<masterclipid>Roll 2 - Logged-Pro-res Proxy - Silent1</masterclipid>
					<logginginfo>
						<scene/>
						<shottake/>
						<lognote/>
						<good>FALSE</good>
					</logginginfo>
					<labels>
						<label2/>
					</labels>
					<comments>
						<mastercomment1/>
						<mastercomment2/>
						<mastercomment3/>
						<mastercomment4/>
					</comments>
					<file id="Roll 2 - Logged-Pro-res Proxy - Silent2"/>
					<sourcetrack>
						<mediatype>video</mediatype>
					</sourcetrack>
					<fielddominance>lower</fielddominance>
					<itemhistory>
						<uuid>F4D1A273-055D-44DD-8E72-9A352E43F509</uuid>
					</itemhistory>
				</clipitem>
				<clipitem id="Roll 2 - Logged-Pro-res Proxy - Silent5">
					<name>Roll 2 - Logged-Pro-res Proxy - Silent</name>
					<duration>5083</duration>
					<rate>
						<ntsc>TRUE</ntsc>
						<timebase>30</timebase>
					</rate>
					<in>3325</in>
					<out>3581</out>
					<start>11225</start>
					<end>11481</end>
					<pixelaspectratio>NTSC-601</pixelaspectratio>
					<enabled>TRUE</enabled>
					<anamorphic>FALSE</anamorphic>
					<alphatype>none</alphatype>
					<masterclipid>Roll 2 - Logged-Pro-res Proxy - Silent1</masterclipid>
					<logginginfo>
						<scene/>
						<shottake/>
						<lognote/>
						<good>FALSE</good>
					</logginginfo>
					<labels>
						<label2/>
					</labels>
					<comments>
						<mastercomment1/>
						<mastercomment2/>
						<mastercomment3/>
						<mastercomment4/>
					</comments>
					<file id="Roll 2 - Logged-Pro-res Proxy - Silent2"/>
					<marker>
						<name>Marker 1</name>
						<comment/>
						<color>
							<alpha>0</alpha>
							<red>255</red>
							<green>0</green>
							<blue>0</blue>
						</color>
						<in>3368</in>
						<out>-1</out>
					</marker>
					<sourcetrack>
						<mediatype>video</mediatype>
					</sourcetrack>
					<fielddominance>lower</fielddominance>
					<itemhistory>
						<uuid>F56DF2DE-133B-4BF5-B9C1-3A2A8362A65A</uuid>
						<uuid>F76DF40B-9C11-433D-A2CF-F5DC1141A892</uuid>
					</itemhistory>
				</clipitem>
				<clipitem id="Roll 2 - Logged-Pro-res Proxy - Silent6">
					<name>Roll 2 - Logged-Pro-res Proxy - Silent</name>
					<duration>5083</duration>
					<rate>
						<ntsc>TRUE</ntsc>
						<timebase>30</timebase>
					</rate>
					<in>3719</in>
					<out>4290</out>
					<start>11914</start>
					<end>12485</end>
					<pixelaspectratio>NTSC-601</pixelaspectratio>
					<enabled>TRUE</enabled>
					<anamorphic>FALSE</anamorphic>
					<alphatype>none</alphatype>
					<masterclipid>Roll 2 - Logged-Pro-res Proxy - Silent1</masterclipid>
					<logginginfo>
						<scene/>
						<shottake/>
						<lognote/>
						<good>FALSE</good>
					</logginginfo>
					<labels>
						<label2/>
					</labels>
					<comments>
						<mastercomment1/>
						<mastercomment2/>
						<mastercomment3/>
						<mastercomment4/>
					</comments>
					<file id="Roll 2 - Logged-Pro-res Proxy - Silent2"/>
					<marker>
						<name>Marker 1</name>
						<comment/>
						<color>
							<alpha>0</alpha>
							<red>255</red>
							<green>0</green>
							<blue>0</blue>
						</color>
						<in>3368</in>
						<out>-1</out>
					</marker>
					<sourcetrack>
						<mediatype>video</mediatype>
					</sourcetrack>
					<fielddominance>lower</fielddominance>
					<itemhistory>
						<uuid>B55303B2-CA0C-443F-B2D9-2B50F7E4DEE0</uuid>
						<uuid>F76DF40B-9C11-433D-A2CF-F5DC1141A892</uuid>
					</itemhistory>
				</clipitem>
				<clipitem id="Roll 2 - Logged-Pro-res Proxy - Silent7">
					<name>Roll 2 - Logged-Pro-res Proxy - Silent</name>
					<duration>5083</duration>
					<rate>
						<ntsc>TRUE</ntsc>
						<timebase>30</timebase>
					</rate>
					<in>4295</in>
					<out>4792</out>
					<start>12485</start>
					<end>12982</end>
					<pixelaspectratio>NTSC-601</pixelaspectratio>
					<enabled>TRUE</enabled>
					<anamorphic>FALSE</anamorphic>
					<alphatype>none</alphatype>
					<masterclipid>Roll 2 - Logged-Pro-res Proxy - Silent1</masterclipid>
					<logginginfo>
						<scene/>
						<shottake/>
						<lognote/>
						<good>FALSE</good>
					</logginginfo>
					<labels>
						<label2/>
					</labels>
					<comments>
						<mastercomment1/>
						<mastercomment2/>
						<mastercomment3/>
						<mastercomment4/>
					</comments>
					<file id="Roll 2 - Logged-Pro-res Proxy - Silent2"/>
					<sourcetrack>
						<mediatype>video</mediatype>
					</sourcetrack>
					<fielddominance>lower</fielddominance>
					<itemhistory>
						<uuid>F1374752-D998-4082-B2FC-8CD918620288</uuid>
					</itemhistory>
				</clipitem>
				<clipitem id="Roll 4 - Logged-Pro-res Proxy - Silent">
					<name>Roll 4 - Logged-Pro-res Proxy - Silent</name>
					<duration>5231</duration>
					<rate>
						<ntsc>TRUE</ntsc>
						<timebase>30</timebase>
					</rate>
					<in>2460</in>
					<out>3019</out>
					<start>13066</start>
					<end>13625</end>
					<pixelaspectratio>NTSC-601</pixelaspectratio>
					<enabled>TRUE</enabled>
					<anamorphic>FALSE</anamorphic>
					<alphatype>none</alphatype>
					<masterclipid>Roll 4 - Logged-Pro-res Proxy - Silent1</masterclipid>
					<logginginfo>
						<scene/>
						<shottake/>
						<lognote/>
						<good>FALSE</good>
					</logginginfo>
					<labels>
						<label2/>
					</labels>
					<comments>
						<mastercomment1/>
						<mastercomment2/>
						<mastercomment3/>
						<mastercomment4/>
					</comments>
					<file id="Roll 4 - Logged-Pro-res Proxy - Silent2">
						<name>Roll 4 - Logged-Pro-res Proxy - Silent.mov</name>
						<pathurl>file://localhost/Volumes/FILMS/FROM%20AWAY/Roll%204%20-%20Logged-Pro-res%20Proxy%20-%20Silent.mov</pathurl>
						<rate>
							<timebase>30</timebase>
							<ntsc>TRUE</ntsc>
						</rate>
						<duration>5231</duration>
						<metadata>
							<storage>QuickTime</storage>
							<key>com.apple.finalcutstudio.media.uuid</key>
							<size>36</size>
							<type>UTF8</type>
							<value>F8153D6F-38DC-48EB-90E6-A46D67CAE5C0</value>
						</metadata>
						<timecode>
							<rate>
								<timebase>30</timebase>
								<ntsc>TRUE</ntsc>
							</rate>
							<string>01:00:00;00</string>
							<frame>107892</frame>
							<displayformat>DF</displayformat>
							<source>source</source>
						</timecode>
						<media>
							<video>
								<duration>5231</duration>
								<samplecharacteristics>
									<width>720</width>
									<height>486</height>
								</samplecharacteristics>
							</video>
						</media>
					</file>
					<sourcetrack>
						<mediatype>video</mediatype>
					</sourcetrack>
					<fielddominance>lower</fielddominance>
					<itemhistory>
						<uuid>1C51CDF0-F967-4A51-A194-3118D4837C14</uuid>
					</itemhistory>
				</clipitem>
				<clipitem id="Roll 7 - Logged-Pro-res Proxy - Silent">
					<name>Roll 7 - Logged-Pro-res Proxy - Silent</name>
					<duration>4695</duration>
					<rate>
						<ntsc>TRUE</ntsc>
						<timebase>30</timebase>
					</rate>
					<in>1025</in>
					<out>1774</out>
					<start>14025</start>
					<end>14774</end>
					<pixelaspectratio>NTSC-601</pixelaspectratio>
					<enabled>TRUE</enabled>
					<anamorphic>FALSE</anamorphic>
					<alphatype>none</alphatype>
					<masterclipid>Roll 7 - Logged-Pro-res Proxy - Silent1</masterclipid>
					<logginginfo>
						<scene/>
						<shottake/>
						<lognote/>
						<good>FALSE</good>
					</logginginfo>
					<labels>
						<label2/>
					</labels>
					<comments>
						<mastercomment1/>
						<mastercomment2/>
						<mastercomment3/>
						<mastercomment4/>
					</comments>
					<file id="Roll 7 - Logged-Pro-res Proxy - Silent2">
						<name>Roll 7 - Logged-Pro-res Proxy - Silent.mov</name>
						<pathurl>file://localhost/Volumes/FILMS/FROM%20AWAY/Roll%207%20-%20Logged-Pro-res%20Proxy%20-%20Silent.mov</pathurl>
						<rate>
							<timebase>30</timebase>
							<ntsc>TRUE</ntsc>
						</rate>
						<duration>4695</duration>
						<metadata>
							<storage>QuickTime</storage>
							<key>com.apple.finalcutstudio.media.uuid</key>
							<size>36</size>
							<type>UTF8</type>
							<value>D8C7154E-2BC4-46D2-A289-E7707AEEC48B</value>
						</metadata>
						<timecode>
							<rate>
								<timebase>30</timebase>
								<ntsc>TRUE</ntsc>
							</rate>
							<string>01:00:00;00</string>
							<frame>107892</frame>
							<displayformat>DF</displayformat>
							<source>source</source>
						</timecode>
						<media>
							<video>
								<duration>4695</duration>
								<samplecharacteristics>
									<width>720</width>
									<height>486</height>
								</samplecharacteristics>
							</video>
						</media>
					</file>
					<filter>
						<enabled>TRUE</enabled>
						<start>-1</start>
						<end>-1</end>
						<effect>
							<name>Color Corrector</name>
							<effectid>Color Corrector</effectid>
							<effectcategory>Color Correction</effectcategory>
							<effecttype>filter</effecttype>
							<mediatype>video</mediatype>
							<parameter>
								<parameterid>dispmode</parameterid>
								<name>Display Mode</name>
								<valuemin>1</valuemin>
								<valuemax>3</valuemax>
								<valuelist>
									<valueentry>
										<name>Final</name>
										<value>1</value>
									</valueentry>
									<valueentry>
										<name>Matte</name>
										<value>2</value>
									</valueentry>
									<valueentry>
										<name>Source</name>
										<value>3</value>
									</valueentry>
								</valuelist>
								<value>1</value>
							</parameter>
							<parameter>
								<parameterid>label1</parameterid>
								<name>Level Controls</name>
								<value/>
							</parameter>
							<parameter>
								<parameterid>highlights</parameterid>
								<name>Highlights</name>
								<valuemin>64</valuemin>
								<valuemax>509</valuemax>
								<value>255</value>
							</parameter>
							<parameter>
								<parameterid>mids</parameterid>
								<name>Mids</name>
								<valuemin>0</valuemin>
								<valuemax>200</valuemax>
								<value>100</value>
							</parameter>
							<parameter>
								<parameterid>blacklevel</parameterid>
								<name>Blacks</name>
								<valuemin>-196</valuemin>
								<valuemax>254</valuemax>
								<value>0</value>
							</parameter>
							<parameter>
								<parameterid>label2</parameterid>
								<name>Color Balance</name>
								<value/>
							</parameter>
							<parameter>
								<parameterid>hue</parameterid>
								<name>Angle</name>
								<valuemin>-180</valuemin>
								<valuemax>180</valuemax>
								<value>164.772</value>
							</parameter>
							<parameter>
								<parameterid>mag</parameterid>
								<name>Magnitude</name>
								<valuemin>0</valuemin>
								<valuemax>200</valuemax>
								<value>41.0975</value>
							</parameter>
							<parameter>
								<parameterid>label4</parameterid>
								<name>Color Controls</name>
								<value/>
							</parameter>
							<parameter>
								<parameterid>chroma</parameterid>
								<name>Saturation</name>
								<valuemin>0</valuemin>
								<valuemax>200</valuemax>
								<value>100</value>
							</parameter>
							<parameter>
								<parameterid>phase</parameterid>
								<name>Phase shift</name>
								<valuemin>-180</valuemin>
								<valuemax>180</valuemax>
								<value>0</value>
							</parameter>
							<parameter>
								<parameterid>label5</parameterid>
								<name>Limit Effect Controls</name>
								<value/>
							</parameter>
							<parameter>
								<parameterid>dochroma</parameterid>
								<name>Limit on Chroma</name>
								<value>FALSE</value>
							</parameter>
							<parameter>
								<parameterid>centerang</parameterid>
								<name>Chroma Center</name>
								<valuemin>-760</valuemin>
								<valuemax>760</valuemax>
								<value>-110</value>
							</parameter>
							<parameter>
								<parameterid>chromawidth</parameterid>
								<name>Chroma Width</name>
								<valuemin>0</valuemin>
								<valuemax>360</valuemax>
								<value>15</value>
							</parameter>
							<parameter>
								<parameterid>chromasoft</parameterid>
								<name>Chroma Softness</name>
								<valuemin>0</valuemin>
								<valuemax>180</valuemax>
								<value>10</value>
							</parameter>
							<parameter>
								<parameterid>dosat</parameterid>
								<name>Limit on Saturation</name>
								<value>FALSE</value>
							</parameter>
							<parameter>
								<parameterid>satmin</parameterid>
								<name>Sat. Minimum</name>
								<valuemin>0</valuemin>
								<valuemax>125</valuemax>
								<value>35</value>
							</parameter>
							<parameter>
								<parameterid>satwidth</parameterid>
								<name>Sat. Width</name>
								<valuemin>0</valuemin>
								<valuemax>125</valuemax>
								<value>40</value>
							</parameter>
							<parameter>
								<parameterid>satsoft</parameterid>
								<name>Sat. Softness</name>
								<valuemin>0</valuemin>
								<valuemax>125</valuemax>
								<value>20</value>
							</parameter>
							<parameter>
								<parameterid>doluma</parameterid>
								<name>Limit on Luma</name>
								<value>FALSE</value>
							</parameter>
							<parameter>
								<parameterid>lumamin</parameterid>
								<name>Luma Minimum</name>
								<valuemin>0</valuemin>
								<valuemax>120</valuemax>
								<value>0</value>
							</parameter>
							<parameter>
								<parameterid>lumawidth</parameterid>
								<name>Luma Width</name>
								<valuemin>0</valuemin>
								<valuemax>120</valuemax>
								<value>40</value>
							</parameter>
							<parameter>
								<parameterid>lumasoft</parameterid>
								<name>Luma Softness</name>
								<valuemin>0</valuemin>
								<valuemax>120</valuemax>
								<value>20</value>
							</parameter>
							<parameter>
								<parameterid>label6</parameterid>
								<name>Edge Control</name>
								<value/>
							</parameter>
							<parameter>
								<parameterid>edgethin</parameterid>
								<name>Thin/Spread</name>
								<valuemin>-100</valuemin>
								<valuemax>100</valuemax>
								<value>0</value>
							</parameter>
							<parameter>
								<parameterid>edgefeather</parameterid>
								<name>Softening</name>
								<valuemin>0</valuemin>
								<valuemax>100</valuemax>
								<value>0</value>
							</parameter>
							<parameter>
								<parameterid>label7</parameterid>
								<name>Mask Control</name>
								<value/>
							</parameter>
							<parameter>
								<parameterid>invertsel</parameterid>
								<name>Invert</name>
								<value>FALSE</value>
							</parameter>
							<parameter>
								<parameterid>debugshow</parameterid>
								<name>Show Stats</name>
								<value>FALSE</value>
							</parameter>
						</effect>
					</filter>
					<sourcetrack>
						<mediatype>video</mediatype>
					</sourcetrack>
					<fielddominance>lower</fielddominance>
					<itemhistory>
						<uuid>F9729C62-F017-416F-BBC7-732EECB49DCE</uuid>
					</itemhistory>
				</clipitem>
				<clipitem id="Roll 7 - Logged-Pro-res Proxy - Silent3">
					<name>Roll 7 - Logged-Pro-res Proxy - Silent</name>
					<duration>4695</duration>
					<rate>
						<ntsc>TRUE</ntsc>
						<timebase>30</timebase>
					</rate>
					<in>0</in>
					<out>861</out>
					<start>14774</start>
					<end>15635</end>
					<pixelaspectratio>NTSC-601</pixelaspectratio>
					<enabled>TRUE</enabled>
					<anamorphic>FALSE</anamorphic>
					<alphatype>none</alphatype>
					<masterclipid>Roll 7 - Logged-Pro-res Proxy - Silent1</masterclipid>
					<logginginfo>
						<scene/>
						<shottake/>
						<lognote/>
						<good>FALSE</good>
					</logginginfo>
					<labels>
						<label2/>
					</labels>
					<comments>
						<mastercomment1/>
						<mastercomment2/>
						<mastercomment3/>
						<mastercomment4/>
					</comments>
					<file id="Roll 7 - Logged-Pro-res Proxy - Silent2"/>
					<filter>
						<enabled>TRUE</enabled>
						<start>-1</start>
						<end>-1</end>
						<effect>
							<name>Color Corrector</name>
							<effectid>Color Corrector</effectid>
							<effectcategory>Color Correction</effectcategory>
							<effecttype>filter</effecttype>
							<mediatype>video</mediatype>
							<parameter>
								<parameterid>dispmode</parameterid>
								<name>Display Mode</name>
								<valuemin>1</valuemin>
								<valuemax>3</valuemax>
								<valuelist>
									<valueentry>
										<name>Final</name>
										<value>1</value>
									</valueentry>
									<valueentry>
										<name>Matte</name>
										<value>2</value>
									</valueentry>
									<valueentry>
										<name>Source</name>
										<value>3</value>
									</valueentry>
								</valuelist>
								<value>1</value>
							</parameter>
							<parameter>
								<parameterid>label1</parameterid>
								<name>Level Controls</name>
								<value/>
							</parameter>
							<parameter>
								<parameterid>highlights</parameterid>
								<name>Highlights</name>
								<valuemin>64</valuemin>
								<valuemax>509</valuemax>
								<value>255</value>
							</parameter>
							<parameter>
								<parameterid>mids</parameterid>
								<name>Mids</name>
								<valuemin>0</valuemin>
								<valuemax>200</valuemax>
								<value>113</value>
							</parameter>
							<parameter>
								<parameterid>blacklevel</parameterid>
								<name>Blacks</name>
								<valuemin>-196</valuemin>
								<valuemax>254</valuemax>
								<value>0</value>
							</parameter>
							<parameter>
								<parameterid>label2</parameterid>
								<name>Color Balance</name>
								<value/>
							</parameter>
							<parameter>
								<parameterid>hue</parameterid>
								<name>Angle</name>
								<valuemin>-180</valuemin>
								<valuemax>180</valuemax>
								<value>174.949</value>
							</parameter>
							<parameter>
								<parameterid>mag</parameterid>
								<name>Magnitude</name>
								<valuemin>0</valuemin>
								<valuemax>200</valuemax>
								<value>34.3178</value>
							</parameter>
							<parameter>
								<parameterid>label4</parameterid>
								<name>Color Controls</name>
								<value/>
							</parameter>
							<parameter>
								<parameterid>chroma</parameterid>
								<name>Saturation</name>
								<valuemin>0</valuemin>
								<valuemax>200</valuemax>
								<value>100</value>
							</parameter>
							<parameter>
								<parameterid>phase</parameterid>
								<name>Phase shift</name>
								<valuemin>-180</valuemin>
								<valuemax>180</valuemax>
								<value>0</value>
							</parameter>
							<parameter>
								<parameterid>label5</parameterid>
								<name>Limit Effect Controls</name>
								<value/>
							</parameter>
							<parameter>
								<parameterid>dochroma</parameterid>
								<name>Limit on Chroma</name>
								<value>FALSE</value>
							</parameter>
							<parameter>
								<parameterid>centerang</parameterid>
								<name>Chroma Center</name>
								<valuemin>-760</valuemin>
								<valuemax>760</valuemax>
								<value>-110</value>
							</parameter>
							<parameter>
								<parameterid>chromawidth</parameterid>
								<name>Chroma Width</name>
								<valuemin>0</valuemin>
								<valuemax>360</valuemax>
								<value>15</value>
							</parameter>
							<parameter>
								<parameterid>chromasoft</parameterid>
								<name>Chroma Softness</name>
								<valuemin>0</valuemin>
								<valuemax>180</valuemax>
								<value>10</value>
							</parameter>
							<parameter>
								<parameterid>dosat</parameterid>
								<name>Limit on Saturation</name>
								<value>FALSE</value>
							</parameter>
							<parameter>
								<parameterid>satmin</parameterid>
								<name>Sat. Minimum</name>
								<valuemin>0</valuemin>
								<valuemax>125</valuemax>
								<value>35</value>
							</parameter>
							<parameter>
								<parameterid>satwidth</parameterid>
								<name>Sat. Width</name>
								<valuemin>0</valuemin>
								<valuemax>125</valuemax>
								<value>40</value>
							</parameter>
							<parameter>
								<parameterid>satsoft</parameterid>
								<name>Sat. Softness</name>
								<valuemin>0</valuemin>
								<valuemax>125</valuemax>
								<value>20</value>
							</parameter>
							<parameter>
								<parameterid>doluma</parameterid>
								<name>Limit on Luma</name>
								<value>FALSE</value>
							</parameter>
							<parameter>
								<parameterid>lumamin</parameterid>
								<name>Luma Minimum</name>
								<valuemin>0</valuemin>
								<valuemax>120</valuemax>
								<value>0</value>
							</parameter>
							<parameter>
								<parameterid>lumawidth</parameterid>
								<name>Luma Width</name>
								<valuemin>0</valuemin>
								<valuemax>120</valuemax>
								<value>40</value>
							</parameter>
							<parameter>
								<parameterid>lumasoft</parameterid>
								<name>Luma Softness</name>
								<valuemin>0</valuemin>
								<valuemax>120</valuemax>
								<value>20</value>
							</parameter>
							<parameter>
								<parameterid>label6</parameterid>
								<name>Edge Control</name>
								<value/>
							</parameter>
							<parameter>
								<parameterid>edgethin</parameterid>
								<name>Thin/Spread</name>
								<valuemin>-100</valuemin>
								<valuemax>100</valuemax>
								<value>0</value>
							</parameter>
							<parameter>
								<parameterid>edgefeather</parameterid>
								<name>Softening</name>
								<valuemin>0</valuemin>
								<valuemax>100</valuemax>
								<value>0</value>
							</parameter>
							<parameter>
								<parameterid>label7</parameterid>
								<name>Mask Control</name>
								<value/>
							</parameter>
							<parameter>
								<parameterid>invertsel</parameterid>
								<name>Invert</name>
								<value>FALSE</value>
							</parameter>
							<parameter>
								<parameterid>debugshow</parameterid>
								<name>Show Stats</name>
								<value>FALSE</value>
							</parameter>
						</effect>
					</filter>
					<sourcetrack>
						<mediatype>video</mediatype>
					</sourcetrack>
					<fielddominance>lower</fielddominance>
					<itemhistory>
						<uuid>1A3A924F-8AB4-4C20-BFDF-20FBDDEBB673</uuid>
					</itemhistory>
				</clipitem>
				<clipitem id="Roll 8 - Logged-Pro-res Proxy - Silent3">
					<name>Roll 8 - Logged-Pro-res Proxy - Silent</name>
					<duration>4308</duration>
					<rate>
						<ntsc>TRUE</ntsc>
						<timebase>30</timebase>
					</rate>
					<in>1628</in>
					<out>1699</out>
					<start>15853</start>
					<end>15924</end>
					<pixelaspectratio>NTSC-601</pixelaspectratio>
					<enabled>TRUE</enabled>
					<anamorphic>FALSE</anamorphic>
					<alphatype>none</alphatype>
					<masterclipid>Roll 8 - Logged-Pro-res Proxy - Silent1</masterclipid>
					<logginginfo>
						<scene/>
						<shottake/>
						<lognote/>
						<good>FALSE</good>
					</logginginfo>
					<labels>
						<label2/>
					</labels>
					<comments>
						<mastercomment1/>
						<mastercomment2/>
						<mastercomment3/>
						<mastercomment4/>
					</comments>
					<file id="Roll 8 - Logged-Pro-res Proxy - Silent2"/>
					<filter>
						<enabled>TRUE</enabled>
						<start>-1</start>
						<end>-1</end>
						<effect>
							<name>Color Corrector</name>
							<effectid>Color Corrector</effectid>
							<effectcategory>Color Correction</effectcategory>
							<effecttype>filter</effecttype>
							<mediatype>video</mediatype>
							<parameter>
								<parameterid>dispmode</parameterid>
								<name>Display Mode</name>
								<valuemin>1</valuemin>
								<valuemax>3</valuemax>
								<valuelist>
									<valueentry>
										<name>Final</name>
										<value>1</value>
									</valueentry>
									<valueentry>
										<name>Matte</name>
										<value>2</value>
									</valueentry>
									<valueentry>
										<name>Source</name>
										<value>3</value>
									</valueentry>
								</valuelist>
								<value>1</value>
							</parameter>
							<parameter>
								<parameterid>label1</parameterid>
								<name>Level Controls</name>
								<value/>
							</parameter>
							<parameter>
								<parameterid>highlights</parameterid>
								<name>Highlights</name>
								<valuemin>64</valuemin>
								<valuemax>509</valuemax>
								<value>255</value>
							</parameter>
							<parameter>
								<parameterid>mids</parameterid>
								<name>Mids</name>
								<valuemin>0</valuemin>
								<valuemax>200</valuemax>
								<value>111</value>
							</parameter>
							<parameter>
								<parameterid>blacklevel</parameterid>
								<name>Blacks</name>
								<valuemin>-196</valuemin>
								<valuemax>254</valuemax>
								<value>0</value>
							</parameter>
							<parameter>
								<parameterid>label2</parameterid>
								<name>Color Balance</name>
								<value/>
							</parameter>
							<parameter>
								<parameterid>hue</parameterid>
								<name>Angle</name>
								<valuemin>-180</valuemin>
								<valuemax>180</valuemax>
								<value>166.769</value>
							</parameter>
							<parameter>
								<parameterid>mag</parameterid>
								<name>Magnitude</name>
								<valuemin>0</valuemin>
								<valuemax>200</valuemax>
								<value>17.4815</value>
							</parameter>
							<parameter>
								<parameterid>label4</parameterid>
								<name>Color Controls</name>
								<value/>
							</parameter>
							<parameter>
								<parameterid>chroma</parameterid>
								<name>Saturation</name>
								<valuemin>0</valuemin>
								<valuemax>200</valuemax>
								<value>100</value>
							</parameter>
							<parameter>
								<parameterid>phase</parameterid>
								<name>Phase shift</name>
								<valuemin>-180</valuemin>
								<valuemax>180</valuemax>
								<value>0</value>
							</parameter>
							<parameter>
								<parameterid>label5</parameterid>
								<name>Limit Effect Controls</name>
								<value/>
							</parameter>
							<parameter>
								<parameterid>dochroma</parameterid>
								<name>Limit on Chroma</name>
								<value>FALSE</value>
							</parameter>
							<parameter>
								<parameterid>centerang</parameterid>
								<name>Chroma Center</name>
								<valuemin>-760</valuemin>
								<valuemax>760</valuemax>
								<value>-110</value>
							</parameter>
							<parameter>
								<parameterid>chromawidth</parameterid>
								<name>Chroma Width</name>
								<valuemin>0</valuemin>
								<valuemax>360</valuemax>
								<value>15</value>
							</parameter>
							<parameter>
								<parameterid>chromasoft</parameterid>
								<name>Chroma Softness</name>
								<valuemin>0</valuemin>
								<valuemax>180</valuemax>
								<value>10</value>
							</parameter>
							<parameter>
								<parameterid>dosat</parameterid>
								<name>Limit on Saturation</name>
								<value>FALSE</value>
							</parameter>
							<parameter>
								<parameterid>satmin</parameterid>
								<name>Sat. Minimum</name>
								<valuemin>0</valuemin>
								<valuemax>125</valuemax>
								<value>35</value>
							</parameter>
							<parameter>
								<parameterid>satwidth</parameterid>
								<name>Sat. Width</name>
								<valuemin>0</valuemin>
								<valuemax>125</valuemax>
								<value>40</value>
							</parameter>
							<parameter>
								<parameterid>satsoft</parameterid>
								<name>Sat. Softness</name>
								<valuemin>0</valuemin>
								<valuemax>125</valuemax>
								<value>20</value>
							</parameter>
							<parameter>
								<parameterid>doluma</parameterid>
								<name>Limit on Luma</name>
								<value>FALSE</value>
							</parameter>
							<parameter>
								<parameterid>lumamin</parameterid>
								<name>Luma Minimum</name>
								<valuemin>0</valuemin>
								<valuemax>120</valuemax>
								<value>0</value>
							</parameter>
							<parameter>
								<parameterid>lumawidth</parameterid>
								<name>Luma Width</name>
								<valuemin>0</valuemin>
								<valuemax>120</valuemax>
								<value>40</value>
							</parameter>
							<parameter>
								<parameterid>lumasoft</parameterid>
								<name>Luma Softness</name>
								<valuemin>0</valuemin>
								<valuemax>120</valuemax>
								<value>20</value>
							</parameter>
							<parameter>
								<parameterid>label6</parameterid>
								<name>Edge Control</name>
								<value/>
							</parameter>
							<parameter>
								<parameterid>edgethin</parameterid>
								<name>Thin/Spread</name>
								<valuemin>-100</valuemin>
								<valuemax>100</valuemax>
								<value>0</value>
							</parameter>
							<parameter>
								<parameterid>edgefeather</parameterid>
								<name>Softening</name>
								<valuemin>0</valuemin>
								<valuemax>100</valuemax>
								<value>0</value>
							</parameter>
							<parameter>
								<parameterid>label7</parameterid>
								<name>Mask Control</name>
								<value/>
							</parameter>
							<parameter>
								<parameterid>invertsel</parameterid>
								<name>Invert</name>
								<value>FALSE</value>
							</parameter>
							<parameter>
								<parameterid>debugshow</parameterid>
								<name>Show Stats</name>
								<value>FALSE</value>
							</parameter>
						</effect>
					</filter>
					<sourcetrack>
						<mediatype>video</mediatype>
					</sourcetrack>
					<fielddominance>lower</fielddominance>
					<itemhistory>
						<uuid>428F1289-0E4E-479C-A0CA-A24832B72F22</uuid>
					</itemhistory>
				</clipitem>
				<clipitem id="Roll 3 - Logged-Pro-res Proxy - Silent3">
					<name>Roll 3 - Logged-Pro-res Proxy - Silent</name>
					<duration>5311</duration>
					<rate>
						<ntsc>TRUE</ntsc>
						<timebase>30</timebase>
					</rate>
					<in>4736</in>
					<out>4853</out>
					<start>16393</start>
					<end>16510</end>
					<pixelaspectratio>NTSC-601</pixelaspectratio>
					<enabled>TRUE</enabled>
					<anamorphic>FALSE</anamorphic>
					<alphatype>none</alphatype>
					<masterclipid>Roll 3 - Logged-Pro-res Proxy - Silent1</masterclipid>
					<logginginfo>
						<scene/>
						<shottake/>
						<lognote/>
						<good>FALSE</good>
					</logginginfo>
					<labels>
						<label2/>
					</labels>
					<comments>
						<mastercomment1/>
						<mastercomment2/>
						<mastercomment3/>
						<mastercomment4/>
					</comments>
					<file id="Roll 3 - Logged-Pro-res Proxy - Silent2"/>
					<sourcetrack>
						<mediatype>video</mediatype>
					</sourcetrack>
					<fielddominance>lower</fielddominance>
					<itemhistory>
						<uuid>98B150EE-554A-46E1-88B4-263E0EA47932</uuid>
						<uuid>43C28B04-FED7-4214-8318-5FF6886F9007</uuid>
					</itemhistory>
				</clipitem>
				<clipitem id="Roll 3 - Logged-Pro-res Proxy - Silent4">
					<name>Roll 3 - Logged-Pro-res Proxy - Silent</name>
					<duration>5311</duration>
					<rate>
						<ntsc>TRUE</ntsc>
						<timebase>30</timebase>
					</rate>
					<in>3244</in>
					<out>3279</out>
					<start>16510</start>
					<end>16545</end>
					<pixelaspectratio>NTSC-601</pixelaspectratio>
					<enabled>TRUE</enabled>
					<anamorphic>FALSE</anamorphic>
					<alphatype>none</alphatype>
					<masterclipid>Roll 3 - Logged-Pro-res Proxy - Silent1</masterclipid>
					<logginginfo>
						<scene/>
						<shottake/>
						<lognote/>
						<good>FALSE</good>
					</logginginfo>
					<labels>
						<label2/>
					</labels>
					<comments>
						<mastercomment1/>
						<mastercomment2/>
						<mastercomment3/>
						<mastercomment4/>
					</comments>
					<file id="Roll 3 - Logged-Pro-res Proxy - Silent2"/>
					<sourcetrack>
						<mediatype>video</mediatype>
					</sourcetrack>
					<fielddominance>lower</fielddominance>
					<itemhistory>
						<uuid>727861C5-BBCE-4283-9A96-844918F214B8</uuid>
						<uuid>22FE892E-C558-4A52-B39A-41DC88F4636A</uuid>
					</itemhistory>
				</clipitem>
				<clipitem id="Roll 3 - Logged-Pro-res Proxy - Silent5">
					<name>Roll 3 - Logged-Pro-res Proxy - Silent</name>
					<duration>5311</duration>
					<rate>
						<ntsc>TRUE</ntsc>
						<timebase>30</timebase>
					</rate>
					<in>3543</in>
					<out>3724</out>
					<start>16676</start>
					<end>16857</end>
					<pixelaspectratio>NTSC-601</pixelaspectratio>
					<enabled>TRUE</enabled>
					<anamorphic>FALSE</anamorphic>
					<alphatype>none</alphatype>
					<masterclipid>Roll 3 - Logged-Pro-res Proxy - Silent1</masterclipid>
					<logginginfo>
						<scene/>
						<shottake/>
						<lognote/>
						<good>FALSE</good>
					</logginginfo>
					<labels>
						<label2/>
					</labels>
					<comments>
						<mastercomment1/>
						<mastercomment2/>
						<mastercomment3/>
						<mastercomment4/>
					</comments>
					<file id="Roll 3 - Logged-Pro-res Proxy - Silent2"/>
					<sourcetrack>
						<mediatype>video</mediatype>
					</sourcetrack>
					<fielddominance>lower</fielddominance>
					<itemhistory>
						<uuid>56D83142-9F66-45E8-A2F2-2397D8016AA0</uuid>
						<uuid>43C28B04-FED7-4214-8318-5FF6886F9007</uuid>
					</itemhistory>
				</clipitem>
				<clipitem id="Roll 3 - Logged-Pro-res Proxy - Silent6">
					<name>Roll 3 - Logged-Pro-res Proxy - Silent</name>
					<duration>5311</duration>
					<rate>
						<ntsc>TRUE</ntsc>
						<timebase>30</timebase>
					</rate>
					<in>3846</in>
					<out>4047</out>
					<start>16972</start>
					<end>17173</end>
					<pixelaspectratio>NTSC-601</pixelaspectratio>
					<enabled>TRUE</enabled>
					<anamorphic>FALSE</anamorphic>
					<alphatype>none</alphatype>
					<masterclipid>Roll 3 - Logged-Pro-res Proxy - Silent1</masterclipid>
					<logginginfo>
						<scene/>
						<shottake/>
						<lognote/>
						<good>FALSE</good>
					</logginginfo>
					<labels>
						<label2/>
					</labels>
					<comments>
						<mastercomment1/>
						<mastercomment2/>
						<mastercomment3/>
						<mastercomment4/>
					</comments>
					<file id="Roll 3 - Logged-Pro-res Proxy - Silent2"/>
					<sourcetrack>
						<mediatype>video</mediatype>
					</sourcetrack>
					<fielddominance>lower</fielddominance>
					<itemhistory>
						<uuid>1ECFB780-FF1A-4B6C-A6AA-B32DA51B1A94</uuid>
						<uuid>43C28B04-FED7-4214-8318-5FF6886F9007</uuid>
					</itemhistory>
				</clipitem>
				<clipitem id="Roll 3 - Logged-Pro-res Proxy - Silent7">
					<name>Roll 3 - Logged-Pro-res Proxy - Silent</name>
					<duration>5311</duration>
					<rate>
						<ntsc>TRUE</ntsc>
						<timebase>30</timebase>
					</rate>
					<in>4394</in>
					<out>4511</out>
					<start>17391</start>
					<end>17508</end>
					<pixelaspectratio>NTSC-601</pixelaspectratio>
					<enabled>TRUE</enabled>
					<anamorphic>FALSE</anamorphic>
					<alphatype>none</alphatype>
					<masterclipid>Roll 3 - Logged-Pro-res Proxy - Silent1</masterclipid>
					<logginginfo>
						<scene/>
						<shottake/>
						<lognote/>
						<good>FALSE</good>
					</logginginfo>
					<labels>
						<label2/>
					</labels>
					<comments>
						<mastercomment1/>
						<mastercomment2/>
						<mastercomment3/>
						<mastercomment4/>
					</comments>
					<file id="Roll 3 - Logged-Pro-res Proxy - Silent2"/>
					<sourcetrack>
						<mediatype>video</mediatype>
					</sourcetrack>
					<fielddominance>lower</fielddominance>
					<itemhistory>
						<uuid>3CC2ED6F-F021-4FF0-A9DD-DF74ABC84EDD</uuid>
						<uuid>43C28B04-FED7-4214-8318-5FF6886F9007</uuid>
					</itemhistory>
				</clipitem>
				<clipitem id="Roll 4 - Logged-Pro-res Proxy - Silent3">
					<name>Roll 4 - Logged-Pro-res Proxy - Silent</name>
					<duration>5231</duration>
					<rate>
						<ntsc>TRUE</ntsc>
						<timebase>30</timebase>
					</rate>
					<in>251</in>
					<out>706</out>
					<start>17933</start>
					<end>18388</end>
					<pixelaspectratio>NTSC-601</pixelaspectratio>
					<enabled>TRUE</enabled>
					<anamorphic>FALSE</anamorphic>
					<alphatype>none</alphatype>
					<masterclipid>Roll 4 - Logged-Pro-res Proxy - Silent1</masterclipid>
					<logginginfo>
						<scene/>
						<shottake/>
						<lognote/>
						<good>FALSE</good>
					</logginginfo>
					<labels>
						<label2/>
					</labels>
					<comments>
						<mastercomment1/>
						<mastercomment2/>
						<mastercomment3/>
						<mastercomment4/>
					</comments>
					<file id="Roll 4 - Logged-Pro-res Proxy - Silent2"/>
					<sourcetrack>
						<mediatype>video</mediatype>
					</sourcetrack>
					<fielddominance>lower</fielddominance>
					<itemhistory>
						<uuid>FBC92464-E3F6-4066-95DD-5D5B822688D4</uuid>
					</itemhistory>
				</clipitem>
				<clipitem id="Roll 6 - Logged-Pro-res Proxy - Silent3">
					<name>Roll 6 - Logged-Pro-res Proxy - Silent</name>
					<duration>5269</duration>
					<rate>
						<ntsc>TRUE</ntsc>
						<timebase>30</timebase>
					</rate>
					<in>1116</in>
					<out>1560</out>
					<start>18928</start>
					<end>19372</end>
					<pixelaspectratio>NTSC-601</pixelaspectratio>
					<enabled>TRUE</enabled>
					<anamorphic>FALSE</anamorphic>
					<alphatype>none</alphatype>
					<masterclipid>Roll 6 - Logged-Pro-res Proxy - Silent1</masterclipid>
					<logginginfo>
						<scene/>
						<shottake/>
						<lognote/>
						<good>FALSE</good>
					</logginginfo>
					<labels>
						<label2/>
					</labels>
					<comments>
						<mastercomment1/>
						<mastercomment2/>
						<mastercomment3/>
						<mastercomment4/>
					</comments>
					<file id="Roll 6 - Logged-Pro-res Proxy - Silent2"/>
					<sourcetrack>
						<mediatype>video</mediatype>
					</sourcetrack>
					<fielddominance>lower</fielddominance>
					<itemhistory>
						<uuid>764C5545-A791-42D1-AA23-F41874BC360E</uuid>
					</itemhistory>
				</clipitem>
				<clipitem id="Roll 6 - Logged-Pro-res Proxy - Silent4">
					<name>Roll 6 - Logged-Pro-res Proxy - Silent</name>
					<duration>5269</duration>
					<rate>
						<ntsc>TRUE</ntsc>
						<timebase>30</timebase>
					</rate>
					<in>4157</in>
					<out>4386</out>
					<start>19804</start>
					<end>20033</end>
					<pixelaspectratio>NTSC-601</pixelaspectratio>
					<enabled>TRUE</enabled>
					<anamorphic>FALSE</anamorphic>
					<alphatype>none</alphatype>
					<masterclipid>Roll 6 - Logged-Pro-res Proxy - Silent1</masterclipid>
					<logginginfo>
						<scene/>
						<shottake/>
						<lognote/>
						<good>FALSE</good>
					</logginginfo>
					<labels>
						<label2/>
					</labels>
					<comments>
						<mastercomment1/>
						<mastercomment2/>
						<mastercomment3/>
						<mastercomment4/>
					</comments>
					<file id="Roll 6 - Logged-Pro-res Proxy - Silent2"/>
					<sourcetrack>
						<mediatype>video</mediatype>
					</sourcetrack>
					<fielddominance>lower</fielddominance>
					<itemhistory>
						<uuid>57595B85-384D-4688-B1F9-7EAB9777AB12</uuid>
					</itemhistory>
				</clipitem>
				<clipitem id="Roll Hi-Con 1 - Logged">
					<name>Roll Hi-Con 1 - Logged</name>
					<duration>3634</duration>
					<rate>
						<ntsc>TRUE</ntsc>
						<timebase>30</timebase>
					</rate>
					<in>1938</in>
					<out>2164</out>
					<start>20219</start>
					<end>20445</end>
					<pixelaspectratio>NTSC-601</pixelaspectratio>
					<enabled>TRUE</enabled>
					<anamorphic>FALSE</anamorphic>
					<alphatype>none</alphatype>
					<masterclipid>Roll Hi-Con 1 - Logged1</masterclipid>
					<logginginfo>
						<scene/>
						<shottake/>
						<lognote/>
						<good>FALSE</good>
					</logginginfo>
					<labels>
						<label2/>
					</labels>
					<comments>
						<mastercomment1/>
						<mastercomment2/>
						<mastercomment3/>
						<mastercomment4/>
					</comments>
					<file id="Roll Hi-Con 1 - Logged2">
						<name>Roll Hi-Con 1 - Logged.mov</name>
						<pathurl>file://localhost/Volumes/FILMS/FROM%20AWAY/Roll%20Hi-Con%201%20-%20Logged.mov</pathurl>
						<rate>
							<timebase>24</timebase>
							<ntsc>TRUE</ntsc>
						</rate>
						<duration>2907</duration>
						<media>
							<video>
								<duration>2907</duration>
								<samplecharacteristics>
									<width>720</width>
									<height>486</height>
								</samplecharacteristics>
							</video>
						</media>
					</file>
					<sourcetrack>
						<mediatype>video</mediatype>
					</sourcetrack>
					<fielddominance>none</fielddominance>
					<itemhistory>
						<uuid>CDC7FFA8-B859-41EC-B302-9297AACA6A69</uuid>
					</itemhistory>
					<mixedratesoffset>1</mixedratesoffset>
				</clipitem>
				<clipitem id="Roll Hi-Con 2 - Logged5">
					<name>Roll Hi-Con 2 - Logged</name>
					<duration>5035</duration>
					<rate>
						<ntsc>TRUE</ntsc>
						<timebase>30</timebase>
					</rate>
					<in>4446</in>
					<out>4796</out>
					<start>20583</start>
					<end>20933</end>
					<pixelaspectratio>NTSC-601</pixelaspectratio>
					<enabled>TRUE</enabled>
					<anamorphic>FALSE</anamorphic>
					<alphatype>none</alphatype>
					<masterclipid>Roll Hi-Con 2 - Logged1</masterclipid>
					<logginginfo>
						<scene/>
						<shottake/>
						<lognote/>
						<good>FALSE</good>
					</logginginfo>
					<labels>
						<label2/>
					</labels>
					<comments>
						<mastercomment1/>
						<mastercomment2/>
						<mastercomment3/>
						<mastercomment4/>
					</comments>
					<file id="Roll Hi-Con 2 - Logged2"/>
					<sourcetrack>
						<mediatype>video</mediatype>
					</sourcetrack>
					<fielddominance>none</fielddominance>
					<itemhistory>
						<uuid>5744029B-EA5A-4BB6-965A-447F2414005E</uuid>
					</itemhistory>
				</clipitem>
				<enabled>TRUE</enabled>
				<locked>FALSE</locked>
			</track>
			<track>
				<clipitem id="Roll 2 - Logged-Pro-res Proxy - Silent8">
					<name>Roll 2 - Logged-Pro-res Proxy - Silent</name>
					<duration>5083</duration>
					<rate>
						<ntsc>TRUE</ntsc>
						<timebase>30</timebase>
					</rate>
					<in>244</in>
					<out>843</out>
					<start>147</start>
					<end>746</end>
					<pixelaspectratio>NTSC-601</pixelaspectratio>
					<enabled>TRUE</enabled>
					<anamorphic>FALSE</anamorphic>
					<alphatype>none</alphatype>
					<masterclipid>Roll 2 - Logged-Pro-res Proxy - Silent1</masterclipid>
					<logginginfo>
						<scene/>
						<shottake/>
						<lognote/>
						<good>FALSE</good>
					</logginginfo>
					<labels>
						<label2/>
					</labels>
					<comments>
						<mastercomment1/>
						<mastercomment2/>
						<mastercomment3/>
						<mastercomment4/>
					</comments>
					<file id="Roll 2 - Logged-Pro-res Proxy - Silent2"/>
					<sourcetrack>
						<mediatype>video</mediatype>
					</sourcetrack>
					<fielddominance>lower</fielddominance>
					<itemhistory>
						<uuid>4F71DC80-2B33-4C85-93CD-812002181389</uuid>
					</itemhistory>
				</clipitem>
				<clipitem id="Roll Hi-Con 2 - Logged6">
					<name>Roll Hi-Con 2 - Logged</name>
					<duration>5035</duration>
					<rate>
						<ntsc>TRUE</ntsc>
						<timebase>30</timebase>
					</rate>
					<in>0</in>
					<out>708</out>
					<start>1330</start>
					<end>2038</end>
					<pixelaspectratio>NTSC-601</pixelaspectratio>
					<enabled>TRUE</enabled>
					<anamorphic>FALSE</anamorphic>
					<alphatype>none</alphatype>
					<masterclipid>Roll Hi-Con 2 - Logged1</masterclipid>
					<logginginfo>
						<scene/>
						<shottake/>
						<lognote/>
						<good>FALSE</good>
					</logginginfo>
					<labels>
						<label2/>
					</labels>
					<comments>
						<mastercomment1/>
						<mastercomment2/>
						<mastercomment3/>
						<mastercomment4/>
					</comments>
					<file id="Roll Hi-Con 2 - Logged2"/>
					<sourcetrack>
						<mediatype>video</mediatype>
					</sourcetrack>
					<fielddominance>none</fielddominance>
					<itemhistory>
						<uuid>BD8D5789-4E35-4EE6-815F-6A7063C636C1</uuid>
					</itemhistory>
				</clipitem>
				<clipitem id="Roll Hi-Con 2 - Logged7">
					<name>Roll Hi-Con 2 - Logged</name>
					<duration>5035</duration>
					<rate>
						<ntsc>TRUE</ntsc>
						<timebase>30</timebase>
					</rate>
					<in>972</in>
					<out>1138</out>
					<start>2389</start>
					<end>2555</end>
					<pixelaspectratio>NTSC-601</pixelaspectratio>
					<enabled>TRUE</enabled>
					<anamorphic>FALSE</anamorphic>
					<alphatype>none</alphatype>
					<masterclipid>Roll Hi-Con 2 - Logged1</masterclipid>
					<logginginfo>
						<scene/>
						<shottake/>
						<lognote/>
						<good>FALSE</good>
					</logginginfo>
					<labels>
						<label2/>
					</labels>
					<comments>
						<mastercomment1/>
						<mastercomment2/>
						<mastercomment3/>
						<mastercomment4/>
					</comments>
					<file id="Roll Hi-Con 2 - Logged2"/>
					<filter>
						<effect>
							<name>Opacity</name>
							<effectid>opacity</effectid>
							<effectcategory>motion</effectcategory>
							<effecttype>motion</effecttype>
							<mediatype>video</mediatype>
							<parameter>
								<parameterid>opacity</parameterid>
								<name>opacity</name>
								<valuemin>0</valuemin>
								<valuemax>100</valuemax>
								<value>95</value>
							</parameter>
						</effect>
					</filter>
					<sourcetrack>
						<mediatype>video</mediatype>
					</sourcetrack>
					<fielddominance>none</fielddominance>
					<itemhistory>
						<uuid>61E4157B-707D-4373-A5BE-0F385D23B405</uuid>
					</itemhistory>
				</clipitem>
				<clipitem id="Roll Hi-Con 2 - Logged8">
					<name>Roll Hi-Con 2 - Logged</name>
					<duration>5035</duration>
					<rate>
						<ntsc>TRUE</ntsc>
						<timebase>30</timebase>
					</rate>
					<in>3831</in>
					<out>4089</out>
					<start>3592</start>
					<end>3850</end>
					<pixelaspectratio>NTSC-601</pixelaspectratio>
					<enabled>TRUE</enabled>
					<anamorphic>FALSE</anamorphic>
					<alphatype>none</alphatype>
					<masterclipid>Roll Hi-Con 2 - Logged1</masterclipid>
					<logginginfo>
						<scene/>
						<shottake/>
						<lognote/>
						<good>FALSE</good>
					</logginginfo>
					<labels>
						<label2/>
					</labels>
					<comments>
						<mastercomment1/>
						<mastercomment2/>
						<mastercomment3/>
						<mastercomment4/>
					</comments>
					<file id="Roll Hi-Con 2 - Logged2"/>
					<sourcetrack>
						<mediatype>video</mediatype>
					</sourcetrack>
					<fielddominance>none</fielddominance>
					<itemhistory>
						<uuid>9AD9D58F-0001-4EB4-8ECF-2A9197A1D9CF</uuid>
						<uuid>6B3C5B15-5269-4D4A-9813-76B3F8E54619</uuid>
					</itemhistory>
				</clipitem>
				<clipitem id="Roll Hi-Con 2 - Logged9">
					<name>Roll Hi-Con 2 - Logged</name>
					<duration>5035</duration>
					<rate>
						<ntsc>TRUE</ntsc>
						<timebase>30</timebase>
					</rate>
					<in>2700</in>
					<out>2800</out>
					<start>3968</start>
					<end>4068</end>
					<pixelaspectratio>NTSC-601</pixelaspectratio>
					<enabled>TRUE</enabled>
					<anamorphic>FALSE</anamorphic>
					<alphatype>none</alphatype>
					<masterclipid>Roll Hi-Con 2 - Logged1</masterclipid>
					<logginginfo>
						<scene/>
						<shottake/>
						<lognote/>
						<good>FALSE</good>
					</logginginfo>
					<labels>
						<label2/>
					</labels>
					<comments>
						<mastercomment1/>
						<mastercomment2/>
						<mastercomment3/>
						<mastercomment4/>
					</comments>
					<file id="Roll Hi-Con 2 - Logged2"/>
					<sourcetrack>
						<mediatype>video</mediatype>
					</sourcetrack>
					<fielddominance>none</fielddominance>
					<itemhistory>
						<uuid>788037BD-9D39-4803-ABDF-2E5E524422CB</uuid>
					</itemhistory>
				</clipitem>
				<clipitem id="Roll 2 - Logged-Pro-res Proxy - Silent9">
					<name>Roll 2 - Logged-Pro-res Proxy - Silent</name>
					<duration>5083</duration>
					<rate>
						<ntsc>TRUE</ntsc>
						<timebase>30</timebase>
					</rate>
					<in>847</in>
					<out>1064</out>
					<start>4272</start>
					<end>4489</end>
					<pixelaspectratio>NTSC-601</pixelaspectratio>
					<enabled>TRUE</enabled>
					<anamorphic>FALSE</anamorphic>
					<alphatype>none</alphatype>
					<masterclipid>Roll 2 - Logged-Pro-res Proxy - Silent1</masterclipid>
					<logginginfo>
						<scene/>
						<shottake/>
						<lognote/>
						<good>FALSE</good>
					</logginginfo>
					<labels>
						<label2/>
					</labels>
					<comments>
						<mastercomment1/>
						<mastercomment2/>
						<mastercomment3/>
						<mastercomment4/>
					</comments>
					<file id="Roll 2 - Logged-Pro-res Proxy - Silent2"/>
					<sourcetrack>
						<mediatype>video</mediatype>
					</sourcetrack>
					<fielddominance>lower</fielddominance>
					<itemhistory>
						<uuid>4FD87168-A205-4437-9900-B99353ACFD9A</uuid>
						<uuid>7B64125C-39BA-4B79-95DB-F641F4B7E63A</uuid>
					</itemhistory>
				</clipitem>
				<clipitem id="Roll 1 - Logged-Pro-res Proxy - Silent5">
					<name>Roll 1 - Logged-Pro-res Proxy - Silent</name>
					<duration>5071</duration>
					<rate>
						<ntsc>TRUE</ntsc>
						<timebase>30</timebase>
					</rate>
					<in>507</in>
					<out>748</out>
					<start>4489</start>
					<end>4730</end>
					<pixelaspectratio>NTSC-601</pixelaspectratio>
					<enabled>TRUE</enabled>
					<anamorphic>FALSE</anamorphic>
					<alphatype>none</alphatype>
					<masterclipid>Roll 1 - Logged-Pro-res Proxy - Silent1</masterclipid>
					<logginginfo>
						<scene/>
						<shottake/>
						<lognote/>
						<good>FALSE</good>
					</logginginfo>
					<labels>
						<label2/>
					</labels>
					<comments>
						<mastercomment1/>
						<mastercomment2/>
						<mastercomment3/>
						<mastercomment4/>
					</comments>
					<file id="Roll 1 - Logged-Pro-res Proxy - Silent2"/>
					<filter>
						<enabled>TRUE</enabled>
						<start>-1</start>
						<end>-1</end>
						<effect>
							<name>Color Corrector</name>
							<effectid>Color Corrector</effectid>
							<effectcategory>Color Correction</effectcategory>
							<effecttype>filter</effecttype>
							<mediatype>video</mediatype>
							<parameter>
								<parameterid>dispmode</parameterid>
								<name>Display Mode</name>
								<valuemin>1</valuemin>
								<valuemax>3</valuemax>
								<valuelist>
									<valueentry>
										<name>Final</name>
										<value>1</value>
									</valueentry>
									<valueentry>
										<name>Matte</name>
										<value>2</value>
									</valueentry>
									<valueentry>
										<name>Source</name>
										<value>3</value>
									</valueentry>
								</valuelist>
								<value>1</value>
							</parameter>
							<parameter>
								<parameterid>label1</parameterid>
								<name>Level Controls</name>
								<value/>
							</parameter>
							<parameter>
								<parameterid>highlights</parameterid>
								<name>Highlights</name>
								<valuemin>64</valuemin>
								<valuemax>509</valuemax>
								<value>301</value>
							</parameter>
							<parameter>
								<parameterid>mids</parameterid>
								<name>Mids</name>
								<valuemin>0</valuemin>
								<valuemax>200</valuemax>
								<value>135</value>
							</parameter>
							<parameter>
								<parameterid>blacklevel</parameterid>
								<name>Blacks</name>
								<valuemin>-196</valuemin>
								<valuemax>254</valuemax>
								<value>0</value>
							</parameter>
							<parameter>
								<parameterid>label2</parameterid>
								<name>Color Balance</name>
								<value/>
							</parameter>
							<parameter>
								<parameterid>hue</parameterid>
								<name>Angle</name>
								<valuemin>-180</valuemin>
								<valuemax>180</valuemax>
								<value>124.18</value>
							</parameter>
							<parameter>
								<parameterid>mag</parameterid>
								<name>Magnitude</name>
								<valuemin>0</valuemin>
								<valuemax>200</valuemax>
								<value>189.059</value>
							</parameter>
							<parameter>
								<parameterid>label4</parameterid>
								<name>Color Controls</name>
								<value/>
							</parameter>
							<parameter>
								<parameterid>chroma</parameterid>
								<name>Saturation</name>
								<valuemin>0</valuemin>
								<valuemax>200</valuemax>
								<value>100</value>
							</parameter>
							<parameter>
								<parameterid>phase</parameterid>
								<name>Phase shift</name>
								<valuemin>-180</valuemin>
								<valuemax>180</valuemax>
								<value>0</value>
							</parameter>
							<parameter>
								<parameterid>label5</parameterid>
								<name>Limit Effect Controls</name>
								<value/>
							</parameter>
							<parameter>
								<parameterid>dochroma</parameterid>
								<name>Limit on Chroma</name>
								<value>FALSE</value>
							</parameter>
							<parameter>
								<parameterid>centerang</parameterid>
								<name>Chroma Center</name>
								<valuemin>-760</valuemin>
								<valuemax>760</valuemax>
								<value>-110</value>
							</parameter>
							<parameter>
								<parameterid>chromawidth</parameterid>
								<name>Chroma Width</name>
								<valuemin>0</valuemin>
								<valuemax>360</valuemax>
								<value>15</value>
							</parameter>
							<parameter>
								<parameterid>chromasoft</parameterid>
								<name>Chroma Softness</name>
								<valuemin>0</valuemin>
								<valuemax>180</valuemax>
								<value>10</value>
							</parameter>
							<parameter>
								<parameterid>dosat</parameterid>
								<name>Limit on Saturation</name>
								<value>FALSE</value>
							</parameter>
							<parameter>
								<parameterid>satmin</parameterid>
								<name>Sat. Minimum</name>
								<valuemin>0</valuemin>
								<valuemax>125</valuemax>
								<value>35</value>
							</parameter>
							<parameter>
								<parameterid>satwidth</parameterid>
								<name>Sat. Width</name>
								<valuemin>0</valuemin>
								<valuemax>125</valuemax>
								<value>40</value>
							</parameter>
							<parameter>
								<parameterid>satsoft</parameterid>
								<name>Sat. Softness</name>
								<valuemin>0</valuemin>
								<valuemax>125</valuemax>
								<value>20</value>
							</parameter>
							<parameter>
								<parameterid>doluma</parameterid>
								<name>Limit on Luma</name>
								<value>FALSE</value>
							</parameter>
							<parameter>
								<parameterid>lumamin</parameterid>
								<name>Luma Minimum</name>
								<valuemin>0</valuemin>
								<valuemax>120</valuemax>
								<value>0</value>
							</parameter>
							<parameter>
								<parameterid>lumawidth</parameterid>
								<name>Luma Width</name>
								<valuemin>0</valuemin>
								<valuemax>120</valuemax>
								<value>40</value>
							</parameter>
							<parameter>
								<parameterid>lumasoft</parameterid>
								<name>Luma Softness</name>
								<valuemin>0</valuemin>
								<valuemax>120</valuemax>
								<value>20</value>
							</parameter>
							<parameter>
								<parameterid>label6</parameterid>
								<name>Edge Control</name>
								<value/>
							</parameter>
							<parameter>
								<parameterid>edgethin</parameterid>
								<name>Thin/Spread</name>
								<valuemin>-100</valuemin>
								<valuemax>100</valuemax>
								<value>0</value>
							</parameter>
							<parameter>
								<parameterid>edgefeather</parameterid>
								<name>Softening</name>
								<valuemin>0</valuemin>
								<valuemax>100</valuemax>
								<value>0</value>
							</parameter>
							<parameter>
								<parameterid>label7</parameterid>
								<name>Mask Control</name>
								<value/>
							</parameter>
							<parameter>
								<parameterid>invertsel</parameterid>
								<name>Invert</name>
								<value>FALSE</value>
							</parameter>
							<parameter>
								<parameterid>debugshow</parameterid>
								<name>Show Stats</name>
								<value>FALSE</value>
							</parameter>
						</effect>
					</filter>
					<filter>
						<effect>
							<name>Opacity</name>
							<effectid>opacity</effectid>
							<effectcategory>motion</effectcategory>
							<effecttype>motion</effecttype>
							<mediatype>video</mediatype>
							<parameter>
								<parameterid>opacity</parameterid>
								<name>opacity</name>
								<valuemin>0</valuemin>
								<valuemax>100</valuemax>
								<value>100</value>
							</parameter>
						</effect>
					</filter>
					<sourcetrack>
						<mediatype>video</mediatype>
					</sourcetrack>
					<fielddominance>lower</fielddominance>
					<itemhistory>
						<uuid>2358AB9C-6CC1-4746-9DD3-862B1AED9B43</uuid>
					</itemhistory>
				</clipitem>
				<clipitem id="Roll 1 - Logged-Pro-res Proxy - Silent6">
					<name>Roll 1 - Logged-Pro-res Proxy - Silent</name>
					<duration>5071</duration>
					<rate>
						<ntsc>TRUE</ntsc>
						<timebase>30</timebase>
					</rate>
					<in>1686</in>
					<out>1879</out>
					<start>5056</start>
					<end>5249</end>
					<pixelaspectratio>NTSC-601</pixelaspectratio>
					<enabled>TRUE</enabled>
					<anamorphic>FALSE</anamorphic>
					<alphatype>none</alphatype>
					<masterclipid>Roll 1 - Logged-Pro-res Proxy - Silent1</masterclipid>
					<logginginfo>
						<scene/>
						<shottake/>
						<lognote/>
						<good>FALSE</good>
					</logginginfo>
					<labels>
						<label2/>
					</labels>
					<comments>
						<mastercomment1/>
						<mastercomment2/>
						<mastercomment3/>
						<mastercomment4/>
					</comments>
					<file id="Roll 1 - Logged-Pro-res Proxy - Silent2"/>
					<filter>
						<effect>
							<name>Opacity</name>
							<effectid>opacity</effectid>
							<effectcategory>motion</effectcategory>
							<effecttype>motion</effecttype>
							<mediatype>video</mediatype>
							<parameter>
								<parameterid>opacity</parameterid>
								<name>opacity</name>
								<valuemin>0</valuemin>
								<valuemax>100</valuemax>
								<value>91</value>
							</parameter>
						</effect>
					</filter>
					<sourcetrack>
						<mediatype>video</mediatype>
					</sourcetrack>
					<fielddominance>lower</fielddominance>
					<itemhistory>
						<uuid>09100F35-EAC4-4B29-900C-4C9C62E1E86E</uuid>
					</itemhistory>
				</clipitem>
				<clipitem id="Roll 6 - Logged-Pro-res Proxy - Silent5">
					<name>Roll 6 - Logged-Pro-res Proxy - Silent</name>
					<duration>5269</duration>
					<rate>
						<ntsc>TRUE</ntsc>
						<timebase>30</timebase>
					</rate>
					<in>2683</in>
					<out>3052</out>
					<start>5249</start>
					<end>5618</end>
					<pixelaspectratio>NTSC-601</pixelaspectratio>
					<enabled>TRUE</enabled>
					<anamorphic>FALSE</anamorphic>
					<alphatype>none</alphatype>
					<masterclipid>Roll 6 - Logged-Pro-res Proxy - Silent1</masterclipid>
					<logginginfo>
						<scene/>
						<shottake/>
						<lognote/>
						<good>FALSE</good>
					</logginginfo>
					<labels>
						<label2/>
					</labels>
					<comments>
						<mastercomment1/>
						<mastercomment2/>
						<mastercomment3/>
						<mastercomment4/>
					</comments>
					<file id="Roll 6 - Logged-Pro-res Proxy - Silent2"/>
					<sourcetrack>
						<mediatype>video</mediatype>
					</sourcetrack>
					<fielddominance>lower</fielddominance>
					<itemhistory>
						<uuid>0D82079B-9903-4D82-9B14-987E8E8693D0</uuid>
					</itemhistory>
				</clipitem>
				<clipitem id="Roll 6 - Logged-Pro-res Proxy - Silent6">
					<name>Roll 6 - Logged-Pro-res Proxy - Silent</name>
					<duration>5269</duration>
					<rate>
						<ntsc>TRUE</ntsc>
						<timebase>30</timebase>
					</rate>
					<in>2380</in>
					<out>2513</out>
					<start>5735</start>
					<end>5868</end>
					<pixelaspectratio>NTSC-601</pixelaspectratio>
					<enabled>TRUE</enabled>
					<anamorphic>FALSE</anamorphic>
					<alphatype>none</alphatype>
					<masterclipid>Roll 6 - Logged-Pro-res Proxy - Silent1</masterclipid>
					<logginginfo>
						<scene/>
						<shottake/>
						<lognote/>
						<good>FALSE</good>
					</logginginfo>
					<labels>
						<label2/>
					</labels>
					<comments>
						<mastercomment1/>
						<mastercomment2/>
						<mastercomment3/>
						<mastercomment4/>
					</comments>
					<file id="Roll 6 - Logged-Pro-res Proxy - Silent2"/>
					<sourcetrack>
						<mediatype>video</mediatype>
					</sourcetrack>
					<fielddominance>lower</fielddominance>
					<itemhistory>
						<uuid>7B3C61C8-FCB8-41E7-A6AC-9C8DCB2F982A</uuid>
					</itemhistory>
				</clipitem>
				<clipitem id="Roll 2 - Logged-Pro-res Proxy - Silent10">
					<name>Roll 2 - Logged-Pro-res Proxy - Silent</name>
					<duration>5083</duration>
					<rate>
						<ntsc>TRUE</ntsc>
						<timebase>30</timebase>
					</rate>
					<in>1480</in>
					<out>1592</out>
					<start>6103</start>
					<end>6215</end>
					<pixelaspectratio>NTSC-601</pixelaspectratio>
					<enabled>TRUE</enabled>
					<anamorphic>FALSE</anamorphic>
					<alphatype>none</alphatype>
					<masterclipid>Roll 2 - Logged-Pro-res Proxy - Silent1</masterclipid>
					<logginginfo>
						<scene/>
						<shottake/>
						<lognote/>
						<good>FALSE</good>
					</logginginfo>
					<labels>
						<label2/>
					</labels>
					<comments>
						<mastercomment1/>
						<mastercomment2/>
						<mastercomment3/>
						<mastercomment4/>
					</comments>
					<file id="Roll 2 - Logged-Pro-res Proxy - Silent2"/>
					<sourcetrack>
						<mediatype>video</mediatype>
					</sourcetrack>
					<fielddominance>lower</fielddominance>
					<itemhistory>
						<uuid>6DBD4BE0-BEE4-47D8-A04E-81FA6E285B9A</uuid>
					</itemhistory>
				</clipitem>
				<clipitem id="Roll BW 1 4">
					<name>Roll BW 1</name>
					<duration>5196</duration>
					<rate>
						<ntsc>TRUE</ntsc>
						<timebase>30</timebase>
					</rate>
					<in>0</in>
					<out>609</out>
					<start>6369</start>
					<end>6978</end>
					<pixelaspectratio>NTSC-601</pixelaspectratio>
					<enabled>TRUE</enabled>
					<anamorphic>FALSE</anamorphic>
					<alphatype>none</alphatype>
					<masterclipid>Roll BW 1 1</masterclipid>
					<logginginfo>
						<scene/>
						<shottake/>
						<lognote/>
						<good>FALSE</good>
					</logginginfo>
					<labels>
						<label2/>
					</labels>
					<comments>
						<mastercomment1/>
						<mastercomment2/>
						<mastercomment3/>
						<mastercomment4/>
					</comments>
					<file id="Roll BW 1 2"/>
					<marker>
						<name>Marker 1</name>
						<comment/>
						<color>
							<alpha>0</alpha>
							<red>255</red>
							<green>0</green>
							<blue>0</blue>
						</color>
						<in>609</in>
						<out>-1</out>
					</marker>
					<sourcetrack>
						<mediatype>video</mediatype>
					</sourcetrack>
					<fielddominance>none</fielddominance>
					<itemhistory>
						<uuid>35CD3FE2-12EC-46EF-BB89-7C7D572B11F4</uuid>
						<uuid>4FC91576-0695-455A-8C02-228F77A5822A</uuid>
					</itemhistory>
				</clipitem>
				<clipitem id="Roll BW 1 5">
					<name>Roll BW 1</name>
					<duration>5196</duration>
					<rate>
						<ntsc>TRUE</ntsc>
						<timebase>30</timebase>
					</rate>
					<in>1620</in>
					<out>1751</out>
					<start>6978</start>
					<end>7109</end>
					<pixelaspectratio>NTSC-601</pixelaspectratio>
					<enabled>TRUE</enabled>
					<anamorphic>FALSE</anamorphic>
					<alphatype>none</alphatype>
					<masterclipid>Roll BW 1 1</masterclipid>
					<logginginfo>
						<scene/>
						<shottake/>
						<lognote/>
						<good>FALSE</good>
					</logginginfo>
					<labels>
						<label2/>
					</labels>
					<comments>
						<mastercomment1/>
						<mastercomment2/>
						<mastercomment3/>
						<mastercomment4/>
					</comments>
					<file id="Roll BW 1 2"/>
					<sourcetrack>
						<mediatype>video</mediatype>
					</sourcetrack>
					<fielddominance>none</fielddominance>
					<itemhistory>
						<uuid>60C00552-CEE4-4981-881C-FFD3D32A999A</uuid>
					</itemhistory>
				</clipitem>
				<clipitem id="Roll BW 1 6">
					<name>Roll BW 1</name>
					<duration>5196</duration>
					<rate>
						<ntsc>TRUE</ntsc>
						<timebase>30</timebase>
					</rate>
					<in>3448</in>
					<out>3879</out>
					<start>8293</start>
					<end>8724</end>
					<pixelaspectratio>NTSC-601</pixelaspectratio>
					<enabled>TRUE</enabled>
					<anamorphic>FALSE</anamorphic>
					<alphatype>none</alphatype>
					<masterclipid>Roll BW 1 1</masterclipid>
					<logginginfo>
						<scene/>
						<shottake/>
						<lognote/>
						<good>FALSE</good>
					</logginginfo>
					<labels>
						<label2/>
					</labels>
					<comments>
						<mastercomment1/>
						<mastercomment2/>
						<mastercomment3/>
						<mastercomment4/>
					</comments>
					<file id="Roll BW 1 2"/>
					<sourcetrack>
						<mediatype>video</mediatype>
					</sourcetrack>
					<fielddominance>none</fielddominance>
					<itemhistory>
						<uuid>C95C52BD-3BA4-46EB-9CB5-7E38B00F7F89</uuid>
					</itemhistory>
				</clipitem>
				<clipitem id="Roll 8 - Logged-Pro-res Proxy - Silent4">
					<name>Roll 8 - Logged-Pro-res Proxy - Silent</name>
					<duration>4308</duration>
					<rate>
						<ntsc>TRUE</ntsc>
						<timebase>30</timebase>
					</rate>
					<in>0</in>
					<out>226</out>
					<start>9229</start>
					<end>9455</end>
					<pixelaspectratio>NTSC-601</pixelaspectratio>
					<enabled>TRUE</enabled>
					<anamorphic>FALSE</anamorphic>
					<alphatype>none</alphatype>
					<masterclipid>Roll 8 - Logged-Pro-res Proxy - Silent1</masterclipid>
					<logginginfo>
						<scene/>
						<shottake/>
						<lognote/>
						<good>FALSE</good>
					</logginginfo>
					<labels>
						<label2/>
					</labels>
					<comments>
						<mastercomment1/>
						<mastercomment2/>
						<mastercomment3/>
						<mastercomment4/>
					</comments>
					<file id="Roll 8 - Logged-Pro-res Proxy - Silent2"/>
					<filter>
						<enabled>TRUE</enabled>
						<start>-1</start>
						<end>-1</end>
						<effect>
							<name>Color Corrector</name>
							<effectid>Color Corrector</effectid>
							<effectcategory>Color Correction</effectcategory>
							<effecttype>filter</effecttype>
							<mediatype>video</mediatype>
							<parameter>
								<parameterid>dispmode</parameterid>
								<name>Display Mode</name>
								<valuemin>1</valuemin>
								<valuemax>3</valuemax>
								<valuelist>
									<valueentry>
										<name>Final</name>
										<value>1</value>
									</valueentry>
									<valueentry>
										<name>Matte</name>
										<value>2</value>
									</valueentry>
									<valueentry>
										<name>Source</name>
										<value>3</value>
									</valueentry>
								</valuelist>
								<value>1</value>
							</parameter>
							<parameter>
								<parameterid>label1</parameterid>
								<name>Level Controls</name>
								<value/>
							</parameter>
							<parameter>
								<parameterid>highlights</parameterid>
								<name>Highlights</name>
								<valuemin>64</valuemin>
								<valuemax>509</valuemax>
								<value>255</value>
							</parameter>
							<parameter>
								<parameterid>mids</parameterid>
								<name>Mids</name>
								<valuemin>0</valuemin>
								<valuemax>200</valuemax>
								<value>111</value>
							</parameter>
							<parameter>
								<parameterid>blacklevel</parameterid>
								<name>Blacks</name>
								<valuemin>-196</valuemin>
								<valuemax>254</valuemax>
								<value>0</value>
							</parameter>
							<parameter>
								<parameterid>label2</parameterid>
								<name>Color Balance</name>
								<value/>
							</parameter>
							<parameter>
								<parameterid>hue</parameterid>
								<name>Angle</name>
								<valuemin>-180</valuemin>
								<valuemax>180</valuemax>
								<value>166.769</value>
							</parameter>
							<parameter>
								<parameterid>mag</parameterid>
								<name>Magnitude</name>
								<valuemin>0</valuemin>
								<valuemax>200</valuemax>
								<value>17.4815</value>
							</parameter>
							<parameter>
								<parameterid>label4</parameterid>
								<name>Color Controls</name>
								<value/>
							</parameter>
							<parameter>
								<parameterid>chroma</parameterid>
								<name>Saturation</name>
								<valuemin>0</valuemin>
								<valuemax>200</valuemax>
								<value>100</value>
							</parameter>
							<parameter>
								<parameterid>phase</parameterid>
								<name>Phase shift</name>
								<valuemin>-180</valuemin>
								<valuemax>180</valuemax>
								<value>0</value>
							</parameter>
							<parameter>
								<parameterid>label5</parameterid>
								<name>Limit Effect Controls</name>
								<value/>
							</parameter>
							<parameter>
								<parameterid>dochroma</parameterid>
								<name>Limit on Chroma</name>
								<value>FALSE</value>
							</parameter>
							<parameter>
								<parameterid>centerang</parameterid>
								<name>Chroma Center</name>
								<valuemin>-760</valuemin>
								<valuemax>760</valuemax>
								<value>-110</value>
							</parameter>
							<parameter>
								<parameterid>chromawidth</parameterid>
								<name>Chroma Width</name>
								<valuemin>0</valuemin>
								<valuemax>360</valuemax>
								<value>15</value>
							</parameter>
							<parameter>
								<parameterid>chromasoft</parameterid>
								<name>Chroma Softness</name>
								<valuemin>0</valuemin>
								<valuemax>180</valuemax>
								<value>10</value>
							</parameter>
							<parameter>
								<parameterid>dosat</parameterid>
								<name>Limit on Saturation</name>
								<value>FALSE</value>
							</parameter>
							<parameter>
								<parameterid>satmin</parameterid>
								<name>Sat. Minimum</name>
								<valuemin>0</valuemin>
								<valuemax>125</valuemax>
								<value>35</value>
							</parameter>
							<parameter>
								<parameterid>satwidth</parameterid>
								<name>Sat. Width</name>
								<valuemin>0</valuemin>
								<valuemax>125</valuemax>
								<value>40</value>
							</parameter>
							<parameter>
								<parameterid>satsoft</parameterid>
								<name>Sat. Softness</name>
								<valuemin>0</valuemin>
								<valuemax>125</valuemax>
								<value>20</value>
							</parameter>
							<parameter>
								<parameterid>doluma</parameterid>
								<name>Limit on Luma</name>
								<value>FALSE</value>
							</parameter>
							<parameter>
								<parameterid>lumamin</parameterid>
								<name>Luma Minimum</name>
								<valuemin>0</valuemin>
								<valuemax>120</valuemax>
								<value>0</value>
							</parameter>
							<parameter>
								<parameterid>lumawidth</parameterid>
								<name>Luma Width</name>
								<valuemin>0</valuemin>
								<valuemax>120</valuemax>
								<value>40</value>
							</parameter>
							<parameter>
								<parameterid>lumasoft</parameterid>
								<name>Luma Softness</name>
								<valuemin>0</valuemin>
								<valuemax>120</valuemax>
								<value>20</value>
							</parameter>
							<parameter>
								<parameterid>label6</parameterid>
								<name>Edge Control</name>
								<value/>
							</parameter>
							<parameter>
								<parameterid>edgethin</parameterid>
								<name>Thin/Spread</name>
								<valuemin>-100</valuemin>
								<valuemax>100</valuemax>
								<value>0</value>
							</parameter>
							<parameter>
								<parameterid>edgefeather</parameterid>
								<name>Softening</name>
								<valuemin>0</valuemin>
								<valuemax>100</valuemax>
								<value>0</value>
							</parameter>
							<parameter>
								<parameterid>label7</parameterid>
								<name>Mask Control</name>
								<value/>
							</parameter>
							<parameter>
								<parameterid>invertsel</parameterid>
								<name>Invert</name>
								<value>FALSE</value>
							</parameter>
							<parameter>
								<parameterid>debugshow</parameterid>
								<name>Show Stats</name>
								<value>FALSE</value>
							</parameter>
						</effect>
					</filter>
					<sourcetrack>
						<mediatype>video</mediatype>
					</sourcetrack>
					<fielddominance>lower</fielddominance>
					<itemhistory>
						<uuid>32B5A091-E8A5-44C2-9788-0F73638BAE91</uuid>
					</itemhistory>
				</clipitem>
				<clipitem id="Roll BW 1 7">
					<name>Roll BW 1</name>
					<duration>5196</duration>
					<rate>
						<ntsc>TRUE</ntsc>
						<timebase>30</timebase>
					</rate>
					<in>609</in>
					<out>1032</out>
					<start>10653</start>
					<end>11076</end>
					<pixelaspectratio>NTSC-601</pixelaspectratio>
					<enabled>TRUE</enabled>
					<anamorphic>FALSE</anamorphic>
					<alphatype>none</alphatype>
					<masterclipid>Roll BW 1 1</masterclipid>
					<logginginfo>
						<scene/>
						<shottake/>
						<lognote/>
						<good>FALSE</good>
					</logginginfo>
					<labels>
						<label2/>
					</labels>
					<comments>
						<mastercomment1/>
						<mastercomment2/>
						<mastercomment3/>
						<mastercomment4/>
					</comments>
					<file id="Roll BW 1 2"/>
					<marker>
						<name>Marker 1</name>
						<comment/>
						<color>
							<alpha>0</alpha>
							<red>255</red>
							<green>0</green>
							<blue>0</blue>
						</color>
						<in>609</in>
						<out>-1</out>
					</marker>
					<sourcetrack>
						<mediatype>video</mediatype>
					</sourcetrack>
					<fielddominance>none</fielddominance>
					<itemhistory>
						<uuid>FC237732-E075-491F-850B-2E1634358FB6</uuid>
						<uuid>4FC91576-0695-455A-8C02-228F77A5822A</uuid>
					</itemhistory>
				</clipitem>
				<clipitem id="Roll 1 - Logged-Pro-res Proxy - Silent7">
					<name>Roll 1 - Logged-Pro-res Proxy - Silent</name>
					<duration>5071</duration>
					<rate>
						<ntsc>TRUE</ntsc>
						<timebase>30</timebase>
					</rate>
					<in>3585</in>
					<out>4018</out>
					<start>11481</start>
					<end>11914</end>
					<pixelaspectratio>NTSC-601</pixelaspectratio>
					<enabled>TRUE</enabled>
					<anamorphic>FALSE</anamorphic>
					<alphatype>none</alphatype>
					<masterclipid>Roll 1 - Logged-Pro-res Proxy - Silent1</masterclipid>
					<logginginfo>
						<scene/>
						<shottake/>
						<lognote/>
						<good>FALSE</good>
					</logginginfo>
					<labels>
						<label2/>
					</labels>
					<comments>
						<mastercomment1/>
						<mastercomment2/>
						<mastercomment3/>
						<mastercomment4/>
					</comments>
					<file id="Roll 1 - Logged-Pro-res Proxy - Silent2"/>
					<filter>
						<effect>
							<name>Basic Motion</name>
							<effectid>basic</effectid>
							<effectcategory>motion</effectcategory>
							<effecttype>motion</effecttype>
							<mediatype>video</mediatype>
							<parameter>
								<parameterid>scale</parameterid>
								<name>Scale</name>
								<valuemin>0</valuemin>
								<valuemax>1000</valuemax>
								<value>100</value>
							</parameter>
							<parameter>
								<parameterid>rotation</parameterid>
								<name>Rotation</name>
								<valuemin>-8640</valuemin>
								<valuemax>8640</valuemax>
								<value>0</value>
							</parameter>
							<parameter>
								<parameterid>center</parameterid>
								<name>Center</name>
								<value>
									<horiz>0</horiz>
									<vert>0</vert>
								</value>
							</parameter>
							<parameter>
								<parameterid>centerOffset</parameterid>
								<name>Anchor Point</name>
								<value>
									<horiz>0</horiz>
									<vert>0</vert>
								</value>
							</parameter>
						</effect>
					</filter>
					<filter>
						<enabled>FALSE</enabled>
						<effect>
							<name>Drop Shadow</name>
							<effectid>dropshadow</effectid>
							<effectcategory>motion</effectcategory>
							<effecttype>motion</effecttype>
							<mediatype>video</mediatype>
							<parameter>
								<parameterid>offset</parameterid>
								<name>offset</name>
								<valuemin>-100</valuemin>
								<valuemax>100</valuemax>
								<value>2</value>
							</parameter>
							<parameter>
								<parameterid>angle</parameterid>
								<name>angle</name>
								<valuemin>-720</valuemin>
								<valuemax>720</valuemax>
								<value>135</value>
							</parameter>
							<parameter>
								<parameterid>color</parameterid>
								<name>color</name>
								<value>
									<alpha>0</alpha>
									<red>0</red>
									<green>0</green>
									<blue>0</blue>
								</value>
							</parameter>
							<parameter>
								<parameterid>softness</parameterid>
								<name>softness</name>
								<valuemin>0</valuemin>
								<valuemax>100</valuemax>
								<value>10</value>
							</parameter>
							<parameter>
								<parameterid>opacity</parameterid>
								<name>opacity</name>
								<valuemin>0</valuemin>
								<valuemax>100</valuemax>
								<value>50</value>
							</parameter>
						</effect>
					</filter>
					<filter>
						<enabled>FALSE</enabled>
						<effect>
							<name>Motion Blur</name>
							<effectid>motionblur</effectid>
							<effectcategory>motion</effectcategory>
							<effecttype>motion</effecttype>
							<mediatype>video</mediatype>
							<parameter>
								<parameterid>duration</parameterid>
								<name>% Blur</name>
								<valuemin>0</valuemin>
								<valuemax>1000</valuemax>
								<value>500</value>
							</parameter>
							<parameter>
								<parameterid>samples</parameterid>
								<name>Samples</name>
								<valuemin>1</valuemin>
								<valuemax>16</valuemax>
								<value>4</value>
							</parameter>
						</effect>
					</filter>
					<filter>
						<effect>
							<name>Crop</name>
							<effectid>crop</effectid>
							<effectcategory>motion</effectcategory>
							<effecttype>motion</effecttype>
							<mediatype>video</mediatype>
							<parameter>
								<parameterid>left</parameterid>
								<name>left</name>
								<valuemin>0</valuemin>
								<valuemax>100</valuemax>
								<value>0</value>
							</parameter>
							<parameter>
								<parameterid>right</parameterid>
								<name>right</name>
								<valuemin>0</valuemin>
								<valuemax>100</valuemax>
								<value>0</value>
							</parameter>
							<parameter>
								<parameterid>top</parameterid>
								<name>top</name>
								<valuemin>0</valuemin>
								<valuemax>100</valuemax>
								<value>0</value>
							</parameter>
							<parameter>
								<parameterid>bottom</parameterid>
								<name>bottom</name>
								<valuemin>0</valuemin>
								<valuemax>100</valuemax>
								<value>0</value>
							</parameter>
							<parameter>
								<parameterid>edgefeather</parameterid>
								<name>edgefeather</name>
								<valuemin>0</valuemin>
								<valuemax>100</valuemax>
								<value>0</value>
							</parameter>
						</effect>
					</filter>
					<filter>
						<effect>
							<name>Distort</name>
							<effectid>deformation</effectid>
							<effectcategory>motion</effectcategory>
							<effecttype>motion</effecttype>
							<mediatype>video</mediatype>
							<parameter>
								<parameterid>ulcorner</parameterid>
								<name>Upper Left</name>
								<value>
									<horiz>-0.5</horiz>
									<vert>-0.5</vert>
								</value>
							</parameter>
							<parameter>
								<parameterid>urcorner</parameterid>
								<name>Upper Right</name>
								<value>
									<horiz>0.5</horiz>
									<vert>-0.5</vert>
								</value>
							</parameter>
							<parameter>
								<parameterid>lrcorner</parameterid>
								<name>Lower Right</name>
								<value>
									<horiz>0.5</horiz>
									<vert>0.5</vert>
								</value>
							</parameter>
							<parameter>
								<parameterid>llcorner</parameterid>
								<name>Lower Left</name>
								<value>
									<horiz>-0.5</horiz>
									<vert>0.5</vert>
								</value>
							</parameter>
							<parameter>
								<parameterid>aspect</parameterid>
								<name>Aspect</name>
								<valuemin>-10000</valuemin>
								<valuemax>10000</valuemax>
								<value>0</value>
							</parameter>
						</effect>
					</filter>
					<filter>
						<effect>
							<name>Opacity</name>
							<effectid>opacity</effectid>
							<effectcategory>motion</effectcategory>
							<effecttype>motion</effecttype>
							<mediatype>video</mediatype>
							<parameter>
								<parameterid>opacity</parameterid>
								<name>opacity</name>
								<valuemin>0</valuemin>
								<valuemax>100</valuemax>
								<value>100</value>
							</parameter>
						</effect>
					</filter>
					<sourcetrack>
						<mediatype>video</mediatype>
					</sourcetrack>
					<fielddominance>lower</fielddominance>
					<itemhistory>
						<uuid>0A81B6B8-C2B9-486B-AC9B-FD853A6FA9A8</uuid>
					</itemhistory>
				</clipitem>
				<clipitem id="Roll 1 - Logged-Pro-res Proxy - Silent8">
					<name>Roll 1 - Logged-Pro-res Proxy - Silent</name>
					<duration>5071</duration>
					<rate>
						<ntsc>TRUE</ntsc>
						<timebase>30</timebase>
					</rate>
					<in>4494</in>
					<out>4578</out>
					<start>12982</start>
					<end>13066</end>
					<pixelaspectratio>NTSC-601</pixelaspectratio>
					<enabled>TRUE</enabled>
					<anamorphic>FALSE</anamorphic>
					<alphatype>none</alphatype>
					<masterclipid>Roll 1 - Logged-Pro-res Proxy - Silent1</masterclipid>
					<logginginfo>
						<scene/>
						<shottake/>
						<lognote/>
						<good>FALSE</good>
					</logginginfo>
					<labels>
						<label2/>
					</labels>
					<comments>
						<mastercomment1/>
						<mastercomment2/>
						<mastercomment3/>
						<mastercomment4/>
					</comments>
					<file id="Roll 1 - Logged-Pro-res Proxy - Silent2"/>
					<filter>
						<effect>
							<name>Basic Motion</name>
							<effectid>basic</effectid>
							<effectcategory>motion</effectcategory>
							<effecttype>motion</effecttype>
							<mediatype>video</mediatype>
							<parameter>
								<parameterid>scale</parameterid>
								<name>Scale</name>
								<valuemin>0</valuemin>
								<valuemax>1000</valuemax>
								<value>100</value>
							</parameter>
							<parameter>
								<parameterid>rotation</parameterid>
								<name>Rotation</name>
								<valuemin>-8640</valuemin>
								<valuemax>8640</valuemax>
								<value>0</value>
							</parameter>
							<parameter>
								<parameterid>center</parameterid>
								<name>Center</name>
								<value>
									<horiz>0</horiz>
									<vert>0</vert>
								</value>
							</parameter>
							<parameter>
								<parameterid>centerOffset</parameterid>
								<name>Anchor Point</name>
								<value>
									<horiz>0</horiz>
									<vert>0</vert>
								</value>
							</parameter>
						</effect>
					</filter>
					<filter>
						<enabled>FALSE</enabled>
						<effect>
							<name>Drop Shadow</name>
							<effectid>dropshadow</effectid>
							<effectcategory>motion</effectcategory>
							<effecttype>motion</effecttype>
							<mediatype>video</mediatype>
							<parameter>
								<parameterid>offset</parameterid>
								<name>offset</name>
								<valuemin>-100</valuemin>
								<valuemax>100</valuemax>
								<value>2</value>
							</parameter>
							<parameter>
								<parameterid>angle</parameterid>
								<name>angle</name>
								<valuemin>-720</valuemin>
								<valuemax>720</valuemax>
								<value>135</value>
							</parameter>
							<parameter>
								<parameterid>color</parameterid>
								<name>color</name>
								<value>
									<alpha>0</alpha>
									<red>0</red>
									<green>0</green>
									<blue>0</blue>
								</value>
							</parameter>
							<parameter>
								<parameterid>softness</parameterid>
								<name>softness</name>
								<valuemin>0</valuemin>
								<valuemax>100</valuemax>
								<value>10</value>
							</parameter>
							<parameter>
								<parameterid>opacity</parameterid>
								<name>opacity</name>
								<valuemin>0</valuemin>
								<valuemax>100</valuemax>
								<value>50</value>
							</parameter>
						</effect>
					</filter>
					<filter>
						<enabled>FALSE</enabled>
						<effect>
							<name>Motion Blur</name>
							<effectid>motionblur</effectid>
							<effectcategory>motion</effectcategory>
							<effecttype>motion</effecttype>
							<mediatype>video</mediatype>
							<parameter>
								<parameterid>duration</parameterid>
								<name>% Blur</name>
								<valuemin>0</valuemin>
								<valuemax>1000</valuemax>
								<value>500</value>
							</parameter>
							<parameter>
								<parameterid>samples</parameterid>
								<name>Samples</name>
								<valuemin>1</valuemin>
								<valuemax>16</valuemax>
								<value>4</value>
							</parameter>
						</effect>
					</filter>
					<filter>
						<effect>
							<name>Crop</name>
							<effectid>crop</effectid>
							<effectcategory>motion</effectcategory>
							<effecttype>motion</effecttype>
							<mediatype>video</mediatype>
							<parameter>
								<parameterid>left</parameterid>
								<name>left</name>
								<valuemin>0</valuemin>
								<valuemax>100</valuemax>
								<value>0</value>
							</parameter>
							<parameter>
								<parameterid>right</parameterid>
								<name>right</name>
								<valuemin>0</valuemin>
								<valuemax>100</valuemax>
								<value>0</value>
							</parameter>
							<parameter>
								<parameterid>top</parameterid>
								<name>top</name>
								<valuemin>0</valuemin>
								<valuemax>100</valuemax>
								<value>0</value>
							</parameter>
							<parameter>
								<parameterid>bottom</parameterid>
								<name>bottom</name>
								<valuemin>0</valuemin>
								<valuemax>100</valuemax>
								<value>0</value>
							</parameter>
							<parameter>
								<parameterid>edgefeather</parameterid>
								<name>edgefeather</name>
								<valuemin>0</valuemin>
								<valuemax>100</valuemax>
								<value>0</value>
							</parameter>
						</effect>
					</filter>
					<filter>
						<effect>
							<name>Distort</name>
							<effectid>deformation</effectid>
							<effectcategory>motion</effectcategory>
							<effecttype>motion</effecttype>
							<mediatype>video</mediatype>
							<parameter>
								<parameterid>ulcorner</parameterid>
								<name>Upper Left</name>
								<value>
									<horiz>-0.5</horiz>
									<vert>-0.5</vert>
								</value>
							</parameter>
							<parameter>
								<parameterid>urcorner</parameterid>
								<name>Upper Right</name>
								<value>
									<horiz>0.5</horiz>
									<vert>-0.5</vert>
								</value>
							</parameter>
							<parameter>
								<parameterid>lrcorner</parameterid>
								<name>Lower Right</name>
								<value>
									<horiz>0.5</horiz>
									<vert>0.5</vert>
								</value>
							</parameter>
							<parameter>
								<parameterid>llcorner</parameterid>
								<name>Lower Left</name>
								<value>
									<horiz>-0.5</horiz>
									<vert>0.5</vert>
								</value>
							</parameter>
							<parameter>
								<parameterid>aspect</parameterid>
								<name>Aspect</name>
								<valuemin>-10000</valuemin>
								<valuemax>10000</valuemax>
								<value>0</value>
							</parameter>
						</effect>
					</filter>
					<filter>
						<effect>
							<name>Opacity</name>
							<effectid>opacity</effectid>
							<effectcategory>motion</effectcategory>
							<effecttype>motion</effecttype>
							<mediatype>video</mediatype>
							<parameter>
								<parameterid>opacity</parameterid>
								<name>opacity</name>
								<valuemin>0</valuemin>
								<valuemax>100</valuemax>
								<value>100</value>
							</parameter>
						</effect>
					</filter>
					<sourcetrack>
						<mediatype>video</mediatype>
					</sourcetrack>
					<fielddominance>lower</fielddominance>
					<itemhistory>
						<uuid>F906C514-1D14-4366-AA6F-E5F2FC3AC413</uuid>
					</itemhistory>
				</clipitem>
				<clipitem id="Roll 4 - Logged-Pro-res Proxy - Silent4">
					<name>Roll 4 - Logged-Pro-res Proxy - Silent</name>
					<duration>5231</duration>
					<rate>
						<ntsc>TRUE</ntsc>
						<timebase>30</timebase>
					</rate>
					<in>1727</in>
					<out>2127</out>
					<start>13625</start>
					<end>14025</end>
					<pixelaspectratio>NTSC-601</pixelaspectratio>
					<enabled>TRUE</enabled>
					<anamorphic>FALSE</anamorphic>
					<alphatype>none</alphatype>
					<masterclipid>Roll 4 - Logged-Pro-res Proxy - Silent1</masterclipid>
					<logginginfo>
						<scene/>
						<shottake/>
						<lognote/>
						<good>FALSE</good>
					</logginginfo>
					<labels>
						<label2/>
					</labels>
					<comments>
						<mastercomment1/>
						<mastercomment2/>
						<mastercomment3/>
						<mastercomment4/>
					</comments>
					<file id="Roll 4 - Logged-Pro-res Proxy - Silent2"/>
					<filter>
						<enabled>TRUE</enabled>
						<start>-1</start>
						<end>-1</end>
						<effect>
							<name>Color Corrector</name>
							<effectid>Color Corrector</effectid>
							<effectcategory>Color Correction</effectcategory>
							<effecttype>filter</effecttype>
							<mediatype>video</mediatype>
							<parameter>
								<parameterid>dispmode</parameterid>
								<name>Display Mode</name>
								<valuemin>1</valuemin>
								<valuemax>3</valuemax>
								<valuelist>
									<valueentry>
										<name>Final</name>
										<value>1</value>
									</valueentry>
									<valueentry>
										<name>Matte</name>
										<value>2</value>
									</valueentry>
									<valueentry>
										<name>Source</name>
										<value>3</value>
									</valueentry>
								</valuelist>
								<value>1</value>
							</parameter>
							<parameter>
								<parameterid>label1</parameterid>
								<name>Level Controls</name>
								<value/>
							</parameter>
							<parameter>
								<parameterid>highlights</parameterid>
								<name>Highlights</name>
								<valuemin>64</valuemin>
								<valuemax>509</valuemax>
								<value>273</value>
							</parameter>
							<parameter>
								<parameterid>mids</parameterid>
								<name>Mids</name>
								<valuemin>0</valuemin>
								<valuemax>200</valuemax>
								<value>120</value>
							</parameter>
							<parameter>
								<parameterid>blacklevel</parameterid>
								<name>Blacks</name>
								<valuemin>-196</valuemin>
								<valuemax>254</valuemax>
								<value>5</value>
							</parameter>
							<parameter>
								<parameterid>label2</parameterid>
								<name>Color Balance</name>
								<value/>
							</parameter>
							<parameter>
								<parameterid>hue</parameterid>
								<name>Angle</name>
								<valuemin>-180</valuemin>
								<valuemax>180</valuemax>
								<value>-33</value>
							</parameter>
							<parameter>
								<parameterid>mag</parameterid>
								<name>Magnitude</name>
								<valuemin>0</valuemin>
								<valuemax>200</valuemax>
								<value>0</value>
							</parameter>
							<parameter>
								<parameterid>label4</parameterid>
								<name>Color Controls</name>
								<value/>
							</parameter>
							<parameter>
								<parameterid>chroma</parameterid>
								<name>Saturation</name>
								<valuemin>0</valuemin>
								<valuemax>200</valuemax>
								<value>100</value>
							</parameter>
							<parameter>
								<parameterid>phase</parameterid>
								<name>Phase shift</name>
								<valuemin>-180</valuemin>
								<valuemax>180</valuemax>
								<value>0</value>
							</parameter>
							<parameter>
								<parameterid>label5</parameterid>
								<name>Limit Effect Controls</name>
								<value/>
							</parameter>
							<parameter>
								<parameterid>dochroma</parameterid>
								<name>Limit on Chroma</name>
								<value>FALSE</value>
							</parameter>
							<parameter>
								<parameterid>centerang</parameterid>
								<name>Chroma Center</name>
								<valuemin>-760</valuemin>
								<valuemax>760</valuemax>
								<value>-110</value>
							</parameter>
							<parameter>
								<parameterid>chromawidth</parameterid>
								<name>Chroma Width</name>
								<valuemin>0</valuemin>
								<valuemax>360</valuemax>
								<value>15</value>
							</parameter>
							<parameter>
								<parameterid>chromasoft</parameterid>
								<name>Chroma Softness</name>
								<valuemin>0</valuemin>
								<valuemax>180</valuemax>
								<value>10</value>
							</parameter>
							<parameter>
								<parameterid>dosat</parameterid>
								<name>Limit on Saturation</name>
								<value>FALSE</value>
							</parameter>
							<parameter>
								<parameterid>satmin</parameterid>
								<name>Sat. Minimum</name>
								<valuemin>0</valuemin>
								<valuemax>125</valuemax>
								<value>35</value>
							</parameter>
							<parameter>
								<parameterid>satwidth</parameterid>
								<name>Sat. Width</name>
								<valuemin>0</valuemin>
								<valuemax>125</valuemax>
								<value>40</value>
							</parameter>
							<parameter>
								<parameterid>satsoft</parameterid>
								<name>Sat. Softness</name>
								<valuemin>0</valuemin>
								<valuemax>125</valuemax>
								<value>20</value>
							</parameter>
							<parameter>
								<parameterid>doluma</parameterid>
								<name>Limit on Luma</name>
								<value>FALSE</value>
							</parameter>
							<parameter>
								<parameterid>lumamin</parameterid>
								<name>Luma Minimum</name>
								<valuemin>0</valuemin>
								<valuemax>120</valuemax>
								<value>0</value>
							</parameter>
							<parameter>
								<parameterid>lumawidth</parameterid>
								<name>Luma Width</name>
								<valuemin>0</valuemin>
								<valuemax>120</valuemax>
								<value>40</value>
							</parameter>
							<parameter>
								<parameterid>lumasoft</parameterid>
								<name>Luma Softness</name>
								<valuemin>0</valuemin>
								<valuemax>120</valuemax>
								<value>20</value>
							</parameter>
							<parameter>
								<parameterid>label6</parameterid>
								<name>Edge Control</name>
								<value/>
							</parameter>
							<parameter>
								<parameterid>edgethin</parameterid>
								<name>Thin/Spread</name>
								<valuemin>-100</valuemin>
								<valuemax>100</valuemax>
								<value>0</value>
							</parameter>
							<parameter>
								<parameterid>edgefeather</parameterid>
								<name>Softening</name>
								<valuemin>0</valuemin>
								<valuemax>100</valuemax>
								<value>0</value>
							</parameter>
							<parameter>
								<parameterid>label7</parameterid>
								<name>Mask Control</name>
								<value/>
							</parameter>
							<parameter>
								<parameterid>invertsel</parameterid>
								<name>Invert</name>
								<value>FALSE</value>
							</parameter>
							<parameter>
								<parameterid>debugshow</parameterid>
								<name>Show Stats</name>
								<value>FALSE</value>
							</parameter>
						</effect>
					</filter>
					<filter>
						<effect>
							<name>Opacity</name>
							<effectid>opacity</effectid>
							<effectcategory>motion</effectcategory>
							<effecttype>motion</effecttype>
							<mediatype>video</mediatype>
							<parameter>
								<parameterid>opacity</parameterid>
								<name>opacity</name>
								<valuemin>0</valuemin>
								<valuemax>100</valuemax>
								<value>100</value>
							</parameter>
						</effect>
					</filter>
					<sourcetrack>
						<mediatype>video</mediatype>
					</sourcetrack>
					<fielddominance>lower</fielddominance>
					<itemhistory>
						<uuid>485AEA53-3333-41B9-91EA-4502E8BEC6A0</uuid>
					</itemhistory>
				</clipitem>
				<clipitem id="Roll 7 - Logged-Pro-res Proxy - Silent4">
					<name>Roll 7 - Logged-Pro-res Proxy - Silent</name>
					<duration>4695</duration>
					<rate>
						<ntsc>TRUE</ntsc>
						<timebase>30</timebase>
					</rate>
					<in>4385</in>
					<out>4497</out>
					<start>15635</start>
					<end>15747</end>
					<pixelaspectratio>NTSC-601</pixelaspectratio>
					<enabled>TRUE</enabled>
					<anamorphic>FALSE</anamorphic>
					<alphatype>none</alphatype>
					<masterclipid>Roll 7 - Logged-Pro-res Proxy - Silent1</masterclipid>
					<logginginfo>
						<scene/>
						<shottake/>
						<lognote/>
						<good>FALSE</good>
					</logginginfo>
					<labels>
						<label2/>
					</labels>
					<comments>
						<mastercomment1/>
						<mastercomment2/>
						<mastercomment3/>
						<mastercomment4/>
					</comments>
					<file id="Roll 7 - Logged-Pro-res Proxy - Silent2"/>
					<filter>
						<enabled>TRUE</enabled>
						<start>-1</start>
						<end>-1</end>
						<effect>
							<name>Color Corrector</name>
							<effectid>Color Corrector</effectid>
							<effectcategory>Color Correction</effectcategory>
							<effecttype>filter</effecttype>
							<mediatype>video</mediatype>
							<parameter>
								<parameterid>dispmode</parameterid>
								<name>Display Mode</name>
								<valuemin>1</valuemin>
								<valuemax>3</valuemax>
								<valuelist>
									<valueentry>
										<name>Final</name>
										<value>1</value>
									</valueentry>
									<valueentry>
										<name>Matte</name>
										<value>2</value>
									</valueentry>
									<valueentry>
										<name>Source</name>
										<value>3</value>
									</valueentry>
								</valuelist>
								<value>1</value>
							</parameter>
							<parameter>
								<parameterid>label1</parameterid>
								<name>Level Controls</name>
								<value/>
							</parameter>
							<parameter>
								<parameterid>highlights</parameterid>
								<name>Highlights</name>
								<valuemin>64</valuemin>
								<valuemax>509</valuemax>
								<value>255</value>
							</parameter>
							<parameter>
								<parameterid>mids</parameterid>
								<name>Mids</name>
								<valuemin>0</valuemin>
								<valuemax>200</valuemax>
								<value>128</value>
							</parameter>
							<parameter>
								<parameterid>blacklevel</parameterid>
								<name>Blacks</name>
								<valuemin>-196</valuemin>
								<valuemax>254</valuemax>
								<value>5</value>
							</parameter>
							<parameter>
								<parameterid>label2</parameterid>
								<name>Color Balance</name>
								<value/>
							</parameter>
							<parameter>
								<parameterid>hue</parameterid>
								<name>Angle</name>
								<valuemin>-180</valuemin>
								<valuemax>180</valuemax>
								<value>162.234</value>
							</parameter>
							<parameter>
								<parameterid>mag</parameterid>
								<name>Magnitude</name>
								<valuemin>0</valuemin>
								<valuemax>200</valuemax>
								<value>38.6306</value>
							</parameter>
							<parameter>
								<parameterid>label4</parameterid>
								<name>Color Controls</name>
								<value/>
							</parameter>
							<parameter>
								<parameterid>chroma</parameterid>
								<name>Saturation</name>
								<valuemin>0</valuemin>
								<valuemax>200</valuemax>
								<value>100</value>
							</parameter>
							<parameter>
								<parameterid>phase</parameterid>
								<name>Phase shift</name>
								<valuemin>-180</valuemin>
								<valuemax>180</valuemax>
								<value>0</value>
							</parameter>
							<parameter>
								<parameterid>label5</parameterid>
								<name>Limit Effect Controls</name>
								<value/>
							</parameter>
							<parameter>
								<parameterid>dochroma</parameterid>
								<name>Limit on Chroma</name>
								<value>FALSE</value>
							</parameter>
							<parameter>
								<parameterid>centerang</parameterid>
								<name>Chroma Center</name>
								<valuemin>-760</valuemin>
								<valuemax>760</valuemax>
								<value>-110</value>
							</parameter>
							<parameter>
								<parameterid>chromawidth</parameterid>
								<name>Chroma Width</name>
								<valuemin>0</valuemin>
								<valuemax>360</valuemax>
								<value>15</value>
							</parameter>
							<parameter>
								<parameterid>chromasoft</parameterid>
								<name>Chroma Softness</name>
								<valuemin>0</valuemin>
								<valuemax>180</valuemax>
								<value>10</value>
							</parameter>
							<parameter>
								<parameterid>dosat</parameterid>
								<name>Limit on Saturation</name>
								<value>FALSE</value>
							</parameter>
							<parameter>
								<parameterid>satmin</parameterid>
								<name>Sat. Minimum</name>
								<valuemin>0</valuemin>
								<valuemax>125</valuemax>
								<value>35</value>
							</parameter>
							<parameter>
								<parameterid>satwidth</parameterid>
								<name>Sat. Width</name>
								<valuemin>0</valuemin>
								<valuemax>125</valuemax>
								<value>40</value>
							</parameter>
							<parameter>
								<parameterid>satsoft</parameterid>
								<name>Sat. Softness</name>
								<valuemin>0</valuemin>
								<valuemax>125</valuemax>
								<value>20</value>
							</parameter>
							<parameter>
								<parameterid>doluma</parameterid>
								<name>Limit on Luma</name>
								<value>FALSE</value>
							</parameter>
							<parameter>
								<parameterid>lumamin</parameterid>
								<name>Luma Minimum</name>
								<valuemin>0</valuemin>
								<valuemax>120</valuemax>
								<value>0</value>
							</parameter>
							<parameter>
								<parameterid>lumawidth</parameterid>
								<name>Luma Width</name>
								<valuemin>0</valuemin>
								<valuemax>120</valuemax>
								<value>40</value>
							</parameter>
							<parameter>
								<parameterid>lumasoft</parameterid>
								<name>Luma Softness</name>
								<valuemin>0</valuemin>
								<valuemax>120</valuemax>
								<value>20</value>
							</parameter>
							<parameter>
								<parameterid>label6</parameterid>
								<name>Edge Control</name>
								<value/>
							</parameter>
							<parameter>
								<parameterid>edgethin</parameterid>
								<name>Thin/Spread</name>
								<valuemin>-100</valuemin>
								<valuemax>100</valuemax>
								<value>0</value>
							</parameter>
							<parameter>
								<parameterid>edgefeather</parameterid>
								<name>Softening</name>
								<valuemin>0</valuemin>
								<valuemax>100</valuemax>
								<value>0</value>
							</parameter>
							<parameter>
								<parameterid>label7</parameterid>
								<name>Mask Control</name>
								<value/>
							</parameter>
							<parameter>
								<parameterid>invertsel</parameterid>
								<name>Invert</name>
								<value>FALSE</value>
							</parameter>
							<parameter>
								<parameterid>debugshow</parameterid>
								<name>Show Stats</name>
								<value>FALSE</value>
							</parameter>
						</effect>
					</filter>
					<sourcetrack>
						<mediatype>video</mediatype>
					</sourcetrack>
					<fielddominance>lower</fielddominance>
					<itemhistory>
						<uuid>329409E3-15BC-4784-A678-BF7C82CAA71A</uuid>
						<uuid>E875BAD3-019F-43DC-A97C-A454B7BB8A51</uuid>
					</itemhistory>
				</clipitem>
				<clipitem id="Roll 7 - Logged-Pro-res Proxy - Silent5">
					<name>Roll 7 - Logged-Pro-res Proxy - Silent</name>
					<duration>4695</duration>
					<rate>
						<ntsc>TRUE</ntsc>
						<timebase>30</timebase>
					</rate>
					<in>4497</in>
					<out>4603</out>
					<start>15747</start>
					<end>15853</end>
					<pixelaspectratio>NTSC-601</pixelaspectratio>
					<enabled>TRUE</enabled>
					<anamorphic>FALSE</anamorphic>
					<alphatype>none</alphatype>
					<masterclipid>Roll 7 - Logged-Pro-res Proxy - Silent1</masterclipid>
					<logginginfo>
						<scene/>
						<shottake/>
						<lognote/>
						<good>FALSE</good>
					</logginginfo>
					<labels>
						<label2/>
					</labels>
					<comments>
						<mastercomment1/>
						<mastercomment2/>
						<mastercomment3/>
						<mastercomment4/>
					</comments>
					<file id="Roll 7 - Logged-Pro-res Proxy - Silent2"/>
					<filter>
						<enabled>TRUE</enabled>
						<start>-1</start>
						<end>-1</end>
						<effect>
							<name>Color Corrector</name>
							<effectid>Color Corrector</effectid>
							<effectcategory>Color Correction</effectcategory>
							<effecttype>filter</effecttype>
							<mediatype>video</mediatype>
							<parameter>
								<parameterid>dispmode</parameterid>
								<name>Display Mode</name>
								<valuemin>1</valuemin>
								<valuemax>3</valuemax>
								<valuelist>
									<valueentry>
										<name>Final</name>
										<value>1</value>
									</valueentry>
									<valueentry>
										<name>Matte</name>
										<value>2</value>
									</valueentry>
									<valueentry>
										<name>Source</name>
										<value>3</value>
									</valueentry>
								</valuelist>
								<value>1</value>
							</parameter>
							<parameter>
								<parameterid>label1</parameterid>
								<name>Level Controls</name>
								<value/>
							</parameter>
							<parameter>
								<parameterid>highlights</parameterid>
								<name>Highlights</name>
								<valuemin>64</valuemin>
								<valuemax>509</valuemax>
								<value>255</value>
							</parameter>
							<parameter>
								<parameterid>mids</parameterid>
								<name>Mids</name>
								<valuemin>0</valuemin>
								<valuemax>200</valuemax>
								<value>128</value>
							</parameter>
							<parameter>
								<parameterid>blacklevel</parameterid>
								<name>Blacks</name>
								<valuemin>-196</valuemin>
								<valuemax>254</valuemax>
								<value>5</value>
							</parameter>
							<parameter>
								<parameterid>label2</parameterid>
								<name>Color Balance</name>
								<value/>
							</parameter>
							<parameter>
								<parameterid>hue</parameterid>
								<name>Angle</name>
								<valuemin>-180</valuemin>
								<valuemax>180</valuemax>
								<value>162.234</value>
							</parameter>
							<parameter>
								<parameterid>mag</parameterid>
								<name>Magnitude</name>
								<valuemin>0</valuemin>
								<valuemax>200</valuemax>
								<value>38.6306</value>
							</parameter>
							<parameter>
								<parameterid>label4</parameterid>
								<name>Color Controls</name>
								<value/>
							</parameter>
							<parameter>
								<parameterid>chroma</parameterid>
								<name>Saturation</name>
								<valuemin>0</valuemin>
								<valuemax>200</valuemax>
								<value>100</value>
							</parameter>
							<parameter>
								<parameterid>phase</parameterid>
								<name>Phase shift</name>
								<valuemin>-180</valuemin>
								<valuemax>180</valuemax>
								<value>0</value>
							</parameter>
							<parameter>
								<parameterid>label5</parameterid>
								<name>Limit Effect Controls</name>
								<value/>
							</parameter>
							<parameter>
								<parameterid>dochroma</parameterid>
								<name>Limit on Chroma</name>
								<value>FALSE</value>
							</parameter>
							<parameter>
								<parameterid>centerang</parameterid>
								<name>Chroma Center</name>
								<valuemin>-760</valuemin>
								<valuemax>760</valuemax>
								<value>-110</value>
							</parameter>
							<parameter>
								<parameterid>chromawidth</parameterid>
								<name>Chroma Width</name>
								<valuemin>0</valuemin>
								<valuemax>360</valuemax>
								<value>15</value>
							</parameter>
							<parameter>
								<parameterid>chromasoft</parameterid>
								<name>Chroma Softness</name>
								<valuemin>0</valuemin>
								<valuemax>180</valuemax>
								<value>10</value>
							</parameter>
							<parameter>
								<parameterid>dosat</parameterid>
								<name>Limit on Saturation</name>
								<value>FALSE</value>
							</parameter>
							<parameter>
								<parameterid>satmin</parameterid>
								<name>Sat. Minimum</name>
								<valuemin>0</valuemin>
								<valuemax>125</valuemax>
								<value>35</value>
							</parameter>
							<parameter>
								<parameterid>satwidth</parameterid>
								<name>Sat. Width</name>
								<valuemin>0</valuemin>
								<valuemax>125</valuemax>
								<value>40</value>
							</parameter>
							<parameter>
								<parameterid>satsoft</parameterid>
								<name>Sat. Softness</name>
								<valuemin>0</valuemin>
								<valuemax>125</valuemax>
								<value>20</value>
							</parameter>
							<parameter>
								<parameterid>doluma</parameterid>
								<name>Limit on Luma</name>
								<value>FALSE</value>
							</parameter>
							<parameter>
								<parameterid>lumamin</parameterid>
								<name>Luma Minimum</name>
								<valuemin>0</valuemin>
								<valuemax>120</valuemax>
								<value>0</value>
							</parameter>
							<parameter>
								<parameterid>lumawidth</parameterid>
								<name>Luma Width</name>
								<valuemin>0</valuemin>
								<valuemax>120</valuemax>
								<value>40</value>
							</parameter>
							<parameter>
								<parameterid>lumasoft</parameterid>
								<name>Luma Softness</name>
								<valuemin>0</valuemin>
								<valuemax>120</valuemax>
								<value>20</value>
							</parameter>
							<parameter>
								<parameterid>label6</parameterid>
								<name>Edge Control</name>
								<value/>
							</parameter>
							<parameter>
								<parameterid>edgethin</parameterid>
								<name>Thin/Spread</name>
								<valuemin>-100</valuemin>
								<valuemax>100</valuemax>
								<value>0</value>
							</parameter>
							<parameter>
								<parameterid>edgefeather</parameterid>
								<name>Softening</name>
								<valuemin>0</valuemin>
								<valuemax>100</valuemax>
								<value>0</value>
							</parameter>
							<parameter>
								<parameterid>label7</parameterid>
								<name>Mask Control</name>
								<value/>
							</parameter>
							<parameter>
								<parameterid>invertsel</parameterid>
								<name>Invert</name>
								<value>FALSE</value>
							</parameter>
							<parameter>
								<parameterid>debugshow</parameterid>
								<name>Show Stats</name>
								<value>FALSE</value>
							</parameter>
						</effect>
					</filter>
					<sourcetrack>
						<mediatype>video</mediatype>
					</sourcetrack>
					<fielddominance>lower</fielddominance>
					<itemhistory>
						<uuid>C68C68DC-2678-480D-98FF-4691B4D26CB0</uuid>
						<uuid>E875BAD3-019F-43DC-A97C-A454B7BB8A51</uuid>
					</itemhistory>
				</clipitem>
				<clipitem id="Roll 7 - Logged-Pro-res Proxy - Silent6">
					<name>Roll 7 - Logged-Pro-res Proxy - Silent</name>
					<duration>4695</duration>
					<rate>
						<ntsc>TRUE</ntsc>
						<timebase>30</timebase>
					</rate>
					<in>3580</in>
					<out>3944</out>
					<start>15924</start>
					<end>16288</end>
					<pixelaspectratio>NTSC-601</pixelaspectratio>
					<enabled>TRUE</enabled>
					<anamorphic>FALSE</anamorphic>
					<alphatype>none</alphatype>
					<masterclipid>Roll 7 - Logged-Pro-res Proxy - Silent1</masterclipid>
					<logginginfo>
						<scene/>
						<shottake/>
						<lognote/>
						<good>FALSE</good>
					</logginginfo>
					<labels>
						<label2/>
					</labels>
					<comments>
						<mastercomment1/>
						<mastercomment2/>
						<mastercomment3/>
						<mastercomment4/>
					</comments>
					<file id="Roll 7 - Logged-Pro-res Proxy - Silent2"/>
					<filter>
						<enabled>TRUE</enabled>
						<start>-1</start>
						<end>-1</end>
						<effect>
							<name>Color Corrector</name>
							<effectid>Color Corrector</effectid>
							<effectcategory>Color Correction</effectcategory>
							<effecttype>filter</effecttype>
							<mediatype>video</mediatype>
							<parameter>
								<parameterid>dispmode</parameterid>
								<name>Display Mode</name>
								<valuemin>1</valuemin>
								<valuemax>3</valuemax>
								<valuelist>
									<valueentry>
										<name>Final</name>
										<value>1</value>
									</valueentry>
									<valueentry>
										<name>Matte</name>
										<value>2</value>
									</valueentry>
									<valueentry>
										<name>Source</name>
										<value>3</value>
									</valueentry>
								</valuelist>
								<value>1</value>
							</parameter>
							<parameter>
								<parameterid>label1</parameterid>
								<name>Level Controls</name>
								<value/>
							</parameter>
							<parameter>
								<parameterid>highlights</parameterid>
								<name>Highlights</name>
								<valuemin>64</valuemin>
								<valuemax>509</valuemax>
								<value>255</value>
							</parameter>
							<parameter>
								<parameterid>mids</parameterid>
								<name>Mids</name>
								<valuemin>0</valuemin>
								<valuemax>200</valuemax>
								<value>128</value>
							</parameter>
							<parameter>
								<parameterid>blacklevel</parameterid>
								<name>Blacks</name>
								<valuemin>-196</valuemin>
								<valuemax>254</valuemax>
								<value>5</value>
							</parameter>
							<parameter>
								<parameterid>label2</parameterid>
								<name>Color Balance</name>
								<value/>
							</parameter>
							<parameter>
								<parameterid>hue</parameterid>
								<name>Angle</name>
								<valuemin>-180</valuemin>
								<valuemax>180</valuemax>
								<value>162.234</value>
							</parameter>
							<parameter>
								<parameterid>mag</parameterid>
								<name>Magnitude</name>
								<valuemin>0</valuemin>
								<valuemax>200</valuemax>
								<value>38.6306</value>
							</parameter>
							<parameter>
								<parameterid>label4</parameterid>
								<name>Color Controls</name>
								<value/>
							</parameter>
							<parameter>
								<parameterid>chroma</parameterid>
								<name>Saturation</name>
								<valuemin>0</valuemin>
								<valuemax>200</valuemax>
								<value>100</value>
							</parameter>
							<parameter>
								<parameterid>phase</parameterid>
								<name>Phase shift</name>
								<valuemin>-180</valuemin>
								<valuemax>180</valuemax>
								<value>0</value>
							</parameter>
							<parameter>
								<parameterid>label5</parameterid>
								<name>Limit Effect Controls</name>
								<value/>
							</parameter>
							<parameter>
								<parameterid>dochroma</parameterid>
								<name>Limit on Chroma</name>
								<value>FALSE</value>
							</parameter>
							<parameter>
								<parameterid>centerang</parameterid>
								<name>Chroma Center</name>
								<valuemin>-760</valuemin>
								<valuemax>760</valuemax>
								<value>-110</value>
							</parameter>
							<parameter>
								<parameterid>chromawidth</parameterid>
								<name>Chroma Width</name>
								<valuemin>0</valuemin>
								<valuemax>360</valuemax>
								<value>15</value>
							</parameter>
							<parameter>
								<parameterid>chromasoft</parameterid>
								<name>Chroma Softness</name>
								<valuemin>0</valuemin>
								<valuemax>180</valuemax>
								<value>10</value>
							</parameter>
							<parameter>
								<parameterid>dosat</parameterid>
								<name>Limit on Saturation</name>
								<value>FALSE</value>
							</parameter>
							<parameter>
								<parameterid>satmin</parameterid>
								<name>Sat. Minimum</name>
								<valuemin>0</valuemin>
								<valuemax>125</valuemax>
								<value>35</value>
							</parameter>
							<parameter>
								<parameterid>satwidth</parameterid>
								<name>Sat. Width</name>
								<valuemin>0</valuemin>
								<valuemax>125</valuemax>
								<value>40</value>
							</parameter>
							<parameter>
								<parameterid>satsoft</parameterid>
								<name>Sat. Softness</name>
								<valuemin>0</valuemin>
								<valuemax>125</valuemax>
								<value>20</value>
							</parameter>
							<parameter>
								<parameterid>doluma</parameterid>
								<name>Limit on Luma</name>
								<value>FALSE</value>
							</parameter>
							<parameter>
								<parameterid>lumamin</parameterid>
								<name>Luma Minimum</name>
								<valuemin>0</valuemin>
								<valuemax>120</valuemax>
								<value>0</value>
							</parameter>
							<parameter>
								<parameterid>lumawidth</parameterid>
								<name>Luma Width</name>
								<valuemin>0</valuemin>
								<valuemax>120</valuemax>
								<value>40</value>
							</parameter>
							<parameter>
								<parameterid>lumasoft</parameterid>
								<name>Luma Softness</name>
								<valuemin>0</valuemin>
								<valuemax>120</valuemax>
								<value>20</value>
							</parameter>
							<parameter>
								<parameterid>label6</parameterid>
								<name>Edge Control</name>
								<value/>
							</parameter>
							<parameter>
								<parameterid>edgethin</parameterid>
								<name>Thin/Spread</name>
								<valuemin>-100</valuemin>
								<valuemax>100</valuemax>
								<value>0</value>
							</parameter>
							<parameter>
								<parameterid>edgefeather</parameterid>
								<name>Softening</name>
								<valuemin>0</valuemin>
								<valuemax>100</valuemax>
								<value>0</value>
							</parameter>
							<parameter>
								<parameterid>label7</parameterid>
								<name>Mask Control</name>
								<value/>
							</parameter>
							<parameter>
								<parameterid>invertsel</parameterid>
								<name>Invert</name>
								<value>FALSE</value>
							</parameter>
							<parameter>
								<parameterid>debugshow</parameterid>
								<name>Show Stats</name>
								<value>FALSE</value>
							</parameter>
						</effect>
					</filter>
					<sourcetrack>
						<mediatype>video</mediatype>
					</sourcetrack>
					<fielddominance>lower</fielddominance>
					<itemhistory>
						<uuid>855D6F7F-E02C-4443-B272-0C7C0ED8C7E0</uuid>
					</itemhistory>
				</clipitem>
				<clipitem id="Roll 3 - Logged-Pro-res Proxy - Silent8">
					<name>Roll 3 - Logged-Pro-res Proxy - Silent</name>
					<duration>5311</duration>
					<rate>
						<ntsc>TRUE</ntsc>
						<timebase>30</timebase>
					</rate>
					<in>3438</in>
					<out>3543</out>
					<start>16288</start>
					<end>16393</end>
					<pixelaspectratio>NTSC-601</pixelaspectratio>
					<enabled>TRUE</enabled>
					<anamorphic>FALSE</anamorphic>
					<alphatype>none</alphatype>
					<masterclipid>Roll 3 - Logged-Pro-res Proxy - Silent1</masterclipid>
					<logginginfo>
						<scene/>
						<shottake/>
						<lognote/>
						<good>FALSE</good>
					</logginginfo>
					<labels>
						<label2/>
					</labels>
					<comments>
						<mastercomment1/>
						<mastercomment2/>
						<mastercomment3/>
						<mastercomment4/>
					</comments>
					<file id="Roll 3 - Logged-Pro-res Proxy - Silent2"/>
					<marker>
						<name>Marker 1</name>
						<comment/>
						<color>
							<alpha>0</alpha>
							<red>255</red>
							<green>0</green>
							<blue>0</blue>
						</color>
						<in>3446</in>
						<out>-1</out>
					</marker>
					<sourcetrack>
						<mediatype>video</mediatype>
					</sourcetrack>
					<fielddominance>lower</fielddominance>
					<itemhistory>
						<uuid>775A4E26-2483-498C-B713-D40E638BF8AC</uuid>
					</itemhistory>
				</clipitem>
				<clipitem id="Roll 3 - Logged-Pro-res Proxy - Silent9">
					<name>Roll 3 - Logged-Pro-res Proxy - Silent</name>
					<duration>5311</duration>
					<rate>
						<ntsc>TRUE</ntsc>
						<timebase>30</timebase>
					</rate>
					<in>3306</in>
					<out>3437</out>
					<start>16545</start>
					<end>16676</end>
					<pixelaspectratio>NTSC-601</pixelaspectratio>
					<enabled>TRUE</enabled>
					<anamorphic>FALSE</anamorphic>
					<alphatype>none</alphatype>
					<masterclipid>Roll 3 - Logged-Pro-res Proxy - Silent1</masterclipid>
					<logginginfo>
						<scene/>
						<shottake/>
						<lognote/>
						<good>FALSE</good>
					</logginginfo>
					<labels>
						<label2/>
					</labels>
					<comments>
						<mastercomment1/>
						<mastercomment2/>
						<mastercomment3/>
						<mastercomment4/>
					</comments>
					<file id="Roll 3 - Logged-Pro-res Proxy - Silent2"/>
					<sourcetrack>
						<mediatype>video</mediatype>
					</sourcetrack>
					<fielddominance>lower</fielddominance>
					<itemhistory>
						<uuid>0601F252-DB10-4C10-A89F-E7E5876B0F7C</uuid>
						<uuid>22FE892E-C558-4A52-B39A-41DC88F4636A</uuid>
					</itemhistory>
				</clipitem>
				<clipitem id="Roll 3 - Logged-Pro-res Proxy - Silent10">
					<name>Roll 3 - Logged-Pro-res Proxy - Silent</name>
					<duration>5311</duration>
					<rate>
						<ntsc>TRUE</ntsc>
						<timebase>30</timebase>
					</rate>
					<in>3727</in>
					<out>3842</out>
					<start>16857</start>
					<end>16972</end>
					<pixelaspectratio>NTSC-601</pixelaspectratio>
					<enabled>TRUE</enabled>
					<anamorphic>FALSE</anamorphic>
					<alphatype>none</alphatype>
					<masterclipid>Roll 3 - Logged-Pro-res Proxy - Silent1</masterclipid>
					<logginginfo>
						<scene/>
						<shottake/>
						<lognote/>
						<good>FALSE</good>
					</logginginfo>
					<labels>
						<label2/>
					</labels>
					<comments>
						<mastercomment1/>
						<mastercomment2/>
						<mastercomment3/>
						<mastercomment4/>
					</comments>
					<file id="Roll 3 - Logged-Pro-res Proxy - Silent2"/>
					<sourcetrack>
						<mediatype>video</mediatype>
					</sourcetrack>
					<fielddominance>lower</fielddominance>
					<itemhistory>
						<uuid>9EF52DC2-F338-4BC9-9872-154AE0B7FEC8</uuid>
						<uuid>43C28B04-FED7-4214-8318-5FF6886F9007</uuid>
					</itemhistory>
				</clipitem>
				<clipitem id="Roll 3 - Logged-Pro-res Proxy - Silent11">
					<name>Roll 3 - Logged-Pro-res Proxy - Silent</name>
					<duration>5311</duration>
					<rate>
						<ntsc>TRUE</ntsc>
						<timebase>30</timebase>
					</rate>
					<in>4160</in>
					<out>4378</out>
					<start>17173</start>
					<end>17391</end>
					<pixelaspectratio>NTSC-601</pixelaspectratio>
					<enabled>TRUE</enabled>
					<anamorphic>FALSE</anamorphic>
					<alphatype>none</alphatype>
					<masterclipid>Roll 3 - Logged-Pro-res Proxy - Silent1</masterclipid>
					<logginginfo>
						<scene/>
						<shottake/>
						<lognote/>
						<good>FALSE</good>
					</logginginfo>
					<labels>
						<label2/>
					</labels>
					<comments>
						<mastercomment1/>
						<mastercomment2/>
						<mastercomment3/>
						<mastercomment4/>
					</comments>
					<file id="Roll 3 - Logged-Pro-res Proxy - Silent2"/>
					<sourcetrack>
						<mediatype>video</mediatype>
					</sourcetrack>
					<fielddominance>lower</fielddominance>
					<itemhistory>
						<uuid>D0DD53F2-CD01-4E8D-BB96-E8B89829934C</uuid>
						<uuid>43C28B04-FED7-4214-8318-5FF6886F9007</uuid>
					</itemhistory>
				</clipitem>
				<clipitem id="Roll 3 - Logged-Pro-res Proxy - Silent12">
					<name>Roll 3 - Logged-Pro-res Proxy - Silent</name>
					<duration>5311</duration>
					<rate>
						<ntsc>TRUE</ntsc>
						<timebase>30</timebase>
					</rate>
					<in>4513</in>
					<out>4731</out>
					<start>17508</start>
					<end>17726</end>
					<pixelaspectratio>NTSC-601</pixelaspectratio>
					<enabled>TRUE</enabled>
					<anamorphic>FALSE</anamorphic>
					<alphatype>none</alphatype>
					<masterclipid>Roll 3 - Logged-Pro-res Proxy - Silent1</masterclipid>
					<logginginfo>
						<scene/>
						<shottake/>
						<lognote/>
						<good>FALSE</good>
					</logginginfo>
					<labels>
						<label2/>
					</labels>
					<comments>
						<mastercomment1/>
						<mastercomment2/>
						<mastercomment3/>
						<mastercomment4/>
					</comments>
					<file id="Roll 3 - Logged-Pro-res Proxy - Silent2"/>
					<sourcetrack>
						<mediatype>video</mediatype>
					</sourcetrack>
					<fielddominance>lower</fielddominance>
					<itemhistory>
						<uuid>144DCAF5-60B9-4C60-8865-1AC5AC063102</uuid>
						<uuid>43C28B04-FED7-4214-8318-5FF6886F9007</uuid>
					</itemhistory>
				</clipitem>
				<clipitem id="Roll 4 - Logged-Pro-res Proxy - Silent5">
					<name>Roll 4 - Logged-Pro-res Proxy - Silent</name>
					<duration>5231</duration>
					<rate>
						<ntsc>TRUE</ntsc>
						<timebase>30</timebase>
					</rate>
					<in>3437</in>
					<out>3977</out>
					<start>18388</start>
					<end>18928</end>
					<pixelaspectratio>NTSC-601</pixelaspectratio>
					<enabled>TRUE</enabled>
					<anamorphic>FALSE</anamorphic>
					<alphatype>none</alphatype>
					<masterclipid>Roll 4 - Logged-Pro-res Proxy - Silent1</masterclipid>
					<logginginfo>
						<scene/>
						<shottake/>
						<lognote/>
						<good>FALSE</good>
					</logginginfo>
					<labels>
						<label2/>
					</labels>
					<comments>
						<mastercomment1/>
						<mastercomment2/>
						<mastercomment3/>
						<mastercomment4/>
					</comments>
					<file id="Roll 4 - Logged-Pro-res Proxy - Silent2"/>
					<sourcetrack>
						<mediatype>video</mediatype>
					</sourcetrack>
					<fielddominance>lower</fielddominance>
					<itemhistory>
						<uuid>B62EB90D-C8C5-4627-83AC-4301F2747BD3</uuid>
					</itemhistory>
				</clipitem>
				<clipitem id="Roll Hi-Con 1 - Logged3">
					<name>Roll Hi-Con 1 - Logged</name>
					<duration>3634</duration>
					<rate>
						<ntsc>TRUE</ntsc>
						<timebase>30</timebase>
					</rate>
					<in>976</in>
					<out>1408</out>
					<start>19372</start>
					<end>19804</end>
					<pixelaspectratio>NTSC-601</pixelaspectratio>
					<enabled>TRUE</enabled>
					<anamorphic>FALSE</anamorphic>
					<alphatype>none</alphatype>
					<masterclipid>Roll Hi-Con 1 - Logged1</masterclipid>
					<logginginfo>
						<scene/>
						<shottake/>
						<lognote/>
						<good>FALSE</good>
					</logginginfo>
					<labels>
						<label2/>
					</labels>
					<comments>
						<mastercomment1/>
						<mastercomment2/>
						<mastercomment3/>
						<mastercomment4/>
					</comments>
					<file id="Roll Hi-Con 1 - Logged2"/>
					<sourcetrack>
						<mediatype>video</mediatype>
					</sourcetrack>
					<fielddominance>none</fielddominance>
					<itemhistory>
						<uuid>9296401A-C684-4F54-814A-78984B392405</uuid>
					</itemhistory>
				</clipitem>
				<clipitem id="Roll Hi-Con 1 - Logged4">
					<name>Roll Hi-Con 1 - Logged</name>
					<duration>3634</duration>
					<rate>
						<ntsc>TRUE</ntsc>
						<timebase>30</timebase>
					</rate>
					<in>1633</in>
					<out>1819</out>
					<start>20033</start>
					<end>20219</end>
					<pixelaspectratio>NTSC-601</pixelaspectratio>
					<enabled>TRUE</enabled>
					<anamorphic>FALSE</anamorphic>
					<alphatype>none</alphatype>
					<masterclipid>Roll Hi-Con 1 - Logged1</masterclipid>
					<logginginfo>
						<scene/>
						<shottake/>
						<lognote/>
						<good>FALSE</good>
					</logginginfo>
					<labels>
						<label2/>
					</labels>
					<comments>
						<mastercomment1/>
						<mastercomment2/>
						<mastercomment3/>
						<mastercomment4/>
					</comments>
					<file id="Roll Hi-Con 1 - Logged2"/>
					<sourcetrack>
						<mediatype>video</mediatype>
					</sourcetrack>
					<fielddominance>none</fielddominance>
					<itemhistory>
						<uuid>02B18467-2218-4031-9C06-1EE798E70D8B</uuid>
					</itemhistory>
					<mixedratesoffset>1</mixedratesoffset>
				</clipitem>
				<clipitem id="Roll Hi-Con 1 - Logged5">
					<name>Roll Hi-Con 1 - Logged</name>
					<duration>3634</duration>
					<rate>
						<ntsc>TRUE</ntsc>
						<timebase>30</timebase>
					</rate>
					<in>3495</in>
					<out>3633</out>
					<start>20445</start>
					<end>20583</end>
					<pixelaspectratio>NTSC-601</pixelaspectratio>
					<enabled>TRUE</enabled>
					<anamorphic>FALSE</anamorphic>
					<alphatype>none</alphatype>
					<masterclipid>Roll Hi-Con 1 - Logged1</masterclipid>
					<logginginfo>
						<scene/>
						<shottake/>
						<lognote/>
						<good>FALSE</good>
					</logginginfo>
					<labels>
						<label2/>
					</labels>
					<comments>
						<mastercomment1/>
						<mastercomment2/>
						<mastercomment3/>
						<mastercomment4/>
					</comments>
					<file id="Roll Hi-Con 1 - Logged2"/>
					<sourcetrack>
						<mediatype>video</mediatype>
					</sourcetrack>
					<fielddominance>none</fielddominance>
					<itemhistory>
						<uuid>D98B805A-E412-4E74-A22A-3DED78E907B8</uuid>
					</itemhistory>
				</clipitem>
				<clipitem id="Roll Hi-Con 2 - Logged10">
					<name>Roll Hi-Con 2 - Logged</name>
					<duration>5035</duration>
					<rate>
						<ntsc>TRUE</ntsc>
						<timebase>30</timebase>
					</rate>
					<in>4796</in>
					<out>5034</out>
					<start>20933</start>
					<end>21171</end>
					<pixelaspectratio>NTSC-601</pixelaspectratio>
					<enabled>TRUE</enabled>
					<anamorphic>FALSE</anamorphic>
					<alphatype>none</alphatype>
					<masterclipid>Roll Hi-Con 2 - Logged1</masterclipid>
					<logginginfo>
						<scene/>
						<shottake/>
						<lognote/>
						<good>FALSE</good>
					</logginginfo>
					<labels>
						<label2/>
					</labels>
					<comments>
						<mastercomment1/>
						<mastercomment2/>
						<mastercomment3/>
						<mastercomment4/>
					</comments>
					<file id="Roll Hi-Con 2 - Logged2"/>
					<sourcetrack>
						<mediatype>video</mediatype>
					</sourcetrack>
					<fielddominance>none</fielddominance>
					<itemhistory>
						<uuid>6AEB2919-8C7D-4EBA-91E2-C5B2985EF57C</uuid>
					</itemhistory>
				</clipitem>
				<enabled>TRUE</enabled>
				<locked>FALSE</locked>
			</track>
		</video>
		<audio>
			<format>
				<samplecharacteristics>
					<depth>16</depth>
					<samplerate>48000</samplerate>
				</samplecharacteristics>
			</format>
			<outputs>
				<group>
					<index>1</index>
					<numchannels>2</numchannels>
					<downmix>0</downmix>
					<channel>
						<index>1</index>
					</channel>
					<channel>
						<index>2</index>
					</channel>
				</group>
			</outputs>
			<in>-1</in>
			<out>-1</out>
			<track>
				<transitionitem>
					<rate>
						<ntsc>TRUE</ntsc>
						<timebase>30</timebase>
					</rate>
					<start>1267</start>
					<end>1330</end>
					<alignment>start</alignment>
					<effect>
						<name>Cross Fade (+3dB)</name>
						<effectid>KGAudioTransCrossFade3dB</effectid>
						<effecttype>transition</effecttype>
						<mediatype>audio</mediatype>
					</effect>
				</transitionitem>
				<clipitem id="STE-027.wav">
					<name>STE-027.wav</name>
					<duration>1660</duration>
					<rate>
						<ntsc>TRUE</ntsc>
						<timebase>30</timebase>
					</rate>
					<in>14</in>
					<out>1660</out>
					<start>-1</start>
					<end>-1</end>
					<masterclipid>STE-027.wav1</masterclipid>
					<logginginfo>
						<scene/>
						<shottake/>
						<lognote/>
						<good>FALSE</good>
					</logginginfo>
					<labels>
						<label2/>
					</labels>
					<comments>
						<mastercomment1/>
						<mastercomment2/>
						<mastercomment3/>
						<mastercomment4/>
					</comments>
					<file id="STE-027 ">
						<name>STE-027.wav</name>
						<pathurl>file://localhost/Volumes/FILMS/FROM%20AWAY/FROM%20AWAY%20AUDIO/STE-027.wav</pathurl>
						<rate>
							<timebase>24</timebase>
						</rate>
						<duration>1328</duration>
						<timecode>
							<rate>
								<timebase>24</timebase>
							</rate>
							<string>00:00:00:00</string>
							<frame>0</frame>
							<displayformat>NDF</displayformat>
							<source>source</source>
						</timecode>
						<media>
							<audio>
								<samplecharacteristics>
									<samplerate>44100</samplerate>
									<depth>16</depth>
								</samplecharacteristics>
								<channelcount>2</channelcount>
							</audio>
						</media>
					</file>
					<marker>
						<name>Marker 1</name>
						<comment/>
						<color>
							<alpha>0</alpha>
							<red>255</red>
							<green>0</green>
							<blue>0</blue>
						</color>
						<in>77</in>
						<out>-1</out>
					</marker>
					<filter>
						<effect>
							<name>Audio Levels</name>
							<effectid>audiolevels</effectid>
							<effectcategory>audiolevels</effectcategory>
							<effecttype>audiolevels</effecttype>
							<mediatype>audio</mediatype>
							<parameter>
								<name>Level</name>
								<parameterid>level</parameterid>
								<valuemin>0</valuemin>
								<valuemax>3.98109</valuemax>
								<value>1.25893</value>
							</parameter>
						</effect>
					</filter>
					<filter>
						<effect>
							<name>Audio Pan</name>
							<effectid>audiopan</effectid>
							<effectcategory>audiopan</effectcategory>
							<effecttype>audiopan</effecttype>
							<mediatype>audio</mediatype>
							<parameter>
								<name>Pan</name>
								<parameterid>pan</parameterid>
								<valuemin>-1</valuemin>
								<valuemax>1</valuemax>
								<value>0</value>
							</parameter>
						</effect>
					</filter>
					<sourcetrack>
						<mediatype>audio</mediatype>
						<trackindex>1</trackindex>
					</sourcetrack>
					<link>
						<linkclipref>STE-027.wav</linkclipref>
						<mediatype>audio</mediatype>
						<trackindex>1</trackindex>
						<clipindex>2</clipindex>
						<groupindex>1</groupindex>
					</link>
					<link>
						<linkclipref>STE-027.wav2</linkclipref>
						<mediatype>audio</mediatype>
						<trackindex>2</trackindex>
						<clipindex>2</clipindex>
						<groupindex>1</groupindex>
					</link>
					<itemhistory>
						<uuid>268EEE79-E24C-4AF5-90C3-0D43E948A35F</uuid>
					</itemhistory>
				</clipitem>
				<transitionitem>
					<rate>
						<ntsc>TRUE</ntsc>
						<timebase>30</timebase>
					</rate>
					<start>2790</start>
					<end>2913</end>
					<alignment>end-black</alignment>
					<effect>
						<name>Cross Fade (+3dB)</name>
						<effectid>KGAudioTransCrossFade3dB</effectid>
						<effecttype>transition</effecttype>
						<mediatype>audio</mediatype>
					</effect>
				</transitionitem>
				<clipitem id="crwaves.wav">
					<name>crwaves.wav</name>
					<duration>3788</duration>
					<rate>
						<ntsc>TRUE</ntsc>
						<timebase>30</timebase>
					</rate>
					<in>1008</in>
					<out>1266</out>
					<start>3592</start>
					<end>3850</end>
					<subframeoffset>0</subframeoffset>
					<masterclipid>crwaves.wav1</masterclipid>
					<logginginfo>
						<scene/>
						<shottake/>
						<lognote/>
						<good>FALSE</good>
					</logginginfo>
					<labels>
						<label2/>
					</labels>
					<comments>
						<mastercomment1/>
						<mastercomment2/>
						<mastercomment3/>
						<mastercomment4/>
					</comments>
					<file id="crwaves">
						<name>crwaves.wav</name>
						<pathurl>file://localhost/Volumes/FILMS/FROM%20AWAY/Finishing%20Audio/crwaves.wav</pathurl>
						<rate>
							<timebase>30</timebase>
							<ntsc>TRUE</ntsc>
						</rate>
						<duration>3788</duration>
						<timecode>
							<rate>
								<timebase>30</timebase>
								<ntsc>TRUE</ntsc>
							</rate>
							<string>00:00:00:00</string>
							<frame>0</frame>
							<displayformat>NDF</displayformat>
							<source>source</source>
						</timecode>
						<media>
							<audio>
								<samplecharacteristics>
									<samplerate>44100</samplerate>
									<depth>16</depth>
								</samplecharacteristics>
								<channelcount>2</channelcount>
							</audio>
						</media>
					</file>
					<filter>
						<effect>
							<name>Audio Levels</name>
							<effectid>audiolevels</effectid>
							<effectcategory>audiolevels</effectcategory>
							<effecttype>audiolevels</effecttype>
							<mediatype>audio</mediatype>
							<parameter>
								<name>Level</name>
								<parameterid>level</parameterid>
								<valuemin>0</valuemin>
								<valuemax>3.98109</valuemax>
								<value>1</value>
							</parameter>
						</effect>
					</filter>
					<filter>
						<effect>
							<name>Audio Pan</name>
							<effectid>audiopan</effectid>
							<effectcategory>audiopan</effectcategory>
							<effecttype>audiopan</effecttype>
							<mediatype>audio</mediatype>
							<parameter>
								<name>Pan</name>
								<parameterid>pan</parameterid>
								<valuemin>-1</valuemin>
								<valuemax>1</valuemax>
								<value>-1</value>
							</parameter>
						</effect>
					</filter>
					<sourcetrack>
						<mediatype>audio</mediatype>
						<trackindex>1</trackindex>
					</sourcetrack>
					<link>
						<linkclipref>crwaves.wav</linkclipref>
						<mediatype>audio</mediatype>
						<trackindex>1</trackindex>
						<clipindex>4</clipindex>
						<groupindex>1</groupindex>
					</link>
					<link>
						<linkclipref>crwaves.wav2</linkclipref>
						<mediatype>audio</mediatype>
						<trackindex>2</trackindex>
						<clipindex>4</clipindex>
						<groupindex>1</groupindex>
					</link>
					<itemhistory>
						<uuid>7EF2B325-855D-41E3-AD50-063018978D8A</uuid>
					</itemhistory>
				</clipitem>
				<clipitem id="crwaves.wav3">
					<name>crwaves.wav</name>
					<duration>3788</duration>
					<rate>
						<ntsc>TRUE</ntsc>
						<timebase>30</timebase>
					</rate>
					<in>577</in>
					<out>695</out>
					<start>3850</start>
					<end>3968</end>
					<subframeoffset>0</subframeoffset>
					<masterclipid>crwaves.wav1</masterclipid>
					<logginginfo>
						<scene/>
						<shottake/>
						<lognote/>
						<good>FALSE</good>
					</logginginfo>
					<labels>
						<label2/>
					</labels>
					<comments>
						<mastercomment1/>
						<mastercomment2/>
						<mastercomment3/>
						<mastercomment4/>
					</comments>
					<file id="crwaves"/>
					<filter>
						<effect>
							<name>Audio Levels</name>
							<effectid>audiolevels</effectid>
							<effectcategory>audiolevels</effectcategory>
							<effecttype>audiolevels</effecttype>
							<mediatype>audio</mediatype>
							<parameter>
								<name>Level</name>
								<parameterid>level</parameterid>
								<valuemin>0</valuemin>
								<valuemax>3.98109</valuemax>
								<value>0.251189</value>
							</parameter>
						</effect>
					</filter>
					<filter>
						<effect>
							<name>Audio Pan</name>
							<effectid>audiopan</effectid>
							<effectcategory>audiopan</effectcategory>
							<effecttype>audiopan</effecttype>
							<mediatype>audio</mediatype>
							<parameter>
								<name>Pan</name>
								<parameterid>pan</parameterid>
								<valuemin>-1</valuemin>
								<valuemax>1</valuemax>
								<value>-1</value>
							</parameter>
						</effect>
					</filter>
					<sourcetrack>
						<mediatype>audio</mediatype>
						<trackindex>1</trackindex>
					</sourcetrack>
					<link>
						<linkclipref>crwaves.wav3</linkclipref>
						<mediatype>audio</mediatype>
						<trackindex>1</trackindex>
						<clipindex>5</clipindex>
						<groupindex>1</groupindex>
					</link>
					<link>
						<linkclipref>crwaves.wav4</linkclipref>
						<mediatype>audio</mediatype>
						<trackindex>2</trackindex>
						<clipindex>5</clipindex>
						<groupindex>1</groupindex>
					</link>
					<itemhistory>
						<uuid>7EF8E8AF-3DDE-4BB9-8EFE-781BA843C8A9</uuid>
					</itemhistory>
				</clipitem>
				<transitionitem>
					<rate>
						<ntsc>TRUE</ntsc>
						<timebase>30</timebase>
					</rate>
					<start>4511</start>
					<end>5363</end>
					<alignment>start-black</alignment>
					<effect>
						<name>Cross Fade (+3dB)</name>
						<effectid>KGAudioTransCrossFade3dB</effectid>
						<effecttype>transition</effecttype>
						<mediatype>audio</mediatype>
					</effect>
				</transitionitem>
				<clipitem id="STE-002.wav">
					<name>STE-002.wav</name>
					<duration>4519</duration>
					<rate>
						<ntsc>TRUE</ntsc>
						<timebase>30</timebase>
					</rate>
					<in>702</in>
					<out>2188</out>
					<start>-1</start>
					<end>-1</end>
					<subframeoffset>0</subframeoffset>
					<masterclipid>STE-002.wav1</masterclipid>
					<logginginfo>
						<scene/>
						<shottake/>
						<lognote/>
						<good>FALSE</good>
					</logginginfo>
					<labels>
						<label2/>
					</labels>
					<comments>
						<mastercomment1/>
						<mastercomment2/>
						<mastercomment3/>
						<mastercomment4/>
					</comments>
					<file id="STE-002 ">
						<name>STE-002.wav</name>
						<pathurl>file://localhost/Volumes/FILMS/FROM%20AWAY/FROM%20AWAY%20AUDIO/STE-002.wav</pathurl>
						<rate>
							<timebase>24</timebase>
						</rate>
						<duration>3615</duration>
						<timecode>
							<rate>
								<timebase>24</timebase>
							</rate>
							<string>00:00:00:00</string>
							<frame>0</frame>
							<displayformat>NDF</displayformat>
							<source>source</source>
						</timecode>
						<media>
							<audio>
								<samplecharacteristics>
									<samplerate>44100</samplerate>
									<depth>16</depth>
								</samplecharacteristics>
								<channelcount>2</channelcount>
							</audio>
						</media>
					</file>
					<filter>
						<enabled>TRUE</enabled>
						<start>-1</start>
						<end>-1</end>
						<effect>
							<name>AUBandpass</name>
							<effectid>{61756678, 62706173, 6170706c}</effectid>
							<effecttype>filter</effecttype>
							<mediatype>audio</mediatype>
							<parameter>
								<parameterid>center frequency</parameterid>
								<parameterspecifier>0:0:0</parameterspecifier>
								<name>center frequency</name>
								<valuemin>20</valuemin>
								<valuemax>22050</valuemax>
								<value>1808</value>
							</parameter>
							<parameter>
								<parameterid>bandwidth</parameterid>
								<parameterspecifier>1:0:0</parameterspecifier>
								<name>bandwidth</name>
								<valuemin>100</valuemin>
								<valuemax>12000</valuemax>
								<value>4273</value>
							</parameter>
						</effect>
					</filter>
					<filter>
						<enabled>TRUE</enabled>
						<start>-1</start>
						<end>-1</end>
						<effect>
							<name>AUHighShelfFilter</name>
							<effectid>{61756678, 68736866, 6170706c}</effectid>
							<effecttype>filter</effecttype>
							<mediatype>audio</mediatype>
							<parameter>
								<parameterid>cutoff frequency</parameterid>
								<parameterspecifier>0:0:0</parameterspecifier>
								<name>cutoff frequency</name>
								<valuemin>10000</valuemin>
								<valuemax>22050</valuemax>
								<value>10320</value>
							</parameter>
							<parameter>
								<parameterid>gain</parameterid>
								<parameterspecifier>1:0:0</parameterspecifier>
								<name>gain</name>
								<valuemin>-40</valuemin>
								<valuemax>40</valuemax>
								<value>-32</value>
							</parameter>
						</effect>
					</filter>
					<filter>
						<effect>
							<name>Audio Levels</name>
							<effectid>audiolevels</effectid>
							<effectcategory>audiolevels</effectcategory>
							<effecttype>audiolevels</effecttype>
							<mediatype>audio</mediatype>
							<parameter>
								<name>Level</name>
								<parameterid>level</parameterid>
								<valuemin>0</valuemin>
								<valuemax>3.98109</valuemax>
								<value>2.23872</value>
							</parameter>
						</effect>
					</filter>
					<filter>
						<effect>
							<name>Audio Pan</name>
							<effectid>audiopan</effectid>
							<effectcategory>audiopan</effectcategory>
							<effecttype>audiopan</effecttype>
							<mediatype>audio</mediatype>
							<parameter>
								<name>Pan</name>
								<parameterid>pan</parameterid>
								<valuemin>-1</valuemin>
								<valuemax>1</valuemax>
								<value>-1</value>
							</parameter>
						</effect>
					</filter>
					<sourcetrack>
						<mediatype>audio</mediatype>
						<trackindex>1</trackindex>
					</sourcetrack>
					<link>
						<linkclipref>STE-002.wav</linkclipref>
						<mediatype>audio</mediatype>
						<trackindex>1</trackindex>
						<clipindex>7</clipindex>
						<groupindex>1</groupindex>
					</link>
					<link>
						<linkclipref>STE-002.wav2</linkclipref>
						<mediatype>audio</mediatype>
						<trackindex>2</trackindex>
						<clipindex>7</clipindex>
						<groupindex>1</groupindex>
					</link>
					<itemhistory>
						<uuid>03A616C0-B0B6-4E83-89CF-FBB94AAC1655</uuid>
						<uuid>6853DCFC-8BBB-47AB-98AB-B3F5BEC206D5</uuid>
					</itemhistory>
					<mixedratesoffset>1</mixedratesoffset>
				</clipitem>
				<transitionitem>
					<rate>
						<ntsc>TRUE</ntsc>
						<timebase>30</timebase>
					</rate>
					<start>5967</start>
					<end>5997</end>
					<alignment>center</alignment>
					<effect>
						<name>Cross Fade (+3dB)</name>
						<effectid>KGAudioTransCrossFade3dB</effectid>
						<effecttype>transition</effecttype>
						<mediatype>audio</mediatype>
					</effect>
				</transitionitem>
				<clipitem id="STE-002.wav3">
					<name>STE-002.wav</name>
					<duration>4519</duration>
					<rate>
						<ntsc>TRUE</ntsc>
						<timebase>30</timebase>
					</rate>
					<in>2201</in>
					<out>2603</out>
					<start>-1</start>
					<end>-1</end>
					<subframeoffset>0</subframeoffset>
					<masterclipid>STE-002.wav1</masterclipid>
					<logginginfo>
						<scene/>
						<shottake/>
						<lognote/>
						<good>FALSE</good>
					</logginginfo>
					<labels>
						<label2/>
					</labels>
					<comments>
						<mastercomment1/>
						<mastercomment2/>
						<mastercomment3/>
						<mastercomment4/>
					</comments>
					<file id="STE-002 "/>
					<filter>
						<enabled>TRUE</enabled>
						<start>-1</start>
						<end>-1</end>
						<effect>
							<name>AUBandpass</name>
							<effectid>{61756678, 62706173, 6170706c}</effectid>
							<effecttype>filter</effecttype>
							<mediatype>audio</mediatype>
							<parameter>
								<parameterid>center frequency</parameterid>
								<parameterspecifier>0:0:0</parameterspecifier>
								<name>center frequency</name>
								<valuemin>20</valuemin>
								<valuemax>22050</valuemax>
								<value>1808</value>
							</parameter>
							<parameter>
								<parameterid>bandwidth</parameterid>
								<parameterspecifier>1:0:0</parameterspecifier>
								<name>bandwidth</name>
								<valuemin>100</valuemin>
								<valuemax>12000</valuemax>
								<value>4273</value>
							</parameter>
						</effect>
					</filter>
					<filter>
						<enabled>TRUE</enabled>
						<start>-1</start>
						<end>-1</end>
						<effect>
							<name>AUHighShelfFilter</name>
							<effectid>{61756678, 68736866, 6170706c}</effectid>
							<effecttype>filter</effecttype>
							<mediatype>audio</mediatype>
							<parameter>
								<parameterid>cutoff frequency</parameterid>
								<parameterspecifier>0:0:0</parameterspecifier>
								<name>cutoff frequency</name>
								<valuemin>10000</valuemin>
								<valuemax>22050</valuemax>
								<value>10320</value>
							</parameter>
							<parameter>
								<parameterid>gain</parameterid>
								<parameterspecifier>1:0:0</parameterspecifier>
								<name>gain</name>
								<valuemin>-40</valuemin>
								<valuemax>40</valuemax>
								<value>-32</value>
							</parameter>
						</effect>
					</filter>
					<filter>
						<effect>
							<name>Audio Levels</name>
							<effectid>audiolevels</effectid>
							<effectcategory>audiolevels</effectcategory>
							<effecttype>audiolevels</effecttype>
							<mediatype>audio</mediatype>
							<parameter>
								<name>Level</name>
								<parameterid>level</parameterid>
								<valuemin>0</valuemin>
								<valuemax>3.98109</valuemax>
								<value>3.98107</value>
							</parameter>
						</effect>
					</filter>
					<filter>
						<effect>
							<name>Audio Pan</name>
							<effectid>audiopan</effectid>
							<effectcategory>audiopan</effectcategory>
							<effecttype>audiopan</effecttype>
							<mediatype>audio</mediatype>
							<parameter>
								<name>Pan</name>
								<parameterid>pan</parameterid>
								<valuemin>-1</valuemin>
								<valuemax>1</valuemax>
								<value>-1</value>
							</parameter>
						</effect>
					</filter>
					<sourcetrack>
						<mediatype>audio</mediatype>
						<trackindex>1</trackindex>
					</sourcetrack>
					<link>
						<linkclipref>STE-002.wav3</linkclipref>
						<mediatype>audio</mediatype>
						<trackindex>1</trackindex>
						<clipindex>9</clipindex>
						<groupindex>1</groupindex>
					</link>
					<link>
						<linkclipref>STE-002.wav4</linkclipref>
						<mediatype>audio</mediatype>
						<trackindex>2</trackindex>
						<clipindex>9</clipindex>
						<groupindex>1</groupindex>
					</link>
					<itemhistory>
						<uuid>42B8F5C3-0329-44BC-B7B7-EC5482209CF5</uuid>
						<uuid>6853DCFC-8BBB-47AB-98AB-B3F5BEC206D5</uuid>
					</itemhistory>
					<mixedratesoffset>1</mixedratesoffset>
				</clipitem>
				<transitionitem>
					<rate>
						<ntsc>TRUE</ntsc>
						<timebase>30</timebase>
					</rate>
					<start>6215</start>
					<end>6369</end>
					<alignment>end-black</alignment>
					<effect>
						<name>Cross Fade (+3dB)</name>
						<effectid>KGAudioTransCrossFade3dB</effectid>
						<effecttype>transition</effecttype>
						<mediatype>audio</mediatype>
					</effect>
				</transitionitem>
				<clipitem id="STE-005.wav">
					<name>STE-005.wav</name>
					<duration>4656</duration>
					<rate>
						<ntsc>TRUE</ntsc>
						<timebase>30</timebase>
					</rate>
					<in>1847</in>
					<out>2456</out>
					<start>6369</start>
					<end>6978</end>
					<subframeoffset>0</subframeoffset>
					<masterclipid>STE-005.wav1</masterclipid>
					<logginginfo>
						<scene/>
						<shottake/>
						<lognote/>
						<good>FALSE</good>
					</logginginfo>
					<labels>
						<label2/>
					</labels>
					<comments>
						<mastercomment1/>
						<mastercomment2/>
						<mastercomment3/>
						<mastercomment4/>
					</comments>
					<file id="STE-005 ">
						<name>STE-005.wav</name>
						<pathurl>file://localhost/Volumes/FILMS/FROM%20AWAY/FROM%20AWAY%20AUDIO/STE-005.wav</pathurl>
						<rate>
							<timebase>24</timebase>
						</rate>
						<duration>3725</duration>
						<timecode>
							<rate>
								<timebase>24</timebase>
							</rate>
							<string>00:00:00:00</string>
							<frame>0</frame>
							<displayformat>NDF</displayformat>
							<source>source</source>
						</timecode>
						<media>
							<audio>
								<samplecharacteristics>
									<samplerate>44100</samplerate>
									<depth>16</depth>
								</samplecharacteristics>
								<channelcount>2</channelcount>
							</audio>
						</media>
					</file>
					<filter>
						<effect>
							<name>Audio Levels</name>
							<effectid>audiolevels</effectid>
							<effectcategory>audiolevels</effectcategory>
							<effecttype>audiolevels</effecttype>
							<mediatype>audio</mediatype>
							<parameter>
								<name>Level</name>
								<parameterid>level</parameterid>
								<valuemin>0</valuemin>
								<valuemax>3.98109</valuemax>
								<value>1</value>
							</parameter>
						</effect>
					</filter>
					<filter>
						<effect>
							<name>Audio Pan</name>
							<effectid>audiopan</effectid>
							<effectcategory>audiopan</effectcategory>
							<effecttype>audiopan</effecttype>
							<mediatype>audio</mediatype>
							<parameter>
								<name>Pan</name>
								<parameterid>pan</parameterid>
								<valuemin>-1</valuemin>
								<valuemax>1</valuemax>
								<value>-1</value>
							</parameter>
						</effect>
					</filter>
					<sourcetrack>
						<mediatype>audio</mediatype>
						<trackindex>1</trackindex>
					</sourcetrack>
					<link>
						<linkclipref>STE-005.wav</linkclipref>
						<mediatype>audio</mediatype>
						<trackindex>1</trackindex>
						<clipindex>11</clipindex>
						<groupindex>1</groupindex>
					</link>
					<link>
						<linkclipref>STE-005.wav2</linkclipref>
						<mediatype>audio</mediatype>
						<trackindex>2</trackindex>
						<clipindex>11</clipindex>
						<groupindex>1</groupindex>
					</link>
					<itemhistory>
						<uuid>87A3D3C0-D65F-40E0-8B5A-25CC6BE7CD4F</uuid>
					</itemhistory>
				</clipitem>
				<clipitem id="STE-011.wav">
					<name>STE-011.wav</name>
					<duration>2498</duration>
					<rate>
						<ntsc>TRUE</ntsc>
						<timebase>30</timebase>
					</rate>
					<in>2091</in>
					<out>2497</out>
					<start>6978</start>
					<end>-1</end>
					<subframeoffset>0</subframeoffset>
					<masterclipid>STE-011.wav1</masterclipid>
					<logginginfo>
						<scene/>
						<shottake/>
						<lognote/>
						<good>FALSE</good>
					</logginginfo>
					<labels>
						<label2/>
					</labels>
					<comments>
						<mastercomment1/>
						<mastercomment2/>
						<mastercomment3/>
						<mastercomment4/>
					</comments>
					<file id="STE-011 ">
						<name>STE-011.wav</name>
						<pathurl>file://localhost/Volumes/FILMS/FROM%20AWAY/FROM%20AWAY%20AUDIO/STE-011.wav</pathurl>
						<rate>
							<timebase>24</timebase>
						</rate>
						<duration>1998</duration>
						<timecode>
							<rate>
								<timebase>24</timebase>
							</rate>
							<string>00:00:00:00</string>
							<frame>0</frame>
							<displayformat>NDF</displayformat>
							<source>source</source>
						</timecode>
						<media>
							<audio>
								<samplecharacteristics>
									<samplerate>44100</samplerate>
									<depth>16</depth>
								</samplecharacteristics>
								<channelcount>2</channelcount>
							</audio>
						</media>
					</file>
					<filter>
						<effect>
							<name>Audio Levels</name>
							<effectid>audiolevels</effectid>
							<effectcategory>audiolevels</effectcategory>
							<effecttype>audiolevels</effecttype>
							<mediatype>audio</mediatype>
							<parameter>
								<name>Level</name>
								<parameterid>level</parameterid>
								<valuemin>0</valuemin>
								<valuemax>3.98109</valuemax>
								<value>0.251189</value>
							</parameter>
						</effect>
					</filter>
					<filter>
						<effect>
							<name>Audio Pan</name>
							<effectid>audiopan</effectid>
							<effectcategory>audiopan</effectcategory>
							<effecttype>audiopan</effecttype>
							<mediatype>audio</mediatype>
							<parameter>
								<name>Pan</name>
								<parameterid>pan</parameterid>
								<valuemin>-1</valuemin>
								<valuemax>1</valuemax>
								<value>-1</value>
							</parameter>
						</effect>
					</filter>
					<sourcetrack>
						<mediatype>audio</mediatype>
						<trackindex>1</trackindex>
					</sourcetrack>
					<link>
						<linkclipref>STE-011.wav</linkclipref>
						<mediatype>audio</mediatype>
						<trackindex>1</trackindex>
						<clipindex>12</clipindex>
						<groupindex>1</groupindex>
					</link>
					<link>
						<linkclipref>STE-011.wav2</linkclipref>
						<mediatype>audio</mediatype>
						<trackindex>2</trackindex>
						<clipindex>12</clipindex>
						<groupindex>1</groupindex>
					</link>
					<itemhistory>
						<uuid>31BEB50F-B7EF-4160-8699-F8EF747FC5D7</uuid>
					</itemhistory>
				</clipitem>
				<transitionitem>
					<rate>
						<ntsc>TRUE</ntsc>
						<timebase>30</timebase>
					</rate>
					<start>7307</start>
					<end>7384</end>
					<alignment>end-black</alignment>
					<effect>
						<name>Cross Fade (+3dB)</name>
						<effectid>KGAudioTransCrossFade3dB</effectid>
						<effecttype>transition</effecttype>
						<mediatype>audio</mediatype>
					</effect>
				</transitionitem>
				<transitionitem>
					<rate>
						<ntsc>TRUE</ntsc>
						<timebase>30</timebase>
					</rate>
					<start>9229</start>
					<end>9259</end>
					<alignment>start-black</alignment>
					<effect>
						<name>Cross Fade (+3dB)</name>
						<effectid>KGAudioTransCrossFade3dB</effectid>
						<effecttype>transition</effecttype>
						<mediatype>audio</mediatype>
					</effect>
				</transitionitem>
				<clipitem id="STE-018.wav">
					<name>STE-018.wav</name>
					<duration>2896</duration>
					<rate>
						<ntsc>TRUE</ntsc>
						<timebase>30</timebase>
					</rate>
					<in>616</in>
					<out>1914</out>
					<start>-1</start>
					<end>-1</end>
					<subframeoffset>0</subframeoffset>
					<masterclipid>STE-018.wav1</masterclipid>
					<logginginfo>
						<scene/>
						<shottake/>
						<lognote/>
						<good>FALSE</good>
					</logginginfo>
					<labels>
						<label2/>
					</labels>
					<comments>
						<mastercomment1/>
						<mastercomment2/>
						<mastercomment3/>
						<mastercomment4/>
					</comments>
					<file id="STE-018 ">
						<name>STE-018.wav</name>
						<pathurl>file://localhost/Volumes/FILMS/FROM%20AWAY/FOLDER03/STE-018.wav</pathurl>
						<rate>
							<timebase>30</timebase>
							<ntsc>TRUE</ntsc>
						</rate>
						<duration>2896</duration>
						<timecode>
							<rate>
								<timebase>30</timebase>
								<ntsc>TRUE</ntsc>
							</rate>
							<string>00:00:00:00</string>
							<frame>0</frame>
							<displayformat>NDF</displayformat>
							<source>source</source>
						</timecode>
						<media>
							<audio>
								<samplecharacteristics>
									<samplerate>44100</samplerate>
									<depth>16</depth>
								</samplecharacteristics>
								<channelcount>2</channelcount>
							</audio>
						</media>
					</file>
					<filter>
						<effect>
							<name>Audio Levels</name>
							<effectid>audiolevels</effectid>
							<effectcategory>audiolevels</effectcategory>
							<effecttype>audiolevels</effecttype>
							<mediatype>audio</mediatype>
							<parameter>
								<name>Level</name>
								<parameterid>level</parameterid>
								<valuemin>0</valuemin>
								<valuemax>3.98109</valuemax>
								<value>1.58489</value>
							</parameter>
						</effect>
					</filter>
					<filter>
						<effect>
							<name>Audio Pan</name>
							<effectid>audiopan</effectid>
							<effectcategory>audiopan</effectcategory>
							<effecttype>audiopan</effecttype>
							<mediatype>audio</mediatype>
							<parameter>
								<name>Pan</name>
								<parameterid>pan</parameterid>
								<valuemin>-1</valuemin>
								<valuemax>1</valuemax>
								<value>-1</value>
							</parameter>
						</effect>
					</filter>
					<sourcetrack>
						<mediatype>audio</mediatype>
						<trackindex>1</trackindex>
					</sourcetrack>
					<link>
						<linkclipref>STE-018.wav</linkclipref>
						<mediatype>audio</mediatype>
						<trackindex>1</trackindex>
						<clipindex>15</clipindex>
						<groupindex>1</groupindex>
					</link>
					<link>
						<linkclipref>STE-018.wav2</linkclipref>
						<mediatype>audio</mediatype>
						<trackindex>2</trackindex>
						<clipindex>15</clipindex>
						<groupindex>1</groupindex>
					</link>
					<itemhistory>
						<uuid>CEC4A0C3-47CC-4019-B9FF-26417CD211CA</uuid>
					</itemhistory>
				</clipitem>
				<transitionitem>
					<rate>
						<ntsc>TRUE</ntsc>
						<timebase>30</timebase>
					</rate>
					<start>10293</start>
					<end>10527</end>
					<alignment>end-black</alignment>
					<effect>
						<name>Cross Fade (+3dB)</name>
						<effectid>KGAudioTransCrossFade3dB</effectid>
						<effecttype>transition</effecttype>
						<mediatype>audio</mediatype>
					</effect>
				</transitionitem>
				<transitionitem>
					<rate>
						<ntsc>TRUE</ntsc>
						<timebase>30</timebase>
					</rate>
					<start>11235</start>
					<end>11242</end>
					<alignment>start-black</alignment>
					<effect>
						<name>Cross Fade (+3dB)</name>
						<effectid>KGAudioTransCrossFade3dB</effectid>
						<effecttype>transition</effecttype>
						<mediatype>audio</mediatype>
					</effect>
				</transitionitem>
				<clipitem id="STE-013.wav">
					<name>STE-013.wav</name>
					<duration>13889</duration>
					<rate>
						<ntsc>TRUE</ntsc>
						<timebase>30</timebase>
					</rate>
					<in>10715</in>
					<out>10961</out>
					<start>-1</start>
					<end>11481</end>
					<subframeoffset>0</subframeoffset>
					<masterclipid>STE-013.wav1</masterclipid>
					<logginginfo>
						<scene/>
						<shottake/>
						<lognote/>
						<good>FALSE</good>
					</logginginfo>
					<labels>
						<label2/>
					</labels>
					<comments>
						<mastercomment1/>
						<mastercomment2/>
						<mastercomment3/>
						<mastercomment4/>
					</comments>
					<file id="STE-013 ">
						<name>STE-013.wav</name>
						<pathurl>file://localhost/Volumes/FILMS/FROM%20AWAY/FROM%20AWAY%20AUDIO/STE-013.wav</pathurl>
						<rate>
							<timebase>24</timebase>
						</rate>
						<duration>11111</duration>
						<timecode>
							<rate>
								<timebase>24</timebase>
							</rate>
							<string>00:00:00:00</string>
							<frame>0</frame>
							<displayformat>NDF</displayformat>
							<source>source</source>
						</timecode>
						<media>
							<audio>
								<samplecharacteristics>
									<samplerate>44100</samplerate>
									<depth>16</depth>
								</samplecharacteristics>
								<channelcount>2</channelcount>
							</audio>
						</media>
					</file>
					<filter>
						<effect>
							<name>Audio Levels</name>
							<effectid>audiolevels</effectid>
							<effectcategory>audiolevels</effectcategory>
							<effecttype>audiolevels</effecttype>
							<mediatype>audio</mediatype>
							<parameter>
								<name>Level</name>
								<parameterid>level</parameterid>
								<valuemin>0</valuemin>
								<valuemax>3.98109</valuemax>
								<value>1.77828</value>
							</parameter>
						</effect>
					</filter>
					<filter>
						<effect>
							<name>Audio Pan</name>
							<effectid>audiopan</effectid>
							<effectcategory>audiopan</effectcategory>
							<effecttype>audiopan</effecttype>
							<mediatype>audio</mediatype>
							<parameter>
								<name>Pan</name>
								<parameterid>pan</parameterid>
								<valuemin>-1</valuemin>
								<valuemax>1</valuemax>
								<value>-1</value>
							</parameter>
						</effect>
					</filter>
					<sourcetrack>
						<mediatype>audio</mediatype>
						<trackindex>1</trackindex>
					</sourcetrack>
					<link>
						<linkclipref>STE-013.wav</linkclipref>
						<mediatype>audio</mediatype>
						<trackindex>1</trackindex>
						<clipindex>18</clipindex>
						<groupindex>1</groupindex>
					</link>
					<link>
						<linkclipref>STE-013.wav2</linkclipref>
						<mediatype>audio</mediatype>
						<trackindex>2</trackindex>
						<clipindex>18</clipindex>
						<groupindex>1</groupindex>
					</link>
					<itemhistory>
						<uuid>36C86DB2-FF5A-4860-B55B-8B46E4090B47</uuid>
					</itemhistory>
				</clipitem>
				<clipitem id="STE-010.wav">
					<name>STE-010.wav</name>
					<duration>11549</duration>
					<rate>
						<ntsc>TRUE</ntsc>
						<timebase>30</timebase>
					</rate>
					<in>432</in>
					<out>1003</out>
					<start>11914</start>
					<end>12485</end>
					<subframeoffset>0</subframeoffset>
					<enabled>TRUE</enabled>
					<masterclipid>STE-010.wav1</masterclipid>
					<logginginfo>
						<scene/>
						<shottake/>
						<lognote/>
						<good>FALSE</good>
					</logginginfo>
					<labels>
						<label2/>
					</labels>
					<comments>
						<mastercomment1/>
						<mastercomment2/>
						<mastercomment3/>
						<mastercomment4/>
					</comments>
					<file id="STE-010 ">
						<name>STE-010.wav</name>
						<pathurl>file://localhost/Volumes/FILMS/FROM%20AWAY/FROM%20AWAY%20AUDIO/STE-010.wav</pathurl>
						<rate>
							<timebase>24</timebase>
						</rate>
						<duration>9239</duration>
						<timecode>
							<rate>
								<timebase>24</timebase>
							</rate>
							<string>00:00:00:00</string>
							<frame>0</frame>
							<displayformat>NDF</displayformat>
							<source>source</source>
						</timecode>
						<media>
							<audio>
								<samplecharacteristics>
									<samplerate>44100</samplerate>
									<depth>16</depth>
								</samplecharacteristics>
								<channelcount>2</channelcount>
							</audio>
						</media>
					</file>
					<filter>
						<effect>
							<name>Audio Levels</name>
							<effectid>audiolevels</effectid>
							<effectcategory>audiolevels</effectcategory>
							<effecttype>audiolevels</effecttype>
							<mediatype>audio</mediatype>
							<parameter>
								<name>Level</name>
								<parameterid>level</parameterid>
								<valuemin>0</valuemin>
								<valuemax>3.98109</valuemax>
								<value>0.891251</value>
							</parameter>
						</effect>
					</filter>
					<filter>
						<effect>
							<name>Audio Pan</name>
							<effectid>audiopan</effectid>
							<effectcategory>audiopan</effectcategory>
							<effecttype>audiopan</effecttype>
							<mediatype>audio</mediatype>
							<parameter>
								<name>Pan</name>
								<parameterid>pan</parameterid>
								<valuemin>-1</valuemin>
								<valuemax>1</valuemax>
								<value>-1</value>
							</parameter>
						</effect>
					</filter>
					<sourcetrack>
						<mediatype>audio</mediatype>
						<trackindex>1</trackindex>
					</sourcetrack>
					<link>
						<linkclipref>STE-010.wav</linkclipref>
						<mediatype>audio</mediatype>
						<trackindex>1</trackindex>
						<clipindex>19</clipindex>
						<groupindex>1</groupindex>
					</link>
					<link>
						<linkclipref>STE-010.wav2</linkclipref>
						<mediatype>audio</mediatype>
						<trackindex>2</trackindex>
						<clipindex>19</clipindex>
						<groupindex>1</groupindex>
					</link>
					<itemhistory>
						<uuid>EC247781-76D0-4F9A-A683-176057EC5E0E</uuid>
					</itemhistory>
				</clipitem>
				<transitionitem>
					<rate>
						<ntsc>TRUE</ntsc>
						<timebase>30</timebase>
					</rate>
					<start>12961</start>
					<end>12966</end>
					<alignment>start-black</alignment>
					<effect>
						<name>Cross Fade (+3dB)</name>
						<effectid>KGAudioTransCrossFade3dB</effectid>
						<effecttype>transition</effecttype>
						<mediatype>audio</mediatype>
					</effect>
				</transitionitem>
				<clipitem id="STE-012.wav">
					<name>STE-012.wav</name>
					<duration>13503</duration>
					<rate>
						<ntsc>TRUE</ntsc>
						<timebase>30</timebase>
					</rate>
					<in>6830</in>
					<out>7559</out>
					<start>-1</start>
					<end>-1</end>
					<subframeoffset>0</subframeoffset>
					<enabled>TRUE</enabled>
					<masterclipid>STE-012.wav1</masterclipid>
					<logginginfo>
						<scene/>
						<shottake/>
						<lognote/>
						<good>FALSE</good>
					</logginginfo>
					<labels>
						<label2/>
					</labels>
					<comments>
						<mastercomment1/>
						<mastercomment2/>
						<mastercomment3/>
						<mastercomment4/>
					</comments>
					<file id="STE-012 ">
						<name>STE-012.wav</name>
						<pathurl>file://localhost/Volumes/FILMS/FROM%20AWAY/FROM%20AWAY%20AUDIO/STE-012.wav</pathurl>
						<rate>
							<timebase>24</timebase>
						</rate>
						<duration>10802</duration>
						<timecode>
							<rate>
								<timebase>30</timebase>
							</rate>
							<string>00:00:00:00</string>
							<frame>0</frame>
							<displayformat>NDF</displayformat>
							<source>source</source>
						</timecode>
						<media>
							<audio>
								<samplecharacteristics>
									<samplerate>44100</samplerate>
									<depth>16</depth>
								</samplecharacteristics>
								<channelcount>2</channelcount>
							</audio>
						</media>
					</file>
					<filter>
						<effect>
							<name>Audio Levels</name>
							<effectid>audiolevels</effectid>
							<effectcategory>audiolevels</effectcategory>
							<effecttype>audiolevels</effecttype>
							<mediatype>audio</mediatype>
							<parameter>
								<name>Level</name>
								<parameterid>level</parameterid>
								<valuemin>0</valuemin>
								<valuemax>3.98109</valuemax>
								<value>1</value>
							</parameter>
						</effect>
					</filter>
					<filter>
						<effect>
							<name>Audio Pan</name>
							<effectid>audiopan</effectid>
							<effectcategory>audiopan</effectcategory>
							<effecttype>audiopan</effecttype>
							<mediatype>audio</mediatype>
							<parameter>
								<name>Pan</name>
								<parameterid>pan</parameterid>
								<valuemin>-1</valuemin>
								<valuemax>1</valuemax>
								<value>-0.933333</value>
							</parameter>
						</effect>
					</filter>
					<sourcetrack>
						<mediatype>audio</mediatype>
						<trackindex>1</trackindex>
					</sourcetrack>
					<link>
						<linkclipref>STE-012.wav</linkclipref>
						<mediatype>audio</mediatype>
						<trackindex>1</trackindex>
						<clipindex>21</clipindex>
						<groupindex>1</groupindex>
					</link>
					<link>
						<linkclipref>STE-012.wav2</linkclipref>
						<mediatype>audio</mediatype>
						<trackindex>2</trackindex>
						<clipindex>21</clipindex>
						<groupindex>1</groupindex>
					</link>
					<itemhistory>
						<uuid>CD1A79A9-07C6-4296-89C5-12F36A787DA6</uuid>
					</itemhistory>
				</clipitem>
				<transitionitem>
					<rate>
						<ntsc>TRUE</ntsc>
						<timebase>30</timebase>
					</rate>
					<start>13660</start>
					<end>13690</end>
					<alignment>center</alignment>
					<effect>
						<name>Cross Fade (+3dB)</name>
						<effectid>KGAudioTransCrossFade3dB</effectid>
						<effecttype>transition</effecttype>
						<mediatype>audio</mediatype>
					</effect>
				</transitionitem>
				<clipitem id="STE-003.wav">
					<name>STE-003.wav</name>
					<duration>9064</duration>
					<rate>
						<ntsc>TRUE</ntsc>
						<timebase>30</timebase>
					</rate>
					<in>314</in>
					<out>679</out>
					<start>-1</start>
					<end>14025</end>
					<subframeoffset>0</subframeoffset>
					<masterclipid>STE-003.wav1</masterclipid>
					<logginginfo>
						<scene/>
						<shottake/>
						<lognote/>
						<good>FALSE</good>
					</logginginfo>
					<labels>
						<label2/>
					</labels>
					<comments>
						<mastercomment1/>
						<mastercomment2/>
						<mastercomment3/>
						<mastercomment4/>
					</comments>
					<file id="STE-003 ">
						<name>STE-003.wav</name>
						<pathurl>file://localhost/Volumes/FILMS/FROM%20AWAY/FOLDER03/STE-003.wav</pathurl>
						<rate>
							<timebase>30</timebase>
							<ntsc>TRUE</ntsc>
						</rate>
						<duration>9064</duration>
						<timecode>
							<rate>
								<timebase>30</timebase>
								<ntsc>TRUE</ntsc>
							</rate>
							<string>00:00:00:00</string>
							<frame>0</frame>
							<displayformat>NDF</displayformat>
							<source>source</source>
						</timecode>
						<media>
							<audio>
								<samplecharacteristics>
									<samplerate>44100</samplerate>
									<depth>16</depth>
								</samplecharacteristics>
								<channelcount>2</channelcount>
							</audio>
						</media>
					</file>
					<filter>
						<effect>
							<name>Audio Levels</name>
							<effectid>audiolevels</effectid>
							<effectcategory>audiolevels</effectcategory>
							<effecttype>audiolevels</effecttype>
							<mediatype>audio</mediatype>
							<parameter>
								<name>Level</name>
								<parameterid>level</parameterid>
								<valuemin>0</valuemin>
								<valuemax>3.98109</valuemax>
								<value>0.251189</value>
							</parameter>
						</effect>
					</filter>
					<filter>
						<effect>
							<name>Audio Pan</name>
							<effectid>audiopan</effectid>
							<effectcategory>audiopan</effectcategory>
							<effecttype>audiopan</effecttype>
							<mediatype>audio</mediatype>
							<parameter>
								<name>Pan</name>
								<parameterid>pan</parameterid>
								<valuemin>-1</valuemin>
								<valuemax>1</valuemax>
								<value>-1</value>
							</parameter>
						</effect>
					</filter>
					<sourcetrack>
						<mediatype>audio</mediatype>
						<trackindex>1</trackindex>
					</sourcetrack>
					<link>
						<linkclipref>STE-003.wav</linkclipref>
						<mediatype>audio</mediatype>
						<trackindex>1</trackindex>
						<clipindex>23</clipindex>
						<groupindex>1</groupindex>
					</link>
					<link>
						<linkclipref>STE-003.wav2</linkclipref>
						<mediatype>audio</mediatype>
						<trackindex>2</trackindex>
						<clipindex>23</clipindex>
						<groupindex>1</groupindex>
					</link>
					<itemhistory>
						<uuid>56716B65-BF4A-4B90-9671-97A7C716C113</uuid>
					</itemhistory>
				</clipitem>
				<clipitem id="STE-003.wav3">
					<name>STE-003.wav</name>
					<duration>9064</duration>
					<rate>
						<ntsc>TRUE</ntsc>
						<timebase>30</timebase>
					</rate>
					<in>677</in>
					<out>1426</out>
					<start>14025</start>
					<end>14774</end>
					<subframeoffset>0</subframeoffset>
					<masterclipid>STE-003.wav1</masterclipid>
					<logginginfo>
						<scene/>
						<shottake/>
						<lognote/>
						<good>FALSE</good>
					</logginginfo>
					<labels>
						<label2/>
					</labels>
					<comments>
						<mastercomment1/>
						<mastercomment2/>
						<mastercomment3/>
						<mastercomment4/>
					</comments>
					<file id="STE-003 "/>
					<filter>
						<effect>
							<name>Audio Levels</name>
							<effectid>audiolevels</effectid>
							<effectcategory>audiolevels</effectcategory>
							<effecttype>audiolevels</effecttype>
							<mediatype>audio</mediatype>
							<parameter>
								<name>Level</name>
								<parameterid>level</parameterid>
								<valuemin>0</valuemin>
								<valuemax>3.98109</valuemax>
								<value>2.23872</value>
							</parameter>
						</effect>
					</filter>
					<filter>
						<effect>
							<name>Audio Pan</name>
							<effectid>audiopan</effectid>
							<effectcategory>audiopan</effectcategory>
							<effecttype>audiopan</effecttype>
							<mediatype>audio</mediatype>
							<parameter>
								<name>Pan</name>
								<parameterid>pan</parameterid>
								<valuemin>-1</valuemin>
								<valuemax>1</valuemax>
								<value>-1</value>
							</parameter>
						</effect>
					</filter>
					<sourcetrack>
						<mediatype>audio</mediatype>
						<trackindex>1</trackindex>
					</sourcetrack>
					<link>
						<linkclipref>STE-003.wav3</linkclipref>
						<mediatype>audio</mediatype>
						<trackindex>1</trackindex>
						<clipindex>24</clipindex>
						<groupindex>1</groupindex>
					</link>
					<link>
						<linkclipref>STE-003.wav4</linkclipref>
						<mediatype>audio</mediatype>
						<trackindex>2</trackindex>
						<clipindex>24</clipindex>
						<groupindex>1</groupindex>
					</link>
					<itemhistory>
						<uuid>684B831E-C7F0-4521-8D54-532EDDE8E909</uuid>
					</itemhistory>
				</clipitem>
				<clipitem id="STE-007.wav">
					<name>STE-007.wav</name>
					<duration>754</duration>
					<rate>
						<ntsc>TRUE</ntsc>
						<timebase>30</timebase>
					</rate>
					<in>290</in>
					<out>421</out>
					<start>16545</start>
					<end>16676</end>
					<subframeoffset>0</subframeoffset>
					<masterclipid>STE-007.wav1</masterclipid>
					<logginginfo>
						<scene/>
						<shottake/>
						<lognote/>
						<good>FALSE</good>
					</logginginfo>
					<labels>
						<label2/>
					</labels>
					<comments>
						<mastercomment1/>
						<mastercomment2/>
						<mastercomment3/>
						<mastercomment4/>
					</comments>
					<file id="STE-007 ">
						<name>STE-007.wav</name>
						<pathurl>file://localhost/Volumes/FILMS/FROM%20AWAY/FOLDER03/STE-007.wav</pathurl>
						<rate>
							<timebase>30</timebase>
							<ntsc>TRUE</ntsc>
						</rate>
						<duration>754</duration>
						<timecode>
							<rate>
								<timebase>30</timebase>
								<ntsc>TRUE</ntsc>
							</rate>
							<string>00:00:00:00</string>
							<frame>0</frame>
							<displayformat>NDF</displayformat>
							<source>source</source>
						</timecode>
						<media>
							<audio>
								<samplecharacteristics>
									<samplerate>44100</samplerate>
									<depth>16</depth>
								</samplecharacteristics>
								<channelcount>2</channelcount>
							</audio>
						</media>
					</file>
					<filter>
						<effect>
							<name>Audio Levels</name>
							<effectid>audiolevels</effectid>
							<effectcategory>audiolevels</effectcategory>
							<effecttype>audiolevels</effecttype>
							<mediatype>audio</mediatype>
							<parameter>
								<name>Level</name>
								<parameterid>level</parameterid>
								<valuemin>0</valuemin>
								<valuemax>3.98109</valuemax>
								<value>1</value>
							</parameter>
						</effect>
					</filter>
					<filter>
						<effect>
							<name>Audio Pan</name>
							<effectid>audiopan</effectid>
							<effectcategory>audiopan</effectcategory>
							<effecttype>audiopan</effecttype>
							<mediatype>audio</mediatype>
							<parameter>
								<name>Pan</name>
								<parameterid>pan</parameterid>
								<valuemin>-1</valuemin>
								<valuemax>1</valuemax>
								<value>-1</value>
							</parameter>
						</effect>
					</filter>
					<sourcetrack>
						<mediatype>audio</mediatype>
						<trackindex>1</trackindex>
					</sourcetrack>
					<link>
						<linkclipref>STE-007.wav</linkclipref>
						<mediatype>audio</mediatype>
						<trackindex>1</trackindex>
						<clipindex>25</clipindex>
						<groupindex>1</groupindex>
					</link>
					<link>
						<linkclipref>STE-007.wav2</linkclipref>
						<mediatype>audio</mediatype>
						<trackindex>2</trackindex>
						<clipindex>25</clipindex>
						<groupindex>1</groupindex>
					</link>
					<itemhistory>
						<uuid>B9F74FBF-3E7E-4D00-A823-9096F8FB2FBC</uuid>
					</itemhistory>
				</clipitem>
				<clipitem id="STE-006.wav">
					<name>STE-006.wav</name>
					<duration>1758</duration>
					<rate>
						<ntsc>TRUE</ntsc>
						<timebase>30</timebase>
					</rate>
					<in>440</in>
					<out>503</out>
					<start>17332</start>
					<end>17395</end>
					<subframeoffset>0</subframeoffset>
					<masterclipid>STE-006.wav1</masterclipid>
					<logginginfo>
						<scene/>
						<shottake/>
						<lognote/>
						<good>FALSE</good>
					</logginginfo>
					<labels>
						<label2/>
					</labels>
					<comments>
						<mastercomment1/>
						<mastercomment2/>
						<mastercomment3/>
						<mastercomment4/>
					</comments>
					<file id="STE-006 ">
						<name>STE-006.wav</name>
						<pathurl>file://localhost/Volumes/FILMS/FROM%20AWAY/FOLDER03/STE-006.wav</pathurl>
						<rate>
							<timebase>30</timebase>
							<ntsc>TRUE</ntsc>
						</rate>
						<duration>1758</duration>
						<timecode>
							<rate>
								<timebase>30</timebase>
								<ntsc>TRUE</ntsc>
							</rate>
							<string>00:00:00:00</string>
							<frame>0</frame>
							<displayformat>NDF</displayformat>
							<source>source</source>
						</timecode>
						<media>
							<audio>
								<samplecharacteristics>
									<samplerate>44100</samplerate>
									<depth>16</depth>
								</samplecharacteristics>
								<channelcount>2</channelcount>
							</audio>
						</media>
					</file>
					<filter>
						<effect>
							<name>Audio Levels</name>
							<effectid>audiolevels</effectid>
							<effectcategory>audiolevels</effectcategory>
							<effecttype>audiolevels</effecttype>
							<mediatype>audio</mediatype>
							<parameter>
								<name>Level</name>
								<parameterid>level</parameterid>
								<valuemin>0</valuemin>
								<valuemax>3.98109</valuemax>
								<value>3.98107</value>
							</parameter>
						</effect>
					</filter>
					<filter>
						<effect>
							<name>Audio Pan</name>
							<effectid>audiopan</effectid>
							<effectcategory>audiopan</effectcategory>
							<effecttype>audiopan</effecttype>
							<mediatype>audio</mediatype>
							<parameter>
								<name>Pan</name>
								<parameterid>pan</parameterid>
								<valuemin>-1</valuemin>
								<valuemax>1</valuemax>
								<value>-1</value>
							</parameter>
						</effect>
					</filter>
					<sourcetrack>
						<mediatype>audio</mediatype>
						<trackindex>1</trackindex>
					</sourcetrack>
					<link>
						<linkclipref>STE-006.wav</linkclipref>
						<mediatype>audio</mediatype>
						<trackindex>1</trackindex>
						<clipindex>26</clipindex>
						<groupindex>1</groupindex>
					</link>
					<link>
						<linkclipref>STE-006.wav2</linkclipref>
						<mediatype>audio</mediatype>
						<trackindex>2</trackindex>
						<clipindex>26</clipindex>
						<groupindex>1</groupindex>
					</link>
					<itemhistory>
						<uuid>B427B3D0-660A-4D44-9807-8B6B9D461B1A</uuid>
					</itemhistory>
				</clipitem>
				<clipitem id="STE-007.wav3">
					<name>STE-007.wav</name>
					<duration>754</duration>
					<rate>
						<ntsc>TRUE</ntsc>
						<timebase>30</timebase>
					</rate>
					<in>637</in>
					<out>680</out>
					<start>17700</start>
					<end>17743</end>
					<subframeoffset>0</subframeoffset>
					<masterclipid>STE-007.wav1</masterclipid>
					<logginginfo>
						<scene/>
						<shottake/>
						<lognote/>
						<good>FALSE</good>
					</logginginfo>
					<labels>
						<label2/>
					</labels>
					<comments>
						<mastercomment1/>
						<mastercomment2/>
						<mastercomment3/>
						<mastercomment4/>
					</comments>
					<file id="STE-007 "/>
					<filter>
						<effect>
							<name>Audio Levels</name>
							<effectid>audiolevels</effectid>
							<effectcategory>audiolevels</effectcategory>
							<effecttype>audiolevels</effecttype>
							<mediatype>audio</mediatype>
							<parameter>
								<name>Level</name>
								<parameterid>level</parameterid>
								<valuemin>0</valuemin>
								<valuemax>3.98109</valuemax>
								<value>1</value>
							</parameter>
						</effect>
					</filter>
					<filter>
						<effect>
							<name>Audio Pan</name>
							<effectid>audiopan</effectid>
							<effectcategory>audiopan</effectcategory>
							<effecttype>audiopan</effecttype>
							<mediatype>audio</mediatype>
							<parameter>
								<name>Pan</name>
								<parameterid>pan</parameterid>
								<valuemin>-1</valuemin>
								<valuemax>1</valuemax>
								<value>-1</value>
							</parameter>
						</effect>
					</filter>
					<sourcetrack>
						<mediatype>audio</mediatype>
						<trackindex>1</trackindex>
					</sourcetrack>
					<link>
						<linkclipref>STE-007.wav3</linkclipref>
						<mediatype>audio</mediatype>
						<trackindex>1</trackindex>
						<clipindex>27</clipindex>
						<groupindex>1</groupindex>
					</link>
					<link>
						<linkclipref>STE-007.wav4</linkclipref>
						<mediatype>audio</mediatype>
						<trackindex>2</trackindex>
						<clipindex>27</clipindex>
						<groupindex>1</groupindex>
					</link>
					<itemhistory>
						<uuid>55C3BFA5-176C-4319-8AF4-7E6A1A312F7A</uuid>
					</itemhistory>
				</clipitem>
				<transitionitem>
					<rate>
						<ntsc>TRUE</ntsc>
						<timebase>30</timebase>
					</rate>
					<start>17933</start>
					<end>18388</end>
					<alignment>start-black</alignment>
					<effect>
						<name>Cross Fade (+3dB)</name>
						<effectid>KGAudioTransCrossFade3dB</effectid>
						<effecttype>transition</effecttype>
						<mediatype>audio</mediatype>
					</effect>
				</transitionitem>
				<clipitem id="STE-019.wav">
					<name>STE-019.wav</name>
					<duration>4684</duration>
					<rate>
						<ntsc>TRUE</ntsc>
						<timebase>30</timebase>
					</rate>
					<in>1185</in>
					<out>4423</out>
					<start>-1</start>
					<end>21171</end>
					<subframeoffset>0</subframeoffset>
					<enabled>TRUE</enabled>
					<masterclipid>STE-019.wav1</masterclipid>
					<logginginfo>
						<scene/>
						<shottake/>
						<lognote/>
						<good>FALSE</good>
					</logginginfo>
					<labels>
						<label2/>
					</labels>
					<comments>
						<mastercomment1/>
						<mastercomment2/>
						<mastercomment3/>
						<mastercomment4/>
					</comments>
					<file id="STE-019 ">
						<name>STE-019.wav</name>
						<pathurl>file://localhost/Volumes/FILMS/FROM%20AWAY/FROM%20AWAY%20AUDIO/STE-019.wav</pathurl>
						<rate>
							<timebase>24</timebase>
						</rate>
						<duration>3747</duration>
						<timecode>
							<rate>
								<timebase>24</timebase>
							</rate>
							<string>00:00:00:00</string>
							<frame>0</frame>
							<displayformat>NDF</displayformat>
							<source>source</source>
						</timecode>
						<media>
							<audio>
								<samplecharacteristics>
									<samplerate>44100</samplerate>
									<depth>16</depth>
								</samplecharacteristics>
								<channelcount>2</channelcount>
							</audio>
						</media>
					</file>
					<filter>
						<enabled>TRUE</enabled>
						<start>-1</start>
						<end>-1</end>
						<effect>
							<name>AULowShelfFilter</name>
							<effectid>{61756678, 6c736866, 6170706c}</effectid>
							<effecttype>filter</effecttype>
							<mediatype>audio</mediatype>
							<parameter>
								<parameterid>cutoff frequency</parameterid>
								<parameterspecifier>0:0:0</parameterspecifier>
								<name>cutoff frequency</name>
								<valuemin>10</valuemin>
								<valuemax>200</valuemax>
								<value>66</value>
							</parameter>
							<parameter>
								<parameterid>gain</parameterid>
								<parameterspecifier>1:0:0</parameterspecifier>
								<name>gain</name>
								<valuemin>-40</valuemin>
								<valuemax>40</valuemax>
								<value>15</value>
							</parameter>
						</effect>
					</filter>
					<filter>
						<effect>
							<name>Audio Levels</name>
							<effectid>audiolevels</effectid>
							<effectcategory>audiolevels</effectcategory>
							<effecttype>audiolevels</effecttype>
							<mediatype>audio</mediatype>
							<parameter>
								<name>Level</name>
								<parameterid>level</parameterid>
								<valuemin>0</valuemin>
								<valuemax>3.98109</valuemax>
								<value>2.51189</value>
							</parameter>
						</effect>
					</filter>
					<filter>
						<effect>
							<name>Audio Pan</name>
							<effectid>audiopan</effectid>
							<effectcategory>audiopan</effectcategory>
							<effecttype>audiopan</effecttype>
							<mediatype>audio</mediatype>
							<parameter>
								<name>Pan</name>
								<parameterid>pan</parameterid>
								<valuemin>-1</valuemin>
								<valuemax>1</valuemax>
								<value>-1</value>
							</parameter>
						</effect>
					</filter>
					<sourcetrack>
						<mediatype>audio</mediatype>
						<trackindex>1</trackindex>
					</sourcetrack>
					<link>
						<linkclipref>STE-019.wav</linkclipref>
						<mediatype>audio</mediatype>
						<trackindex>1</trackindex>
						<clipindex>29</clipindex>
						<groupindex>1</groupindex>
					</link>
					<link>
						<linkclipref>STE-019.wav2</linkclipref>
						<mediatype>audio</mediatype>
						<trackindex>2</trackindex>
						<clipindex>29</clipindex>
						<groupindex>1</groupindex>
					</link>
					<itemhistory>
						<uuid>0A0D8DFD-FF89-41E0-A0E6-CF34E6721E13</uuid>
					</itemhistory>
					<mixedratesoffset>1</mixedratesoffset>
				</clipitem>
				<enabled>TRUE</enabled>
				<locked>FALSE</locked>
				<outputchannelindex>1</outputchannelindex>
			</track>
			<track>
				<transitionitem>
					<rate>
						<ntsc>TRUE</ntsc>
						<timebase>30</timebase>
					</rate>
					<start>1267</start>
					<end>1330</end>
					<alignment>start</alignment>
					<effect>
						<name>Cross Fade (+3dB)</name>
						<effectid>KGAudioTransCrossFade3dB</effectid>
						<effecttype>transition</effecttype>
						<mediatype>audio</mediatype>
					</effect>
				</transitionitem>
				<clipitem id="STE-027.wav2">
					<name>STE-027.wav</name>
					<duration>1660</duration>
					<rate>
						<ntsc>TRUE</ntsc>
						<timebase>30</timebase>
					</rate>
					<in>14</in>
					<out>1660</out>
					<start>-1</start>
					<end>-1</end>
					<masterclipid>STE-027.wav1</masterclipid>
					<logginginfo>
						<scene/>
						<shottake/>
						<lognote/>
						<good>FALSE</good>
					</logginginfo>
					<labels>
						<label2/>
					</labels>
					<comments>
						<mastercomment1/>
						<mastercomment2/>
						<mastercomment3/>
						<mastercomment4/>
					</comments>
					<file id="STE-027 "/>
					<marker>
						<name>Marker 1</name>
						<comment/>
						<color>
							<alpha>0</alpha>
							<red>255</red>
							<green>0</green>
							<blue>0</blue>
						</color>
						<in>77</in>
						<out>-1</out>
					</marker>
					<filter>
						<effect>
							<name>Audio Levels</name>
							<effectid>audiolevels</effectid>
							<effectcategory>audiolevels</effectcategory>
							<effecttype>audiolevels</effecttype>
							<mediatype>audio</mediatype>
							<parameter>
								<name>Level</name>
								<parameterid>level</parameterid>
								<valuemin>0</valuemin>
								<valuemax>3.98109</valuemax>
								<value>1.25893</value>
							</parameter>
						</effect>
					</filter>
					<filter>
						<effect>
							<name>Audio Pan</name>
							<effectid>audiopan</effectid>
							<effectcategory>audiopan</effectcategory>
							<effecttype>audiopan</effecttype>
							<mediatype>audio</mediatype>
							<parameter>
								<name>Pan</name>
								<parameterid>pan</parameterid>
								<valuemin>-1</valuemin>
								<valuemax>1</valuemax>
								<value>-0</value>
							</parameter>
						</effect>
					</filter>
					<sourcetrack>
						<mediatype>audio</mediatype>
						<trackindex>2</trackindex>
					</sourcetrack>
					<link>
						<linkclipref>STE-027.wav</linkclipref>
						<mediatype>audio</mediatype>
						<trackindex>1</trackindex>
						<clipindex>2</clipindex>
						<groupindex>1</groupindex>
					</link>
					<link>
						<linkclipref>STE-027.wav2</linkclipref>
						<mediatype>audio</mediatype>
						<trackindex>2</trackindex>
						<clipindex>2</clipindex>
						<groupindex>1</groupindex>
					</link>
					<itemhistory>
						<uuid>FFB3D752-0285-4EB2-A3DE-145510D44449</uuid>
					</itemhistory>
				</clipitem>
				<transitionitem>
					<rate>
						<ntsc>TRUE</ntsc>
						<timebase>30</timebase>
					</rate>
					<start>2790</start>
					<end>2913</end>
					<alignment>end-black</alignment>
					<effect>
						<name>Cross Fade (+3dB)</name>
						<effectid>KGAudioTransCrossFade3dB</effectid>
						<effecttype>transition</effecttype>
						<mediatype>audio</mediatype>
					</effect>
				</transitionitem>
				<clipitem id="crwaves.wav2">
					<name>crwaves.wav</name>
					<duration>3788</duration>
					<rate>
						<ntsc>TRUE</ntsc>
						<timebase>30</timebase>
					</rate>
					<in>1008</in>
					<out>1266</out>
					<start>3592</start>
					<end>3850</end>
					<subframeoffset>0</subframeoffset>
					<masterclipid>crwaves.wav1</masterclipid>
					<logginginfo>
						<scene/>
						<shottake/>
						<lognote/>
						<good>FALSE</good>
					</logginginfo>
					<labels>
						<label2/>
					</labels>
					<comments>
						<mastercomment1/>
						<mastercomment2/>
						<mastercomment3/>
						<mastercomment4/>
					</comments>
					<file id="crwaves"/>
					<filter>
						<effect>
							<name>Audio Levels</name>
							<effectid>audiolevels</effectid>
							<effectcategory>audiolevels</effectcategory>
							<effecttype>audiolevels</effecttype>
							<mediatype>audio</mediatype>
							<parameter>
								<name>Level</name>
								<parameterid>level</parameterid>
								<valuemin>0</valuemin>
								<valuemax>3.98109</valuemax>
								<value>1</value>
							</parameter>
						</effect>
					</filter>
					<filter>
						<effect>
							<name>Audio Pan</name>
							<effectid>audiopan</effectid>
							<effectcategory>audiopan</effectcategory>
							<effecttype>audiopan</effecttype>
							<mediatype>audio</mediatype>
							<parameter>
								<name>Pan</name>
								<parameterid>pan</parameterid>
								<valuemin>-1</valuemin>
								<valuemax>1</valuemax>
								<value>1</value>
							</parameter>
						</effect>
					</filter>
					<sourcetrack>
						<mediatype>audio</mediatype>
						<trackindex>2</trackindex>
					</sourcetrack>
					<link>
						<linkclipref>crwaves.wav</linkclipref>
						<mediatype>audio</mediatype>
						<trackindex>1</trackindex>
						<clipindex>4</clipindex>
						<groupindex>1</groupindex>
					</link>
					<link>
						<linkclipref>crwaves.wav2</linkclipref>
						<mediatype>audio</mediatype>
						<trackindex>2</trackindex>
						<clipindex>4</clipindex>
						<groupindex>1</groupindex>
					</link>
					<itemhistory>
						<uuid>00E51885-0056-4F3C-BE5E-1500EDA0728F</uuid>
					</itemhistory>
				</clipitem>
				<clipitem id="crwaves.wav4">
					<name>crwaves.wav</name>
					<duration>3788</duration>
					<rate>
						<ntsc>TRUE</ntsc>
						<timebase>30</timebase>
					</rate>
					<in>577</in>
					<out>695</out>
					<start>3850</start>
					<end>3968</end>
					<subframeoffset>0</subframeoffset>
					<masterclipid>crwaves.wav1</masterclipid>
					<logginginfo>
						<scene/>
						<shottake/>
						<lognote/>
						<good>FALSE</good>
					</logginginfo>
					<labels>
						<label2/>
					</labels>
					<comments>
						<mastercomment1/>
						<mastercomment2/>
						<mastercomment3/>
						<mastercomment4/>
					</comments>
					<file id="crwaves"/>
					<filter>
						<effect>
							<name>Audio Levels</name>
							<effectid>audiolevels</effectid>
							<effectcategory>audiolevels</effectcategory>
							<effecttype>audiolevels</effecttype>
							<mediatype>audio</mediatype>
							<parameter>
								<name>Level</name>
								<parameterid>level</parameterid>
								<valuemin>0</valuemin>
								<valuemax>3.98109</valuemax>
								<value>0.251189</value>
							</parameter>
						</effect>
					</filter>
					<filter>
						<effect>
							<name>Audio Pan</name>
							<effectid>audiopan</effectid>
							<effectcategory>audiopan</effectcategory>
							<effecttype>audiopan</effecttype>
							<mediatype>audio</mediatype>
							<parameter>
								<name>Pan</name>
								<parameterid>pan</parameterid>
								<valuemin>-1</valuemin>
								<valuemax>1</valuemax>
								<value>1</value>
							</parameter>
						</effect>
					</filter>
					<sourcetrack>
						<mediatype>audio</mediatype>
						<trackindex>2</trackindex>
					</sourcetrack>
					<link>
						<linkclipref>crwaves.wav3</linkclipref>
						<mediatype>audio</mediatype>
						<trackindex>1</trackindex>
						<clipindex>5</clipindex>
						<groupindex>1</groupindex>
					</link>
					<link>
						<linkclipref>crwaves.wav4</linkclipref>
						<mediatype>audio</mediatype>
						<trackindex>2</trackindex>
						<clipindex>5</clipindex>
						<groupindex>1</groupindex>
					</link>
					<itemhistory>
						<uuid>D660E8F5-A4C2-4FC3-9B65-102F9B927EBC</uuid>
					</itemhistory>
				</clipitem>
				<transitionitem>
					<rate>
						<ntsc>TRUE</ntsc>
						<timebase>30</timebase>
					</rate>
					<start>4511</start>
					<end>5363</end>
					<alignment>start-black</alignment>
					<effect>
						<name>Cross Fade (+3dB)</name>
						<effectid>KGAudioTransCrossFade3dB</effectid>
						<effecttype>transition</effecttype>
						<mediatype>audio</mediatype>
					</effect>
				</transitionitem>
				<clipitem id="STE-002.wav2">
					<name>STE-002.wav</name>
					<duration>4519</duration>
					<rate>
						<ntsc>TRUE</ntsc>
						<timebase>30</timebase>
					</rate>
					<in>702</in>
					<out>2188</out>
					<start>-1</start>
					<end>-1</end>
					<subframeoffset>0</subframeoffset>
					<masterclipid>STE-002.wav1</masterclipid>
					<logginginfo>
						<scene/>
						<shottake/>
						<lognote/>
						<good>FALSE</good>
					</logginginfo>
					<labels>
						<label2/>
					</labels>
					<comments>
						<mastercomment1/>
						<mastercomment2/>
						<mastercomment3/>
						<mastercomment4/>
					</comments>
					<file id="STE-002 "/>
					<filter>
						<enabled>TRUE</enabled>
						<start>-1</start>
						<end>-1</end>
						<effect>
							<name>AUBandpass</name>
							<effectid>{61756678, 62706173, 6170706c}</effectid>
							<effecttype>filter</effecttype>
							<mediatype>audio</mediatype>
							<parameter>
								<parameterid>center frequency</parameterid>
								<parameterspecifier>0:0:0</parameterspecifier>
								<name>center frequency</name>
								<valuemin>20</valuemin>
								<valuemax>22050</valuemax>
								<value>1808</value>
							</parameter>
							<parameter>
								<parameterid>bandwidth</parameterid>
								<parameterspecifier>1:0:0</parameterspecifier>
								<name>bandwidth</name>
								<valuemin>100</valuemin>
								<valuemax>12000</valuemax>
								<value>4273</value>
							</parameter>
						</effect>
					</filter>
					<filter>
						<enabled>TRUE</enabled>
						<start>-1</start>
						<end>-1</end>
						<effect>
							<name>AUHighShelfFilter</name>
							<effectid>{61756678, 68736866, 6170706c}</effectid>
							<effecttype>filter</effecttype>
							<mediatype>audio</mediatype>
							<parameter>
								<parameterid>cutoff frequency</parameterid>
								<parameterspecifier>0:0:0</parameterspecifier>
								<name>cutoff frequency</name>
								<valuemin>10000</valuemin>
								<valuemax>22050</valuemax>
								<value>10320</value>
							</parameter>
							<parameter>
								<parameterid>gain</parameterid>
								<parameterspecifier>1:0:0</parameterspecifier>
								<name>gain</name>
								<valuemin>-40</valuemin>
								<valuemax>40</valuemax>
								<value>-32</value>
							</parameter>
						</effect>
					</filter>
					<filter>
						<effect>
							<name>Audio Levels</name>
							<effectid>audiolevels</effectid>
							<effectcategory>audiolevels</effectcategory>
							<effecttype>audiolevels</effecttype>
							<mediatype>audio</mediatype>
							<parameter>
								<name>Level</name>
								<parameterid>level</parameterid>
								<valuemin>0</valuemin>
								<valuemax>3.98109</valuemax>
								<value>2.23872</value>
							</parameter>
						</effect>
					</filter>
					<filter>
						<effect>
							<name>Audio Pan</name>
							<effectid>audiopan</effectid>
							<effectcategory>audiopan</effectcategory>
							<effecttype>audiopan</effecttype>
							<mediatype>audio</mediatype>
							<parameter>
								<name>Pan</name>
								<parameterid>pan</parameterid>
								<valuemin>-1</valuemin>
								<valuemax>1</valuemax>
								<value>1</value>
							</parameter>
						</effect>
					</filter>
					<sourcetrack>
						<mediatype>audio</mediatype>
						<trackindex>2</trackindex>
					</sourcetrack>
					<link>
						<linkclipref>STE-002.wav</linkclipref>
						<mediatype>audio</mediatype>
						<trackindex>1</trackindex>
						<clipindex>7</clipindex>
						<groupindex>1</groupindex>
					</link>
					<link>
						<linkclipref>STE-002.wav2</linkclipref>
						<mediatype>audio</mediatype>
						<trackindex>2</trackindex>
						<clipindex>7</clipindex>
						<groupindex>1</groupindex>
					</link>
					<itemhistory>
						<uuid>37C81D7C-7D70-4C65-9822-F32E5648D128</uuid>
						<uuid>AE8DE439-006B-43DC-A7B4-0A495BD96F10</uuid>
					</itemhistory>
					<mixedratesoffset>1</mixedratesoffset>
				</clipitem>
				<transitionitem>
					<rate>
						<ntsc>TRUE</ntsc>
						<timebase>30</timebase>
					</rate>
					<start>5967</start>
					<end>5997</end>
					<alignment>center</alignment>
					<effect>
						<name>Cross Fade (+3dB)</name>
						<effectid>KGAudioTransCrossFade3dB</effectid>
						<effecttype>transition</effecttype>
						<mediatype>audio</mediatype>
					</effect>
				</transitionitem>
				<clipitem id="STE-002.wav4">
					<name>STE-002.wav</name>
					<duration>4519</duration>
					<rate>
						<ntsc>TRUE</ntsc>
						<timebase>30</timebase>
					</rate>
					<in>2201</in>
					<out>2603</out>
					<start>-1</start>
					<end>-1</end>
					<subframeoffset>0</subframeoffset>
					<masterclipid>STE-002.wav1</masterclipid>
					<logginginfo>
						<scene/>
						<shottake/>
						<lognote/>
						<good>FALSE</good>
					</logginginfo>
					<labels>
						<label2/>
					</labels>
					<comments>
						<mastercomment1/>
						<mastercomment2/>
						<mastercomment3/>
						<mastercomment4/>
					</comments>
					<file id="STE-002 "/>
					<filter>
						<enabled>TRUE</enabled>
						<start>-1</start>
						<end>-1</end>
						<effect>
							<name>AUBandpass</name>
							<effectid>{61756678, 62706173, 6170706c}</effectid>
							<effecttype>filter</effecttype>
							<mediatype>audio</mediatype>
							<parameter>
								<parameterid>center frequency</parameterid>
								<parameterspecifier>0:0:0</parameterspecifier>
								<name>center frequency</name>
								<valuemin>20</valuemin>
								<valuemax>22050</valuemax>
								<value>1808</value>
							</parameter>
							<parameter>
								<parameterid>bandwidth</parameterid>
								<parameterspecifier>1:0:0</parameterspecifier>
								<name>bandwidth</name>
								<valuemin>100</valuemin>
								<valuemax>12000</valuemax>
								<value>4273</value>
							</parameter>
						</effect>
					</filter>
					<filter>
						<enabled>TRUE</enabled>
						<start>-1</start>
						<end>-1</end>
						<effect>
							<name>AUHighShelfFilter</name>
							<effectid>{61756678, 68736866, 6170706c}</effectid>
							<effecttype>filter</effecttype>
							<mediatype>audio</mediatype>
							<parameter>
								<parameterid>cutoff frequency</parameterid>
								<parameterspecifier>0:0:0</parameterspecifier>
								<name>cutoff frequency</name>
								<valuemin>10000</valuemin>
								<valuemax>22050</valuemax>
								<value>10320</value>
							</parameter>
							<parameter>
								<parameterid>gain</parameterid>
								<parameterspecifier>1:0:0</parameterspecifier>
								<name>gain</name>
								<valuemin>-40</valuemin>
								<valuemax>40</valuemax>
								<value>-32</value>
							</parameter>
						</effect>
					</filter>
					<filter>
						<effect>
							<name>Audio Levels</name>
							<effectid>audiolevels</effectid>
							<effectcategory>audiolevels</effectcategory>
							<effecttype>audiolevels</effecttype>
							<mediatype>audio</mediatype>
							<parameter>
								<name>Level</name>
								<parameterid>level</parameterid>
								<valuemin>0</valuemin>
								<valuemax>3.98109</valuemax>
								<value>3.98107</value>
							</parameter>
						</effect>
					</filter>
					<filter>
						<effect>
							<name>Audio Pan</name>
							<effectid>audiopan</effectid>
							<effectcategory>audiopan</effectcategory>
							<effecttype>audiopan</effecttype>
							<mediatype>audio</mediatype>
							<parameter>
								<name>Pan</name>
								<parameterid>pan</parameterid>
								<valuemin>-1</valuemin>
								<valuemax>1</valuemax>
								<value>1</value>
							</parameter>
						</effect>
					</filter>
					<sourcetrack>
						<mediatype>audio</mediatype>
						<trackindex>2</trackindex>
					</sourcetrack>
					<link>
						<linkclipref>STE-002.wav3</linkclipref>
						<mediatype>audio</mediatype>
						<trackindex>1</trackindex>
						<clipindex>9</clipindex>
						<groupindex>1</groupindex>
					</link>
					<link>
						<linkclipref>STE-002.wav4</linkclipref>
						<mediatype>audio</mediatype>
						<trackindex>2</trackindex>
						<clipindex>9</clipindex>
						<groupindex>1</groupindex>
					</link>
					<itemhistory>
						<uuid>425711CE-A36C-431A-9635-ADF3CCD95E25</uuid>
						<uuid>AE8DE439-006B-43DC-A7B4-0A495BD96F10</uuid>
					</itemhistory>
					<mixedratesoffset>1</mixedratesoffset>
				</clipitem>
				<transitionitem>
					<rate>
						<ntsc>TRUE</ntsc>
						<timebase>30</timebase>
					</rate>
					<start>6215</start>
					<end>6369</end>
					<alignment>end-black</alignment>
					<effect>
						<name>Cross Fade (+3dB)</name>
						<effectid>KGAudioTransCrossFade3dB</effectid>
						<effecttype>transition</effecttype>
						<mediatype>audio</mediatype>
					</effect>
				</transitionitem>
				<clipitem id="STE-005.wav2">
					<name>STE-005.wav</name>
					<duration>4656</duration>
					<rate>
						<ntsc>TRUE</ntsc>
						<timebase>30</timebase>
					</rate>
					<in>1847</in>
					<out>2456</out>
					<start>6369</start>
					<end>6978</end>
					<subframeoffset>0</subframeoffset>
					<masterclipid>STE-005.wav1</masterclipid>
					<logginginfo>
						<scene/>
						<shottake/>
						<lognote/>
						<good>FALSE</good>
					</logginginfo>
					<labels>
						<label2/>
					</labels>
					<comments>
						<mastercomment1/>
						<mastercomment2/>
						<mastercomment3/>
						<mastercomment4/>
					</comments>
					<file id="STE-005 "/>
					<filter>
						<effect>
							<name>Audio Levels</name>
							<effectid>audiolevels</effectid>
							<effectcategory>audiolevels</effectcategory>
							<effecttype>audiolevels</effecttype>
							<mediatype>audio</mediatype>
							<parameter>
								<name>Level</name>
								<parameterid>level</parameterid>
								<valuemin>0</valuemin>
								<valuemax>3.98109</valuemax>
								<value>1</value>
							</parameter>
						</effect>
					</filter>
					<filter>
						<effect>
							<name>Audio Pan</name>
							<effectid>audiopan</effectid>
							<effectcategory>audiopan</effectcategory>
							<effecttype>audiopan</effecttype>
							<mediatype>audio</mediatype>
							<parameter>
								<name>Pan</name>
								<parameterid>pan</parameterid>
								<valuemin>-1</valuemin>
								<valuemax>1</valuemax>
								<value>1</value>
							</parameter>
						</effect>
					</filter>
					<sourcetrack>
						<mediatype>audio</mediatype>
						<trackindex>2</trackindex>
					</sourcetrack>
					<link>
						<linkclipref>STE-005.wav</linkclipref>
						<mediatype>audio</mediatype>
						<trackindex>1</trackindex>
						<clipindex>11</clipindex>
						<groupindex>1</groupindex>
					</link>
					<link>
						<linkclipref>STE-005.wav2</linkclipref>
						<mediatype>audio</mediatype>
						<trackindex>2</trackindex>
						<clipindex>11</clipindex>
						<groupindex>1</groupindex>
					</link>
					<itemhistory>
						<uuid>79E30F5F-04FB-4410-AE14-BC68E57D6CCF</uuid>
					</itemhistory>
				</clipitem>
				<clipitem id="STE-011.wav2">
					<name>STE-011.wav</name>
					<duration>2498</duration>
					<rate>
						<ntsc>TRUE</ntsc>
						<timebase>30</timebase>
					</rate>
					<in>2091</in>
					<out>2497</out>
					<start>6978</start>
					<end>-1</end>
					<subframeoffset>0</subframeoffset>
					<masterclipid>STE-011.wav1</masterclipid>
					<logginginfo>
						<scene/>
						<shottake/>
						<lognote/>
						<good>FALSE</good>
					</logginginfo>
					<labels>
						<label2/>
					</labels>
					<comments>
						<mastercomment1/>
						<mastercomment2/>
						<mastercomment3/>
						<mastercomment4/>
					</comments>
					<file id="STE-011 "/>
					<filter>
						<effect>
							<name>Audio Levels</name>
							<effectid>audiolevels</effectid>
							<effectcategory>audiolevels</effectcategory>
							<effecttype>audiolevels</effecttype>
							<mediatype>audio</mediatype>
							<parameter>
								<name>Level</name>
								<parameterid>level</parameterid>
								<valuemin>0</valuemin>
								<valuemax>3.98109</valuemax>
								<value>0.251189</value>
							</parameter>
						</effect>
					</filter>
					<filter>
						<effect>
							<name>Audio Pan</name>
							<effectid>audiopan</effectid>
							<effectcategory>audiopan</effectcategory>
							<effecttype>audiopan</effecttype>
							<mediatype>audio</mediatype>
							<parameter>
								<name>Pan</name>
								<parameterid>pan</parameterid>
								<valuemin>-1</valuemin>
								<valuemax>1</valuemax>
								<value>1</value>
							</parameter>
						</effect>
					</filter>
					<sourcetrack>
						<mediatype>audio</mediatype>
						<trackindex>2</trackindex>
					</sourcetrack>
					<link>
						<linkclipref>STE-011.wav</linkclipref>
						<mediatype>audio</mediatype>
						<trackindex>1</trackindex>
						<clipindex>12</clipindex>
						<groupindex>1</groupindex>
					</link>
					<link>
						<linkclipref>STE-011.wav2</linkclipref>
						<mediatype>audio</mediatype>
						<trackindex>2</trackindex>
						<clipindex>12</clipindex>
						<groupindex>1</groupindex>
					</link>
					<itemhistory>
						<uuid>D90E02AB-9B43-44AD-86F6-A5E0ED1EC04D</uuid>
					</itemhistory>
				</clipitem>
				<transitionitem>
					<rate>
						<ntsc>TRUE</ntsc>
						<timebase>30</timebase>
					</rate>
					<start>7307</start>
					<end>7384</end>
					<alignment>end-black</alignment>
					<effect>
						<name>Cross Fade (+3dB)</name>
						<effectid>KGAudioTransCrossFade3dB</effectid>
						<effecttype>transition</effecttype>
						<mediatype>audio</mediatype>
					</effect>
				</transitionitem>
				<transitionitem>
					<rate>
						<ntsc>TRUE</ntsc>
						<timebase>30</timebase>
					</rate>
					<start>9229</start>
					<end>9259</end>
					<alignment>start-black</alignment>
					<effect>
						<name>Cross Fade (+3dB)</name>
						<effectid>KGAudioTransCrossFade3dB</effectid>
						<effecttype>transition</effecttype>
						<mediatype>audio</mediatype>
					</effect>
				</transitionitem>
				<clipitem id="STE-018.wav2">
					<name>STE-018.wav</name>
					<duration>2896</duration>
					<rate>
						<ntsc>TRUE</ntsc>
						<timebase>30</timebase>
					</rate>
					<in>616</in>
					<out>1914</out>
					<start>-1</start>
					<end>-1</end>
					<subframeoffset>0</subframeoffset>
					<masterclipid>STE-018.wav1</masterclipid>
					<logginginfo>
						<scene/>
						<shottake/>
						<lognote/>
						<good>FALSE</good>
					</logginginfo>
					<labels>
						<label2/>
					</labels>
					<comments>
						<mastercomment1/>
						<mastercomment2/>
						<mastercomment3/>
						<mastercomment4/>
					</comments>
					<file id="STE-018 "/>
					<filter>
						<effect>
							<name>Audio Levels</name>
							<effectid>audiolevels</effectid>
							<effectcategory>audiolevels</effectcategory>
							<effecttype>audiolevels</effecttype>
							<mediatype>audio</mediatype>
							<parameter>
								<name>Level</name>
								<parameterid>level</parameterid>
								<valuemin>0</valuemin>
								<valuemax>3.98109</valuemax>
								<value>1.58489</value>
							</parameter>
						</effect>
					</filter>
					<filter>
						<effect>
							<name>Audio Pan</name>
							<effectid>audiopan</effectid>
							<effectcategory>audiopan</effectcategory>
							<effecttype>audiopan</effecttype>
							<mediatype>audio</mediatype>
							<parameter>
								<name>Pan</name>
								<parameterid>pan</parameterid>
								<valuemin>-1</valuemin>
								<valuemax>1</valuemax>
								<value>1</value>
							</parameter>
						</effect>
					</filter>
					<sourcetrack>
						<mediatype>audio</mediatype>
						<trackindex>2</trackindex>
					</sourcetrack>
					<link>
						<linkclipref>STE-018.wav</linkclipref>
						<mediatype>audio</mediatype>
						<trackindex>1</trackindex>
						<clipindex>15</clipindex>
						<groupindex>1</groupindex>
					</link>
					<link>
						<linkclipref>STE-018.wav2</linkclipref>
						<mediatype>audio</mediatype>
						<trackindex>2</trackindex>
						<clipindex>15</clipindex>
						<groupindex>1</groupindex>
					</link>
					<itemhistory>
						<uuid>F603D91A-1B50-49E8-9CD8-7D319BB51F5A</uuid>
					</itemhistory>
				</clipitem>
				<transitionitem>
					<rate>
						<ntsc>TRUE</ntsc>
						<timebase>30</timebase>
					</rate>
					<start>10293</start>
					<end>10527</end>
					<alignment>end-black</alignment>
					<effect>
						<name>Cross Fade (+3dB)</name>
						<effectid>KGAudioTransCrossFade3dB</effectid>
						<effecttype>transition</effecttype>
						<mediatype>audio</mediatype>
					</effect>
				</transitionitem>
				<transitionitem>
					<rate>
						<ntsc>TRUE</ntsc>
						<timebase>30</timebase>
					</rate>
					<start>11235</start>
					<end>11242</end>
					<alignment>start-black</alignment>
					<effect>
						<name>Cross Fade (+3dB)</name>
						<effectid>KGAudioTransCrossFade3dB</effectid>
						<effecttype>transition</effecttype>
						<mediatype>audio</mediatype>
					</effect>
				</transitionitem>
				<clipitem id="STE-013.wav2">
					<name>STE-013.wav</name>
					<duration>13889</duration>
					<rate>
						<ntsc>TRUE</ntsc>
						<timebase>30</timebase>
					</rate>
					<in>10715</in>
					<out>10961</out>
					<start>-1</start>
					<end>11481</end>
					<subframeoffset>0</subframeoffset>
					<masterclipid>STE-013.wav1</masterclipid>
					<logginginfo>
						<scene/>
						<shottake/>
						<lognote/>
						<good>FALSE</good>
					</logginginfo>
					<labels>
						<label2/>
					</labels>
					<comments>
						<mastercomment1/>
						<mastercomment2/>
						<mastercomment3/>
						<mastercomment4/>
					</comments>
					<file id="STE-013 "/>
					<filter>
						<effect>
							<name>Audio Levels</name>
							<effectid>audiolevels</effectid>
							<effectcategory>audiolevels</effectcategory>
							<effecttype>audiolevels</effecttype>
							<mediatype>audio</mediatype>
							<parameter>
								<name>Level</name>
								<parameterid>level</parameterid>
								<valuemin>0</valuemin>
								<valuemax>3.98109</valuemax>
								<value>1.77828</value>
							</parameter>
						</effect>
					</filter>
					<filter>
						<effect>
							<name>Audio Pan</name>
							<effectid>audiopan</effectid>
							<effectcategory>audiopan</effectcategory>
							<effecttype>audiopan</effecttype>
							<mediatype>audio</mediatype>
							<parameter>
								<name>Pan</name>
								<parameterid>pan</parameterid>
								<valuemin>-1</valuemin>
								<valuemax>1</valuemax>
								<value>1</value>
							</parameter>
						</effect>
					</filter>
					<sourcetrack>
						<mediatype>audio</mediatype>
						<trackindex>2</trackindex>
					</sourcetrack>
					<link>
						<linkclipref>STE-013.wav</linkclipref>
						<mediatype>audio</mediatype>
						<trackindex>1</trackindex>
						<clipindex>18</clipindex>
						<groupindex>1</groupindex>
					</link>
					<link>
						<linkclipref>STE-013.wav2</linkclipref>
						<mediatype>audio</mediatype>
						<trackindex>2</trackindex>
						<clipindex>18</clipindex>
						<groupindex>1</groupindex>
					</link>
					<itemhistory>
						<uuid>22FE099D-3786-46A4-A4CF-5D20DD7ECF97</uuid>
					</itemhistory>
				</clipitem>
				<clipitem id="STE-010.wav2">
					<name>STE-010.wav</name>
					<duration>11549</duration>
					<rate>
						<ntsc>TRUE</ntsc>
						<timebase>30</timebase>
					</rate>
					<in>432</in>
					<out>1003</out>
					<start>11914</start>
					<end>12485</end>
					<subframeoffset>0</subframeoffset>
					<enabled>TRUE</enabled>
					<masterclipid>STE-010.wav1</masterclipid>
					<logginginfo>
						<scene/>
						<shottake/>
						<lognote/>
						<good>FALSE</good>
					</logginginfo>
					<labels>
						<label2/>
					</labels>
					<comments>
						<mastercomment1/>
						<mastercomment2/>
						<mastercomment3/>
						<mastercomment4/>
					</comments>
					<file id="STE-010 "/>
					<filter>
						<effect>
							<name>Audio Levels</name>
							<effectid>audiolevels</effectid>
							<effectcategory>audiolevels</effectcategory>
							<effecttype>audiolevels</effecttype>
							<mediatype>audio</mediatype>
							<parameter>
								<name>Level</name>
								<parameterid>level</parameterid>
								<valuemin>0</valuemin>
								<valuemax>3.98109</valuemax>
								<value>0.891251</value>
							</parameter>
						</effect>
					</filter>
					<filter>
						<effect>
							<name>Audio Pan</name>
							<effectid>audiopan</effectid>
							<effectcategory>audiopan</effectcategory>
							<effecttype>audiopan</effecttype>
							<mediatype>audio</mediatype>
							<parameter>
								<name>Pan</name>
								<parameterid>pan</parameterid>
								<valuemin>-1</valuemin>
								<valuemax>1</valuemax>
								<value>1</value>
							</parameter>
						</effect>
					</filter>
					<sourcetrack>
						<mediatype>audio</mediatype>
						<trackindex>2</trackindex>
					</sourcetrack>
					<link>
						<linkclipref>STE-010.wav</linkclipref>
						<mediatype>audio</mediatype>
						<trackindex>1</trackindex>
						<clipindex>19</clipindex>
						<groupindex>1</groupindex>
					</link>
					<link>
						<linkclipref>STE-010.wav2</linkclipref>
						<mediatype>audio</mediatype>
						<trackindex>2</trackindex>
						<clipindex>19</clipindex>
						<groupindex>1</groupindex>
					</link>
					<itemhistory>
						<uuid>FA8593EE-635D-4AA7-8E03-E25FC349677A</uuid>
					</itemhistory>
				</clipitem>
				<transitionitem>
					<rate>
						<ntsc>TRUE</ntsc>
						<timebase>30</timebase>
					</rate>
					<start>12961</start>
					<end>12966</end>
					<alignment>start-black</alignment>
					<effect>
						<name>Cross Fade (+3dB)</name>
						<effectid>KGAudioTransCrossFade3dB</effectid>
						<effecttype>transition</effecttype>
						<mediatype>audio</mediatype>
					</effect>
				</transitionitem>
				<clipitem id="STE-012.wav2">
					<name>STE-012.wav</name>
					<duration>13503</duration>
					<rate>
						<ntsc>TRUE</ntsc>
						<timebase>30</timebase>
					</rate>
					<in>6830</in>
					<out>7559</out>
					<start>-1</start>
					<end>-1</end>
					<subframeoffset>0</subframeoffset>
					<enabled>TRUE</enabled>
					<masterclipid>STE-012.wav1</masterclipid>
					<logginginfo>
						<scene/>
						<shottake/>
						<lognote/>
						<good>FALSE</good>
					</logginginfo>
					<labels>
						<label2/>
					</labels>
					<comments>
						<mastercomment1/>
						<mastercomment2/>
						<mastercomment3/>
						<mastercomment4/>
					</comments>
					<file id="STE-012 "/>
					<filter>
						<effect>
							<name>Audio Levels</name>
							<effectid>audiolevels</effectid>
							<effectcategory>audiolevels</effectcategory>
							<effecttype>audiolevels</effecttype>
							<mediatype>audio</mediatype>
							<parameter>
								<name>Level</name>
								<parameterid>level</parameterid>
								<valuemin>0</valuemin>
								<valuemax>3.98109</valuemax>
								<value>1</value>
							</parameter>
						</effect>
					</filter>
					<filter>
						<effect>
							<name>Audio Pan</name>
							<effectid>audiopan</effectid>
							<effectcategory>audiopan</effectcategory>
							<effecttype>audiopan</effecttype>
							<mediatype>audio</mediatype>
							<parameter>
								<name>Pan</name>
								<parameterid>pan</parameterid>
								<valuemin>-1</valuemin>
								<valuemax>1</valuemax>
								<value>0.933333</value>
							</parameter>
						</effect>
					</filter>
					<sourcetrack>
						<mediatype>audio</mediatype>
						<trackindex>2</trackindex>
					</sourcetrack>
					<link>
						<linkclipref>STE-012.wav</linkclipref>
						<mediatype>audio</mediatype>
						<trackindex>1</trackindex>
						<clipindex>21</clipindex>
						<groupindex>1</groupindex>
					</link>
					<link>
						<linkclipref>STE-012.wav2</linkclipref>
						<mediatype>audio</mediatype>
						<trackindex>2</trackindex>
						<clipindex>21</clipindex>
						<groupindex>1</groupindex>
					</link>
					<itemhistory>
						<uuid>95E115F6-599E-449E-8F37-8138DF598449</uuid>
					</itemhistory>
				</clipitem>
				<transitionitem>
					<rate>
						<ntsc>TRUE</ntsc>
						<timebase>30</timebase>
					</rate>
					<start>13660</start>
					<end>13690</end>
					<alignment>center</alignment>
					<effect>
						<name>Cross Fade (+3dB)</name>
						<effectid>KGAudioTransCrossFade3dB</effectid>
						<effecttype>transition</effecttype>
						<mediatype>audio</mediatype>
					</effect>
				</transitionitem>
				<clipitem id="STE-003.wav2">
					<name>STE-003.wav</name>
					<duration>9064</duration>
					<rate>
						<ntsc>TRUE</ntsc>
						<timebase>30</timebase>
					</rate>
					<in>314</in>
					<out>679</out>
					<start>-1</start>
					<end>14025</end>
					<subframeoffset>0</subframeoffset>
					<masterclipid>STE-003.wav1</masterclipid>
					<logginginfo>
						<scene/>
						<shottake/>
						<lognote/>
						<good>FALSE</good>
					</logginginfo>
					<labels>
						<label2/>
					</labels>
					<comments>
						<mastercomment1/>
						<mastercomment2/>
						<mastercomment3/>
						<mastercomment4/>
					</comments>
					<file id="STE-003 "/>
					<filter>
						<effect>
							<name>Audio Levels</name>
							<effectid>audiolevels</effectid>
							<effectcategory>audiolevels</effectcategory>
							<effecttype>audiolevels</effecttype>
							<mediatype>audio</mediatype>
							<parameter>
								<name>Level</name>
								<parameterid>level</parameterid>
								<valuemin>0</valuemin>
								<valuemax>3.98109</valuemax>
								<value>0.251189</value>
							</parameter>
						</effect>
					</filter>
					<filter>
						<effect>
							<name>Audio Pan</name>
							<effectid>audiopan</effectid>
							<effectcategory>audiopan</effectcategory>
							<effecttype>audiopan</effecttype>
							<mediatype>audio</mediatype>
							<parameter>
								<name>Pan</name>
								<parameterid>pan</parameterid>
								<valuemin>-1</valuemin>
								<valuemax>1</valuemax>
								<value>1</value>
							</parameter>
						</effect>
					</filter>
					<sourcetrack>
						<mediatype>audio</mediatype>
						<trackindex>2</trackindex>
					</sourcetrack>
					<link>
						<linkclipref>STE-003.wav</linkclipref>
						<mediatype>audio</mediatype>
						<trackindex>1</trackindex>
						<clipindex>23</clipindex>
						<groupindex>1</groupindex>
					</link>
					<link>
						<linkclipref>STE-003.wav2</linkclipref>
						<mediatype>audio</mediatype>
						<trackindex>2</trackindex>
						<clipindex>23</clipindex>
						<groupindex>1</groupindex>
					</link>
					<itemhistory>
						<uuid>BDC8F198-EDF4-44D5-9F15-42B3555D09CC</uuid>
					</itemhistory>
				</clipitem>
				<clipitem id="STE-003.wav4">
					<name>STE-003.wav</name>
					<duration>9064</duration>
					<rate>
						<ntsc>TRUE</ntsc>
						<timebase>30</timebase>
					</rate>
					<in>677</in>
					<out>1426</out>
					<start>14025</start>
					<end>14774</end>
					<subframeoffset>0</subframeoffset>
					<masterclipid>STE-003.wav1</masterclipid>
					<logginginfo>
						<scene/>
						<shottake/>
						<lognote/>
						<good>FALSE</good>
					</logginginfo>
					<labels>
						<label2/>
					</labels>
					<comments>
						<mastercomment1/>
						<mastercomment2/>
						<mastercomment3/>
						<mastercomment4/>
					</comments>
					<file id="STE-003 "/>
					<filter>
						<effect>
							<name>Audio Levels</name>
							<effectid>audiolevels</effectid>
							<effectcategory>audiolevels</effectcategory>
							<effecttype>audiolevels</effecttype>
							<mediatype>audio</mediatype>
							<parameter>
								<name>Level</name>
								<parameterid>level</parameterid>
								<valuemin>0</valuemin>
								<valuemax>3.98109</valuemax>
								<value>2.23872</value>
							</parameter>
						</effect>
					</filter>
					<filter>
						<effect>
							<name>Audio Pan</name>
							<effectid>audiopan</effectid>
							<effectcategory>audiopan</effectcategory>
							<effecttype>audiopan</effecttype>
							<mediatype>audio</mediatype>
							<parameter>
								<name>Pan</name>
								<parameterid>pan</parameterid>
								<valuemin>-1</valuemin>
								<valuemax>1</valuemax>
								<value>1</value>
							</parameter>
						</effect>
					</filter>
					<sourcetrack>
						<mediatype>audio</mediatype>
						<trackindex>2</trackindex>
					</sourcetrack>
					<link>
						<linkclipref>STE-003.wav3</linkclipref>
						<mediatype>audio</mediatype>
						<trackindex>1</trackindex>
						<clipindex>24</clipindex>
						<groupindex>1</groupindex>
					</link>
					<link>
						<linkclipref>STE-003.wav4</linkclipref>
						<mediatype>audio</mediatype>
						<trackindex>2</trackindex>
						<clipindex>24</clipindex>
						<groupindex>1</groupindex>
					</link>
					<itemhistory>
						<uuid>42540154-B7A8-4705-8F0C-827015AC1C91</uuid>
					</itemhistory>
				</clipitem>
				<clipitem id="STE-007.wav2">
					<name>STE-007.wav</name>
					<duration>754</duration>
					<rate>
						<ntsc>TRUE</ntsc>
						<timebase>30</timebase>
					</rate>
					<in>290</in>
					<out>421</out>
					<start>16545</start>
					<end>16676</end>
					<subframeoffset>0</subframeoffset>
					<masterclipid>STE-007.wav1</masterclipid>
					<logginginfo>
						<scene/>
						<shottake/>
						<lognote/>
						<good>FALSE</good>
					</logginginfo>
					<labels>
						<label2/>
					</labels>
					<comments>
						<mastercomment1/>
						<mastercomment2/>
						<mastercomment3/>
						<mastercomment4/>
					</comments>
					<file id="STE-007 "/>
					<filter>
						<effect>
							<name>Audio Levels</name>
							<effectid>audiolevels</effectid>
							<effectcategory>audiolevels</effectcategory>
							<effecttype>audiolevels</effecttype>
							<mediatype>audio</mediatype>
							<parameter>
								<name>Level</name>
								<parameterid>level</parameterid>
								<valuemin>0</valuemin>
								<valuemax>3.98109</valuemax>
								<value>1</value>
							</parameter>
						</effect>
					</filter>
					<filter>
						<effect>
							<name>Audio Pan</name>
							<effectid>audiopan</effectid>
							<effectcategory>audiopan</effectcategory>
							<effecttype>audiopan</effecttype>
							<mediatype>audio</mediatype>
							<parameter>
								<name>Pan</name>
								<parameterid>pan</parameterid>
								<valuemin>-1</valuemin>
								<valuemax>1</valuemax>
								<value>1</value>
							</parameter>
						</effect>
					</filter>
					<sourcetrack>
						<mediatype>audio</mediatype>
						<trackindex>2</trackindex>
					</sourcetrack>
					<link>
						<linkclipref>STE-007.wav</linkclipref>
						<mediatype>audio</mediatype>
						<trackindex>1</trackindex>
						<clipindex>25</clipindex>
						<groupindex>1</groupindex>
					</link>
					<link>
						<linkclipref>STE-007.wav2</linkclipref>
						<mediatype>audio</mediatype>
						<trackindex>2</trackindex>
						<clipindex>25</clipindex>
						<groupindex>1</groupindex>
					</link>
					<itemhistory>
						<uuid>CC97EC0C-4B27-4B1A-8A69-6760A006023B</uuid>
					</itemhistory>
				</clipitem>
				<clipitem id="STE-006.wav2">
					<name>STE-006.wav</name>
					<duration>1758</duration>
					<rate>
						<ntsc>TRUE</ntsc>
						<timebase>30</timebase>
					</rate>
					<in>440</in>
					<out>503</out>
					<start>17332</start>
					<end>17395</end>
					<subframeoffset>0</subframeoffset>
					<masterclipid>STE-006.wav1</masterclipid>
					<logginginfo>
						<scene/>
						<shottake/>
						<lognote/>
						<good>FALSE</good>
					</logginginfo>
					<labels>
						<label2/>
					</labels>
					<comments>
						<mastercomment1/>
						<mastercomment2/>
						<mastercomment3/>
						<mastercomment4/>
					</comments>
					<file id="STE-006 "/>
					<filter>
						<effect>
							<name>Audio Levels</name>
							<effectid>audiolevels</effectid>
							<effectcategory>audiolevels</effectcategory>
							<effecttype>audiolevels</effecttype>
							<mediatype>audio</mediatype>
							<parameter>
								<name>Level</name>
								<parameterid>level</parameterid>
								<valuemin>0</valuemin>
								<valuemax>3.98109</valuemax>
								<value>3.98107</value>
							</parameter>
						</effect>
					</filter>
					<filter>
						<effect>
							<name>Audio Pan</name>
							<effectid>audiopan</effectid>
							<effectcategory>audiopan</effectcategory>
							<effecttype>audiopan</effecttype>
							<mediatype>audio</mediatype>
							<parameter>
								<name>Pan</name>
								<parameterid>pan</parameterid>
								<valuemin>-1</valuemin>
								<valuemax>1</valuemax>
								<value>1</value>
							</parameter>
						</effect>
					</filter>
					<sourcetrack>
						<mediatype>audio</mediatype>
						<trackindex>2</trackindex>
					</sourcetrack>
					<link>
						<linkclipref>STE-006.wav</linkclipref>
						<mediatype>audio</mediatype>
						<trackindex>1</trackindex>
						<clipindex>26</clipindex>
						<groupindex>1</groupindex>
					</link>
					<link>
						<linkclipref>STE-006.wav2</linkclipref>
						<mediatype>audio</mediatype>
						<trackindex>2</trackindex>
						<clipindex>26</clipindex>
						<groupindex>1</groupindex>
					</link>
					<itemhistory>
						<uuid>6E913FC5-64DB-4254-9007-974C2A24AAE1</uuid>
					</itemhistory>
				</clipitem>
				<clipitem id="STE-007.wav4">
					<name>STE-007.wav</name>
					<duration>754</duration>
					<rate>
						<ntsc>TRUE</ntsc>
						<timebase>30</timebase>
					</rate>
					<in>637</in>
					<out>680</out>
					<start>17700</start>
					<end>17743</end>
					<subframeoffset>0</subframeoffset>
					<masterclipid>STE-007.wav1</masterclipid>
					<logginginfo>
						<scene/>
						<shottake/>
						<lognote/>
						<good>FALSE</good>
					</logginginfo>
					<labels>
						<label2/>
					</labels>
					<comments>
						<mastercomment1/>
						<mastercomment2/>
						<mastercomment3/>
						<mastercomment4/>
					</comments>
					<file id="STE-007 "/>
					<filter>
						<effect>
							<name>Audio Levels</name>
							<effectid>audiolevels</effectid>
							<effectcategory>audiolevels</effectcategory>
							<effecttype>audiolevels</effecttype>
							<mediatype>audio</mediatype>
							<parameter>
								<name>Level</name>
								<parameterid>level</parameterid>
								<valuemin>0</valuemin>
								<valuemax>3.98109</valuemax>
								<value>1</value>
							</parameter>
						</effect>
					</filter>
					<filter>
						<effect>
							<name>Audio Pan</name>
							<effectid>audiopan</effectid>
							<effectcategory>audiopan</effectcategory>
							<effecttype>audiopan</effecttype>
							<mediatype>audio</mediatype>
							<parameter>
								<name>Pan</name>
								<parameterid>pan</parameterid>
								<valuemin>-1</valuemin>
								<valuemax>1</valuemax>
								<value>1</value>
							</parameter>
						</effect>
					</filter>
					<sourcetrack>
						<mediatype>audio</mediatype>
						<trackindex>2</trackindex>
					</sourcetrack>
					<link>
						<linkclipref>STE-007.wav3</linkclipref>
						<mediatype>audio</mediatype>
						<trackindex>1</trackindex>
						<clipindex>27</clipindex>
						<groupindex>1</groupindex>
					</link>
					<link>
						<linkclipref>STE-007.wav4</linkclipref>
						<mediatype>audio</mediatype>
						<trackindex>2</trackindex>
						<clipindex>27</clipindex>
						<groupindex>1</groupindex>
					</link>
					<itemhistory>
						<uuid>AB24B1C2-D5B6-4766-91E4-125F90327F9E</uuid>
					</itemhistory>
				</clipitem>
				<transitionitem>
					<rate>
						<ntsc>TRUE</ntsc>
						<timebase>30</timebase>
					</rate>
					<start>17933</start>
					<end>18388</end>
					<alignment>start-black</alignment>
					<effect>
						<name>Cross Fade (+3dB)</name>
						<effectid>KGAudioTransCrossFade3dB</effectid>
						<effecttype>transition</effecttype>
						<mediatype>audio</mediatype>
					</effect>
				</transitionitem>
				<clipitem id="STE-019.wav2">
					<name>STE-019.wav</name>
					<duration>4684</duration>
					<rate>
						<ntsc>TRUE</ntsc>
						<timebase>30</timebase>
					</rate>
					<in>1185</in>
					<out>4423</out>
					<start>-1</start>
					<end>21171</end>
					<subframeoffset>0</subframeoffset>
					<enabled>TRUE</enabled>
					<masterclipid>STE-019.wav1</masterclipid>
					<logginginfo>
						<scene/>
						<shottake/>
						<lognote/>
						<good>FALSE</good>
					</logginginfo>
					<labels>
						<label2/>
					</labels>
					<comments>
						<mastercomment1/>
						<mastercomment2/>
						<mastercomment3/>
						<mastercomment4/>
					</comments>
					<file id="STE-019 "/>
					<filter>
						<enabled>TRUE</enabled>
						<start>-1</start>
						<end>-1</end>
						<effect>
							<name>AULowShelfFilter</name>
							<effectid>{61756678, 6c736866, 6170706c}</effectid>
							<effecttype>filter</effecttype>
							<mediatype>audio</mediatype>
							<parameter>
								<parameterid>cutoff frequency</parameterid>
								<parameterspecifier>0:0:0</parameterspecifier>
								<name>cutoff frequency</name>
								<valuemin>10</valuemin>
								<valuemax>200</valuemax>
								<value>66</value>
							</parameter>
							<parameter>
								<parameterid>gain</parameterid>
								<parameterspecifier>1:0:0</parameterspecifier>
								<name>gain</name>
								<valuemin>-40</valuemin>
								<valuemax>40</valuemax>
								<value>15</value>
							</parameter>
						</effect>
					</filter>
					<filter>
						<effect>
							<name>Audio Levels</name>
							<effectid>audiolevels</effectid>
							<effectcategory>audiolevels</effectcategory>
							<effecttype>audiolevels</effecttype>
							<mediatype>audio</mediatype>
							<parameter>
								<name>Level</name>
								<parameterid>level</parameterid>
								<valuemin>0</valuemin>
								<valuemax>3.98109</valuemax>
								<value>2.51189</value>
							</parameter>
						</effect>
					</filter>
					<filter>
						<effect>
							<name>Audio Pan</name>
							<effectid>audiopan</effectid>
							<effectcategory>audiopan</effectcategory>
							<effecttype>audiopan</effecttype>
							<mediatype>audio</mediatype>
							<parameter>
								<name>Pan</name>
								<parameterid>pan</parameterid>
								<valuemin>-1</valuemin>
								<valuemax>1</valuemax>
								<value>1</value>
							</parameter>
						</effect>
					</filter>
					<sourcetrack>
						<mediatype>audio</mediatype>
						<trackindex>2</trackindex>
					</sourcetrack>
					<link>
						<linkclipref>STE-019.wav</linkclipref>
						<mediatype>audio</mediatype>
						<trackindex>1</trackindex>
						<clipindex>29</clipindex>
						<groupindex>1</groupindex>
					</link>
					<link>
						<linkclipref>STE-019.wav2</linkclipref>
						<mediatype>audio</mediatype>
						<trackindex>2</trackindex>
						<clipindex>29</clipindex>
						<groupindex>1</groupindex>
					</link>
					<itemhistory>
						<uuid>A147B6E9-EAC3-4E40-85F3-9F71FECFA678</uuid>
					</itemhistory>
					<mixedratesoffset>1</mixedratesoffset>
				</clipitem>
				<enabled>TRUE</enabled>
				<locked>FALSE</locked>
				<outputchannelindex>2</outputchannelindex>
			</track>
			<track>
				<transitionitem>
					<rate>
						<ntsc>TRUE</ntsc>
						<timebase>30</timebase>
					</rate>
					<start>2790</start>
					<end>2913</end>
					<alignment>start</alignment>
					<effect>
						<name>Cross Fade (+3dB)</name>
						<effectid>KGAudioTransCrossFade3dB</effectid>
						<effecttype>transition</effecttype>
						<mediatype>audio</mediatype>
					</effect>
				</transitionitem>
				<clipitem id="STE-023.wav">
					<name>STE-023.wav</name>
					<duration>12901</duration>
					<rate>
						<ntsc>TRUE</ntsc>
						<timebase>30</timebase>
					</rate>
					<in>4710</in>
					<out>5512</out>
					<start>-1</start>
					<end>3592</end>
					<subframeoffset>0</subframeoffset>
					<masterclipid>STE-023.wav1</masterclipid>
					<logginginfo>
						<scene/>
						<shottake/>
						<lognote/>
						<good>FALSE</good>
					</logginginfo>
					<labels>
						<label2/>
					</labels>
					<comments>
						<mastercomment1/>
						<mastercomment2/>
						<mastercomment3/>
						<mastercomment4/>
					</comments>
					<file id="STE-023 ">
						<name>STE-023.wav</name>
						<pathurl>file://localhost/Volumes/FILMS/FROM%20AWAY/FROM%20AWAY%20AUDIO/STE-023.wav</pathurl>
						<rate>
							<timebase>24</timebase>
						</rate>
						<duration>10321</duration>
						<timecode>
							<rate>
								<timebase>24</timebase>
							</rate>
							<string>00:00:00:00</string>
							<frame>0</frame>
							<displayformat>NDF</displayformat>
							<source>source</source>
						</timecode>
						<media>
							<audio>
								<samplecharacteristics>
									<samplerate>44100</samplerate>
									<depth>16</depth>
								</samplecharacteristics>
								<channelcount>2</channelcount>
							</audio>
						</media>
					</file>
					<filter>
						<effect>
							<name>Audio Levels</name>
							<effectid>audiolevels</effectid>
							<effectcategory>audiolevels</effectcategory>
							<effecttype>audiolevels</effecttype>
							<mediatype>audio</mediatype>
							<parameter>
								<name>Level</name>
								<parameterid>level</parameterid>
								<valuemin>0</valuemin>
								<valuemax>3.98109</valuemax>
								<value>1</value>
							</parameter>
						</effect>
					</filter>
					<filter>
						<effect>
							<name>Audio Pan</name>
							<effectid>audiopan</effectid>
							<effectcategory>audiopan</effectcategory>
							<effecttype>audiopan</effecttype>
							<mediatype>audio</mediatype>
							<parameter>
								<name>Pan</name>
								<parameterid>pan</parameterid>
								<valuemin>-1</valuemin>
								<valuemax>1</valuemax>
								<value>-0.977778</value>
							</parameter>
						</effect>
					</filter>
					<sourcetrack>
						<mediatype>audio</mediatype>
						<trackindex>1</trackindex>
					</sourcetrack>
					<link>
						<linkclipref>STE-023.wav</linkclipref>
						<mediatype>audio</mediatype>
						<trackindex>3</trackindex>
						<clipindex>2</clipindex>
						<groupindex>1</groupindex>
					</link>
					<link>
						<linkclipref>STE-023.wav2</linkclipref>
						<mediatype>audio</mediatype>
						<trackindex>4</trackindex>
						<clipindex>2</clipindex>
						<groupindex>1</groupindex>
					</link>
					<itemhistory>
						<uuid>6F979F30-74A4-4732-8CB2-69B895DB0D8D</uuid>
					</itemhistory>
					<mixedratesoffset>1</mixedratesoffset>
				</clipitem>
				<clipitem id="STE-023.wav3">
					<name>STE-023.wav</name>
					<duration>12901</duration>
					<rate>
						<ntsc>TRUE</ntsc>
						<timebase>30</timebase>
					</rate>
					<in>2477</in>
					<out>3239</out>
					<start>3968</start>
					<end>-1</end>
					<subframeoffset>0</subframeoffset>
					<masterclipid>STE-023.wav1</masterclipid>
					<logginginfo>
						<scene/>
						<shottake/>
						<lognote/>
						<good>FALSE</good>
					</logginginfo>
					<labels>
						<label2/>
					</labels>
					<comments>
						<mastercomment1/>
						<mastercomment2/>
						<mastercomment3/>
						<mastercomment4/>
					</comments>
					<file id="STE-023 "/>
					<filter>
						<effect>
							<name>Audio Levels</name>
							<effectid>audiolevels</effectid>
							<effectcategory>audiolevels</effectcategory>
							<effecttype>audiolevels</effecttype>
							<mediatype>audio</mediatype>
							<parameter>
								<name>Level</name>
								<parameterid>level</parameterid>
								<valuemin>0</valuemin>
								<valuemax>3.98109</valuemax>
								<value>2.51189</value>
							</parameter>
						</effect>
					</filter>
					<filter>
						<effect>
							<name>Audio Pan</name>
							<effectid>audiopan</effectid>
							<effectcategory>audiopan</effectcategory>
							<effecttype>audiopan</effecttype>
							<mediatype>audio</mediatype>
							<parameter>
								<name>Pan</name>
								<parameterid>pan</parameterid>
								<valuemin>-1</valuemin>
								<valuemax>1</valuemax>
								<value>-1</value>
							</parameter>
						</effect>
					</filter>
					<sourcetrack>
						<mediatype>audio</mediatype>
						<trackindex>1</trackindex>
					</sourcetrack>
					<link>
						<linkclipref>STE-023.wav3</linkclipref>
						<mediatype>audio</mediatype>
						<trackindex>3</trackindex>
						<clipindex>3</clipindex>
						<groupindex>1</groupindex>
					</link>
					<link>
						<linkclipref>STE-023.wav4</linkclipref>
						<mediatype>audio</mediatype>
						<trackindex>4</trackindex>
						<clipindex>3</clipindex>
						<groupindex>1</groupindex>
					</link>
					<itemhistory>
						<uuid>95CE22FB-FC14-4134-8B20-1B29B4CB59C8</uuid>
					</itemhistory>
				</clipitem>
				<transitionitem>
					<rate>
						<ntsc>TRUE</ntsc>
						<timebase>30</timebase>
					</rate>
					<start>4482</start>
					<end>4730</end>
					<alignment>end-black</alignment>
					<effect>
						<name>Cross Fade (+3dB)</name>
						<effectid>KGAudioTransCrossFade3dB</effectid>
						<effecttype>transition</effecttype>
						<mediatype>audio</mediatype>
					</effect>
				</transitionitem>
				<clipitem id="STE-018.wav3">
					<name>STE-018.wav</name>
					<duration>2896</duration>
					<rate>
						<ntsc>TRUE</ntsc>
						<timebase>30</timebase>
					</rate>
					<in>170</in>
					<out>536</out>
					<start>6369</start>
					<end>-1</end>
					<subframeoffset>0</subframeoffset>
					<masterclipid>STE-018.wav1</masterclipid>
					<logginginfo>
						<scene/>
						<shottake/>
						<lognote/>
						<good>FALSE</good>
					</logginginfo>
					<labels>
						<label2/>
					</labels>
					<comments>
						<mastercomment1/>
						<mastercomment2/>
						<mastercomment3/>
						<mastercomment4/>
					</comments>
					<file id="STE-018 "/>
					<filter>
						<effect>
							<name>Audio Levels</name>
							<effectid>audiolevels</effectid>
							<effectcategory>audiolevels</effectcategory>
							<effecttype>audiolevels</effecttype>
							<mediatype>audio</mediatype>
							<parameter>
								<name>Level</name>
								<parameterid>level</parameterid>
								<valuemin>0</valuemin>
								<valuemax>3.98109</valuemax>
								<value>0.354813</value>
							</parameter>
						</effect>
					</filter>
					<filter>
						<effect>
							<name>Audio Pan</name>
							<effectid>audiopan</effectid>
							<effectcategory>audiopan</effectcategory>
							<effecttype>audiopan</effecttype>
							<mediatype>audio</mediatype>
							<parameter>
								<name>Pan</name>
								<parameterid>pan</parameterid>
								<valuemin>-1</valuemin>
								<valuemax>1</valuemax>
								<value>-1</value>
							</parameter>
						</effect>
					</filter>
					<sourcetrack>
						<mediatype>audio</mediatype>
						<trackindex>1</trackindex>
					</sourcetrack>
					<link>
						<linkclipref>STE-018.wav3</linkclipref>
						<mediatype>audio</mediatype>
						<trackindex>3</trackindex>
						<clipindex>5</clipindex>
						<groupindex>1</groupindex>
					</link>
					<link>
						<linkclipref>STE-018.wav4</linkclipref>
						<mediatype>audio</mediatype>
						<trackindex>4</trackindex>
						<clipindex>5</clipindex>
						<groupindex>1</groupindex>
					</link>
					<itemhistory>
						<uuid>B5E6D6E7-67F8-44CC-BA26-F38BC1EF9473</uuid>
					</itemhistory>
				</clipitem>
				<transitionitem>
					<rate>
						<ntsc>TRUE</ntsc>
						<timebase>30</timebase>
					</rate>
					<start>6637</start>
					<end>6735</end>
					<alignment>end-black</alignment>
					<effect>
						<name>Cross Fade (+3dB)</name>
						<effectid>KGAudioTransCrossFade3dB</effectid>
						<effecttype>transition</effecttype>
						<mediatype>audio</mediatype>
					</effect>
				</transitionitem>
				<transitionitem>
					<rate>
						<ntsc>TRUE</ntsc>
						<timebase>30</timebase>
					</rate>
					<start>7109</start>
					<end>7420</end>
					<alignment>start-black</alignment>
					<effect>
						<name>Cross Fade (+3dB)</name>
						<effectid>KGAudioTransCrossFade3dB</effectid>
						<effecttype>transition</effecttype>
						<mediatype>audio</mediatype>
					</effect>
				</transitionitem>
				<clipitem id="STE-019.wav3">
					<name>STE-019.wav</name>
					<duration>8465</duration>
					<rate>
						<ntsc>TRUE</ntsc>
						<timebase>30</timebase>
					</rate>
					<in>4644</in>
					<out>5240</out>
					<start>-1</start>
					<end>-1</end>
					<subframeoffset>0</subframeoffset>
					<enabled>TRUE</enabled>
					<masterclipid>STE-019.wav4</masterclipid>
					<logginginfo>
						<scene/>
						<shottake/>
						<lognote/>
						<good>FALSE</good>
					</logginginfo>
					<labels>
						<label2/>
					</labels>
					<comments>
						<mastercomment1/>
						<mastercomment2/>
						<mastercomment3/>
						<mastercomment4/>
					</comments>
					<file id="STE-019 1">
						<name>STE-019.wav</name>
						<pathurl>file://localhost/Volumes/FILMS/FROM%20AWAY/FOLDER03/STE-019.wav</pathurl>
						<rate>
							<timebase>30</timebase>
							<ntsc>TRUE</ntsc>
						</rate>
						<duration>8465</duration>
						<timecode>
							<rate>
								<timebase>30</timebase>
								<ntsc>TRUE</ntsc>
							</rate>
							<string>00:00:00:00</string>
							<frame>0</frame>
							<displayformat>NDF</displayformat>
							<source>source</source>
						</timecode>
						<media>
							<audio>
								<samplecharacteristics>
									<samplerate>44100</samplerate>
									<depth>16</depth>
								</samplecharacteristics>
								<channelcount>2</channelcount>
							</audio>
						</media>
					</file>
					<filter>
						<effect>
							<name>Audio Levels</name>
							<effectid>audiolevels</effectid>
							<effectcategory>audiolevels</effectcategory>
							<effecttype>audiolevels</effecttype>
							<mediatype>audio</mediatype>
							<parameter>
								<name>Level</name>
								<parameterid>level</parameterid>
								<valuemin>0</valuemin>
								<valuemax>3.98109</valuemax>
								<value>1.77828</value>
							</parameter>
						</effect>
					</filter>
					<filter>
						<effect>
							<name>Audio Pan</name>
							<effectid>audiopan</effectid>
							<effectcategory>audiopan</effectcategory>
							<effecttype>audiopan</effecttype>
							<mediatype>audio</mediatype>
							<parameter>
								<name>Pan</name>
								<parameterid>pan</parameterid>
								<valuemin>-1</valuemin>
								<valuemax>1</valuemax>
								<value>-1</value>
							</parameter>
						</effect>
					</filter>
					<sourcetrack>
						<mediatype>audio</mediatype>
						<trackindex>1</trackindex>
					</sourcetrack>
					<link>
						<linkclipref>STE-019.wav3</linkclipref>
						<mediatype>audio</mediatype>
						<trackindex>3</trackindex>
						<clipindex>8</clipindex>
						<groupindex>1</groupindex>
					</link>
					<link>
						<linkclipref>STE-019.wav5</linkclipref>
						<mediatype>audio</mediatype>
						<trackindex>4</trackindex>
						<clipindex>8</clipindex>
						<groupindex>1</groupindex>
					</link>
					<itemhistory>
						<uuid>60C94831-173A-4352-9A16-2F04180BD59C</uuid>
					</itemhistory>
				</clipitem>
				<transitionitem>
					<rate>
						<ntsc>TRUE</ntsc>
						<timebase>30</timebase>
					</rate>
					<start>7675</start>
					<end>7705</end>
					<alignment>center</alignment>
					<effect>
						<name>Cross Fade (+3dB)</name>
						<effectid>KGAudioTransCrossFade3dB</effectid>
						<effecttype>transition</effecttype>
						<mediatype>audio</mediatype>
					</effect>
				</transitionitem>
				<clipitem id="STE-019.wav6">
					<name>STE-019.wav</name>
					<duration>8465</duration>
					<rate>
						<ntsc>TRUE</ntsc>
						<timebase>30</timebase>
					</rate>
					<in>5383</in>
					<out>6937</out>
					<start>-1</start>
					<end>9229</end>
					<subframeoffset>0</subframeoffset>
					<enabled>TRUE</enabled>
					<masterclipid>STE-019.wav4</masterclipid>
					<logginginfo>
						<scene/>
						<shottake/>
						<lognote/>
						<good>FALSE</good>
					</logginginfo>
					<labels>
						<label2/>
					</labels>
					<comments>
						<mastercomment1/>
						<mastercomment2/>
						<mastercomment3/>
						<mastercomment4/>
					</comments>
					<file id="STE-019 1"/>
					<filter>
						<effect>
							<name>Audio Levels</name>
							<effectid>audiolevels</effectid>
							<effectcategory>audiolevels</effectcategory>
							<effecttype>audiolevels</effecttype>
							<mediatype>audio</mediatype>
							<parameter>
								<name>Level</name>
								<parameterid>level</parameterid>
								<valuemin>0</valuemin>
								<valuemax>3.98109</valuemax>
								<value>2.51189</value>
							</parameter>
						</effect>
					</filter>
					<filter>
						<effect>
							<name>Audio Pan</name>
							<effectid>audiopan</effectid>
							<effectcategory>audiopan</effectcategory>
							<effecttype>audiopan</effecttype>
							<mediatype>audio</mediatype>
							<parameter>
								<name>Pan</name>
								<parameterid>pan</parameterid>
								<valuemin>-1</valuemin>
								<valuemax>1</valuemax>
								<value>-1</value>
							</parameter>
						</effect>
					</filter>
					<sourcetrack>
						<mediatype>audio</mediatype>
						<trackindex>1</trackindex>
					</sourcetrack>
					<link>
						<linkclipref>STE-019.wav6</linkclipref>
						<mediatype>audio</mediatype>
						<trackindex>3</trackindex>
						<clipindex>10</clipindex>
						<groupindex>1</groupindex>
					</link>
					<link>
						<linkclipref>STE-019.wav7</linkclipref>
						<mediatype>audio</mediatype>
						<trackindex>4</trackindex>
						<clipindex>10</clipindex>
						<groupindex>1</groupindex>
					</link>
					<itemhistory>
						<uuid>60B96519-E1BD-4CDF-B32B-328A745BF698</uuid>
					</itemhistory>
				</clipitem>
				<clipitem id="STE-007.wav - whistling">
					<name>STE-007.wav - whistling</name>
					<duration>1031</duration>
					<rate>
						<ntsc>TRUE</ntsc>
						<timebase>30</timebase>
					</rate>
					<in>46</in>
					<out>469</out>
					<start>10653</start>
					<end>11076</end>
					<subframeoffset>0</subframeoffset>
					<masterclipid>STE-007.wav - whistling1</masterclipid>
					<logginginfo>
						<scene/>
						<shottake/>
						<lognote/>
						<good>FALSE</good>
					</logginginfo>
					<labels>
						<label2/>
					</labels>
					<comments>
						<mastercomment1/>
						<mastercomment2/>
						<mastercomment3/>
						<mastercomment4/>
					</comments>
					<file id="STE-007 1">
						<name>STE-007.wav</name>
						<pathurl>file://localhost/Volumes/FILMS/FROM%20AWAY/FROM%20AWAY%20AUDIO/STE-007.wav</pathurl>
						<rate>
							<timebase>24</timebase>
						</rate>
						<duration>825</duration>
						<timecode>
							<rate>
								<timebase>24</timebase>
							</rate>
							<string>00:00:00:00</string>
							<frame>0</frame>
							<displayformat>NDF</displayformat>
							<source>source</source>
						</timecode>
						<media>
							<audio>
								<samplecharacteristics>
									<samplerate>44100</samplerate>
									<depth>16</depth>
								</samplecharacteristics>
								<channelcount>2</channelcount>
							</audio>
						</media>
					</file>
					<marker>
						<name>Marker 2</name>
						<comment/>
						<color>
							<alpha>0</alpha>
							<red>255</red>
							<green>0</green>
							<blue>0</blue>
						</color>
						<in>58</in>
						<out>-1</out>
					</marker>
					<marker>
						<name>Marker 1</name>
						<comment/>
						<color>
							<alpha>0</alpha>
							<red>255</red>
							<green>0</green>
							<blue>0</blue>
						</color>
						<in>523</in>
						<out>-1</out>
					</marker>
					<filter>
						<effect>
							<name>Audio Levels</name>
							<effectid>audiolevels</effectid>
							<effectcategory>audiolevels</effectcategory>
							<effecttype>audiolevels</effecttype>
							<mediatype>audio</mediatype>
							<parameter>
								<name>Level</name>
								<parameterid>level</parameterid>
								<valuemin>0</valuemin>
								<valuemax>3.98109</valuemax>
								<value>1</value>
							</parameter>
						</effect>
					</filter>
					<filter>
						<effect>
							<name>Audio Pan</name>
							<effectid>audiopan</effectid>
							<effectcategory>audiopan</effectcategory>
							<effecttype>audiopan</effecttype>
							<mediatype>audio</mediatype>
							<parameter>
								<name>Pan</name>
								<parameterid>pan</parameterid>
								<valuemin>-1</valuemin>
								<valuemax>1</valuemax>
								<value>-1</value>
							</parameter>
						</effect>
					</filter>
					<sourcetrack>
						<mediatype>audio</mediatype>
						<trackindex>1</trackindex>
					</sourcetrack>
					<link>
						<linkclipref>STE-007.wav - whistling</linkclipref>
						<mediatype>audio</mediatype>
						<trackindex>3</trackindex>
						<clipindex>11</clipindex>
						<groupindex>1</groupindex>
					</link>
					<link>
						<linkclipref>STE-007.wav - whistling2</linkclipref>
						<mediatype>audio</mediatype>
						<trackindex>4</trackindex>
						<clipindex>14</clipindex>
						<groupindex>1</groupindex>
					</link>
					<itemhistory>
						<uuid>1436A9D3-A1D5-4BF2-8FA4-3EE83544DF11</uuid>
					</itemhistory>
				</clipitem>
				<transitionitem>
					<rate>
						<ntsc>TRUE</ntsc>
						<timebase>30</timebase>
					</rate>
					<start>11225</start>
					<end>11239</end>
					<alignment>start-black</alignment>
					<effect>
						<name>Cross Fade (+3dB)</name>
						<effectid>KGAudioTransCrossFade3dB</effectid>
						<effecttype>transition</effecttype>
						<mediatype>audio</mediatype>
					</effect>
				</transitionitem>
				<clipitem id="STE-010.wav3">
					<name>STE-010.wav</name>
					<duration>11549</duration>
					<rate>
						<ntsc>TRUE</ntsc>
						<timebase>30</timebase>
					</rate>
					<in>991</in>
					<out>1384</out>
					<start>-1</start>
					<end>11618</end>
					<subframeoffset>0</subframeoffset>
					<enabled>TRUE</enabled>
					<masterclipid>STE-010.wav1</masterclipid>
					<logginginfo>
						<scene/>
						<shottake/>
						<lognote/>
						<good>FALSE</good>
					</logginginfo>
					<labels>
						<label2/>
					</labels>
					<comments>
						<mastercomment1/>
						<mastercomment2/>
						<mastercomment3/>
						<mastercomment4/>
					</comments>
					<file id="STE-010 "/>
					<marker>
						<name>Marker 1</name>
						<comment/>
						<color>
							<alpha>0</alpha>
							<red>255</red>
							<green>0</green>
							<blue>0</blue>
						</color>
						<in>1034</in>
						<out>-1</out>
					</marker>
					<filter>
						<effect>
							<name>Audio Levels</name>
							<effectid>audiolevels</effectid>
							<effectcategory>audiolevels</effectcategory>
							<effecttype>audiolevels</effecttype>
							<mediatype>audio</mediatype>
							<parameter>
								<name>Level</name>
								<parameterid>level</parameterid>
								<valuemin>0</valuemin>
								<valuemax>3.98109</valuemax>
								<value>0.891251</value>
							</parameter>
						</effect>
					</filter>
					<filter>
						<effect>
							<name>Audio Pan</name>
							<effectid>audiopan</effectid>
							<effectcategory>audiopan</effectcategory>
							<effecttype>audiopan</effecttype>
							<mediatype>audio</mediatype>
							<parameter>
								<name>Pan</name>
								<parameterid>pan</parameterid>
								<valuemin>-1</valuemin>
								<valuemax>1</valuemax>
								<value>-1</value>
							</parameter>
						</effect>
					</filter>
					<sourcetrack>
						<mediatype>audio</mediatype>
						<trackindex>1</trackindex>
					</sourcetrack>
					<link>
						<linkclipref>STE-010.wav3</linkclipref>
						<mediatype>audio</mediatype>
						<trackindex>3</trackindex>
						<clipindex>13</clipindex>
						<groupindex>1</groupindex>
					</link>
					<link>
						<linkclipref>STE-010.wav4</linkclipref>
						<mediatype>audio</mediatype>
						<trackindex>4</trackindex>
						<clipindex>16</clipindex>
						<groupindex>1</groupindex>
					</link>
					<itemhistory>
						<uuid>4863D0C7-8EF9-40EE-926C-C9DAF1938043</uuid>
					</itemhistory>
				</clipitem>
				<clipitem id="STE-017.wav">
					<name>STE-017.wav</name>
					<duration>2442</duration>
					<rate>
						<ntsc>TRUE</ntsc>
						<timebase>30</timebase>
					</rate>
					<in>373</in>
					<out>509</out>
					<start>12485</start>
					<end>12621</end>
					<subframeoffset>0</subframeoffset>
					<masterclipid>STE-017.wav1</masterclipid>
					<logginginfo>
						<scene/>
						<shottake/>
						<lognote/>
						<good>FALSE</good>
					</logginginfo>
					<labels>
						<label2/>
					</labels>
					<comments>
						<mastercomment1/>
						<mastercomment2/>
						<mastercomment3/>
						<mastercomment4/>
					</comments>
					<file id="STE-017 ">
						<name>STE-017.wav</name>
						<pathurl>file://localhost/Volumes/FILMS/FROM%20AWAY/FOLDER03/STE-017.wav</pathurl>
						<rate>
							<timebase>30</timebase>
							<ntsc>TRUE</ntsc>
						</rate>
						<duration>2442</duration>
						<timecode>
							<rate>
								<timebase>30</timebase>
								<ntsc>TRUE</ntsc>
							</rate>
							<string>00:00:00:00</string>
							<frame>0</frame>
							<displayformat>NDF</displayformat>
							<source>source</source>
						</timecode>
						<media>
							<audio>
								<samplecharacteristics>
									<samplerate>44100</samplerate>
									<depth>16</depth>
								</samplecharacteristics>
								<channelcount>2</channelcount>
							</audio>
						</media>
					</file>
					<filter>
						<effect>
							<name>Audio Levels</name>
							<effectid>audiolevels</effectid>
							<effectcategory>audiolevels</effectcategory>
							<effecttype>audiolevels</effecttype>
							<mediatype>audio</mediatype>
							<parameter>
								<name>Level</name>
								<parameterid>level</parameterid>
								<valuemin>0</valuemin>
								<valuemax>3.98109</valuemax>
								<value>0.0446684</value>
							</parameter>
						</effect>
					</filter>
					<filter>
						<effect>
							<name>Audio Pan</name>
							<effectid>audiopan</effectid>
							<effectcategory>audiopan</effectcategory>
							<effecttype>audiopan</effecttype>
							<mediatype>audio</mediatype>
							<parameter>
								<name>Pan</name>
								<parameterid>pan</parameterid>
								<valuemin>-1</valuemin>
								<valuemax>1</valuemax>
								<value>-1</value>
							</parameter>
						</effect>
					</filter>
					<sourcetrack>
						<mediatype>audio</mediatype>
						<trackindex>1</trackindex>
					</sourcetrack>
					<link>
						<linkclipref>STE-017.wav</linkclipref>
						<mediatype>audio</mediatype>
						<trackindex>3</trackindex>
						<clipindex>14</clipindex>
						<groupindex>1</groupindex>
					</link>
					<link>
						<linkclipref>STE-017.wav2</linkclipref>
						<mediatype>audio</mediatype>
						<trackindex>4</trackindex>
						<clipindex>17</clipindex>
						<groupindex>1</groupindex>
					</link>
					<itemhistory>
						<uuid>A4EC108E-EEE9-4C51-8725-585E0F3D6926</uuid>
					</itemhistory>
				</clipitem>
				<clipitem id="STE-017.wav3">
					<name>STE-017.wav</name>
					<duration>2442</duration>
					<rate>
						<ntsc>TRUE</ntsc>
						<timebase>30</timebase>
					</rate>
					<in>1646</in>
					<out>1811</out>
					<start>12817</start>
					<end>12982</end>
					<subframeoffset>0</subframeoffset>
					<masterclipid>STE-017.wav1</masterclipid>
					<logginginfo>
						<scene/>
						<shottake/>
						<lognote/>
						<good>FALSE</good>
					</logginginfo>
					<labels>
						<label2/>
					</labels>
					<comments>
						<mastercomment1/>
						<mastercomment2/>
						<mastercomment3/>
						<mastercomment4/>
					</comments>
					<file id="STE-017 "/>
					<filter>
						<effect>
							<name>Audio Levels</name>
							<effectid>audiolevels</effectid>
							<effectcategory>audiolevels</effectcategory>
							<effecttype>audiolevels</effecttype>
							<mediatype>audio</mediatype>
							<parameter>
								<name>Level</name>
								<parameterid>level</parameterid>
								<valuemin>0</valuemin>
								<valuemax>3.98109</valuemax>
								<value>0.891251</value>
							</parameter>
						</effect>
					</filter>
					<filter>
						<effect>
							<name>Audio Pan</name>
							<effectid>audiopan</effectid>
							<effectcategory>audiopan</effectcategory>
							<effecttype>audiopan</effecttype>
							<mediatype>audio</mediatype>
							<parameter>
								<name>Pan</name>
								<parameterid>pan</parameterid>
								<valuemin>-1</valuemin>
								<valuemax>1</valuemax>
								<value>-1</value>
							</parameter>
						</effect>
					</filter>
					<sourcetrack>
						<mediatype>audio</mediatype>
						<trackindex>1</trackindex>
					</sourcetrack>
					<link>
						<linkclipref>STE-017.wav3</linkclipref>
						<mediatype>audio</mediatype>
						<trackindex>3</trackindex>
						<clipindex>15</clipindex>
						<groupindex>1</groupindex>
					</link>
					<link>
						<linkclipref>STE-017.wav4</linkclipref>
						<mediatype>audio</mediatype>
						<trackindex>4</trackindex>
						<clipindex>18</clipindex>
						<groupindex>1</groupindex>
					</link>
					<itemhistory>
						<uuid>ACBDAD50-A861-43A9-B445-4A61E5201B06</uuid>
					</itemhistory>
				</clipitem>
				<clipitem id="STE-030.wav">
					<name>STE-030.wav</name>
					<duration>6454</duration>
					<rate>
						<ntsc>TRUE</ntsc>
						<timebase>30</timebase>
					</rate>
					<in>2981</in>
					<out>3757</out>
					<start>13066</start>
					<end>13842</end>
					<subframeoffset>0</subframeoffset>
					<enabled>TRUE</enabled>
					<masterclipid>STE-030.wav1</masterclipid>
					<logginginfo>
						<scene/>
						<shottake/>
						<lognote/>
						<good>FALSE</good>
					</logginginfo>
					<labels>
						<label2/>
					</labels>
					<comments>
						<mastercomment1/>
						<mastercomment2/>
						<mastercomment3/>
						<mastercomment4/>
					</comments>
					<file id="STE-030 ">
						<name>STE-030.wav</name>
						<pathurl>file://localhost/Volumes/FILMS/FROM%20AWAY/FROM%20AWAY%20AUDIO/STE-030.wav</pathurl>
						<rate>
							<timebase>24</timebase>
						</rate>
						<duration>5163</duration>
						<timecode>
							<rate>
								<timebase>24</timebase>
							</rate>
							<string>00:00:00:00</string>
							<frame>0</frame>
							<displayformat>NDF</displayformat>
							<source>source</source>
						</timecode>
						<media>
							<audio>
								<samplecharacteristics>
									<samplerate>44100</samplerate>
									<depth>16</depth>
								</samplecharacteristics>
								<channelcount>2</channelcount>
							</audio>
						</media>
					</file>
					<filter>
						<effect>
							<name>Audio Levels</name>
							<effectid>audiolevels</effectid>
							<effectcategory>audiolevels</effectcategory>
							<effecttype>audiolevels</effecttype>
							<mediatype>audio</mediatype>
							<parameter>
								<name>Level</name>
								<parameterid>level</parameterid>
								<valuemin>0</valuemin>
								<valuemax>3.98109</valuemax>
								<value>1.58489</value>
							</parameter>
						</effect>
					</filter>
					<filter>
						<effect>
							<name>Audio Pan</name>
							<effectid>audiopan</effectid>
							<effectcategory>audiopan</effectcategory>
							<effecttype>audiopan</effecttype>
							<mediatype>audio</mediatype>
							<parameter>
								<name>Pan</name>
								<parameterid>pan</parameterid>
								<valuemin>-1</valuemin>
								<valuemax>1</valuemax>
								<value>-1</value>
							</parameter>
						</effect>
					</filter>
					<sourcetrack>
						<mediatype>audio</mediatype>
						<trackindex>1</trackindex>
					</sourcetrack>
					<link>
						<linkclipref>STE-030.wav</linkclipref>
						<mediatype>audio</mediatype>
						<trackindex>3</trackindex>
						<clipindex>16</clipindex>
						<groupindex>1</groupindex>
					</link>
					<link>
						<linkclipref>STE-030.wav2</linkclipref>
						<mediatype>audio</mediatype>
						<trackindex>4</trackindex>
						<clipindex>19</clipindex>
						<groupindex>1</groupindex>
					</link>
					<itemhistory>
						<uuid>FDD778A9-8BEC-4008-AAC6-9E174F87243A</uuid>
					</itemhistory>
				</clipitem>
				<clipitem id="STE-030.wav3">
					<name>STE-030.wav</name>
					<duration>6454</duration>
					<rate>
						<ntsc>TRUE</ntsc>
						<timebase>30</timebase>
					</rate>
					<in>3955</in>
					<out>4138</out>
					<start>13842</start>
					<end>14025</end>
					<subframeoffset>0</subframeoffset>
					<enabled>TRUE</enabled>
					<masterclipid>STE-030.wav1</masterclipid>
					<logginginfo>
						<scene/>
						<shottake/>
						<lognote/>
						<good>FALSE</good>
					</logginginfo>
					<labels>
						<label2/>
					</labels>
					<comments>
						<mastercomment1/>
						<mastercomment2/>
						<mastercomment3/>
						<mastercomment4/>
					</comments>
					<file id="STE-030 "/>
					<filter>
						<effect>
							<name>Audio Levels</name>
							<effectid>audiolevels</effectid>
							<effectcategory>audiolevels</effectcategory>
							<effecttype>audiolevels</effecttype>
							<mediatype>audio</mediatype>
							<parameter>
								<name>Level</name>
								<parameterid>level</parameterid>
								<valuemin>0</valuemin>
								<valuemax>3.98109</valuemax>
								<value>2.23872</value>
							</parameter>
						</effect>
					</filter>
					<filter>
						<effect>
							<name>Audio Pan</name>
							<effectid>audiopan</effectid>
							<effectcategory>audiopan</effectcategory>
							<effecttype>audiopan</effecttype>
							<mediatype>audio</mediatype>
							<parameter>
								<name>Pan</name>
								<parameterid>pan</parameterid>
								<valuemin>-1</valuemin>
								<valuemax>1</valuemax>
								<value>-1</value>
							</parameter>
						</effect>
					</filter>
					<sourcetrack>
						<mediatype>audio</mediatype>
						<trackindex>1</trackindex>
					</sourcetrack>
					<link>
						<linkclipref>STE-030.wav3</linkclipref>
						<mediatype>audio</mediatype>
						<trackindex>3</trackindex>
						<clipindex>17</clipindex>
						<groupindex>1</groupindex>
					</link>
					<link>
						<linkclipref>STE-030.wav4</linkclipref>
						<mediatype>audio</mediatype>
						<trackindex>4</trackindex>
						<clipindex>20</clipindex>
						<groupindex>1</groupindex>
					</link>
					<itemhistory>
						<uuid>E8EF65DD-64D5-4BC0-BF28-A98E297AC69E</uuid>
					</itemhistory>
				</clipitem>
				<clipitem id="STE-004.wav">
					<name>STE-004.wav</name>
					<duration>3649</duration>
					<rate>
						<ntsc>TRUE</ntsc>
						<timebase>30</timebase>
					</rate>
					<in>661</in>
					<out>2274</out>
					<start>16315</start>
					<end>-1</end>
					<subframeoffset>0</subframeoffset>
					<enabled>TRUE</enabled>
					<masterclipid>STE-004.wav1</masterclipid>
					<logginginfo>
						<scene/>
						<shottake/>
						<lognote/>
						<good>FALSE</good>
					</logginginfo>
					<labels>
						<label2/>
					</labels>
					<comments>
						<mastercomment1/>
						<mastercomment2/>
						<mastercomment3/>
						<mastercomment4/>
					</comments>
					<file id="STE-004 ">
						<name>STE-004.wav</name>
						<pathurl>file://localhost/Volumes/FILMS/FROM%20AWAY/FOLDER03/STE-004.wav</pathurl>
						<rate>
							<timebase>30</timebase>
							<ntsc>TRUE</ntsc>
						</rate>
						<duration>3649</duration>
						<timecode>
							<rate>
								<timebase>30</timebase>
								<ntsc>TRUE</ntsc>
							</rate>
							<string>00:00:00:00</string>
							<frame>0</frame>
							<displayformat>NDF</displayformat>
							<source>source</source>
						</timecode>
						<media>
							<audio>
								<samplecharacteristics>
									<samplerate>44100</samplerate>
									<depth>16</depth>
								</samplecharacteristics>
								<channelcount>2</channelcount>
							</audio>
						</media>
					</file>
					<marker>
						<name>Marker 1</name>
						<comment/>
						<color>
							<alpha>0</alpha>
							<red>255</red>
							<green>0</green>
							<blue>0</blue>
						</color>
						<in>1028</in>
						<out>-1</out>
					</marker>
					<filter>
						<effect>
							<name>Audio Levels</name>
							<effectid>audiolevels</effectid>
							<effectcategory>audiolevels</effectcategory>
							<effecttype>audiolevels</effecttype>
							<mediatype>audio</mediatype>
							<parameter>
								<name>Level</name>
								<parameterid>level</parameterid>
								<valuemin>0</valuemin>
								<valuemax>3.98109</valuemax>
								<value>0.446684</value>
							</parameter>
						</effect>
					</filter>
					<filter>
						<effect>
							<name>Audio Pan</name>
							<effectid>audiopan</effectid>
							<effectcategory>audiopan</effectcategory>
							<effecttype>audiopan</effecttype>
							<mediatype>audio</mediatype>
							<parameter>
								<name>Pan</name>
								<parameterid>pan</parameterid>
								<valuemin>-1</valuemin>
								<valuemax>1</valuemax>
								<value>-1</value>
							</parameter>
						</effect>
					</filter>
					<sourcetrack>
						<mediatype>audio</mediatype>
						<trackindex>1</trackindex>
					</sourcetrack>
					<link>
						<linkclipref>STE-004.wav</linkclipref>
						<mediatype>audio</mediatype>
						<trackindex>3</trackindex>
						<clipindex>18</clipindex>
						<groupindex>1</groupindex>
					</link>
					<link>
						<linkclipref>STE-004.wav2</linkclipref>
						<mediatype>audio</mediatype>
						<trackindex>4</trackindex>
						<clipindex>21</clipindex>
						<groupindex>1</groupindex>
					</link>
					<itemhistory>
						<uuid>EF47AE5B-267D-420B-A518-8501EF86880F</uuid>
					</itemhistory>
				</clipitem>
				<transitionitem>
					<rate>
						<ntsc>TRUE</ntsc>
						<timebase>30</timebase>
					</rate>
					<start>17743</start>
					<end>17928</end>
					<alignment>end-black</alignment>
					<effect>
						<name>Cross Fade (+3dB)</name>
						<effectid>KGAudioTransCrossFade3dB</effectid>
						<effecttype>transition</effecttype>
						<mediatype>audio</mediatype>
					</effect>
				</transitionitem>
				<transitionitem>
					<rate>
						<ntsc>TRUE</ntsc>
						<timebase>30</timebase>
					</rate>
					<start>18003</start>
					<end>18033</end>
					<alignment>start-black</alignment>
					<effect>
						<name>Cross Fade (+3dB)</name>
						<effectid>KGAudioTransCrossFade3dB</effectid>
						<effecttype>transition</effecttype>
						<mediatype>audio</mediatype>
					</effect>
				</transitionitem>
				<clipitem id="STE-013.wav3">
					<name>STE-013.wav</name>
					<duration>13888</duration>
					<rate>
						<ntsc>TRUE</ntsc>
						<timebase>30</timebase>
					</rate>
					<in>11415</in>
					<out>12340</out>
					<start>-1</start>
					<end>18928</end>
					<subframeoffset>0</subframeoffset>
					<masterclipid>STE-013.wav1</masterclipid>
					<logginginfo>
						<scene/>
						<shottake/>
						<lognote/>
						<good>FALSE</good>
					</logginginfo>
					<labels>
						<label2/>
					</labels>
					<comments>
						<mastercomment1/>
						<mastercomment2/>
						<mastercomment3/>
						<mastercomment4/>
					</comments>
					<file id="STE-013 "/>
					<filter>
						<effect>
							<name>Audio Levels</name>
							<effectid>audiolevels</effectid>
							<effectcategory>audiolevels</effectcategory>
							<effecttype>audiolevels</effecttype>
							<mediatype>audio</mediatype>
							<parameter>
								<name>Level</name>
								<parameterid>level</parameterid>
								<valuemin>0</valuemin>
								<valuemax>3.98109</valuemax>
								<value>0.398107</value>
							</parameter>
						</effect>
					</filter>
					<filter>
						<effect>
							<name>Audio Pan</name>
							<effectid>audiopan</effectid>
							<effectcategory>audiopan</effectcategory>
							<effecttype>audiopan</effecttype>
							<mediatype>audio</mediatype>
							<parameter>
								<name>Pan</name>
								<parameterid>pan</parameterid>
								<valuemin>-1</valuemin>
								<valuemax>1</valuemax>
								<value>-1</value>
							</parameter>
						</effect>
					</filter>
					<sourcetrack>
						<mediatype>audio</mediatype>
						<trackindex>1</trackindex>
					</sourcetrack>
					<link>
						<linkclipref>STE-013.wav3</linkclipref>
						<mediatype>audio</mediatype>
						<trackindex>3</trackindex>
						<clipindex>21</clipindex>
						<groupindex>1</groupindex>
					</link>
					<link>
						<linkclipref>STE-013.wav4</linkclipref>
						<mediatype>audio</mediatype>
						<trackindex>4</trackindex>
						<clipindex>24</clipindex>
						<groupindex>1</groupindex>
					</link>
					<itemhistory>
						<uuid>BDA5E34A-2B4D-4410-B4F3-426543FEF2A6</uuid>
					</itemhistory>
				</clipitem>
				<clipitem id="STE-030.wav5">
					<name>STE-030.wav</name>
					<duration>6453</duration>
					<rate>
						<ntsc>TRUE</ntsc>
						<timebase>30</timebase>
					</rate>
					<in>2097</in>
					<out>2541</out>
					<start>18928</start>
					<end>19372</end>
					<subframeoffset>0</subframeoffset>
					<masterclipid>STE-030.wav1</masterclipid>
					<logginginfo>
						<scene/>
						<shottake/>
						<lognote/>
						<good>FALSE</good>
					</logginginfo>
					<labels>
						<label2/>
					</labels>
					<comments>
						<mastercomment1/>
						<mastercomment2/>
						<mastercomment3/>
						<mastercomment4/>
					</comments>
					<file id="STE-030 "/>
					<filter>
						<effect>
							<name>Audio Levels</name>
							<effectid>audiolevels</effectid>
							<effectcategory>audiolevels</effectcategory>
							<effecttype>audiolevels</effecttype>
							<mediatype>audio</mediatype>
							<parameter>
								<name>Level</name>
								<parameterid>level</parameterid>
								<valuemin>0</valuemin>
								<valuemax>3.98109</valuemax>
								<value>1.77828</value>
							</parameter>
						</effect>
					</filter>
					<filter>
						<effect>
							<name>Audio Pan</name>
							<effectid>audiopan</effectid>
							<effectcategory>audiopan</effectcategory>
							<effecttype>audiopan</effecttype>
							<mediatype>audio</mediatype>
							<parameter>
								<name>Pan</name>
								<parameterid>pan</parameterid>
								<valuemin>-1</valuemin>
								<valuemax>1</valuemax>
								<value>-1</value>
							</parameter>
						</effect>
					</filter>
					<sourcetrack>
						<mediatype>audio</mediatype>
						<trackindex>1</trackindex>
					</sourcetrack>
					<link>
						<linkclipref>STE-030.wav5</linkclipref>
						<mediatype>audio</mediatype>
						<trackindex>3</trackindex>
						<clipindex>22</clipindex>
						<groupindex>1</groupindex>
					</link>
					<link>
						<linkclipref>STE-030.wav6</linkclipref>
						<mediatype>audio</mediatype>
						<trackindex>4</trackindex>
						<clipindex>25</clipindex>
						<groupindex>1</groupindex>
					</link>
					<itemhistory>
						<uuid>27CE12CC-532F-45DC-8121-179C6D311EA4</uuid>
					</itemhistory>
				</clipitem>
				<clipitem id="STE-015.wav">
					<name>STE-015.wav</name>
					<duration>13608</duration>
					<rate>
						<ntsc>TRUE</ntsc>
						<timebase>30</timebase>
					</rate>
					<in>9733</in>
					<out>10083</out>
					<start>20583</start>
					<end>20933</end>
					<subframeoffset>0</subframeoffset>
					<masterclipid>STE-015.wav1</masterclipid>
					<logginginfo>
						<scene/>
						<shottake/>
						<lognote/>
						<good>FALSE</good>
					</logginginfo>
					<labels>
						<label2/>
					</labels>
					<comments>
						<mastercomment1/>
						<mastercomment2/>
						<mastercomment3/>
						<mastercomment4/>
					</comments>
					<file id="STE-015 ">
						<name>STE-015.wav</name>
						<pathurl>file://localhost/Volumes/FILMS/FROM%20AWAY/FROM%20AWAY%20AUDIO/STE-015.wav</pathurl>
						<rate>
							<timebase>24</timebase>
						</rate>
						<duration>10887</duration>
						<timecode>
							<rate>
								<timebase>30</timebase>
							</rate>
							<string>00:00:00:00</string>
							<frame>0</frame>
							<displayformat>NDF</displayformat>
							<source>source</source>
						</timecode>
						<media>
							<audio>
								<samplecharacteristics>
									<samplerate>44100</samplerate>
									<depth>16</depth>
								</samplecharacteristics>
								<channelcount>2</channelcount>
							</audio>
						</media>
					</file>
					<filter>
						<effect>
							<name>Audio Levels</name>
							<effectid>audiolevels</effectid>
							<effectcategory>audiolevels</effectcategory>
							<effecttype>audiolevels</effecttype>
							<mediatype>audio</mediatype>
							<parameter>
								<name>Level</name>
								<parameterid>level</parameterid>
								<valuemin>0</valuemin>
								<valuemax>3.98109</valuemax>
								<value>0.630957</value>
							</parameter>
						</effect>
					</filter>
					<filter>
						<effect>
							<name>Audio Pan</name>
							<effectid>audiopan</effectid>
							<effectcategory>audiopan</effectcategory>
							<effecttype>audiopan</effecttype>
							<mediatype>audio</mediatype>
							<parameter>
								<name>Pan</name>
								<parameterid>pan</parameterid>
								<valuemin>-1</valuemin>
								<valuemax>1</valuemax>
								<value>-0.981567</value>
							</parameter>
						</effect>
					</filter>
					<sourcetrack>
						<mediatype>audio</mediatype>
						<trackindex>1</trackindex>
					</sourcetrack>
					<link>
						<linkclipref>STE-015.wav</linkclipref>
						<mediatype>audio</mediatype>
						<trackindex>3</trackindex>
						<clipindex>23</clipindex>
						<groupindex>1</groupindex>
					</link>
					<link>
						<linkclipref>STE-015.wav2</linkclipref>
						<mediatype>audio</mediatype>
						<trackindex>4</trackindex>
						<clipindex>26</clipindex>
						<groupindex>1</groupindex>
					</link>
					<itemhistory>
						<uuid>5DC23612-4F3A-4D0E-B60A-284006132400</uuid>
					</itemhistory>
					<mixedratesoffset>1</mixedratesoffset>
				</clipitem>
				<enabled>TRUE</enabled>
				<locked>FALSE</locked>
				<outputchannelindex>1</outputchannelindex>
			</track>
			<track>
				<transitionitem>
					<rate>
						<ntsc>TRUE</ntsc>
						<timebase>30</timebase>
					</rate>
					<start>2790</start>
					<end>2913</end>
					<alignment>start</alignment>
					<effect>
						<name>Cross Fade (+3dB)</name>
						<effectid>KGAudioTransCrossFade3dB</effectid>
						<effecttype>transition</effecttype>
						<mediatype>audio</mediatype>
					</effect>
				</transitionitem>
				<clipitem id="STE-023.wav2">
					<name>STE-023.wav</name>
					<duration>12901</duration>
					<rate>
						<ntsc>TRUE</ntsc>
						<timebase>30</timebase>
					</rate>
					<in>4710</in>
					<out>5512</out>
					<start>-1</start>
					<end>3592</end>
					<subframeoffset>0</subframeoffset>
					<masterclipid>STE-023.wav1</masterclipid>
					<logginginfo>
						<scene/>
						<shottake/>
						<lognote/>
						<good>FALSE</good>
					</logginginfo>
					<labels>
						<label2/>
					</labels>
					<comments>
						<mastercomment1/>
						<mastercomment2/>
						<mastercomment3/>
						<mastercomment4/>
					</comments>
					<file id="STE-023 "/>
					<filter>
						<effect>
							<name>Audio Levels</name>
							<effectid>audiolevels</effectid>
							<effectcategory>audiolevels</effectcategory>
							<effecttype>audiolevels</effecttype>
							<mediatype>audio</mediatype>
							<parameter>
								<name>Level</name>
								<parameterid>level</parameterid>
								<valuemin>0</valuemin>
								<valuemax>3.98109</valuemax>
								<value>1</value>
							</parameter>
						</effect>
					</filter>
					<filter>
						<effect>
							<name>Audio Pan</name>
							<effectid>audiopan</effectid>
							<effectcategory>audiopan</effectcategory>
							<effecttype>audiopan</effecttype>
							<mediatype>audio</mediatype>
							<parameter>
								<name>Pan</name>
								<parameterid>pan</parameterid>
								<valuemin>-1</valuemin>
								<valuemax>1</valuemax>
								<value>0.977778</value>
							</parameter>
						</effect>
					</filter>
					<sourcetrack>
						<mediatype>audio</mediatype>
						<trackindex>2</trackindex>
					</sourcetrack>
					<link>
						<linkclipref>STE-023.wav</linkclipref>
						<mediatype>audio</mediatype>
						<trackindex>3</trackindex>
						<clipindex>2</clipindex>
						<groupindex>1</groupindex>
					</link>
					<link>
						<linkclipref>STE-023.wav2</linkclipref>
						<mediatype>audio</mediatype>
						<trackindex>4</trackindex>
						<clipindex>2</clipindex>
						<groupindex>1</groupindex>
					</link>
					<itemhistory>
						<uuid>9F8B2E70-ADAC-4B8C-94FA-DA223931519C</uuid>
					</itemhistory>
					<mixedratesoffset>1</mixedratesoffset>
				</clipitem>
				<clipitem id="STE-023.wav4">
					<name>STE-023.wav</name>
					<duration>12901</duration>
					<rate>
						<ntsc>TRUE</ntsc>
						<timebase>30</timebase>
					</rate>
					<in>2477</in>
					<out>3239</out>
					<start>3968</start>
					<end>-1</end>
					<subframeoffset>0</subframeoffset>
					<masterclipid>STE-023.wav1</masterclipid>
					<logginginfo>
						<scene/>
						<shottake/>
						<lognote/>
						<good>FALSE</good>
					</logginginfo>
					<labels>
						<label2/>
					</labels>
					<comments>
						<mastercomment1/>
						<mastercomment2/>
						<mastercomment3/>
						<mastercomment4/>
					</comments>
					<file id="STE-023 "/>
					<filter>
						<effect>
							<name>Audio Levels</name>
							<effectid>audiolevels</effectid>
							<effectcategory>audiolevels</effectcategory>
							<effecttype>audiolevels</effecttype>
							<mediatype>audio</mediatype>
							<parameter>
								<name>Level</name>
								<parameterid>level</parameterid>
								<valuemin>0</valuemin>
								<valuemax>3.98109</valuemax>
								<value>2.51189</value>
							</parameter>
						</effect>
					</filter>
					<filter>
						<effect>
							<name>Audio Pan</name>
							<effectid>audiopan</effectid>
							<effectcategory>audiopan</effectcategory>
							<effecttype>audiopan</effecttype>
							<mediatype>audio</mediatype>
							<parameter>
								<name>Pan</name>
								<parameterid>pan</parameterid>
								<valuemin>-1</valuemin>
								<valuemax>1</valuemax>
								<value>1</value>
							</parameter>
						</effect>
					</filter>
					<sourcetrack>
						<mediatype>audio</mediatype>
						<trackindex>2</trackindex>
					</sourcetrack>
					<link>
						<linkclipref>STE-023.wav3</linkclipref>
						<mediatype>audio</mediatype>
						<trackindex>3</trackindex>
						<clipindex>3</clipindex>
						<groupindex>1</groupindex>
					</link>
					<link>
						<linkclipref>STE-023.wav4</linkclipref>
						<mediatype>audio</mediatype>
						<trackindex>4</trackindex>
						<clipindex>3</clipindex>
						<groupindex>1</groupindex>
					</link>
					<itemhistory>
						<uuid>EFA3C929-D6F1-42C4-A2ED-CDE606B545AE</uuid>
					</itemhistory>
				</clipitem>
				<transitionitem>
					<rate>
						<ntsc>TRUE</ntsc>
						<timebase>30</timebase>
					</rate>
					<start>4482</start>
					<end>4730</end>
					<alignment>end-black</alignment>
					<effect>
						<name>Cross Fade (+3dB)</name>
						<effectid>KGAudioTransCrossFade3dB</effectid>
						<effecttype>transition</effecttype>
						<mediatype>audio</mediatype>
					</effect>
				</transitionitem>
				<clipitem id="STE-018.wav4">
					<name>STE-018.wav</name>
					<duration>2896</duration>
					<rate>
						<ntsc>TRUE</ntsc>
						<timebase>30</timebase>
					</rate>
					<in>170</in>
					<out>536</out>
					<start>6369</start>
					<end>-1</end>
					<subframeoffset>0</subframeoffset>
					<masterclipid>STE-018.wav1</masterclipid>
					<logginginfo>
						<scene/>
						<shottake/>
						<lognote/>
						<good>FALSE</good>
					</logginginfo>
					<labels>
						<label2/>
					</labels>
					<comments>
						<mastercomment1/>
						<mastercomment2/>
						<mastercomment3/>
						<mastercomment4/>
					</comments>
					<file id="STE-018 "/>
					<filter>
						<effect>
							<name>Audio Levels</name>
							<effectid>audiolevels</effectid>
							<effectcategory>audiolevels</effectcategory>
							<effecttype>audiolevels</effecttype>
							<mediatype>audio</mediatype>
							<parameter>
								<name>Level</name>
								<parameterid>level</parameterid>
								<valuemin>0</valuemin>
								<valuemax>3.98109</valuemax>
								<value>0.354813</value>
							</parameter>
						</effect>
					</filter>
					<filter>
						<effect>
							<name>Audio Pan</name>
							<effectid>audiopan</effectid>
							<effectcategory>audiopan</effectcategory>
							<effecttype>audiopan</effecttype>
							<mediatype>audio</mediatype>
							<parameter>
								<name>Pan</name>
								<parameterid>pan</parameterid>
								<valuemin>-1</valuemin>
								<valuemax>1</valuemax>
								<value>1</value>
							</parameter>
						</effect>
					</filter>
					<sourcetrack>
						<mediatype>audio</mediatype>
						<trackindex>2</trackindex>
					</sourcetrack>
					<link>
						<linkclipref>STE-018.wav3</linkclipref>
						<mediatype>audio</mediatype>
						<trackindex>3</trackindex>
						<clipindex>5</clipindex>
						<groupindex>1</groupindex>
					</link>
					<link>
						<linkclipref>STE-018.wav4</linkclipref>
						<mediatype>audio</mediatype>
						<trackindex>4</trackindex>
						<clipindex>5</clipindex>
						<groupindex>1</groupindex>
					</link>
					<itemhistory>
						<uuid>04F31C23-6BDA-4F3B-B311-02364F12FFDC</uuid>
					</itemhistory>
				</clipitem>
				<transitionitem>
					<rate>
						<ntsc>TRUE</ntsc>
						<timebase>30</timebase>
					</rate>
					<start>6637</start>
					<end>6735</end>
					<alignment>end-black</alignment>
					<effect>
						<name>Cross Fade (+3dB)</name>
						<effectid>KGAudioTransCrossFade3dB</effectid>
						<effecttype>transition</effecttype>
						<mediatype>audio</mediatype>
					</effect>
				</transitionitem>
				<transitionitem>
					<rate>
						<ntsc>TRUE</ntsc>
						<timebase>30</timebase>
					</rate>
					<start>7109</start>
					<end>7420</end>
					<alignment>start-black</alignment>
					<effect>
						<name>Cross Fade (+3dB)</name>
						<effectid>KGAudioTransCrossFade3dB</effectid>
						<effecttype>transition</effecttype>
						<mediatype>audio</mediatype>
					</effect>
				</transitionitem>
				<clipitem id="STE-019.wav5">
					<name>STE-019.wav</name>
					<duration>8465</duration>
					<rate>
						<ntsc>TRUE</ntsc>
						<timebase>30</timebase>
					</rate>
					<in>4644</in>
					<out>5240</out>
					<start>-1</start>
					<end>-1</end>
					<subframeoffset>0</subframeoffset>
					<enabled>TRUE</enabled>
					<masterclipid>STE-019.wav4</masterclipid>
					<logginginfo>
						<scene/>
						<shottake/>
						<lognote/>
						<good>FALSE</good>
					</logginginfo>
					<labels>
						<label2/>
					</labels>
					<comments>
						<mastercomment1/>
						<mastercomment2/>
						<mastercomment3/>
						<mastercomment4/>
					</comments>
					<file id="STE-019 1"/>
					<filter>
						<effect>
							<name>Audio Levels</name>
							<effectid>audiolevels</effectid>
							<effectcategory>audiolevels</effectcategory>
							<effecttype>audiolevels</effecttype>
							<mediatype>audio</mediatype>
							<parameter>
								<name>Level</name>
								<parameterid>level</parameterid>
								<valuemin>0</valuemin>
								<valuemax>3.98109</valuemax>
								<value>1.77828</value>
							</parameter>
						</effect>
					</filter>
					<filter>
						<effect>
							<name>Audio Pan</name>
							<effectid>audiopan</effectid>
							<effectcategory>audiopan</effectcategory>
							<effecttype>audiopan</effecttype>
							<mediatype>audio</mediatype>
							<parameter>
								<name>Pan</name>
								<parameterid>pan</parameterid>
								<valuemin>-1</valuemin>
								<valuemax>1</valuemax>
								<value>1</value>
							</parameter>
						</effect>
					</filter>
					<sourcetrack>
						<mediatype>audio</mediatype>
						<trackindex>2</trackindex>
					</sourcetrack>
					<link>
						<linkclipref>STE-019.wav3</linkclipref>
						<mediatype>audio</mediatype>
						<trackindex>3</trackindex>
						<clipindex>8</clipindex>
						<groupindex>1</groupindex>
					</link>
					<link>
						<linkclipref>STE-019.wav5</linkclipref>
						<mediatype>audio</mediatype>
						<trackindex>4</trackindex>
						<clipindex>8</clipindex>
						<groupindex>1</groupindex>
					</link>
					<itemhistory>
						<uuid>C17321D0-73D6-407D-8AF0-A2B2240639BF</uuid>
					</itemhistory>
				</clipitem>
				<transitionitem>
					<rate>
						<ntsc>TRUE</ntsc>
						<timebase>30</timebase>
					</rate>
					<start>7675</start>
					<end>7705</end>
					<alignment>center</alignment>
					<effect>
						<name>Cross Fade (+3dB)</name>
						<effectid>KGAudioTransCrossFade3dB</effectid>
						<effecttype>transition</effecttype>
						<mediatype>audio</mediatype>
					</effect>
				</transitionitem>
				<clipitem id="STE-019.wav7">
					<name>STE-019.wav</name>
					<duration>8465</duration>
					<rate>
						<ntsc>TRUE</ntsc>
						<timebase>30</timebase>
					</rate>
					<in>5383</in>
					<out>6937</out>
					<start>-1</start>
					<end>9229</end>
					<subframeoffset>0</subframeoffset>
					<enabled>TRUE</enabled>
					<masterclipid>STE-019.wav4</masterclipid>
					<logginginfo>
						<scene/>
						<shottake/>
						<lognote/>
						<good>FALSE</good>
					</logginginfo>
					<labels>
						<label2/>
					</labels>
					<comments>
						<mastercomment1/>
						<mastercomment2/>
						<mastercomment3/>
						<mastercomment4/>
					</comments>
					<file id="STE-019 1"/>
					<filter>
						<effect>
							<name>Audio Levels</name>
							<effectid>audiolevels</effectid>
							<effectcategory>audiolevels</effectcategory>
							<effecttype>audiolevels</effecttype>
							<mediatype>audio</mediatype>
							<parameter>
								<name>Level</name>
								<parameterid>level</parameterid>
								<valuemin>0</valuemin>
								<valuemax>3.98109</valuemax>
								<value>2.51189</value>
							</parameter>
						</effect>
					</filter>
					<filter>
						<effect>
							<name>Audio Pan</name>
							<effectid>audiopan</effectid>
							<effectcategory>audiopan</effectcategory>
							<effecttype>audiopan</effecttype>
							<mediatype>audio</mediatype>
							<parameter>
								<name>Pan</name>
								<parameterid>pan</parameterid>
								<valuemin>-1</valuemin>
								<valuemax>1</valuemax>
								<value>1</value>
							</parameter>
						</effect>
					</filter>
					<sourcetrack>
						<mediatype>audio</mediatype>
						<trackindex>2</trackindex>
					</sourcetrack>
					<link>
						<linkclipref>STE-019.wav6</linkclipref>
						<mediatype>audio</mediatype>
						<trackindex>3</trackindex>
						<clipindex>10</clipindex>
						<groupindex>1</groupindex>
					</link>
					<link>
						<linkclipref>STE-019.wav7</linkclipref>
						<mediatype>audio</mediatype>
						<trackindex>4</trackindex>
						<clipindex>10</clipindex>
						<groupindex>1</groupindex>
					</link>
					<itemhistory>
						<uuid>689CE910-7A17-4F07-980F-F99E92E00C41</uuid>
					</itemhistory>
				</clipitem>
				<transitionitem>
					<rate>
						<ntsc>TRUE</ntsc>
						<timebase>30</timebase>
					</rate>
					<start>9244</start>
					<end>9514</end>
					<alignment>start-black</alignment>
					<effect>
						<name>Cross Fade (+3dB)</name>
						<effectid>KGAudioTransCrossFade3dB</effectid>
						<effecttype>transition</effecttype>
						<mediatype>audio</mediatype>
					</effect>
				</transitionitem>
				<clipitem id="crwaves4.wav">
					<name>crwaves4.wav</name>
					<duration>2221</duration>
					<rate>
						<ntsc>TRUE</ntsc>
						<timebase>30</timebase>
					</rate>
					<in>1148</in>
					<out>2197</out>
					<start>-1</start>
					<end>-1</end>
					<subframeoffset>0</subframeoffset>
					<masterclipid>crwaves4.wav1</masterclipid>
					<logginginfo>
						<scene/>
						<shottake/>
						<lognote/>
						<good>FALSE</good>
					</logginginfo>
					<labels>
						<label2/>
					</labels>
					<comments>
						<mastercomment1/>
						<mastercomment2/>
						<mastercomment3/>
						<mastercomment4/>
					</comments>
					<file id="crwaves4 ">
						<name>crwaves4.wav</name>
						<pathurl>file://localhost/Volumes/FILMS/FROM%20AWAY/Finishing%20Audio/crwaves4.wav</pathurl>
						<rate>
							<timebase>30</timebase>
							<ntsc>TRUE</ntsc>
						</rate>
						<duration>2221</duration>
						<timecode>
							<rate>
								<timebase>30</timebase>
								<ntsc>TRUE</ntsc>
							</rate>
							<string>00:00:00:00</string>
							<frame>0</frame>
							<displayformat>NDF</displayformat>
							<source>source</source>
						</timecode>
						<media>
							<audio>
								<samplecharacteristics>
									<samplerate>44100</samplerate>
									<depth>16</depth>
								</samplecharacteristics>
								<channelcount>2</channelcount>
							</audio>
						</media>
					</file>
					<filter>
						<effect>
							<name>Audio Levels</name>
							<effectid>audiolevels</effectid>
							<effectcategory>audiolevels</effectcategory>
							<effecttype>audiolevels</effecttype>
							<mediatype>audio</mediatype>
							<parameter>
								<name>Level</name>
								<parameterid>level</parameterid>
								<valuemin>0</valuemin>
								<valuemax>3.98109</valuemax>
								<value>1.58489</value>
							</parameter>
						</effect>
					</filter>
					<filter>
						<effect>
							<name>Audio Pan</name>
							<effectid>audiopan</effectid>
							<effectcategory>audiopan</effectcategory>
							<effecttype>audiopan</effecttype>
							<mediatype>audio</mediatype>
							<parameter>
								<name>Pan</name>
								<parameterid>pan</parameterid>
								<valuemin>-1</valuemin>
								<valuemax>1</valuemax>
								<value>-1</value>
							</parameter>
						</effect>
					</filter>
					<sourcetrack>
						<mediatype>audio</mediatype>
						<trackindex>1</trackindex>
					</sourcetrack>
					<link>
						<linkclipref>crwaves4.wav</linkclipref>
						<mediatype>audio</mediatype>
						<trackindex>4</trackindex>
						<clipindex>12</clipindex>
						<groupindex>1</groupindex>
					</link>
					<link>
						<linkclipref>crwaves4.wav2</linkclipref>
						<mediatype>audio</mediatype>
						<trackindex>5</trackindex>
						<clipindex>11</clipindex>
						<groupindex>1</groupindex>
					</link>
					<itemhistory>
						<uuid>EDF4E7FC-E214-4649-B1FF-82B05A0856AF</uuid>
					</itemhistory>
				</clipitem>
				<transitionitem>
					<rate>
						<ntsc>TRUE</ntsc>
						<timebase>30</timebase>
					</rate>
					<start>10120</start>
					<end>10293</end>
					<alignment>end-black</alignment>
					<effect>
						<name>Cross Fade (+3dB)</name>
						<effectid>KGAudioTransCrossFade3dB</effectid>
						<effecttype>transition</effecttype>
						<mediatype>audio</mediatype>
					</effect>
				</transitionitem>
				<clipitem id="STE-007.wav - whistling2">
					<name>STE-007.wav - whistling</name>
					<duration>1031</duration>
					<rate>
						<ntsc>TRUE</ntsc>
						<timebase>30</timebase>
					</rate>
					<in>46</in>
					<out>469</out>
					<start>10653</start>
					<end>11076</end>
					<subframeoffset>0</subframeoffset>
					<masterclipid>STE-007.wav - whistling1</masterclipid>
					<logginginfo>
						<scene/>
						<shottake/>
						<lognote/>
						<good>FALSE</good>
					</logginginfo>
					<labels>
						<label2/>
					</labels>
					<comments>
						<mastercomment1/>
						<mastercomment2/>
						<mastercomment3/>
						<mastercomment4/>
					</comments>
					<file id="STE-007 1"/>
					<marker>
						<name>Marker 2</name>
						<comment/>
						<color>
							<alpha>0</alpha>
							<red>255</red>
							<green>0</green>
							<blue>0</blue>
						</color>
						<in>58</in>
						<out>-1</out>
					</marker>
					<marker>
						<name>Marker 1</name>
						<comment/>
						<color>
							<alpha>0</alpha>
							<red>255</red>
							<green>0</green>
							<blue>0</blue>
						</color>
						<in>523</in>
						<out>-1</out>
					</marker>
					<filter>
						<effect>
							<name>Audio Levels</name>
							<effectid>audiolevels</effectid>
							<effectcategory>audiolevels</effectcategory>
							<effecttype>audiolevels</effecttype>
							<mediatype>audio</mediatype>
							<parameter>
								<name>Level</name>
								<parameterid>level</parameterid>
								<valuemin>0</valuemin>
								<valuemax>3.98109</valuemax>
								<value>1</value>
							</parameter>
						</effect>
					</filter>
					<filter>
						<effect>
							<name>Audio Pan</name>
							<effectid>audiopan</effectid>
							<effectcategory>audiopan</effectcategory>
							<effecttype>audiopan</effecttype>
							<mediatype>audio</mediatype>
							<parameter>
								<name>Pan</name>
								<parameterid>pan</parameterid>
								<valuemin>-1</valuemin>
								<valuemax>1</valuemax>
								<value>1</value>
							</parameter>
						</effect>
					</filter>
					<sourcetrack>
						<mediatype>audio</mediatype>
						<trackindex>2</trackindex>
					</sourcetrack>
					<link>
						<linkclipref>STE-007.wav - whistling</linkclipref>
						<mediatype>audio</mediatype>
						<trackindex>3</trackindex>
						<clipindex>11</clipindex>
						<groupindex>1</groupindex>
					</link>
					<link>
						<linkclipref>STE-007.wav - whistling2</linkclipref>
						<mediatype>audio</mediatype>
						<trackindex>4</trackindex>
						<clipindex>14</clipindex>
						<groupindex>1</groupindex>
					</link>
					<itemhistory>
						<uuid>8FDD48FE-8CEA-4B56-9EAD-6A8C31CB09E8</uuid>
					</itemhistory>
				</clipitem>
				<transitionitem>
					<rate>
						<ntsc>TRUE</ntsc>
						<timebase>30</timebase>
					</rate>
					<start>11225</start>
					<end>11239</end>
					<alignment>start-black</alignment>
					<effect>
						<name>Cross Fade (+3dB)</name>
						<effectid>KGAudioTransCrossFade3dB</effectid>
						<effecttype>transition</effecttype>
						<mediatype>audio</mediatype>
					</effect>
				</transitionitem>
				<clipitem id="STE-010.wav4">
					<name>STE-010.wav</name>
					<duration>11549</duration>
					<rate>
						<ntsc>TRUE</ntsc>
						<timebase>30</timebase>
					</rate>
					<in>991</in>
					<out>1384</out>
					<start>-1</start>
					<end>11618</end>
					<subframeoffset>0</subframeoffset>
					<enabled>TRUE</enabled>
					<masterclipid>STE-010.wav1</masterclipid>
					<logginginfo>
						<scene/>
						<shottake/>
						<lognote/>
						<good>FALSE</good>
					</logginginfo>
					<labels>
						<label2/>
					</labels>
					<comments>
						<mastercomment1/>
						<mastercomment2/>
						<mastercomment3/>
						<mastercomment4/>
					</comments>
					<file id="STE-010 "/>
					<marker>
						<name>Marker 1</name>
						<comment/>
						<color>
							<alpha>0</alpha>
							<red>255</red>
							<green>0</green>
							<blue>0</blue>
						</color>
						<in>1034</in>
						<out>-1</out>
					</marker>
					<filter>
						<effect>
							<name>Audio Levels</name>
							<effectid>audiolevels</effectid>
							<effectcategory>audiolevels</effectcategory>
							<effecttype>audiolevels</effecttype>
							<mediatype>audio</mediatype>
							<parameter>
								<name>Level</name>
								<parameterid>level</parameterid>
								<valuemin>0</valuemin>
								<valuemax>3.98109</valuemax>
								<value>0.891251</value>
							</parameter>
						</effect>
					</filter>
					<filter>
						<effect>
							<name>Audio Pan</name>
							<effectid>audiopan</effectid>
							<effectcategory>audiopan</effectcategory>
							<effecttype>audiopan</effecttype>
							<mediatype>audio</mediatype>
							<parameter>
								<name>Pan</name>
								<parameterid>pan</parameterid>
								<valuemin>-1</valuemin>
								<valuemax>1</valuemax>
								<value>1</value>
							</parameter>
						</effect>
					</filter>
					<sourcetrack>
						<mediatype>audio</mediatype>
						<trackindex>2</trackindex>
					</sourcetrack>
					<link>
						<linkclipref>STE-010.wav3</linkclipref>
						<mediatype>audio</mediatype>
						<trackindex>3</trackindex>
						<clipindex>13</clipindex>
						<groupindex>1</groupindex>
					</link>
					<link>
						<linkclipref>STE-010.wav4</linkclipref>
						<mediatype>audio</mediatype>
						<trackindex>4</trackindex>
						<clipindex>16</clipindex>
						<groupindex>1</groupindex>
					</link>
					<itemhistory>
						<uuid>6CD43C31-6F3E-41F4-BDD1-6F4681E5C030</uuid>
					</itemhistory>
				</clipitem>
				<clipitem id="STE-017.wav2">
					<name>STE-017.wav</name>
					<duration>2442</duration>
					<rate>
						<ntsc>TRUE</ntsc>
						<timebase>30</timebase>
					</rate>
					<in>373</in>
					<out>509</out>
					<start>12485</start>
					<end>12621</end>
					<subframeoffset>0</subframeoffset>
					<masterclipid>STE-017.wav1</masterclipid>
					<logginginfo>
						<scene/>
						<shottake/>
						<lognote/>
						<good>FALSE</good>
					</logginginfo>
					<labels>
						<label2/>
					</labels>
					<comments>
						<mastercomment1/>
						<mastercomment2/>
						<mastercomment3/>
						<mastercomment4/>
					</comments>
					<file id="STE-017 "/>
					<filter>
						<effect>
							<name>Audio Levels</name>
							<effectid>audiolevels</effectid>
							<effectcategory>audiolevels</effectcategory>
							<effecttype>audiolevels</effecttype>
							<mediatype>audio</mediatype>
							<parameter>
								<name>Level</name>
								<parameterid>level</parameterid>
								<valuemin>0</valuemin>
								<valuemax>3.98109</valuemax>
								<value>0.0446684</value>
							</parameter>
						</effect>
					</filter>
					<filter>
						<effect>
							<name>Audio Pan</name>
							<effectid>audiopan</effectid>
							<effectcategory>audiopan</effectcategory>
							<effecttype>audiopan</effecttype>
							<mediatype>audio</mediatype>
							<parameter>
								<name>Pan</name>
								<parameterid>pan</parameterid>
								<valuemin>-1</valuemin>
								<valuemax>1</valuemax>
								<value>1</value>
							</parameter>
						</effect>
					</filter>
					<sourcetrack>
						<mediatype>audio</mediatype>
						<trackindex>2</trackindex>
					</sourcetrack>
					<link>
						<linkclipref>STE-017.wav</linkclipref>
						<mediatype>audio</mediatype>
						<trackindex>3</trackindex>
						<clipindex>14</clipindex>
						<groupindex>1</groupindex>
					</link>
					<link>
						<linkclipref>STE-017.wav2</linkclipref>
						<mediatype>audio</mediatype>
						<trackindex>4</trackindex>
						<clipindex>17</clipindex>
						<groupindex>1</groupindex>
					</link>
					<itemhistory>
						<uuid>35AF9ACC-9C3C-431B-A42C-7BF7B04AD4C9</uuid>
					</itemhistory>
				</clipitem>
				<clipitem id="STE-017.wav4">
					<name>STE-017.wav</name>
					<duration>2442</duration>
					<rate>
						<ntsc>TRUE</ntsc>
						<timebase>30</timebase>
					</rate>
					<in>1646</in>
					<out>1811</out>
					<start>12817</start>
					<end>12982</end>
					<subframeoffset>0</subframeoffset>
					<masterclipid>STE-017.wav1</masterclipid>
					<logginginfo>
						<scene/>
						<shottake/>
						<lognote/>
						<good>FALSE</good>
					</logginginfo>
					<labels>
						<label2/>
					</labels>
					<comments>
						<mastercomment1/>
						<mastercomment2/>
						<mastercomment3/>
						<mastercomment4/>
					</comments>
					<file id="STE-017 "/>
					<filter>
						<effect>
							<name>Audio Levels</name>
							<effectid>audiolevels</effectid>
							<effectcategory>audiolevels</effectcategory>
							<effecttype>audiolevels</effecttype>
							<mediatype>audio</mediatype>
							<parameter>
								<name>Level</name>
								<parameterid>level</parameterid>
								<valuemin>0</valuemin>
								<valuemax>3.98109</valuemax>
								<value>0.891251</value>
							</parameter>
						</effect>
					</filter>
					<filter>
						<effect>
							<name>Audio Pan</name>
							<effectid>audiopan</effectid>
							<effectcategory>audiopan</effectcategory>
							<effecttype>audiopan</effecttype>
							<mediatype>audio</mediatype>
							<parameter>
								<name>Pan</name>
								<parameterid>pan</parameterid>
								<valuemin>-1</valuemin>
								<valuemax>1</valuemax>
								<value>1</value>
							</parameter>
						</effect>
					</filter>
					<sourcetrack>
						<mediatype>audio</mediatype>
						<trackindex>2</trackindex>
					</sourcetrack>
					<link>
						<linkclipref>STE-017.wav3</linkclipref>
						<mediatype>audio</mediatype>
						<trackindex>3</trackindex>
						<clipindex>15</clipindex>
						<groupindex>1</groupindex>
					</link>
					<link>
						<linkclipref>STE-017.wav4</linkclipref>
						<mediatype>audio</mediatype>
						<trackindex>4</trackindex>
						<clipindex>18</clipindex>
						<groupindex>1</groupindex>
					</link>
					<itemhistory>
						<uuid>8FF5DB5D-F354-471D-9E55-929C293F75E9</uuid>
					</itemhistory>
				</clipitem>
				<clipitem id="STE-030.wav2">
					<name>STE-030.wav</name>
					<duration>6454</duration>
					<rate>
						<ntsc>TRUE</ntsc>
						<timebase>30</timebase>
					</rate>
					<in>2981</in>
					<out>3757</out>
					<start>13066</start>
					<end>13842</end>
					<subframeoffset>0</subframeoffset>
					<enabled>TRUE</enabled>
					<masterclipid>STE-030.wav1</masterclipid>
					<logginginfo>
						<scene/>
						<shottake/>
						<lognote/>
						<good>FALSE</good>
					</logginginfo>
					<labels>
						<label2/>
					</labels>
					<comments>
						<mastercomment1/>
						<mastercomment2/>
						<mastercomment3/>
						<mastercomment4/>
					</comments>
					<file id="STE-030 "/>
					<filter>
						<effect>
							<name>Audio Levels</name>
							<effectid>audiolevels</effectid>
							<effectcategory>audiolevels</effectcategory>
							<effecttype>audiolevels</effecttype>
							<mediatype>audio</mediatype>
							<parameter>
								<name>Level</name>
								<parameterid>level</parameterid>
								<valuemin>0</valuemin>
								<valuemax>3.98109</valuemax>
								<value>1.58489</value>
							</parameter>
						</effect>
					</filter>
					<filter>
						<effect>
							<name>Audio Pan</name>
							<effectid>audiopan</effectid>
							<effectcategory>audiopan</effectcategory>
							<effecttype>audiopan</effecttype>
							<mediatype>audio</mediatype>
							<parameter>
								<name>Pan</name>
								<parameterid>pan</parameterid>
								<valuemin>-1</valuemin>
								<valuemax>1</valuemax>
								<value>1</value>
							</parameter>
						</effect>
					</filter>
					<sourcetrack>
						<mediatype>audio</mediatype>
						<trackindex>2</trackindex>
					</sourcetrack>
					<link>
						<linkclipref>STE-030.wav</linkclipref>
						<mediatype>audio</mediatype>
						<trackindex>3</trackindex>
						<clipindex>16</clipindex>
						<groupindex>1</groupindex>
					</link>
					<link>
						<linkclipref>STE-030.wav2</linkclipref>
						<mediatype>audio</mediatype>
						<trackindex>4</trackindex>
						<clipindex>19</clipindex>
						<groupindex>1</groupindex>
					</link>
					<itemhistory>
						<uuid>EBFBAC6D-A17D-4133-B5D6-32AB1873DA84</uuid>
					</itemhistory>
				</clipitem>
				<clipitem id="STE-030.wav4">
					<name>STE-030.wav</name>
					<duration>6454</duration>
					<rate>
						<ntsc>TRUE</ntsc>
						<timebase>30</timebase>
					</rate>
					<in>3955</in>
					<out>4138</out>
					<start>13842</start>
					<end>14025</end>
					<subframeoffset>0</subframeoffset>
					<enabled>TRUE</enabled>
					<masterclipid>STE-030.wav1</masterclipid>
					<logginginfo>
						<scene/>
						<shottake/>
						<lognote/>
						<good>FALSE</good>
					</logginginfo>
					<labels>
						<label2/>
					</labels>
					<comments>
						<mastercomment1/>
						<mastercomment2/>
						<mastercomment3/>
						<mastercomment4/>
					</comments>
					<file id="STE-030 "/>
					<filter>
						<effect>
							<name>Audio Levels</name>
							<effectid>audiolevels</effectid>
							<effectcategory>audiolevels</effectcategory>
							<effecttype>audiolevels</effecttype>
							<mediatype>audio</mediatype>
							<parameter>
								<name>Level</name>
								<parameterid>level</parameterid>
								<valuemin>0</valuemin>
								<valuemax>3.98109</valuemax>
								<value>2.23872</value>
							</parameter>
						</effect>
					</filter>
					<filter>
						<effect>
							<name>Audio Pan</name>
							<effectid>audiopan</effectid>
							<effectcategory>audiopan</effectcategory>
							<effecttype>audiopan</effecttype>
							<mediatype>audio</mediatype>
							<parameter>
								<name>Pan</name>
								<parameterid>pan</parameterid>
								<valuemin>-1</valuemin>
								<valuemax>1</valuemax>
								<value>1</value>
							</parameter>
						</effect>
					</filter>
					<sourcetrack>
						<mediatype>audio</mediatype>
						<trackindex>2</trackindex>
					</sourcetrack>
					<link>
						<linkclipref>STE-030.wav3</linkclipref>
						<mediatype>audio</mediatype>
						<trackindex>3</trackindex>
						<clipindex>17</clipindex>
						<groupindex>1</groupindex>
					</link>
					<link>
						<linkclipref>STE-030.wav4</linkclipref>
						<mediatype>audio</mediatype>
						<trackindex>4</trackindex>
						<clipindex>20</clipindex>
						<groupindex>1</groupindex>
					</link>
					<itemhistory>
						<uuid>3F035C52-3E47-4C46-B06C-62B425192F2D</uuid>
					</itemhistory>
				</clipitem>
				<clipitem id="STE-004.wav2">
					<name>STE-004.wav</name>
					<duration>3649</duration>
					<rate>
						<ntsc>TRUE</ntsc>
						<timebase>30</timebase>
					</rate>
					<in>661</in>
					<out>2274</out>
					<start>16315</start>
					<end>-1</end>
					<subframeoffset>0</subframeoffset>
					<enabled>TRUE</enabled>
					<masterclipid>STE-004.wav1</masterclipid>
					<logginginfo>
						<scene/>
						<shottake/>
						<lognote/>
						<good>FALSE</good>
					</logginginfo>
					<labels>
						<label2/>
					</labels>
					<comments>
						<mastercomment1/>
						<mastercomment2/>
						<mastercomment3/>
						<mastercomment4/>
					</comments>
					<file id="STE-004 "/>
					<marker>
						<name>Marker 1</name>
						<comment/>
						<color>
							<alpha>0</alpha>
							<red>255</red>
							<green>0</green>
							<blue>0</blue>
						</color>
						<in>1028</in>
						<out>-1</out>
					</marker>
					<filter>
						<effect>
							<name>Audio Levels</name>
							<effectid>audiolevels</effectid>
							<effectcategory>audiolevels</effectcategory>
							<effecttype>audiolevels</effecttype>
							<mediatype>audio</mediatype>
							<parameter>
								<name>Level</name>
								<parameterid>level</parameterid>
								<valuemin>0</valuemin>
								<valuemax>3.98109</valuemax>
								<value>0.446684</value>
							</parameter>
						</effect>
					</filter>
					<filter>
						<effect>
							<name>Audio Pan</name>
							<effectid>audiopan</effectid>
							<effectcategory>audiopan</effectcategory>
							<effecttype>audiopan</effecttype>
							<mediatype>audio</mediatype>
							<parameter>
								<name>Pan</name>
								<parameterid>pan</parameterid>
								<valuemin>-1</valuemin>
								<valuemax>1</valuemax>
								<value>1</value>
							</parameter>
						</effect>
					</filter>
					<sourcetrack>
						<mediatype>audio</mediatype>
						<trackindex>2</trackindex>
					</sourcetrack>
					<link>
						<linkclipref>STE-004.wav</linkclipref>
						<mediatype>audio</mediatype>
						<trackindex>3</trackindex>
						<clipindex>18</clipindex>
						<groupindex>1</groupindex>
					</link>
					<link>
						<linkclipref>STE-004.wav2</linkclipref>
						<mediatype>audio</mediatype>
						<trackindex>4</trackindex>
						<clipindex>21</clipindex>
						<groupindex>1</groupindex>
					</link>
					<itemhistory>
						<uuid>34C9BC36-7CA6-4D12-A4A7-D7F4BE9500BB</uuid>
					</itemhistory>
				</clipitem>
				<transitionitem>
					<rate>
						<ntsc>TRUE</ntsc>
						<timebase>30</timebase>
					</rate>
					<start>17743</start>
					<end>17928</end>
					<alignment>end-black</alignment>
					<effect>
						<name>Cross Fade (+3dB)</name>
						<effectid>KGAudioTransCrossFade3dB</effectid>
						<effecttype>transition</effecttype>
						<mediatype>audio</mediatype>
					</effect>
				</transitionitem>
				<transitionitem>
					<rate>
						<ntsc>TRUE</ntsc>
						<timebase>30</timebase>
					</rate>
					<start>18003</start>
					<end>18033</end>
					<alignment>start-black</alignment>
					<effect>
						<name>Cross Fade (+3dB)</name>
						<effectid>KGAudioTransCrossFade3dB</effectid>
						<effecttype>transition</effecttype>
						<mediatype>audio</mediatype>
					</effect>
				</transitionitem>
				<clipitem id="STE-013.wav4">
					<name>STE-013.wav</name>
					<duration>13888</duration>
					<rate>
						<ntsc>TRUE</ntsc>
						<timebase>30</timebase>
					</rate>
					<in>11415</in>
					<out>12340</out>
					<start>-1</start>
					<end>18928</end>
					<subframeoffset>0</subframeoffset>
					<masterclipid>STE-013.wav1</masterclipid>
					<logginginfo>
						<scene/>
						<shottake/>
						<lognote/>
						<good>FALSE</good>
					</logginginfo>
					<labels>
						<label2/>
					</labels>
					<comments>
						<mastercomment1/>
						<mastercomment2/>
						<mastercomment3/>
						<mastercomment4/>
					</comments>
					<file id="STE-013 "/>
					<filter>
						<effect>
							<name>Audio Levels</name>
							<effectid>audiolevels</effectid>
							<effectcategory>audiolevels</effectcategory>
							<effecttype>audiolevels</effecttype>
							<mediatype>audio</mediatype>
							<parameter>
								<name>Level</name>
								<parameterid>level</parameterid>
								<valuemin>0</valuemin>
								<valuemax>3.98109</valuemax>
								<value>0.398107</value>
							</parameter>
						</effect>
					</filter>
					<filter>
						<effect>
							<name>Audio Pan</name>
							<effectid>audiopan</effectid>
							<effectcategory>audiopan</effectcategory>
							<effecttype>audiopan</effecttype>
							<mediatype>audio</mediatype>
							<parameter>
								<name>Pan</name>
								<parameterid>pan</parameterid>
								<valuemin>-1</valuemin>
								<valuemax>1</valuemax>
								<value>1</value>
							</parameter>
						</effect>
					</filter>
					<sourcetrack>
						<mediatype>audio</mediatype>
						<trackindex>2</trackindex>
					</sourcetrack>
					<link>
						<linkclipref>STE-013.wav3</linkclipref>
						<mediatype>audio</mediatype>
						<trackindex>3</trackindex>
						<clipindex>21</clipindex>
						<groupindex>1</groupindex>
					</link>
					<link>
						<linkclipref>STE-013.wav4</linkclipref>
						<mediatype>audio</mediatype>
						<trackindex>4</trackindex>
						<clipindex>24</clipindex>
						<groupindex>1</groupindex>
					</link>
					<itemhistory>
						<uuid>EEFC06AB-00E0-48EC-A4B4-45F580CB6A38</uuid>
					</itemhistory>
				</clipitem>
				<clipitem id="STE-030.wav6">
					<name>STE-030.wav</name>
					<duration>6453</duration>
					<rate>
						<ntsc>TRUE</ntsc>
						<timebase>30</timebase>
					</rate>
					<in>2097</in>
					<out>2541</out>
					<start>18928</start>
					<end>19372</end>
					<subframeoffset>0</subframeoffset>
					<masterclipid>STE-030.wav1</masterclipid>
					<logginginfo>
						<scene/>
						<shottake/>
						<lognote/>
						<good>FALSE</good>
					</logginginfo>
					<labels>
						<label2/>
					</labels>
					<comments>
						<mastercomment1/>
						<mastercomment2/>
						<mastercomment3/>
						<mastercomment4/>
					</comments>
					<file id="STE-030 "/>
					<filter>
						<effect>
							<name>Audio Levels</name>
							<effectid>audiolevels</effectid>
							<effectcategory>audiolevels</effectcategory>
							<effecttype>audiolevels</effecttype>
							<mediatype>audio</mediatype>
							<parameter>
								<name>Level</name>
								<parameterid>level</parameterid>
								<valuemin>0</valuemin>
								<valuemax>3.98109</valuemax>
								<value>1.77828</value>
							</parameter>
						</effect>
					</filter>
					<filter>
						<effect>
							<name>Audio Pan</name>
							<effectid>audiopan</effectid>
							<effectcategory>audiopan</effectcategory>
							<effecttype>audiopan</effecttype>
							<mediatype>audio</mediatype>
							<parameter>
								<name>Pan</name>
								<parameterid>pan</parameterid>
								<valuemin>-1</valuemin>
								<valuemax>1</valuemax>
								<value>1</value>
							</parameter>
						</effect>
					</filter>
					<sourcetrack>
						<mediatype>audio</mediatype>
						<trackindex>2</trackindex>
					</sourcetrack>
					<link>
						<linkclipref>STE-030.wav5</linkclipref>
						<mediatype>audio</mediatype>
						<trackindex>3</trackindex>
						<clipindex>22</clipindex>
						<groupindex>1</groupindex>
					</link>
					<link>
						<linkclipref>STE-030.wav6</linkclipref>
						<mediatype>audio</mediatype>
						<trackindex>4</trackindex>
						<clipindex>25</clipindex>
						<groupindex>1</groupindex>
					</link>
					<itemhistory>
						<uuid>C35F5F38-86CF-4919-8168-D07C6B11A8AC</uuid>
					</itemhistory>
				</clipitem>
				<clipitem id="STE-015.wav2">
					<name>STE-015.wav</name>
					<duration>13608</duration>
					<rate>
						<ntsc>TRUE</ntsc>
						<timebase>30</timebase>
					</rate>
					<in>9733</in>
					<out>10083</out>
					<start>20583</start>
					<end>20933</end>
					<subframeoffset>0</subframeoffset>
					<masterclipid>STE-015.wav1</masterclipid>
					<logginginfo>
						<scene/>
						<shottake/>
						<lognote/>
						<good>FALSE</good>
					</logginginfo>
					<labels>
						<label2/>
					</labels>
					<comments>
						<mastercomment1/>
						<mastercomment2/>
						<mastercomment3/>
						<mastercomment4/>
					</comments>
					<file id="STE-015 "/>
					<filter>
						<effect>
							<name>Audio Levels</name>
							<effectid>audiolevels</effectid>
							<effectcategory>audiolevels</effectcategory>
							<effecttype>audiolevels</effecttype>
							<mediatype>audio</mediatype>
							<parameter>
								<name>Level</name>
								<parameterid>level</parameterid>
								<valuemin>0</valuemin>
								<valuemax>3.98109</valuemax>
								<value>0.630957</value>
							</parameter>
						</effect>
					</filter>
					<filter>
						<effect>
							<name>Audio Pan</name>
							<effectid>audiopan</effectid>
							<effectcategory>audiopan</effectcategory>
							<effecttype>audiopan</effecttype>
							<mediatype>audio</mediatype>
							<parameter>
								<name>Pan</name>
								<parameterid>pan</parameterid>
								<valuemin>-1</valuemin>
								<valuemax>1</valuemax>
								<value>0.981567</value>
							</parameter>
						</effect>
					</filter>
					<sourcetrack>
						<mediatype>audio</mediatype>
						<trackindex>2</trackindex>
					</sourcetrack>
					<link>
						<linkclipref>STE-015.wav</linkclipref>
						<mediatype>audio</mediatype>
						<trackindex>3</trackindex>
						<clipindex>23</clipindex>
						<groupindex>1</groupindex>
					</link>
					<link>
						<linkclipref>STE-015.wav2</linkclipref>
						<mediatype>audio</mediatype>
						<trackindex>4</trackindex>
						<clipindex>26</clipindex>
						<groupindex>1</groupindex>
					</link>
					<itemhistory>
						<uuid>2F187071-2361-4240-A264-3034E9E0528E</uuid>
					</itemhistory>
					<mixedratesoffset>1</mixedratesoffset>
				</clipitem>
				<enabled>TRUE</enabled>
				<locked>FALSE</locked>
				<outputchannelindex>2</outputchannelindex>
			</track>
			<track>
				<transitionitem>
					<rate>
						<ntsc>TRUE</ntsc>
						<timebase>30</timebase>
					</rate>
					<start>147</start>
					<end>200</end>
					<alignment>start</alignment>
					<effect>
						<name>Cross Fade (+3dB)</name>
						<effectid>KGAudioTransCrossFade3dB</effectid>
						<effecttype>transition</effecttype>
						<mediatype>audio</mediatype>
					</effect>
				</transitionitem>
				<clipitem id="crwaves4.wav3">
					<name>crwaves4.wav</name>
					<duration>2221</duration>
					<rate>
						<ntsc>TRUE</ntsc>
						<timebase>30</timebase>
					</rate>
					<in>365</in>
					<out>1458</out>
					<start>-1</start>
					<end>-1</end>
					<subframeoffset>0</subframeoffset>
					<enabled>TRUE</enabled>
					<masterclipid>crwaves4.wav1</masterclipid>
					<logginginfo>
						<scene/>
						<shottake/>
						<lognote/>
						<good>FALSE</good>
					</logginginfo>
					<labels>
						<label2/>
					</labels>
					<comments>
						<mastercomment1/>
						<mastercomment2/>
						<mastercomment3/>
						<mastercomment4/>
					</comments>
					<file id="crwaves4 "/>
					<filter>
						<effect>
							<name>Audio Levels</name>
							<effectid>audiolevels</effectid>
							<effectcategory>audiolevels</effectcategory>
							<effecttype>audiolevels</effecttype>
							<mediatype>audio</mediatype>
							<parameter>
								<name>Level</name>
								<parameterid>level</parameterid>
								<valuemin>0</valuemin>
								<valuemax>3.98109</valuemax>
								<keyframe>
									<when>856</when>
									<value>0.251189</value>
								</keyframe>
								<keyframe>
									<when>885</when>
									<value>0.501187</value>
								</keyframe>
								<interpolation>
									<name>FCPCurve</name>
								</interpolation>
								<value>0.501187</value>
							</parameter>
						</effect>
					</filter>
					<filter>
						<effect>
							<name>Audio Pan</name>
							<effectid>audiopan</effectid>
							<effectcategory>audiopan</effectcategory>
							<effecttype>audiopan</effecttype>
							<mediatype>audio</mediatype>
							<parameter>
								<name>Pan</name>
								<parameterid>pan</parameterid>
								<valuemin>-1</valuemin>
								<valuemax>1</valuemax>
								<value>-0.98</value>
							</parameter>
						</effect>
					</filter>
					<sourcetrack>
						<mediatype>audio</mediatype>
						<trackindex>1</trackindex>
					</sourcetrack>
					<link>
						<linkclipref>crwaves4.wav3</linkclipref>
						<mediatype>audio</mediatype>
						<trackindex>5</trackindex>
						<clipindex>2</clipindex>
						<groupindex>1</groupindex>
					</link>
					<link>
						<linkclipref>crwaves4.wav4</linkclipref>
						<mediatype>audio</mediatype>
						<trackindex>6</trackindex>
						<clipindex>2</clipindex>
						<groupindex>1</groupindex>
					</link>
					<itemhistory>
						<uuid>2EE119FA-7025-4CED-9179-494270E8969A</uuid>
					</itemhistory>
				</clipitem>
				<transitionitem>
					<rate>
						<ntsc>TRUE</ntsc>
						<timebase>30</timebase>
					</rate>
					<start>1094</start>
					<end>1240</end>
					<alignment>end-black</alignment>
					<effect>
						<name>Cross Fade (+3dB)</name>
						<effectid>KGAudioTransCrossFade3dB</effectid>
						<effecttype>transition</effecttype>
						<mediatype>audio</mediatype>
					</effect>
				</transitionitem>
				<transitionitem>
					<rate>
						<ntsc>TRUE</ntsc>
						<timebase>30</timebase>
					</rate>
					<start>2913</start>
					<end>2916</end>
					<alignment>start-black</alignment>
					<effect>
						<name>Cross Fade (+3dB)</name>
						<effectid>KGAudioTransCrossFade3dB</effectid>
						<effecttype>transition</effecttype>
						<mediatype>audio</mediatype>
					</effect>
				</transitionitem>
				<clipitem id="STE-015.wav3">
					<name>STE-015.wav</name>
					<duration>13609</duration>
					<rate>
						<ntsc>TRUE</ntsc>
						<timebase>30</timebase>
					</rate>
					<in>11081</in>
					<out>12657</out>
					<start>-1</start>
					<end>4489</end>
					<subframeoffset>0</subframeoffset>
					<enabled>TRUE</enabled>
					<masterclipid>STE-015.wav1</masterclipid>
					<logginginfo>
						<scene/>
						<shottake/>
						<lognote/>
						<good>FALSE</good>
					</logginginfo>
					<labels>
						<label2/>
					</labels>
					<comments>
						<mastercomment1/>
						<mastercomment2/>
						<mastercomment3/>
						<mastercomment4/>
					</comments>
					<file id="STE-015 "/>
					<filter>
						<effect>
							<name>Audio Levels</name>
							<effectid>audiolevels</effectid>
							<effectcategory>audiolevels</effectcategory>
							<effecttype>audiolevels</effecttype>
							<mediatype>audio</mediatype>
							<parameter>
								<name>Level</name>
								<parameterid>level</parameterid>
								<valuemin>0</valuemin>
								<valuemax>3.98109</valuemax>
								<value>0.794328</value>
							</parameter>
						</effect>
					</filter>
					<filter>
						<effect>
							<name>Audio Pan</name>
							<effectid>audiopan</effectid>
							<effectcategory>audiopan</effectcategory>
							<effecttype>audiopan</effecttype>
							<mediatype>audio</mediatype>
							<parameter>
								<name>Pan</name>
								<parameterid>pan</parameterid>
								<valuemin>-1</valuemin>
								<valuemax>1</valuemax>
								<value>-0.981567</value>
							</parameter>
						</effect>
					</filter>
					<sourcetrack>
						<mediatype>audio</mediatype>
						<trackindex>1</trackindex>
					</sourcetrack>
					<link>
						<linkclipref>STE-015.wav3</linkclipref>
						<mediatype>audio</mediatype>
						<trackindex>5</trackindex>
						<clipindex>5</clipindex>
						<groupindex>1</groupindex>
					</link>
					<link>
						<linkclipref>STE-015.wav4</linkclipref>
						<mediatype>audio</mediatype>
						<trackindex>6</trackindex>
						<clipindex>5</clipindex>
						<groupindex>1</groupindex>
					</link>
					<itemhistory>
						<uuid>2025E976-2A45-4F60-B7DD-360B29CACE96</uuid>
					</itemhistory>
				</clipitem>
				<clipitem id="STE-016.wav">
					<name>STE-016.wav</name>
					<duration>1358</duration>
					<rate>
						<ntsc>TRUE</ntsc>
						<timebase>30</timebase>
					</rate>
					<in>403</in>
					<out>1358</out>
					<start>5249</start>
					<end>-1</end>
					<masterclipid>STE-016.wav1</masterclipid>
					<logginginfo>
						<scene/>
						<shottake/>
						<lognote/>
						<good>FALSE</good>
					</logginginfo>
					<labels>
						<label2/>
					</labels>
					<comments>
						<mastercomment1/>
						<mastercomment2/>
						<mastercomment3/>
						<mastercomment4/>
					</comments>
					<file id="STE-016 ">
						<name>STE-016.wav</name>
						<pathurl>file://localhost/Volumes/FILMS/FROM%20AWAY/FOLDER03/STE-016.wav</pathurl>
						<rate>
							<timebase>30</timebase>
							<ntsc>TRUE</ntsc>
						</rate>
						<duration>1358</duration>
						<timecode>
							<rate>
								<timebase>30</timebase>
								<ntsc>TRUE</ntsc>
							</rate>
							<string>00:00:00:00</string>
							<frame>0</frame>
							<displayformat>NDF</displayformat>
							<source>source</source>
						</timecode>
						<media>
							<audio>
								<samplecharacteristics>
									<samplerate>44100</samplerate>
									<depth>16</depth>
								</samplecharacteristics>
								<channelcount>2</channelcount>
							</audio>
						</media>
					</file>
					<filter>
						<effect>
							<name>Audio Levels</name>
							<effectid>audiolevels</effectid>
							<effectcategory>audiolevels</effectcategory>
							<effecttype>audiolevels</effecttype>
							<mediatype>audio</mediatype>
							<parameter>
								<name>Level</name>
								<parameterid>level</parameterid>
								<valuemin>0</valuemin>
								<valuemax>3.98109</valuemax>
								<value>0.0446684</value>
							</parameter>
						</effect>
					</filter>
					<filter>
						<effect>
							<name>Audio Pan</name>
							<effectid>audiopan</effectid>
							<effectcategory>audiopan</effectcategory>
							<effecttype>audiopan</effecttype>
							<mediatype>audio</mediatype>
							<parameter>
								<name>Pan</name>
								<parameterid>pan</parameterid>
								<valuemin>-1</valuemin>
								<valuemax>1</valuemax>
								<value>-1</value>
							</parameter>
						</effect>
					</filter>
					<sourcetrack>
						<mediatype>audio</mediatype>
						<trackindex>1</trackindex>
					</sourcetrack>
					<link>
						<linkclipref>STE-016.wav</linkclipref>
						<mediatype>audio</mediatype>
						<trackindex>5</trackindex>
						<clipindex>6</clipindex>
						<groupindex>1</groupindex>
					</link>
					<link>
						<linkclipref>STE-016.wav2</linkclipref>
						<mediatype>audio</mediatype>
						<trackindex>6</trackindex>
						<clipindex>6</clipindex>
						<groupindex>1</groupindex>
					</link>
					<itemhistory>
						<uuid>5551889C-C525-45A0-9893-8AACEADC6246</uuid>
					</itemhistory>
				</clipitem>
				<transitionitem>
					<rate>
						<ntsc>TRUE</ntsc>
						<timebase>30</timebase>
					</rate>
					<start>5617</start>
					<end>6204</end>
					<alignment>end-black</alignment>
					<effect>
						<name>Cross Fade (+3dB)</name>
						<effectid>KGAudioTransCrossFade3dB</effectid>
						<effecttype>transition</effecttype>
						<mediatype>audio</mediatype>
					</effect>
				</transitionitem>
				<clipitem id="STE-031.wav">
					<name>STE-031.wav</name>
					<duration>9054</duration>
					<rate>
						<ntsc>TRUE</ntsc>
						<timebase>30</timebase>
					</rate>
					<in>2782</in>
					<out>3461</out>
					<start>6369</start>
					<end>-1</end>
					<subframeoffset>0</subframeoffset>
					<enabled>TRUE</enabled>
					<masterclipid>STE-031.wav1</masterclipid>
					<logginginfo>
						<scene/>
						<shottake/>
						<lognote/>
						<good>FALSE</good>
					</logginginfo>
					<labels>
						<label2/>
					</labels>
					<comments>
						<mastercomment1/>
						<mastercomment2/>
						<mastercomment3/>
						<mastercomment4/>
					</comments>
					<file id="STE-031 ">
						<name>STE-031.wav</name>
						<pathurl>file://localhost/Volumes/FILMS/FROM%20AWAY/FROM%20AWAY%20AUDIO/STE-031.wav</pathurl>
						<rate>
							<timebase>24</timebase>
						</rate>
						<duration>7243</duration>
						<timecode>
							<rate>
								<timebase>24</timebase>
							</rate>
							<string>00:00:00:00</string>
							<frame>0</frame>
							<displayformat>NDF</displayformat>
							<source>source</source>
						</timecode>
						<media>
							<audio>
								<samplecharacteristics>
									<samplerate>44100</samplerate>
									<depth>16</depth>
								</samplecharacteristics>
								<channelcount>2</channelcount>
							</audio>
						</media>
					</file>
					<filter>
						<effect>
							<name>Audio Levels</name>
							<effectid>audiolevels</effectid>
							<effectcategory>audiolevels</effectcategory>
							<effecttype>audiolevels</effecttype>
							<mediatype>audio</mediatype>
							<parameter>
								<name>Level</name>
								<parameterid>level</parameterid>
								<valuemin>0</valuemin>
								<valuemax>3.98109</valuemax>
								<keyframe>
									<when>3318</when>
									<value>1</value>
								</keyframe>
								<keyframe>
									<when>3358</when>
									<value>2.51189</value>
								</keyframe>
								<interpolation>
									<name>FCPCurve</name>
								</interpolation>
								<value>2.51189</value>
							</parameter>
						</effect>
					</filter>
					<filter>
						<effect>
							<name>Audio Pan</name>
							<effectid>audiopan</effectid>
							<effectcategory>audiopan</effectcategory>
							<effecttype>audiopan</effecttype>
							<mediatype>audio</mediatype>
							<parameter>
								<name>Pan</name>
								<parameterid>pan</parameterid>
								<valuemin>-1</valuemin>
								<valuemax>1</valuemax>
								<value>-1</value>
							</parameter>
						</effect>
					</filter>
					<sourcetrack>
						<mediatype>audio</mediatype>
						<trackindex>1</trackindex>
					</sourcetrack>
					<link>
						<linkclipref>STE-031.wav</linkclipref>
						<mediatype>audio</mediatype>
						<trackindex>5</trackindex>
						<clipindex>8</clipindex>
						<groupindex>1</groupindex>
					</link>
					<link>
						<linkclipref>STE-031.wav2</linkclipref>
						<mediatype>audio</mediatype>
						<trackindex>6</trackindex>
						<clipindex>8</clipindex>
						<groupindex>1</groupindex>
					</link>
					<itemhistory>
						<uuid>00DF2CE8-437C-46BA-8D6A-86C5FE102225</uuid>
					</itemhistory>
				</clipitem>
				<transitionitem>
					<rate>
						<ntsc>TRUE</ntsc>
						<timebase>30</timebase>
					</rate>
					<start>6990</start>
					<end>7048</end>
					<alignment>end-black</alignment>
					<effect>
						<name>Cross Fade (+3dB)</name>
						<effectid>KGAudioTransCrossFade3dB</effectid>
						<effecttype>transition</effecttype>
						<mediatype>audio</mediatype>
					</effect>
				</transitionitem>
				<transitionitem>
					<rate>
						<ntsc>TRUE</ntsc>
						<timebase>30</timebase>
					</rate>
					<start>9244</start>
					<end>9514</end>
					<alignment>start-black</alignment>
					<effect>
						<name>Cross Fade (+3dB)</name>
						<effectid>KGAudioTransCrossFade3dB</effectid>
						<effecttype>transition</effecttype>
						<mediatype>audio</mediatype>
					</effect>
				</transitionitem>
				<clipitem id="crwaves4.wav2">
					<name>crwaves4.wav</name>
					<duration>2221</duration>
					<rate>
						<ntsc>TRUE</ntsc>
						<timebase>30</timebase>
					</rate>
					<in>1148</in>
					<out>2197</out>
					<start>-1</start>
					<end>-1</end>
					<subframeoffset>0</subframeoffset>
					<masterclipid>crwaves4.wav1</masterclipid>
					<logginginfo>
						<scene/>
						<shottake/>
						<lognote/>
						<good>FALSE</good>
					</logginginfo>
					<labels>
						<label2/>
					</labels>
					<comments>
						<mastercomment1/>
						<mastercomment2/>
						<mastercomment3/>
						<mastercomment4/>
					</comments>
					<file id="crwaves4 "/>
					<filter>
						<effect>
							<name>Audio Levels</name>
							<effectid>audiolevels</effectid>
							<effectcategory>audiolevels</effectcategory>
							<effecttype>audiolevels</effecttype>
							<mediatype>audio</mediatype>
							<parameter>
								<name>Level</name>
								<parameterid>level</parameterid>
								<valuemin>0</valuemin>
								<valuemax>3.98109</valuemax>
								<value>1.58489</value>
							</parameter>
						</effect>
					</filter>
					<filter>
						<effect>
							<name>Audio Pan</name>
							<effectid>audiopan</effectid>
							<effectcategory>audiopan</effectcategory>
							<effecttype>audiopan</effecttype>
							<mediatype>audio</mediatype>
							<parameter>
								<name>Pan</name>
								<parameterid>pan</parameterid>
								<valuemin>-1</valuemin>
								<valuemax>1</valuemax>
								<value>1</value>
							</parameter>
						</effect>
					</filter>
					<sourcetrack>
						<mediatype>audio</mediatype>
						<trackindex>2</trackindex>
					</sourcetrack>
					<link>
						<linkclipref>crwaves4.wav</linkclipref>
						<mediatype>audio</mediatype>
						<trackindex>4</trackindex>
						<clipindex>12</clipindex>
						<groupindex>1</groupindex>
					</link>
					<link>
						<linkclipref>crwaves4.wav2</linkclipref>
						<mediatype>audio</mediatype>
						<trackindex>5</trackindex>
						<clipindex>11</clipindex>
						<groupindex>1</groupindex>
					</link>
					<itemhistory>
						<uuid>D81D8324-28EF-41F7-9890-F973ADCC8A86</uuid>
					</itemhistory>
				</clipitem>
				<transitionitem>
					<rate>
						<ntsc>TRUE</ntsc>
						<timebase>30</timebase>
					</rate>
					<start>10120</start>
					<end>10293</end>
					<alignment>end-black</alignment>
					<effect>
						<name>Cross Fade (+3dB)</name>
						<effectid>KGAudioTransCrossFade3dB</effectid>
						<effecttype>transition</effecttype>
						<mediatype>audio</mediatype>
					</effect>
				</transitionitem>
				<clipitem id="STE-012.wav3">
					<name>STE-012.wav</name>
					<duration>13503</duration>
					<rate>
						<ntsc>TRUE</ntsc>
						<timebase>30</timebase>
					</rate>
					<in>637</in>
					<out>1070</out>
					<start>11481</start>
					<end>11914</end>
					<subframeoffset>0</subframeoffset>
					<enabled>TRUE</enabled>
					<masterclipid>STE-012.wav1</masterclipid>
					<logginginfo>
						<scene/>
						<shottake/>
						<lognote/>
						<good>FALSE</good>
					</logginginfo>
					<labels>
						<label2/>
					</labels>
					<comments>
						<mastercomment1/>
						<mastercomment2/>
						<mastercomment3/>
						<mastercomment4/>
					</comments>
					<file id="STE-012 "/>
					<filter>
						<effect>
							<name>Audio Levels</name>
							<effectid>audiolevels</effectid>
							<effectcategory>audiolevels</effectcategory>
							<effecttype>audiolevels</effecttype>
							<mediatype>audio</mediatype>
							<parameter>
								<name>Level</name>
								<parameterid>level</parameterid>
								<valuemin>0</valuemin>
								<valuemax>3.98109</valuemax>
								<value>0.446684</value>
							</parameter>
						</effect>
					</filter>
					<filter>
						<effect>
							<name>Audio Pan</name>
							<effectid>audiopan</effectid>
							<effectcategory>audiopan</effectcategory>
							<effecttype>audiopan</effecttype>
							<mediatype>audio</mediatype>
							<parameter>
								<name>Pan</name>
								<parameterid>pan</parameterid>
								<valuemin>-1</valuemin>
								<valuemax>1</valuemax>
								<value>-0.933333</value>
							</parameter>
						</effect>
					</filter>
					<sourcetrack>
						<mediatype>audio</mediatype>
						<trackindex>1</trackindex>
					</sourcetrack>
					<link>
						<linkclipref>STE-012.wav3</linkclipref>
						<mediatype>audio</mediatype>
						<trackindex>5</trackindex>
						<clipindex>13</clipindex>
						<groupindex>1</groupindex>
					</link>
					<link>
						<linkclipref>STE-012.wav4</linkclipref>
						<mediatype>audio</mediatype>
						<trackindex>6</trackindex>
						<clipindex>15</clipindex>
						<groupindex>1</groupindex>
					</link>
					<itemhistory>
						<uuid>16FC8834-6FB9-4914-A3E6-D387F1448471</uuid>
					</itemhistory>
				</clipitem>
				<clipitem id="STE-012.wav5">
					<name>STE-012.wav</name>
					<duration>13503</duration>
					<rate>
						<ntsc>TRUE</ntsc>
						<timebase>30</timebase>
					</rate>
					<in>3821</in>
					<out>3986</out>
					<start>12817</start>
					<end>12982</end>
					<subframeoffset>0</subframeoffset>
					<masterclipid>STE-012.wav1</masterclipid>
					<logginginfo>
						<scene/>
						<shottake/>
						<lognote/>
						<good>FALSE</good>
					</logginginfo>
					<labels>
						<label2/>
					</labels>
					<comments>
						<mastercomment1/>
						<mastercomment2/>
						<mastercomment3/>
						<mastercomment4/>
					</comments>
					<file id="STE-012 "/>
					<filter>
						<effect>
							<name>Audio Levels</name>
							<effectid>audiolevels</effectid>
							<effectcategory>audiolevels</effectcategory>
							<effecttype>audiolevels</effecttype>
							<mediatype>audio</mediatype>
							<parameter>
								<name>Level</name>
								<parameterid>level</parameterid>
								<valuemin>0</valuemin>
								<valuemax>3.98109</valuemax>
								<value>1</value>
							</parameter>
						</effect>
					</filter>
					<filter>
						<effect>
							<name>Audio Pan</name>
							<effectid>audiopan</effectid>
							<effectcategory>audiopan</effectcategory>
							<effecttype>audiopan</effecttype>
							<mediatype>audio</mediatype>
							<parameter>
								<name>Pan</name>
								<parameterid>pan</parameterid>
								<valuemin>-1</valuemin>
								<valuemax>1</valuemax>
								<value>-0.965665</value>
							</parameter>
						</effect>
					</filter>
					<sourcetrack>
						<mediatype>audio</mediatype>
						<trackindex>1</trackindex>
					</sourcetrack>
					<link>
						<linkclipref>STE-012.wav5</linkclipref>
						<mediatype>audio</mediatype>
						<trackindex>5</trackindex>
						<clipindex>14</clipindex>
						<groupindex>1</groupindex>
					</link>
					<link>
						<linkclipref>STE-012.wav6</linkclipref>
						<mediatype>audio</mediatype>
						<trackindex>6</trackindex>
						<clipindex>16</clipindex>
						<groupindex>1</groupindex>
					</link>
					<itemhistory>
						<uuid>C913489C-4DD8-4DF0-981D-93BCEA451217</uuid>
					</itemhistory>
				</clipitem>
				<clipitem id="STE-017.wav5">
					<name>STE-017.wav</name>
					<duration>6196</duration>
					<rate>
						<ntsc>TRUE</ntsc>
						<timebase>30</timebase>
					</rate>
					<in>971</in>
					<out>2511</out>
					<start>14775</start>
					<end>16315</end>
					<masterclipid>STE-017.wav6</masterclipid>
					<logginginfo>
						<scene/>
						<shottake/>
						<lognote/>
						<good>FALSE</good>
					</logginginfo>
					<labels>
						<label2/>
					</labels>
					<comments>
						<mastercomment1/>
						<mastercomment2/>
						<mastercomment3/>
						<mastercomment4/>
					</comments>
					<file id="STE-017 1">
						<name>STE-017.wav</name>
						<pathurl>file://localhost/Volumes/FILMS/FROM%20AWAY/FROM%20AWAY%20AUDIO/STE-017.wav</pathurl>
						<rate>
							<timebase>24</timebase>
						</rate>
						<duration>4957</duration>
						<timecode>
							<rate>
								<timebase>24</timebase>
							</rate>
							<string>00:00:00:00</string>
							<frame>0</frame>
							<displayformat>NDF</displayformat>
							<source>source</source>
						</timecode>
						<media>
							<audio>
								<samplecharacteristics>
									<samplerate>44100</samplerate>
									<depth>16</depth>
								</samplecharacteristics>
								<channelcount>2</channelcount>
							</audio>
						</media>
					</file>
					<marker>
						<name>Marker 2</name>
						<comment/>
						<color>
							<alpha>0</alpha>
							<red>255</red>
							<green>0</green>
							<blue>0</blue>
						</color>
						<in>904</in>
						<out>-1</out>
					</marker>
					<marker>
						<name>Marker 3</name>
						<comment/>
						<color>
							<alpha>0</alpha>
							<red>255</red>
							<green>0</green>
							<blue>0</blue>
						</color>
						<in>919</in>
						<out>-1</out>
					</marker>
					<marker>
						<name>Marker 1</name>
						<comment/>
						<color>
							<alpha>0</alpha>
							<red>255</red>
							<green>0</green>
							<blue>0</blue>
						</color>
						<in>2485</in>
						<out>-1</out>
					</marker>
					<filter>
						<effect>
							<name>Audio Levels</name>
							<effectid>audiolevels</effectid>
							<effectcategory>audiolevels</effectcategory>
							<effecttype>audiolevels</effecttype>
							<mediatype>audio</mediatype>
							<parameter>
								<name>Level</name>
								<parameterid>level</parameterid>
								<valuemin>0</valuemin>
								<valuemax>3.98109</valuemax>
								<value>1.25893</value>
							</parameter>
						</effect>
					</filter>
					<filter>
						<effect>
							<name>Audio Pan</name>
							<effectid>audiopan</effectid>
							<effectcategory>audiopan</effectcategory>
							<effecttype>audiopan</effecttype>
							<mediatype>audio</mediatype>
							<parameter>
								<name>Pan</name>
								<parameterid>pan</parameterid>
								<valuemin>-1</valuemin>
								<valuemax>1</valuemax>
								<value>-1</value>
							</parameter>
						</effect>
					</filter>
					<sourcetrack>
						<mediatype>audio</mediatype>
						<trackindex>1</trackindex>
					</sourcetrack>
					<link>
						<linkclipref>STE-017.wav5</linkclipref>
						<mediatype>audio</mediatype>
						<trackindex>5</trackindex>
						<clipindex>15</clipindex>
						<groupindex>1</groupindex>
					</link>
					<link>
						<linkclipref>STE-017.wav7</linkclipref>
						<mediatype>audio</mediatype>
						<trackindex>6</trackindex>
						<clipindex>17</clipindex>
						<groupindex>1</groupindex>
					</link>
					<itemhistory>
						<uuid>0A287F2D-FCE8-43A5-88FE-DBB3BAF73B02</uuid>
						<uuid>CA2A20DB-05F4-4DB6-849E-FE43B05612A5</uuid>
					</itemhistory>
				</clipitem>
				<clipitem id="STE-029.wav">
					<name>STE-029.wav</name>
					<duration>1568</duration>
					<rate>
						<ntsc>TRUE</ntsc>
						<timebase>30</timebase>
					</rate>
					<in>537</in>
					<out>586</out>
					<start>16514</start>
					<end>16563</end>
					<subframeoffset>0</subframeoffset>
					<enabled>TRUE</enabled>
					<masterclipid>STE-029.wav1</masterclipid>
					<logginginfo>
						<scene/>
						<shottake/>
						<lognote/>
						<good>FALSE</good>
					</logginginfo>
					<labels>
						<label2/>
					</labels>
					<comments>
						<mastercomment1/>
						<mastercomment2/>
						<mastercomment3/>
						<mastercomment4/>
					</comments>
					<file id="STE-029 ">
						<name>STE-029.wav</name>
						<pathurl>file://localhost/Volumes/FILMS/FROM%20AWAY/FROM%20AWAY%20AUDIO/STE-029.wav</pathurl>
						<rate>
							<timebase>24</timebase>
						</rate>
						<duration>1255</duration>
						<timecode>
							<rate>
								<timebase>24</timebase>
							</rate>
							<string>00:00:00:00</string>
							<frame>0</frame>
							<displayformat>NDF</displayformat>
							<source>source</source>
						</timecode>
						<media>
							<audio>
								<samplecharacteristics>
									<samplerate>44100</samplerate>
									<depth>16</depth>
								</samplecharacteristics>
								<channelcount>2</channelcount>
							</audio>
						</media>
					</file>
					<marker>
						<name>Marker 1</name>
						<comment/>
						<color>
							<alpha>0</alpha>
							<red>255</red>
							<green>0</green>
							<blue>0</blue>
						</color>
						<in>567</in>
						<out>-1</out>
					</marker>
					<filter>
						<effect>
							<name>Audio Levels</name>
							<effectid>audiolevels</effectid>
							<effectcategory>audiolevels</effectcategory>
							<effecttype>audiolevels</effecttype>
							<mediatype>audio</mediatype>
							<parameter>
								<name>Level</name>
								<parameterid>level</parameterid>
								<valuemin>0</valuemin>
								<valuemax>3.98109</valuemax>
								<value>1.99526</value>
							</parameter>
						</effect>
					</filter>
					<filter>
						<effect>
							<name>Audio Pan</name>
							<effectid>audiopan</effectid>
							<effectcategory>audiopan</effectcategory>
							<effecttype>audiopan</effecttype>
							<mediatype>audio</mediatype>
							<parameter>
								<name>Pan</name>
								<parameterid>pan</parameterid>
								<valuemin>-1</valuemin>
								<valuemax>1</valuemax>
								<value>-1</value>
							</parameter>
						</effect>
					</filter>
					<sourcetrack>
						<mediatype>audio</mediatype>
						<trackindex>1</trackindex>
					</sourcetrack>
					<link>
						<linkclipref>STE-029.wav</linkclipref>
						<mediatype>audio</mediatype>
						<trackindex>5</trackindex>
						<clipindex>16</clipindex>
						<groupindex>1</groupindex>
					</link>
					<link>
						<linkclipref>STE-029.wav2</linkclipref>
						<mediatype>audio</mediatype>
						<trackindex>6</trackindex>
						<clipindex>18</clipindex>
						<groupindex>1</groupindex>
					</link>
					<itemhistory>
						<uuid>B0C45D2C-693A-453D-9EDD-31A57938D538</uuid>
					</itemhistory>
				</clipitem>
				<clipitem id="STE-007.wav5">
					<name>STE-007.wav</name>
					<duration>754</duration>
					<rate>
						<ntsc>TRUE</ntsc>
						<timebase>30</timebase>
					</rate>
					<in>498</in>
					<out>535</out>
					<start>16799</start>
					<end>16836</end>
					<subframeoffset>0</subframeoffset>
					<masterclipid>STE-007.wav1</masterclipid>
					<logginginfo>
						<scene/>
						<shottake/>
						<lognote/>
						<good>FALSE</good>
					</logginginfo>
					<labels>
						<label2/>
					</labels>
					<comments>
						<mastercomment1/>
						<mastercomment2/>
						<mastercomment3/>
						<mastercomment4/>
					</comments>
					<file id="STE-007 "/>
					<filter>
						<effect>
							<name>Audio Levels</name>
							<effectid>audiolevels</effectid>
							<effectcategory>audiolevels</effectcategory>
							<effecttype>audiolevels</effecttype>
							<mediatype>audio</mediatype>
							<parameter>
								<name>Level</name>
								<parameterid>level</parameterid>
								<valuemin>0</valuemin>
								<valuemax>3.98109</valuemax>
								<value>1</value>
							</parameter>
						</effect>
					</filter>
					<filter>
						<effect>
							<name>Audio Pan</name>
							<effectid>audiopan</effectid>
							<effectcategory>audiopan</effectcategory>
							<effecttype>audiopan</effecttype>
							<mediatype>audio</mediatype>
							<parameter>
								<name>Pan</name>
								<parameterid>pan</parameterid>
								<valuemin>-1</valuemin>
								<valuemax>1</valuemax>
								<value>-1</value>
							</parameter>
						</effect>
					</filter>
					<sourcetrack>
						<mediatype>audio</mediatype>
						<trackindex>1</trackindex>
					</sourcetrack>
					<link>
						<linkclipref>STE-007.wav5</linkclipref>
						<mediatype>audio</mediatype>
						<trackindex>5</trackindex>
						<clipindex>17</clipindex>
						<groupindex>1</groupindex>
					</link>
					<link>
						<linkclipref>STE-007.wav6</linkclipref>
						<mediatype>audio</mediatype>
						<trackindex>6</trackindex>
						<clipindex>19</clipindex>
						<groupindex>1</groupindex>
					</link>
					<itemhistory>
						<uuid>A8DB7E91-EFC6-4530-B0FF-341DC0D63F98</uuid>
					</itemhistory>
				</clipitem>
				<clipitem id="STE-008.wav">
					<name>STE-008.wav</name>
					<duration>2078</duration>
					<rate>
						<ntsc>TRUE</ntsc>
						<timebase>30</timebase>
					</rate>
					<in>536</in>
					<out>658</out>
					<start>16857</start>
					<end>16979</end>
					<subframeoffset>0</subframeoffset>
					<masterclipid>STE-008.wav1</masterclipid>
					<logginginfo>
						<scene/>
						<shottake/>
						<lognote/>
						<good>FALSE</good>
					</logginginfo>
					<labels>
						<label2/>
					</labels>
					<comments>
						<mastercomment1/>
						<mastercomment2/>
						<mastercomment3/>
						<mastercomment4/>
					</comments>
					<file id="STE-008 ">
						<name>STE-008.wav</name>
						<pathurl>file://localhost/Volumes/FILMS/FROM%20AWAY/FROM%20AWAY%20AUDIO/STE-008.wav</pathurl>
						<rate>
							<timebase>24</timebase>
						</rate>
						<duration>1662</duration>
						<timecode>
							<rate>
								<timebase>24</timebase>
							</rate>
							<string>00:00:00:00</string>
							<frame>0</frame>
							<displayformat>NDF</displayformat>
							<source>source</source>
						</timecode>
						<media>
							<audio>
								<samplecharacteristics>
									<samplerate>44100</samplerate>
									<depth>16</depth>
								</samplecharacteristics>
								<channelcount>2</channelcount>
							</audio>
						</media>
					</file>
					<marker>
						<name>Marker 1</name>
						<comment/>
						<color>
							<alpha>0</alpha>
							<red>255</red>
							<green>0</green>
							<blue>0</blue>
						</color>
						<in>544</in>
						<out>-1</out>
					</marker>
					<filter>
						<effect>
							<name>Audio Levels</name>
							<effectid>audiolevels</effectid>
							<effectcategory>audiolevels</effectcategory>
							<effecttype>audiolevels</effecttype>
							<mediatype>audio</mediatype>
							<parameter>
								<name>Level</name>
								<parameterid>level</parameterid>
								<valuemin>0</valuemin>
								<valuemax>3.98109</valuemax>
								<value>3.98107</value>
							</parameter>
						</effect>
					</filter>
					<filter>
						<effect>
							<name>Audio Pan</name>
							<effectid>audiopan</effectid>
							<effectcategory>audiopan</effectcategory>
							<effecttype>audiopan</effecttype>
							<mediatype>audio</mediatype>
							<parameter>
								<name>Pan</name>
								<parameterid>pan</parameterid>
								<valuemin>-1</valuemin>
								<valuemax>1</valuemax>
								<value>-1</value>
							</parameter>
						</effect>
					</filter>
					<sourcetrack>
						<mediatype>audio</mediatype>
						<trackindex>1</trackindex>
					</sourcetrack>
					<link>
						<linkclipref>STE-008.wav</linkclipref>
						<mediatype>audio</mediatype>
						<trackindex>5</trackindex>
						<clipindex>18</clipindex>
						<groupindex>1</groupindex>
					</link>
					<link>
						<linkclipref>STE-008.wav2</linkclipref>
						<mediatype>audio</mediatype>
						<trackindex>6</trackindex>
						<clipindex>20</clipindex>
						<groupindex>1</groupindex>
					</link>
					<itemhistory>
						<uuid>AE9F9BF9-8E35-4652-A02E-7860567D20D5</uuid>
					</itemhistory>
				</clipitem>
				<clipitem id="STE-006.wav3">
					<name>STE-006.wav</name>
					<duration>1758</duration>
					<rate>
						<ntsc>TRUE</ntsc>
						<timebase>30</timebase>
					</rate>
					<in>238</in>
					<out>270</out>
					<start>17168</start>
					<end>17200</end>
					<subframeoffset>0</subframeoffset>
					<masterclipid>STE-006.wav1</masterclipid>
					<logginginfo>
						<scene/>
						<shottake/>
						<lognote/>
						<good>FALSE</good>
					</logginginfo>
					<labels>
						<label2/>
					</labels>
					<comments>
						<mastercomment1/>
						<mastercomment2/>
						<mastercomment3/>
						<mastercomment4/>
					</comments>
					<file id="STE-006 "/>
					<filter>
						<effect>
							<name>Audio Levels</name>
							<effectid>audiolevels</effectid>
							<effectcategory>audiolevels</effectcategory>
							<effecttype>audiolevels</effecttype>
							<mediatype>audio</mediatype>
							<parameter>
								<name>Level</name>
								<parameterid>level</parameterid>
								<valuemin>0</valuemin>
								<valuemax>3.98109</valuemax>
								<value>2.81838</value>
							</parameter>
						</effect>
					</filter>
					<filter>
						<effect>
							<name>Audio Pan</name>
							<effectid>audiopan</effectid>
							<effectcategory>audiopan</effectcategory>
							<effecttype>audiopan</effecttype>
							<mediatype>audio</mediatype>
							<parameter>
								<name>Pan</name>
								<parameterid>pan</parameterid>
								<valuemin>-1</valuemin>
								<valuemax>1</valuemax>
								<value>-1</value>
							</parameter>
						</effect>
					</filter>
					<sourcetrack>
						<mediatype>audio</mediatype>
						<trackindex>1</trackindex>
					</sourcetrack>
					<link>
						<linkclipref>STE-006.wav3</linkclipref>
						<mediatype>audio</mediatype>
						<trackindex>5</trackindex>
						<clipindex>19</clipindex>
						<groupindex>1</groupindex>
					</link>
					<link>
						<linkclipref>STE-006.wav4</linkclipref>
						<mediatype>audio</mediatype>
						<trackindex>6</trackindex>
						<clipindex>21</clipindex>
						<groupindex>1</groupindex>
					</link>
					<itemhistory>
						<uuid>DFF9AE32-6FA5-45E2-9423-172AB601E73A</uuid>
					</itemhistory>
				</clipitem>
				<clipitem id="STE-007.wav7">
					<name>STE-007.wav</name>
					<duration>754</duration>
					<rate>
						<ntsc>TRUE</ntsc>
						<timebase>30</timebase>
					</rate>
					<in>583</in>
					<out>637</out>
					<start>17278</start>
					<end>17332</end>
					<subframeoffset>0</subframeoffset>
					<masterclipid>STE-007.wav1</masterclipid>
					<logginginfo>
						<scene/>
						<shottake/>
						<lognote/>
						<good>FALSE</good>
					</logginginfo>
					<labels>
						<label2/>
					</labels>
					<comments>
						<mastercomment1/>
						<mastercomment2/>
						<mastercomment3/>
						<mastercomment4/>
					</comments>
					<file id="STE-007 "/>
					<marker>
						<name>Marker 1</name>
						<comment/>
						<color>
							<alpha>0</alpha>
							<red>255</red>
							<green>0</green>
							<blue>0</blue>
						</color>
						<in>583</in>
						<out>-1</out>
					</marker>
					<filter>
						<effect>
							<name>Audio Levels</name>
							<effectid>audiolevels</effectid>
							<effectcategory>audiolevels</effectcategory>
							<effecttype>audiolevels</effecttype>
							<mediatype>audio</mediatype>
							<parameter>
								<name>Level</name>
								<parameterid>level</parameterid>
								<valuemin>0</valuemin>
								<valuemax>3.98109</valuemax>
								<value>1</value>
							</parameter>
						</effect>
					</filter>
					<filter>
						<effect>
							<name>Audio Pan</name>
							<effectid>audiopan</effectid>
							<effectcategory>audiopan</effectcategory>
							<effecttype>audiopan</effecttype>
							<mediatype>audio</mediatype>
							<parameter>
								<name>Pan</name>
								<parameterid>pan</parameterid>
								<valuemin>-1</valuemin>
								<valuemax>1</valuemax>
								<value>-0.976471</value>
							</parameter>
						</effect>
					</filter>
					<sourcetrack>
						<mediatype>audio</mediatype>
						<trackindex>1</trackindex>
					</sourcetrack>
					<link>
						<linkclipref>STE-007.wav7</linkclipref>
						<mediatype>audio</mediatype>
						<trackindex>5</trackindex>
						<clipindex>20</clipindex>
						<groupindex>1</groupindex>
					</link>
					<link>
						<linkclipref>STE-007.wav8</linkclipref>
						<mediatype>audio</mediatype>
						<trackindex>6</trackindex>
						<clipindex>22</clipindex>
						<groupindex>1</groupindex>
					</link>
					<itemhistory>
						<uuid>0EE05F68-B582-4F01-95B0-78926209769F</uuid>
					</itemhistory>
				</clipitem>
				<clipitem id="STE-006.wav5">
					<name>STE-006.wav</name>
					<duration>1758</duration>
					<rate>
						<ntsc>TRUE</ntsc>
						<timebase>30</timebase>
					</rate>
					<in>752</in>
					<out>831</out>
					<start>17429</start>
					<end>17508</end>
					<subframeoffset>0</subframeoffset>
					<masterclipid>STE-006.wav1</masterclipid>
					<logginginfo>
						<scene/>
						<shottake/>
						<lognote/>
						<good>FALSE</good>
					</logginginfo>
					<labels>
						<label2/>
					</labels>
					<comments>
						<mastercomment1/>
						<mastercomment2/>
						<mastercomment3/>
						<mastercomment4/>
					</comments>
					<file id="STE-006 "/>
					<filter>
						<effect>
							<name>Audio Levels</name>
							<effectid>audiolevels</effectid>
							<effectcategory>audiolevels</effectcategory>
							<effecttype>audiolevels</effecttype>
							<mediatype>audio</mediatype>
							<parameter>
								<name>Level</name>
								<parameterid>level</parameterid>
								<valuemin>0</valuemin>
								<valuemax>3.98109</valuemax>
								<value>2.81838</value>
							</parameter>
						</effect>
					</filter>
					<filter>
						<effect>
							<name>Audio Pan</name>
							<effectid>audiopan</effectid>
							<effectcategory>audiopan</effectcategory>
							<effecttype>audiopan</effecttype>
							<mediatype>audio</mediatype>
							<parameter>
								<name>Pan</name>
								<parameterid>pan</parameterid>
								<valuemin>-1</valuemin>
								<valuemax>1</valuemax>
								<value>-1</value>
							</parameter>
						</effect>
					</filter>
					<sourcetrack>
						<mediatype>audio</mediatype>
						<trackindex>1</trackindex>
					</sourcetrack>
					<link>
						<linkclipref>STE-006.wav5</linkclipref>
						<mediatype>audio</mediatype>
						<trackindex>5</trackindex>
						<clipindex>21</clipindex>
						<groupindex>1</groupindex>
					</link>
					<link>
						<linkclipref>STE-006.wav6</linkclipref>
						<mediatype>audio</mediatype>
						<trackindex>6</trackindex>
						<clipindex>23</clipindex>
						<groupindex>1</groupindex>
					</link>
					<itemhistory>
						<uuid>384D43D6-348D-40DA-BCA9-6AA04FA8E70C</uuid>
					</itemhistory>
				</clipitem>
				<clipitem id="STE-007.wav9">
					<name>STE-007.wav</name>
					<duration>754</duration>
					<rate>
						<ntsc>TRUE</ntsc>
						<timebase>30</timebase>
					</rate>
					<in>261</in>
					<out>294</out>
					<start>17667</start>
					<end>17700</end>
					<subframeoffset>0</subframeoffset>
					<masterclipid>STE-007.wav1</masterclipid>
					<logginginfo>
						<scene/>
						<shottake/>
						<lognote/>
						<good>FALSE</good>
					</logginginfo>
					<labels>
						<label2/>
					</labels>
					<comments>
						<mastercomment1/>
						<mastercomment2/>
						<mastercomment3/>
						<mastercomment4/>
					</comments>
					<file id="STE-007 "/>
					<filter>
						<effect>
							<name>Audio Levels</name>
							<effectid>audiolevels</effectid>
							<effectcategory>audiolevels</effectcategory>
							<effecttype>audiolevels</effecttype>
							<mediatype>audio</mediatype>
							<parameter>
								<name>Level</name>
								<parameterid>level</parameterid>
								<valuemin>0</valuemin>
								<valuemax>3.98109</valuemax>
								<value>1</value>
							</parameter>
						</effect>
					</filter>
					<filter>
						<effect>
							<name>Audio Pan</name>
							<effectid>audiopan</effectid>
							<effectcategory>audiopan</effectcategory>
							<effecttype>audiopan</effecttype>
							<mediatype>audio</mediatype>
							<parameter>
								<name>Pan</name>
								<parameterid>pan</parameterid>
								<valuemin>-1</valuemin>
								<valuemax>1</valuemax>
								<value>-1</value>
							</parameter>
						</effect>
					</filter>
					<sourcetrack>
						<mediatype>audio</mediatype>
						<trackindex>1</trackindex>
					</sourcetrack>
					<link>
						<linkclipref>STE-007.wav9</linkclipref>
						<mediatype>audio</mediatype>
						<trackindex>5</trackindex>
						<clipindex>22</clipindex>
						<groupindex>1</groupindex>
					</link>
					<link>
						<linkclipref>STE-007.wav10</linkclipref>
						<mediatype>audio</mediatype>
						<trackindex>6</trackindex>
						<clipindex>24</clipindex>
						<groupindex>1</groupindex>
					</link>
					<itemhistory>
						<uuid>45814AAA-5EF7-464F-B681-03EAD2CE97DE</uuid>
					</itemhistory>
				</clipitem>
				<clipitem id="STE-008.wav3">
					<name>STE-008.wav</name>
					<duration>2077</duration>
					<rate>
						<ntsc>TRUE</ntsc>
						<timebase>30</timebase>
					</rate>
					<in>1326</in>
					<out>1452</out>
					<start>17933</start>
					<end>18059</end>
					<subframeoffset>0</subframeoffset>
					<masterclipid>STE-008.wav1</masterclipid>
					<logginginfo>
						<scene/>
						<shottake/>
						<lognote/>
						<good>FALSE</good>
					</logginginfo>
					<labels>
						<label2/>
					</labels>
					<comments>
						<mastercomment1/>
						<mastercomment2/>
						<mastercomment3/>
						<mastercomment4/>
					</comments>
					<file id="STE-008 "/>
					<filter>
						<effect>
							<name>Audio Levels</name>
							<effectid>audiolevels</effectid>
							<effectcategory>audiolevels</effectcategory>
							<effecttype>audiolevels</effecttype>
							<mediatype>audio</mediatype>
							<parameter>
								<name>Level</name>
								<parameterid>level</parameterid>
								<valuemin>0</valuemin>
								<valuemax>3.98109</valuemax>
								<value>0.630957</value>
							</parameter>
						</effect>
					</filter>
					<filter>
						<effect>
							<name>Audio Pan</name>
							<effectid>audiopan</effectid>
							<effectcategory>audiopan</effectcategory>
							<effecttype>audiopan</effecttype>
							<mediatype>audio</mediatype>
							<parameter>
								<name>Pan</name>
								<parameterid>pan</parameterid>
								<valuemin>-1</valuemin>
								<valuemax>1</valuemax>
								<value>-1</value>
							</parameter>
						</effect>
					</filter>
					<sourcetrack>
						<mediatype>audio</mediatype>
						<trackindex>1</trackindex>
					</sourcetrack>
					<link>
						<linkclipref>STE-008.wav3</linkclipref>
						<mediatype>audio</mediatype>
						<trackindex>5</trackindex>
						<clipindex>23</clipindex>
						<groupindex>1</groupindex>
					</link>
					<link>
						<linkclipref>STE-008.wav4</linkclipref>
						<mediatype>audio</mediatype>
						<trackindex>6</trackindex>
						<clipindex>25</clipindex>
						<groupindex>1</groupindex>
					</link>
					<itemhistory>
						<uuid>CCDE3329-447C-4208-BE17-B840C167DE33</uuid>
					</itemhistory>
				</clipitem>
				<clipitem id="STE-009.wav">
					<name>STE-009.wav</name>
					<duration>1883</duration>
					<rate>
						<ntsc>TRUE</ntsc>
						<timebase>30</timebase>
					</rate>
					<in>1105</in>
					<out>1549</out>
					<start>18928</start>
					<end>19372</end>
					<subframeoffset>0</subframeoffset>
					<masterclipid>STE-009.wav1</masterclipid>
					<logginginfo>
						<scene/>
						<shottake/>
						<lognote/>
						<good>FALSE</good>
					</logginginfo>
					<labels>
						<label2/>
					</labels>
					<comments>
						<mastercomment1/>
						<mastercomment2/>
						<mastercomment3/>
						<mastercomment4/>
					</comments>
					<file id="STE-009 ">
						<name>STE-009.wav</name>
						<pathurl>file://localhost/Volumes/FILMS/FROM%20AWAY/FROM%20AWAY%20AUDIO/STE-009.wav</pathurl>
						<rate>
							<timebase>24</timebase>
						</rate>
						<duration>1507</duration>
						<timecode>
							<rate>
								<timebase>24</timebase>
							</rate>
							<string>00:00:00:00</string>
							<frame>0</frame>
							<displayformat>NDF</displayformat>
							<source>source</source>
						</timecode>
						<media>
							<audio>
								<samplecharacteristics>
									<samplerate>44100</samplerate>
									<depth>16</depth>
								</samplecharacteristics>
								<channelcount>2</channelcount>
							</audio>
						</media>
					</file>
					<filter>
						<effect>
							<name>Audio Levels</name>
							<effectid>audiolevels</effectid>
							<effectcategory>audiolevels</effectcategory>
							<effecttype>audiolevels</effecttype>
							<mediatype>audio</mediatype>
							<parameter>
								<name>Level</name>
								<parameterid>level</parameterid>
								<valuemin>0</valuemin>
								<valuemax>3.98109</valuemax>
								<value>0.630957</value>
							</parameter>
						</effect>
					</filter>
					<filter>
						<effect>
							<name>Audio Pan</name>
							<effectid>audiopan</effectid>
							<effectcategory>audiopan</effectcategory>
							<effecttype>audiopan</effecttype>
							<mediatype>audio</mediatype>
							<parameter>
								<name>Pan</name>
								<parameterid>pan</parameterid>
								<valuemin>-1</valuemin>
								<valuemax>1</valuemax>
								<value>-1</value>
							</parameter>
						</effect>
					</filter>
					<sourcetrack>
						<mediatype>audio</mediatype>
						<trackindex>1</trackindex>
					</sourcetrack>
					<link>
						<linkclipref>STE-009.wav</linkclipref>
						<mediatype>audio</mediatype>
						<trackindex>5</trackindex>
						<clipindex>24</clipindex>
						<groupindex>1</groupindex>
					</link>
					<link>
						<linkclipref>STE-009.wav2</linkclipref>
						<mediatype>audio</mediatype>
						<trackindex>6</trackindex>
						<clipindex>26</clipindex>
						<groupindex>1</groupindex>
					</link>
					<itemhistory>
						<uuid>81A0DE48-0054-4117-A325-9A173808D8B1</uuid>
					</itemhistory>
				</clipitem>
				<enabled>TRUE</enabled>
				<locked>FALSE</locked>
				<outputchannelindex>1</outputchannelindex>
			</track>
			<track>
				<transitionitem>
					<rate>
						<ntsc>TRUE</ntsc>
						<timebase>30</timebase>
					</rate>
					<start>147</start>
					<end>200</end>
					<alignment>start</alignment>
					<effect>
						<name>Cross Fade (+3dB)</name>
						<effectid>KGAudioTransCrossFade3dB</effectid>
						<effecttype>transition</effecttype>
						<mediatype>audio</mediatype>
					</effect>
				</transitionitem>
				<clipitem id="crwaves4.wav4">
					<name>crwaves4.wav</name>
					<duration>2221</duration>
					<rate>
						<ntsc>TRUE</ntsc>
						<timebase>30</timebase>
					</rate>
					<in>365</in>
					<out>1458</out>
					<start>-1</start>
					<end>-1</end>
					<subframeoffset>0</subframeoffset>
					<enabled>TRUE</enabled>
					<masterclipid>crwaves4.wav1</masterclipid>
					<logginginfo>
						<scene/>
						<shottake/>
						<lognote/>
						<good>FALSE</good>
					</logginginfo>
					<labels>
						<label2/>
					</labels>
					<comments>
						<mastercomment1/>
						<mastercomment2/>
						<mastercomment3/>
						<mastercomment4/>
					</comments>
					<file id="crwaves4 "/>
					<filter>
						<effect>
							<name>Audio Levels</name>
							<effectid>audiolevels</effectid>
							<effectcategory>audiolevels</effectcategory>
							<effecttype>audiolevels</effecttype>
							<mediatype>audio</mediatype>
							<parameter>
								<name>Level</name>
								<parameterid>level</parameterid>
								<valuemin>0</valuemin>
								<valuemax>3.98109</valuemax>
								<keyframe>
									<when>856</when>
									<value>0.251189</value>
								</keyframe>
								<keyframe>
									<when>885</when>
									<value>0.501187</value>
								</keyframe>
								<interpolation>
									<name>FCPCurve</name>
								</interpolation>
								<value>0.501187</value>
							</parameter>
						</effect>
					</filter>
					<filter>
						<effect>
							<name>Audio Pan</name>
							<effectid>audiopan</effectid>
							<effectcategory>audiopan</effectcategory>
							<effecttype>audiopan</effecttype>
							<mediatype>audio</mediatype>
							<parameter>
								<name>Pan</name>
								<parameterid>pan</parameterid>
								<valuemin>-1</valuemin>
								<valuemax>1</valuemax>
								<value>0.98</value>
							</parameter>
						</effect>
					</filter>
					<sourcetrack>
						<mediatype>audio</mediatype>
						<trackindex>2</trackindex>
					</sourcetrack>
					<link>
						<linkclipref>crwaves4.wav3</linkclipref>
						<mediatype>audio</mediatype>
						<trackindex>5</trackindex>
						<clipindex>2</clipindex>
						<groupindex>1</groupindex>
					</link>
					<link>
						<linkclipref>crwaves4.wav4</linkclipref>
						<mediatype>audio</mediatype>
						<trackindex>6</trackindex>
						<clipindex>2</clipindex>
						<groupindex>1</groupindex>
					</link>
					<itemhistory>
						<uuid>714DFB03-7EBC-4315-BC05-104F391C5439</uuid>
					</itemhistory>
				</clipitem>
				<transitionitem>
					<rate>
						<ntsc>TRUE</ntsc>
						<timebase>30</timebase>
					</rate>
					<start>1094</start>
					<end>1240</end>
					<alignment>end-black</alignment>
					<effect>
						<name>Cross Fade (+3dB)</name>
						<effectid>KGAudioTransCrossFade3dB</effectid>
						<effecttype>transition</effecttype>
						<mediatype>audio</mediatype>
					</effect>
				</transitionitem>
				<transitionitem>
					<rate>
						<ntsc>TRUE</ntsc>
						<timebase>30</timebase>
					</rate>
					<start>2913</start>
					<end>2916</end>
					<alignment>start-black</alignment>
					<effect>
						<name>Cross Fade (+3dB)</name>
						<effectid>KGAudioTransCrossFade3dB</effectid>
						<effecttype>transition</effecttype>
						<mediatype>audio</mediatype>
					</effect>
				</transitionitem>
				<clipitem id="STE-015.wav4">
					<name>STE-015.wav</name>
					<duration>13609</duration>
					<rate>
						<ntsc>TRUE</ntsc>
						<timebase>30</timebase>
					</rate>
					<in>11081</in>
					<out>12657</out>
					<start>-1</start>
					<end>4489</end>
					<subframeoffset>0</subframeoffset>
					<enabled>TRUE</enabled>
					<masterclipid>STE-015.wav1</masterclipid>
					<logginginfo>
						<scene/>
						<shottake/>
						<lognote/>
						<good>FALSE</good>
					</logginginfo>
					<labels>
						<label2/>
					</labels>
					<comments>
						<mastercomment1/>
						<mastercomment2/>
						<mastercomment3/>
						<mastercomment4/>
					</comments>
					<file id="STE-015 "/>
					<filter>
						<effect>
							<name>Audio Levels</name>
							<effectid>audiolevels</effectid>
							<effectcategory>audiolevels</effectcategory>
							<effecttype>audiolevels</effecttype>
							<mediatype>audio</mediatype>
							<parameter>
								<name>Level</name>
								<parameterid>level</parameterid>
								<valuemin>0</valuemin>
								<valuemax>3.98109</valuemax>
								<value>0.794328</value>
							</parameter>
						</effect>
					</filter>
					<filter>
						<effect>
							<name>Audio Pan</name>
							<effectid>audiopan</effectid>
							<effectcategory>audiopan</effectcategory>
							<effecttype>audiopan</effecttype>
							<mediatype>audio</mediatype>
							<parameter>
								<name>Pan</name>
								<parameterid>pan</parameterid>
								<valuemin>-1</valuemin>
								<valuemax>1</valuemax>
								<value>0.981567</value>
							</parameter>
						</effect>
					</filter>
					<sourcetrack>
						<mediatype>audio</mediatype>
						<trackindex>2</trackindex>
					</sourcetrack>
					<link>
						<linkclipref>STE-015.wav3</linkclipref>
						<mediatype>audio</mediatype>
						<trackindex>5</trackindex>
						<clipindex>5</clipindex>
						<groupindex>1</groupindex>
					</link>
					<link>
						<linkclipref>STE-015.wav4</linkclipref>
						<mediatype>audio</mediatype>
						<trackindex>6</trackindex>
						<clipindex>5</clipindex>
						<groupindex>1</groupindex>
					</link>
					<itemhistory>
						<uuid>6C99C1A4-30F8-443E-B50A-9CCEC81F02B5</uuid>
					</itemhistory>
				</clipitem>
				<clipitem id="STE-016.wav2">
					<name>STE-016.wav</name>
					<duration>1358</duration>
					<rate>
						<ntsc>TRUE</ntsc>
						<timebase>30</timebase>
					</rate>
					<in>403</in>
					<out>1358</out>
					<start>5249</start>
					<end>-1</end>
					<masterclipid>STE-016.wav1</masterclipid>
					<logginginfo>
						<scene/>
						<shottake/>
						<lognote/>
						<good>FALSE</good>
					</logginginfo>
					<labels>
						<label2/>
					</labels>
					<comments>
						<mastercomment1/>
						<mastercomment2/>
						<mastercomment3/>
						<mastercomment4/>
					</comments>
					<file id="STE-016 "/>
					<filter>
						<effect>
							<name>Audio Levels</name>
							<effectid>audiolevels</effectid>
							<effectcategory>audiolevels</effectcategory>
							<effecttype>audiolevels</effecttype>
							<mediatype>audio</mediatype>
							<parameter>
								<name>Level</name>
								<parameterid>level</parameterid>
								<valuemin>0</valuemin>
								<valuemax>3.98109</valuemax>
								<value>0.0446684</value>
							</parameter>
						</effect>
					</filter>
					<filter>
						<effect>
							<name>Audio Pan</name>
							<effectid>audiopan</effectid>
							<effectcategory>audiopan</effectcategory>
							<effecttype>audiopan</effecttype>
							<mediatype>audio</mediatype>
							<parameter>
								<name>Pan</name>
								<parameterid>pan</parameterid>
								<valuemin>-1</valuemin>
								<valuemax>1</valuemax>
								<value>1</value>
							</parameter>
						</effect>
					</filter>
					<sourcetrack>
						<mediatype>audio</mediatype>
						<trackindex>2</trackindex>
					</sourcetrack>
					<link>
						<linkclipref>STE-016.wav</linkclipref>
						<mediatype>audio</mediatype>
						<trackindex>5</trackindex>
						<clipindex>6</clipindex>
						<groupindex>1</groupindex>
					</link>
					<link>
						<linkclipref>STE-016.wav2</linkclipref>
						<mediatype>audio</mediatype>
						<trackindex>6</trackindex>
						<clipindex>6</clipindex>
						<groupindex>1</groupindex>
					</link>
					<itemhistory>
						<uuid>2E369245-5A29-4EA8-9C28-7630CCD1B0F4</uuid>
					</itemhistory>
				</clipitem>
				<transitionitem>
					<rate>
						<ntsc>TRUE</ntsc>
						<timebase>30</timebase>
					</rate>
					<start>5617</start>
					<end>6204</end>
					<alignment>end-black</alignment>
					<effect>
						<name>Cross Fade (+3dB)</name>
						<effectid>KGAudioTransCrossFade3dB</effectid>
						<effecttype>transition</effecttype>
						<mediatype>audio</mediatype>
					</effect>
				</transitionitem>
				<clipitem id="STE-031.wav2">
					<name>STE-031.wav</name>
					<duration>9054</duration>
					<rate>
						<ntsc>TRUE</ntsc>
						<timebase>30</timebase>
					</rate>
					<in>2782</in>
					<out>3461</out>
					<start>6369</start>
					<end>-1</end>
					<subframeoffset>0</subframeoffset>
					<enabled>TRUE</enabled>
					<masterclipid>STE-031.wav1</masterclipid>
					<logginginfo>
						<scene/>
						<shottake/>
						<lognote/>
						<good>FALSE</good>
					</logginginfo>
					<labels>
						<label2/>
					</labels>
					<comments>
						<mastercomment1/>
						<mastercomment2/>
						<mastercomment3/>
						<mastercomment4/>
					</comments>
					<file id="STE-031 "/>
					<filter>
						<effect>
							<name>Audio Levels</name>
							<effectid>audiolevels</effectid>
							<effectcategory>audiolevels</effectcategory>
							<effecttype>audiolevels</effecttype>
							<mediatype>audio</mediatype>
							<parameter>
								<name>Level</name>
								<parameterid>level</parameterid>
								<valuemin>0</valuemin>
								<valuemax>3.98109</valuemax>
								<keyframe>
									<when>3318</when>
									<value>1</value>
								</keyframe>
								<keyframe>
									<when>3358</when>
									<value>2.51189</value>
								</keyframe>
								<interpolation>
									<name>FCPCurve</name>
								</interpolation>
								<value>2.51189</value>
							</parameter>
						</effect>
					</filter>
					<filter>
						<effect>
							<name>Audio Pan</name>
							<effectid>audiopan</effectid>
							<effectcategory>audiopan</effectcategory>
							<effecttype>audiopan</effecttype>
							<mediatype>audio</mediatype>
							<parameter>
								<name>Pan</name>
								<parameterid>pan</parameterid>
								<valuemin>-1</valuemin>
								<valuemax>1</valuemax>
								<value>1</value>
							</parameter>
						</effect>
					</filter>
					<sourcetrack>
						<mediatype>audio</mediatype>
						<trackindex>2</trackindex>
					</sourcetrack>
					<link>
						<linkclipref>STE-031.wav</linkclipref>
						<mediatype>audio</mediatype>
						<trackindex>5</trackindex>
						<clipindex>8</clipindex>
						<groupindex>1</groupindex>
					</link>
					<link>
						<linkclipref>STE-031.wav2</linkclipref>
						<mediatype>audio</mediatype>
						<trackindex>6</trackindex>
						<clipindex>8</clipindex>
						<groupindex>1</groupindex>
					</link>
					<itemhistory>
						<uuid>9D75510B-E56D-47BA-B1AE-9A55806736B1</uuid>
					</itemhistory>
				</clipitem>
				<transitionitem>
					<rate>
						<ntsc>TRUE</ntsc>
						<timebase>30</timebase>
					</rate>
					<start>6990</start>
					<end>7048</end>
					<alignment>end-black</alignment>
					<effect>
						<name>Cross Fade (+3dB)</name>
						<effectid>KGAudioTransCrossFade3dB</effectid>
						<effecttype>transition</effecttype>
						<mediatype>audio</mediatype>
					</effect>
				</transitionitem>
				<clipitem id="Cassette.aif">
					<name>Cassette.aif</name>
					<duration>35463</duration>
					<rate>
						<ntsc>TRUE</ntsc>
						<timebase>30</timebase>
					</rate>
					<in>791</in>
					<out>1168</out>
					<start>9155</start>
					<end>-1</end>
					<subframeoffset>0</subframeoffset>
					<masterclipid>Cassette.aif1</masterclipid>
					<logginginfo>
						<scene/>
						<shottake/>
						<lognote/>
						<good>FALSE</good>
					</logginginfo>
					<labels>
						<label2/>
					</labels>
					<comments>
						<mastercomment1/>
						<mastercomment2/>
						<mastercomment3/>
						<mastercomment4/>
					</comments>
					<file id="Cassette">
						<name>Cassette.aif</name>
						<pathurl>file://localhost/Volumes/FILMS/FROM%20AWAY/Finishing%20Audio/Cassette.aif</pathurl>
						<rate>
							<timebase>30</timebase>
							<ntsc>TRUE</ntsc>
						</rate>
						<duration>35463</duration>
						<media>
							<audio>
								<samplecharacteristics>
									<samplerate>96000</samplerate>
									<depth>24</depth>
								</samplecharacteristics>
								<channelcount>2</channelcount>
							</audio>
						</media>
					</file>
					<filter>
						<effect>
							<name>Audio Levels</name>
							<effectid>audiolevels</effectid>
							<effectcategory>audiolevels</effectcategory>
							<effecttype>audiolevels</effecttype>
							<mediatype>audio</mediatype>
							<parameter>
								<name>Level</name>
								<parameterid>level</parameterid>
								<valuemin>0</valuemin>
								<valuemax>3.98109</valuemax>
								<value>1</value>
							</parameter>
						</effect>
					</filter>
					<filter>
						<effect>
							<name>Audio Pan</name>
							<effectid>audiopan</effectid>
							<effectcategory>audiopan</effectcategory>
							<effecttype>audiopan</effecttype>
							<mediatype>audio</mediatype>
							<parameter>
								<name>Pan</name>
								<parameterid>pan</parameterid>
								<valuemin>-1</valuemin>
								<valuemax>1</valuemax>
								<value>-1</value>
							</parameter>
						</effect>
					</filter>
					<sourcetrack>
						<mediatype>audio</mediatype>
						<trackindex>1</trackindex>
					</sourcetrack>
					<link>
						<linkclipref>Cassette.aif</linkclipref>
						<mediatype>audio</mediatype>
						<trackindex>6</trackindex>
						<clipindex>10</clipindex>
						<groupindex>1</groupindex>
					</link>
					<link>
						<linkclipref>Cassette.aif2</linkclipref>
						<mediatype>audio</mediatype>
						<trackindex>7</trackindex>
						<clipindex>3</clipindex>
						<groupindex>1</groupindex>
					</link>
					<itemhistory>
						<uuid>56F96D49-A36D-47A3-84BC-DBFD901EE862</uuid>
					</itemhistory>
				</clipitem>
				<transitionitem>
					<rate>
						<ntsc>TRUE</ntsc>
						<timebase>30</timebase>
					</rate>
					<start>9229</start>
					<end>9532</end>
					<alignment>end-black</alignment>
					<effect>
						<name>Cross Fade (+3dB)</name>
						<effectid>KGAudioTransCrossFade3dB</effectid>
						<effecttype>transition</effecttype>
						<mediatype>audio</mediatype>
					</effect>
				</transitionitem>
				<transitionitem>
					<rate>
						<ntsc>TRUE</ntsc>
						<timebase>30</timebase>
					</rate>
					<start>10120</start>
					<end>10317</end>
					<alignment>start-black</alignment>
					<effect>
						<name>Cross Fade (+3dB)</name>
						<effectid>KGAudioTransCrossFade3dB</effectid>
						<effecttype>transition</effecttype>
						<mediatype>audio</mediatype>
					</effect>
				</transitionitem>
				<clipitem id="Cassette.aif3">
					<name>Cassette.aif</name>
					<duration>35463</duration>
					<rate>
						<ntsc>TRUE</ntsc>
						<timebase>30</timebase>
					</rate>
					<in>2589</in>
					<out>3252</out>
					<start>-1</start>
					<end>-1</end>
					<subframeoffset>0</subframeoffset>
					<masterclipid>Cassette.aif1</masterclipid>
					<logginginfo>
						<scene/>
						<shottake/>
						<lognote/>
						<good>FALSE</good>
					</logginginfo>
					<labels>
						<label2/>
					</labels>
					<comments>
						<mastercomment1/>
						<mastercomment2/>
						<mastercomment3/>
						<mastercomment4/>
					</comments>
					<file id="Cassette"/>
					<filter>
						<effect>
							<name>Audio Levels</name>
							<effectid>audiolevels</effectid>
							<effectcategory>audiolevels</effectcategory>
							<effecttype>audiolevels</effecttype>
							<mediatype>audio</mediatype>
							<parameter>
								<name>Level</name>
								<parameterid>level</parameterid>
								<valuemin>0</valuemin>
								<valuemax>3.98109</valuemax>
								<value>1</value>
							</parameter>
						</effect>
					</filter>
					<filter>
						<effect>
							<name>Audio Pan</name>
							<effectid>audiopan</effectid>
							<effectcategory>audiopan</effectcategory>
							<effecttype>audiopan</effecttype>
							<mediatype>audio</mediatype>
							<parameter>
								<name>Pan</name>
								<parameterid>pan</parameterid>
								<valuemin>-1</valuemin>
								<valuemax>1</valuemax>
								<value>-1</value>
							</parameter>
						</effect>
					</filter>
					<sourcetrack>
						<mediatype>audio</mediatype>
						<trackindex>1</trackindex>
					</sourcetrack>
					<link>
						<linkclipref>Cassette.aif3</linkclipref>
						<mediatype>audio</mediatype>
						<trackindex>6</trackindex>
						<clipindex>13</clipindex>
						<groupindex>1</groupindex>
					</link>
					<link>
						<linkclipref>Cassette.aif4</linkclipref>
						<mediatype>audio</mediatype>
						<trackindex>7</trackindex>
						<clipindex>6</clipindex>
						<groupindex>1</groupindex>
					</link>
					<itemhistory>
						<uuid>DBB59D81-55C8-407C-BF79-BDEB8AA6E9E0</uuid>
					</itemhistory>
				</clipitem>
				<transitionitem>
					<rate>
						<ntsc>TRUE</ntsc>
						<timebase>30</timebase>
					</rate>
					<start>10527</start>
					<end>10783</end>
					<alignment>end-black</alignment>
					<effect>
						<name>Cross Fade (+3dB)</name>
						<effectid>KGAudioTransCrossFade3dB</effectid>
						<effecttype>transition</effecttype>
						<mediatype>audio</mediatype>
					</effect>
				</transitionitem>
				<clipitem id="STE-012.wav4">
					<name>STE-012.wav</name>
					<duration>13503</duration>
					<rate>
						<ntsc>TRUE</ntsc>
						<timebase>30</timebase>
					</rate>
					<in>637</in>
					<out>1070</out>
					<start>11481</start>
					<end>11914</end>
					<subframeoffset>0</subframeoffset>
					<enabled>TRUE</enabled>
					<masterclipid>STE-012.wav1</masterclipid>
					<logginginfo>
						<scene/>
						<shottake/>
						<lognote/>
						<good>FALSE</good>
					</logginginfo>
					<labels>
						<label2/>
					</labels>
					<comments>
						<mastercomment1/>
						<mastercomment2/>
						<mastercomment3/>
						<mastercomment4/>
					</comments>
					<file id="STE-012 "/>
					<filter>
						<effect>
							<name>Audio Levels</name>
							<effectid>audiolevels</effectid>
							<effectcategory>audiolevels</effectcategory>
							<effecttype>audiolevels</effecttype>
							<mediatype>audio</mediatype>
							<parameter>
								<name>Level</name>
								<parameterid>level</parameterid>
								<valuemin>0</valuemin>
								<valuemax>3.98109</valuemax>
								<value>0.446684</value>
							</parameter>
						</effect>
					</filter>
					<filter>
						<effect>
							<name>Audio Pan</name>
							<effectid>audiopan</effectid>
							<effectcategory>audiopan</effectcategory>
							<effecttype>audiopan</effecttype>
							<mediatype>audio</mediatype>
							<parameter>
								<name>Pan</name>
								<parameterid>pan</parameterid>
								<valuemin>-1</valuemin>
								<valuemax>1</valuemax>
								<value>0.933333</value>
							</parameter>
						</effect>
					</filter>
					<sourcetrack>
						<mediatype>audio</mediatype>
						<trackindex>2</trackindex>
					</sourcetrack>
					<link>
						<linkclipref>STE-012.wav3</linkclipref>
						<mediatype>audio</mediatype>
						<trackindex>5</trackindex>
						<clipindex>13</clipindex>
						<groupindex>1</groupindex>
					</link>
					<link>
						<linkclipref>STE-012.wav4</linkclipref>
						<mediatype>audio</mediatype>
						<trackindex>6</trackindex>
						<clipindex>15</clipindex>
						<groupindex>1</groupindex>
					</link>
					<itemhistory>
						<uuid>D9FAF132-EFF4-49AF-AA98-CC506BDEBD47</uuid>
					</itemhistory>
				</clipitem>
				<clipitem id="STE-012.wav6">
					<name>STE-012.wav</name>
					<duration>13503</duration>
					<rate>
						<ntsc>TRUE</ntsc>
						<timebase>30</timebase>
					</rate>
					<in>3821</in>
					<out>3986</out>
					<start>12817</start>
					<end>12982</end>
					<subframeoffset>0</subframeoffset>
					<masterclipid>STE-012.wav1</masterclipid>
					<logginginfo>
						<scene/>
						<shottake/>
						<lognote/>
						<good>FALSE</good>
					</logginginfo>
					<labels>
						<label2/>
					</labels>
					<comments>
						<mastercomment1/>
						<mastercomment2/>
						<mastercomment3/>
						<mastercomment4/>
					</comments>
					<file id="STE-012 "/>
					<filter>
						<effect>
							<name>Audio Levels</name>
							<effectid>audiolevels</effectid>
							<effectcategory>audiolevels</effectcategory>
							<effecttype>audiolevels</effecttype>
							<mediatype>audio</mediatype>
							<parameter>
								<name>Level</name>
								<parameterid>level</parameterid>
								<valuemin>0</valuemin>
								<valuemax>3.98109</valuemax>
								<value>1</value>
							</parameter>
						</effect>
					</filter>
					<filter>
						<effect>
							<name>Audio Pan</name>
							<effectid>audiopan</effectid>
							<effectcategory>audiopan</effectcategory>
							<effecttype>audiopan</effecttype>
							<mediatype>audio</mediatype>
							<parameter>
								<name>Pan</name>
								<parameterid>pan</parameterid>
								<valuemin>-1</valuemin>
								<valuemax>1</valuemax>
								<value>0.965665</value>
							</parameter>
						</effect>
					</filter>
					<sourcetrack>
						<mediatype>audio</mediatype>
						<trackindex>2</trackindex>
					</sourcetrack>
					<link>
						<linkclipref>STE-012.wav5</linkclipref>
						<mediatype>audio</mediatype>
						<trackindex>5</trackindex>
						<clipindex>14</clipindex>
						<groupindex>1</groupindex>
					</link>
					<link>
						<linkclipref>STE-012.wav6</linkclipref>
						<mediatype>audio</mediatype>
						<trackindex>6</trackindex>
						<clipindex>16</clipindex>
						<groupindex>1</groupindex>
					</link>
					<itemhistory>
						<uuid>A40A48C9-8EC5-47E0-9FE2-0CABE5996506</uuid>
					</itemhistory>
				</clipitem>
				<clipitem id="STE-017.wav7">
					<name>STE-017.wav</name>
					<duration>6196</duration>
					<rate>
						<ntsc>TRUE</ntsc>
						<timebase>30</timebase>
					</rate>
					<in>971</in>
					<out>2511</out>
					<start>14775</start>
					<end>16315</end>
					<masterclipid>STE-017.wav6</masterclipid>
					<logginginfo>
						<scene/>
						<shottake/>
						<lognote/>
						<good>FALSE</good>
					</logginginfo>
					<labels>
						<label2/>
					</labels>
					<comments>
						<mastercomment1/>
						<mastercomment2/>
						<mastercomment3/>
						<mastercomment4/>
					</comments>
					<file id="STE-017 1"/>
					<marker>
						<name>Marker 2</name>
						<comment/>
						<color>
							<alpha>0</alpha>
							<red>255</red>
							<green>0</green>
							<blue>0</blue>
						</color>
						<in>904</in>
						<out>-1</out>
					</marker>
					<marker>
						<name>Marker 3</name>
						<comment/>
						<color>
							<alpha>0</alpha>
							<red>255</red>
							<green>0</green>
							<blue>0</blue>
						</color>
						<in>919</in>
						<out>-1</out>
					</marker>
					<marker>
						<name>Marker 1</name>
						<comment/>
						<color>
							<alpha>0</alpha>
							<red>255</red>
							<green>0</green>
							<blue>0</blue>
						</color>
						<in>2485</in>
						<out>-1</out>
					</marker>
					<filter>
						<effect>
							<name>Audio Levels</name>
							<effectid>audiolevels</effectid>
							<effectcategory>audiolevels</effectcategory>
							<effecttype>audiolevels</effecttype>
							<mediatype>audio</mediatype>
							<parameter>
								<name>Level</name>
								<parameterid>level</parameterid>
								<valuemin>0</valuemin>
								<valuemax>3.98109</valuemax>
								<value>1.25893</value>
							</parameter>
						</effect>
					</filter>
					<filter>
						<effect>
							<name>Audio Pan</name>
							<effectid>audiopan</effectid>
							<effectcategory>audiopan</effectcategory>
							<effecttype>audiopan</effecttype>
							<mediatype>audio</mediatype>
							<parameter>
								<name>Pan</name>
								<parameterid>pan</parameterid>
								<valuemin>-1</valuemin>
								<valuemax>1</valuemax>
								<value>1</value>
							</parameter>
						</effect>
					</filter>
					<sourcetrack>
						<mediatype>audio</mediatype>
						<trackindex>2</trackindex>
					</sourcetrack>
					<link>
						<linkclipref>STE-017.wav5</linkclipref>
						<mediatype>audio</mediatype>
						<trackindex>5</trackindex>
						<clipindex>15</clipindex>
						<groupindex>1</groupindex>
					</link>
					<link>
						<linkclipref>STE-017.wav7</linkclipref>
						<mediatype>audio</mediatype>
						<trackindex>6</trackindex>
						<clipindex>17</clipindex>
						<groupindex>1</groupindex>
					</link>
					<itemhistory>
						<uuid>85743858-CA8A-4E15-8F35-138F1E2468DB</uuid>
						<uuid>D5D0E480-1FBB-464F-92BC-3E39BC334EFF</uuid>
					</itemhistory>
				</clipitem>
				<clipitem id="STE-029.wav2">
					<name>STE-029.wav</name>
					<duration>1568</duration>
					<rate>
						<ntsc>TRUE</ntsc>
						<timebase>30</timebase>
					</rate>
					<in>537</in>
					<out>586</out>
					<start>16514</start>
					<end>16563</end>
					<subframeoffset>0</subframeoffset>
					<enabled>TRUE</enabled>
					<masterclipid>STE-029.wav1</masterclipid>
					<logginginfo>
						<scene/>
						<shottake/>
						<lognote/>
						<good>FALSE</good>
					</logginginfo>
					<labels>
						<label2/>
					</labels>
					<comments>
						<mastercomment1/>
						<mastercomment2/>
						<mastercomment3/>
						<mastercomment4/>
					</comments>
					<file id="STE-029 "/>
					<marker>
						<name>Marker 1</name>
						<comment/>
						<color>
							<alpha>0</alpha>
							<red>255</red>
							<green>0</green>
							<blue>0</blue>
						</color>
						<in>567</in>
						<out>-1</out>
					</marker>
					<filter>
						<effect>
							<name>Audio Levels</name>
							<effectid>audiolevels</effectid>
							<effectcategory>audiolevels</effectcategory>
							<effecttype>audiolevels</effecttype>
							<mediatype>audio</mediatype>
							<parameter>
								<name>Level</name>
								<parameterid>level</parameterid>
								<valuemin>0</valuemin>
								<valuemax>3.98109</valuemax>
								<value>1.99526</value>
							</parameter>
						</effect>
					</filter>
					<filter>
						<effect>
							<name>Audio Pan</name>
							<effectid>audiopan</effectid>
							<effectcategory>audiopan</effectcategory>
							<effecttype>audiopan</effecttype>
							<mediatype>audio</mediatype>
							<parameter>
								<name>Pan</name>
								<parameterid>pan</parameterid>
								<valuemin>-1</valuemin>
								<valuemax>1</valuemax>
								<value>1</value>
							</parameter>
						</effect>
					</filter>
					<sourcetrack>
						<mediatype>audio</mediatype>
						<trackindex>2</trackindex>
					</sourcetrack>
					<link>
						<linkclipref>STE-029.wav</linkclipref>
						<mediatype>audio</mediatype>
						<trackindex>5</trackindex>
						<clipindex>16</clipindex>
						<groupindex>1</groupindex>
					</link>
					<link>
						<linkclipref>STE-029.wav2</linkclipref>
						<mediatype>audio</mediatype>
						<trackindex>6</trackindex>
						<clipindex>18</clipindex>
						<groupindex>1</groupindex>
					</link>
					<itemhistory>
						<uuid>35742B5F-57E2-4548-8932-3B11D945DE68</uuid>
					</itemhistory>
				</clipitem>
				<clipitem id="STE-007.wav6">
					<name>STE-007.wav</name>
					<duration>754</duration>
					<rate>
						<ntsc>TRUE</ntsc>
						<timebase>30</timebase>
					</rate>
					<in>498</in>
					<out>535</out>
					<start>16799</start>
					<end>16836</end>
					<subframeoffset>0</subframeoffset>
					<masterclipid>STE-007.wav1</masterclipid>
					<logginginfo>
						<scene/>
						<shottake/>
						<lognote/>
						<good>FALSE</good>
					</logginginfo>
					<labels>
						<label2/>
					</labels>
					<comments>
						<mastercomment1/>
						<mastercomment2/>
						<mastercomment3/>
						<mastercomment4/>
					</comments>
					<file id="STE-007 "/>
					<filter>
						<effect>
							<name>Audio Levels</name>
							<effectid>audiolevels</effectid>
							<effectcategory>audiolevels</effectcategory>
							<effecttype>audiolevels</effecttype>
							<mediatype>audio</mediatype>
							<parameter>
								<name>Level</name>
								<parameterid>level</parameterid>
								<valuemin>0</valuemin>
								<valuemax>3.98109</valuemax>
								<value>1</value>
							</parameter>
						</effect>
					</filter>
					<filter>
						<effect>
							<name>Audio Pan</name>
							<effectid>audiopan</effectid>
							<effectcategory>audiopan</effectcategory>
							<effecttype>audiopan</effecttype>
							<mediatype>audio</mediatype>
							<parameter>
								<name>Pan</name>
								<parameterid>pan</parameterid>
								<valuemin>-1</valuemin>
								<valuemax>1</valuemax>
								<value>1</value>
							</parameter>
						</effect>
					</filter>
					<sourcetrack>
						<mediatype>audio</mediatype>
						<trackindex>2</trackindex>
					</sourcetrack>
					<link>
						<linkclipref>STE-007.wav5</linkclipref>
						<mediatype>audio</mediatype>
						<trackindex>5</trackindex>
						<clipindex>17</clipindex>
						<groupindex>1</groupindex>
					</link>
					<link>
						<linkclipref>STE-007.wav6</linkclipref>
						<mediatype>audio</mediatype>
						<trackindex>6</trackindex>
						<clipindex>19</clipindex>
						<groupindex>1</groupindex>
					</link>
					<itemhistory>
						<uuid>190D0384-50FE-4693-B041-0791318C9D33</uuid>
					</itemhistory>
				</clipitem>
				<clipitem id="STE-008.wav2">
					<name>STE-008.wav</name>
					<duration>2078</duration>
					<rate>
						<ntsc>TRUE</ntsc>
						<timebase>30</timebase>
					</rate>
					<in>536</in>
					<out>658</out>
					<start>16857</start>
					<end>16979</end>
					<subframeoffset>0</subframeoffset>
					<masterclipid>STE-008.wav1</masterclipid>
					<logginginfo>
						<scene/>
						<shottake/>
						<lognote/>
						<good>FALSE</good>
					</logginginfo>
					<labels>
						<label2/>
					</labels>
					<comments>
						<mastercomment1/>
						<mastercomment2/>
						<mastercomment3/>
						<mastercomment4/>
					</comments>
					<file id="STE-008 "/>
					<marker>
						<name>Marker 1</name>
						<comment/>
						<color>
							<alpha>0</alpha>
							<red>255</red>
							<green>0</green>
							<blue>0</blue>
						</color>
						<in>544</in>
						<out>-1</out>
					</marker>
					<filter>
						<effect>
							<name>Audio Levels</name>
							<effectid>audiolevels</effectid>
							<effectcategory>audiolevels</effectcategory>
							<effecttype>audiolevels</effecttype>
							<mediatype>audio</mediatype>
							<parameter>
								<name>Level</name>
								<parameterid>level</parameterid>
								<valuemin>0</valuemin>
								<valuemax>3.98109</valuemax>
								<value>3.98107</value>
							</parameter>
						</effect>
					</filter>
					<filter>
						<effect>
							<name>Audio Pan</name>
							<effectid>audiopan</effectid>
							<effectcategory>audiopan</effectcategory>
							<effecttype>audiopan</effecttype>
							<mediatype>audio</mediatype>
							<parameter>
								<name>Pan</name>
								<parameterid>pan</parameterid>
								<valuemin>-1</valuemin>
								<valuemax>1</valuemax>
								<value>1</value>
							</parameter>
						</effect>
					</filter>
					<sourcetrack>
						<mediatype>audio</mediatype>
						<trackindex>2</trackindex>
					</sourcetrack>
					<link>
						<linkclipref>STE-008.wav</linkclipref>
						<mediatype>audio</mediatype>
						<trackindex>5</trackindex>
						<clipindex>18</clipindex>
						<groupindex>1</groupindex>
					</link>
					<link>
						<linkclipref>STE-008.wav2</linkclipref>
						<mediatype>audio</mediatype>
						<trackindex>6</trackindex>
						<clipindex>20</clipindex>
						<groupindex>1</groupindex>
					</link>
					<itemhistory>
						<uuid>F3379233-8E4D-4C1A-BA54-DBE6E142165F</uuid>
					</itemhistory>
				</clipitem>
				<clipitem id="STE-006.wav4">
					<name>STE-006.wav</name>
					<duration>1758</duration>
					<rate>
						<ntsc>TRUE</ntsc>
						<timebase>30</timebase>
					</rate>
					<in>238</in>
					<out>270</out>
					<start>17168</start>
					<end>17200</end>
					<subframeoffset>0</subframeoffset>
					<masterclipid>STE-006.wav1</masterclipid>
					<logginginfo>
						<scene/>
						<shottake/>
						<lognote/>
						<good>FALSE</good>
					</logginginfo>
					<labels>
						<label2/>
					</labels>
					<comments>
						<mastercomment1/>
						<mastercomment2/>
						<mastercomment3/>
						<mastercomment4/>
					</comments>
					<file id="STE-006 "/>
					<filter>
						<effect>
							<name>Audio Levels</name>
							<effectid>audiolevels</effectid>
							<effectcategory>audiolevels</effectcategory>
							<effecttype>audiolevels</effecttype>
							<mediatype>audio</mediatype>
							<parameter>
								<name>Level</name>
								<parameterid>level</parameterid>
								<valuemin>0</valuemin>
								<valuemax>3.98109</valuemax>
								<value>2.81838</value>
							</parameter>
						</effect>
					</filter>
					<filter>
						<effect>
							<name>Audio Pan</name>
							<effectid>audiopan</effectid>
							<effectcategory>audiopan</effectcategory>
							<effecttype>audiopan</effecttype>
							<mediatype>audio</mediatype>
							<parameter>
								<name>Pan</name>
								<parameterid>pan</parameterid>
								<valuemin>-1</valuemin>
								<valuemax>1</valuemax>
								<value>1</value>
							</parameter>
						</effect>
					</filter>
					<sourcetrack>
						<mediatype>audio</mediatype>
						<trackindex>2</trackindex>
					</sourcetrack>
					<link>
						<linkclipref>STE-006.wav3</linkclipref>
						<mediatype>audio</mediatype>
						<trackindex>5</trackindex>
						<clipindex>19</clipindex>
						<groupindex>1</groupindex>
					</link>
					<link>
						<linkclipref>STE-006.wav4</linkclipref>
						<mediatype>audio</mediatype>
						<trackindex>6</trackindex>
						<clipindex>21</clipindex>
						<groupindex>1</groupindex>
					</link>
					<itemhistory>
						<uuid>D6024D81-6E91-401B-BDBC-9E97660BD75F</uuid>
					</itemhistory>
				</clipitem>
				<clipitem id="STE-007.wav8">
					<name>STE-007.wav</name>
					<duration>754</duration>
					<rate>
						<ntsc>TRUE</ntsc>
						<timebase>30</timebase>
					</rate>
					<in>583</in>
					<out>637</out>
					<start>17278</start>
					<end>17332</end>
					<subframeoffset>0</subframeoffset>
					<masterclipid>STE-007.wav1</masterclipid>
					<logginginfo>
						<scene/>
						<shottake/>
						<lognote/>
						<good>FALSE</good>
					</logginginfo>
					<labels>
						<label2/>
					</labels>
					<comments>
						<mastercomment1/>
						<mastercomment2/>
						<mastercomment3/>
						<mastercomment4/>
					</comments>
					<file id="STE-007 "/>
					<marker>
						<name>Marker 1</name>
						<comment/>
						<color>
							<alpha>0</alpha>
							<red>255</red>
							<green>0</green>
							<blue>0</blue>
						</color>
						<in>583</in>
						<out>-1</out>
					</marker>
					<filter>
						<effect>
							<name>Audio Levels</name>
							<effectid>audiolevels</effectid>
							<effectcategory>audiolevels</effectcategory>
							<effecttype>audiolevels</effecttype>
							<mediatype>audio</mediatype>
							<parameter>
								<name>Level</name>
								<parameterid>level</parameterid>
								<valuemin>0</valuemin>
								<valuemax>3.98109</valuemax>
								<value>1</value>
							</parameter>
						</effect>
					</filter>
					<filter>
						<effect>
							<name>Audio Pan</name>
							<effectid>audiopan</effectid>
							<effectcategory>audiopan</effectcategory>
							<effecttype>audiopan</effecttype>
							<mediatype>audio</mediatype>
							<parameter>
								<name>Pan</name>
								<parameterid>pan</parameterid>
								<valuemin>-1</valuemin>
								<valuemax>1</valuemax>
								<value>0.976471</value>
							</parameter>
						</effect>
					</filter>
					<sourcetrack>
						<mediatype>audio</mediatype>
						<trackindex>2</trackindex>
					</sourcetrack>
					<link>
						<linkclipref>STE-007.wav7</linkclipref>
						<mediatype>audio</mediatype>
						<trackindex>5</trackindex>
						<clipindex>20</clipindex>
						<groupindex>1</groupindex>
					</link>
					<link>
						<linkclipref>STE-007.wav8</linkclipref>
						<mediatype>audio</mediatype>
						<trackindex>6</trackindex>
						<clipindex>22</clipindex>
						<groupindex>1</groupindex>
					</link>
					<itemhistory>
						<uuid>A43B2E54-D687-471E-86EF-62E1EF2035A3</uuid>
					</itemhistory>
				</clipitem>
				<clipitem id="STE-006.wav6">
					<name>STE-006.wav</name>
					<duration>1758</duration>
					<rate>
						<ntsc>TRUE</ntsc>
						<timebase>30</timebase>
					</rate>
					<in>752</in>
					<out>831</out>
					<start>17429</start>
					<end>17508</end>
					<subframeoffset>0</subframeoffset>
					<masterclipid>STE-006.wav1</masterclipid>
					<logginginfo>
						<scene/>
						<shottake/>
						<lognote/>
						<good>FALSE</good>
					</logginginfo>
					<labels>
						<label2/>
					</labels>
					<comments>
						<mastercomment1/>
						<mastercomment2/>
						<mastercomment3/>
						<mastercomment4/>
					</comments>
					<file id="STE-006 "/>
					<filter>
						<effect>
							<name>Audio Levels</name>
							<effectid>audiolevels</effectid>
							<effectcategory>audiolevels</effectcategory>
							<effecttype>audiolevels</effecttype>
							<mediatype>audio</mediatype>
							<parameter>
								<name>Level</name>
								<parameterid>level</parameterid>
								<valuemin>0</valuemin>
								<valuemax>3.98109</valuemax>
								<value>2.81838</value>
							</parameter>
						</effect>
					</filter>
					<filter>
						<effect>
							<name>Audio Pan</name>
							<effectid>audiopan</effectid>
							<effectcategory>audiopan</effectcategory>
							<effecttype>audiopan</effecttype>
							<mediatype>audio</mediatype>
							<parameter>
								<name>Pan</name>
								<parameterid>pan</parameterid>
								<valuemin>-1</valuemin>
								<valuemax>1</valuemax>
								<value>1</value>
							</parameter>
						</effect>
					</filter>
					<sourcetrack>
						<mediatype>audio</mediatype>
						<trackindex>2</trackindex>
					</sourcetrack>
					<link>
						<linkclipref>STE-006.wav5</linkclipref>
						<mediatype>audio</mediatype>
						<trackindex>5</trackindex>
						<clipindex>21</clipindex>
						<groupindex>1</groupindex>
					</link>
					<link>
						<linkclipref>STE-006.wav6</linkclipref>
						<mediatype>audio</mediatype>
						<trackindex>6</trackindex>
						<clipindex>23</clipindex>
						<groupindex>1</groupindex>
					</link>
					<itemhistory>
						<uuid>CCB00E4A-D0D3-486B-81E9-71C3B188C7F0</uuid>
					</itemhistory>
				</clipitem>
				<clipitem id="STE-007.wav10">
					<name>STE-007.wav</name>
					<duration>754</duration>
					<rate>
						<ntsc>TRUE</ntsc>
						<timebase>30</timebase>
					</rate>
					<in>261</in>
					<out>294</out>
					<start>17667</start>
					<end>17700</end>
					<subframeoffset>0</subframeoffset>
					<masterclipid>STE-007.wav1</masterclipid>
					<logginginfo>
						<scene/>
						<shottake/>
						<lognote/>
						<good>FALSE</good>
					</logginginfo>
					<labels>
						<label2/>
					</labels>
					<comments>
						<mastercomment1/>
						<mastercomment2/>
						<mastercomment3/>
						<mastercomment4/>
					</comments>
					<file id="STE-007 "/>
					<filter>
						<effect>
							<name>Audio Levels</name>
							<effectid>audiolevels</effectid>
							<effectcategory>audiolevels</effectcategory>
							<effecttype>audiolevels</effecttype>
							<mediatype>audio</mediatype>
							<parameter>
								<name>Level</name>
								<parameterid>level</parameterid>
								<valuemin>0</valuemin>
								<valuemax>3.98109</valuemax>
								<value>1</value>
							</parameter>
						</effect>
					</filter>
					<filter>
						<effect>
							<name>Audio Pan</name>
							<effectid>audiopan</effectid>
							<effectcategory>audiopan</effectcategory>
							<effecttype>audiopan</effecttype>
							<mediatype>audio</mediatype>
							<parameter>
								<name>Pan</name>
								<parameterid>pan</parameterid>
								<valuemin>-1</valuemin>
								<valuemax>1</valuemax>
								<value>1</value>
							</parameter>
						</effect>
					</filter>
					<sourcetrack>
						<mediatype>audio</mediatype>
						<trackindex>2</trackindex>
					</sourcetrack>
					<link>
						<linkclipref>STE-007.wav9</linkclipref>
						<mediatype>audio</mediatype>
						<trackindex>5</trackindex>
						<clipindex>22</clipindex>
						<groupindex>1</groupindex>
					</link>
					<link>
						<linkclipref>STE-007.wav10</linkclipref>
						<mediatype>audio</mediatype>
						<trackindex>6</trackindex>
						<clipindex>24</clipindex>
						<groupindex>1</groupindex>
					</link>
					<itemhistory>
						<uuid>26FC94D2-1417-4DD0-B6E0-1A24A403BC91</uuid>
					</itemhistory>
				</clipitem>
				<clipitem id="STE-008.wav4">
					<name>STE-008.wav</name>
					<duration>2077</duration>
					<rate>
						<ntsc>TRUE</ntsc>
						<timebase>30</timebase>
					</rate>
					<in>1326</in>
					<out>1452</out>
					<start>17933</start>
					<end>18059</end>
					<subframeoffset>0</subframeoffset>
					<masterclipid>STE-008.wav1</masterclipid>
					<logginginfo>
						<scene/>
						<shottake/>
						<lognote/>
						<good>FALSE</good>
					</logginginfo>
					<labels>
						<label2/>
					</labels>
					<comments>
						<mastercomment1/>
						<mastercomment2/>
						<mastercomment3/>
						<mastercomment4/>
					</comments>
					<file id="STE-008 "/>
					<filter>
						<effect>
							<name>Audio Levels</name>
							<effectid>audiolevels</effectid>
							<effectcategory>audiolevels</effectcategory>
							<effecttype>audiolevels</effecttype>
							<mediatype>audio</mediatype>
							<parameter>
								<name>Level</name>
								<parameterid>level</parameterid>
								<valuemin>0</valuemin>
								<valuemax>3.98109</valuemax>
								<value>0.630957</value>
							</parameter>
						</effect>
					</filter>
					<filter>
						<effect>
							<name>Audio Pan</name>
							<effectid>audiopan</effectid>
							<effectcategory>audiopan</effectcategory>
							<effecttype>audiopan</effecttype>
							<mediatype>audio</mediatype>
							<parameter>
								<name>Pan</name>
								<parameterid>pan</parameterid>
								<valuemin>-1</valuemin>
								<valuemax>1</valuemax>
								<value>1</value>
							</parameter>
						</effect>
					</filter>
					<sourcetrack>
						<mediatype>audio</mediatype>
						<trackindex>2</trackindex>
					</sourcetrack>
					<link>
						<linkclipref>STE-008.wav3</linkclipref>
						<mediatype>audio</mediatype>
						<trackindex>5</trackindex>
						<clipindex>23</clipindex>
						<groupindex>1</groupindex>
					</link>
					<link>
						<linkclipref>STE-008.wav4</linkclipref>
						<mediatype>audio</mediatype>
						<trackindex>6</trackindex>
						<clipindex>25</clipindex>
						<groupindex>1</groupindex>
					</link>
					<itemhistory>
						<uuid>FADB8D00-F931-4A41-B8BE-E0FEA3FF7BC8</uuid>
					</itemhistory>
				</clipitem>
				<clipitem id="STE-009.wav2">
					<name>STE-009.wav</name>
					<duration>1883</duration>
					<rate>
						<ntsc>TRUE</ntsc>
						<timebase>30</timebase>
					</rate>
					<in>1105</in>
					<out>1549</out>
					<start>18928</start>
					<end>19372</end>
					<subframeoffset>0</subframeoffset>
					<masterclipid>STE-009.wav1</masterclipid>
					<logginginfo>
						<scene/>
						<shottake/>
						<lognote/>
						<good>FALSE</good>
					</logginginfo>
					<labels>
						<label2/>
					</labels>
					<comments>
						<mastercomment1/>
						<mastercomment2/>
						<mastercomment3/>
						<mastercomment4/>
					</comments>
					<file id="STE-009 "/>
					<filter>
						<effect>
							<name>Audio Levels</name>
							<effectid>audiolevels</effectid>
							<effectcategory>audiolevels</effectcategory>
							<effecttype>audiolevels</effecttype>
							<mediatype>audio</mediatype>
							<parameter>
								<name>Level</name>
								<parameterid>level</parameterid>
								<valuemin>0</valuemin>
								<valuemax>3.98109</valuemax>
								<value>0.630957</value>
							</parameter>
						</effect>
					</filter>
					<filter>
						<effect>
							<name>Audio Pan</name>
							<effectid>audiopan</effectid>
							<effectcategory>audiopan</effectcategory>
							<effecttype>audiopan</effecttype>
							<mediatype>audio</mediatype>
							<parameter>
								<name>Pan</name>
								<parameterid>pan</parameterid>
								<valuemin>-1</valuemin>
								<valuemax>1</valuemax>
								<value>1</value>
							</parameter>
						</effect>
					</filter>
					<sourcetrack>
						<mediatype>audio</mediatype>
						<trackindex>2</trackindex>
					</sourcetrack>
					<link>
						<linkclipref>STE-009.wav</linkclipref>
						<mediatype>audio</mediatype>
						<trackindex>5</trackindex>
						<clipindex>24</clipindex>
						<groupindex>1</groupindex>
					</link>
					<link>
						<linkclipref>STE-009.wav2</linkclipref>
						<mediatype>audio</mediatype>
						<trackindex>6</trackindex>
						<clipindex>26</clipindex>
						<groupindex>1</groupindex>
					</link>
					<itemhistory>
						<uuid>8E5F4470-6C0E-479F-AB2C-99D6988F77E6</uuid>
					</itemhistory>
				</clipitem>
				<enabled>TRUE</enabled>
				<locked>FALSE</locked>
				<outputchannelindex>2</outputchannelindex>
			</track>
			<track>
				<clipitem id="ranchogallinas.wav">
					<name>ranchogallinas.wav</name>
					<duration>1424</duration>
					<rate>
						<ntsc>TRUE</ntsc>
						<timebase>30</timebase>
					</rate>
					<in>427</in>
					<out>1139</out>
					<start>6978</start>
					<end>-1</end>
					<subframeoffset>0</subframeoffset>
					<masterclipid>ranchogallinas.wav1</masterclipid>
					<logginginfo>
						<scene/>
						<shottake/>
						<lognote/>
						<good>FALSE</good>
					</logginginfo>
					<labels>
						<label2/>
					</labels>
					<comments>
						<mastercomment1/>
						<mastercomment2/>
						<mastercomment3/>
						<mastercomment4/>
					</comments>
					<file id="ranchogallinas">
						<name>ranchogallinas.wav</name>
						<pathurl>file://localhost/Volumes/FILMS/FROM%20AWAY/Finishing%20Audio/ranchogallinas.wav</pathurl>
						<rate>
							<timebase>30</timebase>
							<ntsc>TRUE</ntsc>
						</rate>
						<duration>1424</duration>
						<timecode>
							<rate>
								<timebase>30</timebase>
								<ntsc>TRUE</ntsc>
							</rate>
							<string>00:00:00:00</string>
							<frame>0</frame>
							<displayformat>NDF</displayformat>
							<source>source</source>
						</timecode>
						<media>
							<audio>
								<samplecharacteristics>
									<samplerate>44100</samplerate>
									<depth>16</depth>
								</samplecharacteristics>
								<channelcount>2</channelcount>
							</audio>
						</media>
					</file>
					<filter>
						<effect>
							<name>Audio Levels</name>
							<effectid>audiolevels</effectid>
							<effectcategory>audiolevels</effectcategory>
							<effecttype>audiolevels</effecttype>
							<mediatype>audio</mediatype>
							<parameter>
								<name>Level</name>
								<parameterid>level</parameterid>
								<valuemin>0</valuemin>
								<valuemax>3.98109</valuemax>
								<value>1</value>
							</parameter>
						</effect>
					</filter>
					<filter>
						<effect>
							<name>Audio Pan</name>
							<effectid>audiopan</effectid>
							<effectcategory>audiopan</effectcategory>
							<effecttype>audiopan</effecttype>
							<mediatype>audio</mediatype>
							<parameter>
								<name>Pan</name>
								<parameterid>pan</parameterid>
								<valuemin>-1</valuemin>
								<valuemax>1</valuemax>
								<value>-0.98</value>
							</parameter>
						</effect>
					</filter>
					<sourcetrack>
						<mediatype>audio</mediatype>
						<trackindex>1</trackindex>
					</sourcetrack>
					<link>
						<linkclipref>ranchogallinas.wav</linkclipref>
						<mediatype>audio</mediatype>
						<trackindex>7</trackindex>
						<clipindex>1</clipindex>
						<groupindex>1</groupindex>
					</link>
					<link>
						<linkclipref>ranchogallinas.wav2</linkclipref>
						<mediatype>audio</mediatype>
						<trackindex>8</trackindex>
						<clipindex>1</clipindex>
						<groupindex>1</groupindex>
					</link>
					<itemhistory>
						<uuid>052F92DB-6072-48BA-B15E-1BB0E22B4992</uuid>
					</itemhistory>
				</clipitem>
				<transitionitem>
					<rate>
						<ntsc>TRUE</ntsc>
						<timebase>30</timebase>
					</rate>
					<start>7466</start>
					<end>7690</end>
					<alignment>end-black</alignment>
					<effect>
						<name>Cross Fade (+3dB)</name>
						<effectid>KGAudioTransCrossFade3dB</effectid>
						<effecttype>transition</effecttype>
						<mediatype>audio</mediatype>
					</effect>
				</transitionitem>
				<clipitem id="Cassette.aif2">
					<name>Cassette.aif</name>
					<duration>35463</duration>
					<rate>
						<ntsc>TRUE</ntsc>
						<timebase>30</timebase>
					</rate>
					<in>791</in>
					<out>1168</out>
					<start>9155</start>
					<end>-1</end>
					<subframeoffset>0</subframeoffset>
					<masterclipid>Cassette.aif1</masterclipid>
					<logginginfo>
						<scene/>
						<shottake/>
						<lognote/>
						<good>FALSE</good>
					</logginginfo>
					<labels>
						<label2/>
					</labels>
					<comments>
						<mastercomment1/>
						<mastercomment2/>
						<mastercomment3/>
						<mastercomment4/>
					</comments>
					<file id="Cassette"/>
					<filter>
						<effect>
							<name>Audio Levels</name>
							<effectid>audiolevels</effectid>
							<effectcategory>audiolevels</effectcategory>
							<effecttype>audiolevels</effecttype>
							<mediatype>audio</mediatype>
							<parameter>
								<name>Level</name>
								<parameterid>level</parameterid>
								<valuemin>0</valuemin>
								<valuemax>3.98109</valuemax>
								<value>1</value>
							</parameter>
						</effect>
					</filter>
					<filter>
						<effect>
							<name>Audio Pan</name>
							<effectid>audiopan</effectid>
							<effectcategory>audiopan</effectcategory>
							<effecttype>audiopan</effecttype>
							<mediatype>audio</mediatype>
							<parameter>
								<name>Pan</name>
								<parameterid>pan</parameterid>
								<valuemin>-1</valuemin>
								<valuemax>1</valuemax>
								<value>1</value>
							</parameter>
						</effect>
					</filter>
					<sourcetrack>
						<mediatype>audio</mediatype>
						<trackindex>2</trackindex>
					</sourcetrack>
					<link>
						<linkclipref>Cassette.aif</linkclipref>
						<mediatype>audio</mediatype>
						<trackindex>6</trackindex>
						<clipindex>10</clipindex>
						<groupindex>1</groupindex>
					</link>
					<link>
						<linkclipref>Cassette.aif2</linkclipref>
						<mediatype>audio</mediatype>
						<trackindex>7</trackindex>
						<clipindex>3</clipindex>
						<groupindex>1</groupindex>
					</link>
					<itemhistory>
						<uuid>2BA114A1-701D-45E7-A7FE-F0BC48905D7D</uuid>
					</itemhistory>
				</clipitem>
				<transitionitem>
					<rate>
						<ntsc>TRUE</ntsc>
						<timebase>30</timebase>
					</rate>
					<start>9229</start>
					<end>9532</end>
					<alignment>end-black</alignment>
					<effect>
						<name>Cross Fade (+3dB)</name>
						<effectid>KGAudioTransCrossFade3dB</effectid>
						<effecttype>transition</effecttype>
						<mediatype>audio</mediatype>
					</effect>
				</transitionitem>
				<transitionitem>
					<rate>
						<ntsc>TRUE</ntsc>
						<timebase>30</timebase>
					</rate>
					<start>10120</start>
					<end>10317</end>
					<alignment>start-black</alignment>
					<effect>
						<name>Cross Fade (+3dB)</name>
						<effectid>KGAudioTransCrossFade3dB</effectid>
						<effecttype>transition</effecttype>
						<mediatype>audio</mediatype>
					</effect>
				</transitionitem>
				<clipitem id="Cassette.aif4">
					<name>Cassette.aif</name>
					<duration>35463</duration>
					<rate>
						<ntsc>TRUE</ntsc>
						<timebase>30</timebase>
					</rate>
					<in>2589</in>
					<out>3252</out>
					<start>-1</start>
					<end>-1</end>
					<subframeoffset>0</subframeoffset>
					<masterclipid>Cassette.aif1</masterclipid>
					<logginginfo>
						<scene/>
						<shottake/>
						<lognote/>
						<good>FALSE</good>
					</logginginfo>
					<labels>
						<label2/>
					</labels>
					<comments>
						<mastercomment1/>
						<mastercomment2/>
						<mastercomment3/>
						<mastercomment4/>
					</comments>
					<file id="Cassette"/>
					<filter>
						<effect>
							<name>Audio Levels</name>
							<effectid>audiolevels</effectid>
							<effectcategory>audiolevels</effectcategory>
							<effecttype>audiolevels</effecttype>
							<mediatype>audio</mediatype>
							<parameter>
								<name>Level</name>
								<parameterid>level</parameterid>
								<valuemin>0</valuemin>
								<valuemax>3.98109</valuemax>
								<value>1</value>
							</parameter>
						</effect>
					</filter>
					<filter>
						<effect>
							<name>Audio Pan</name>
							<effectid>audiopan</effectid>
							<effectcategory>audiopan</effectcategory>
							<effecttype>audiopan</effecttype>
							<mediatype>audio</mediatype>
							<parameter>
								<name>Pan</name>
								<parameterid>pan</parameterid>
								<valuemin>-1</valuemin>
								<valuemax>1</valuemax>
								<value>1</value>
							</parameter>
						</effect>
					</filter>
					<sourcetrack>
						<mediatype>audio</mediatype>
						<trackindex>2</trackindex>
					</sourcetrack>
					<link>
						<linkclipref>Cassette.aif3</linkclipref>
						<mediatype>audio</mediatype>
						<trackindex>6</trackindex>
						<clipindex>13</clipindex>
						<groupindex>1</groupindex>
					</link>
					<link>
						<linkclipref>Cassette.aif4</linkclipref>
						<mediatype>audio</mediatype>
						<trackindex>7</trackindex>
						<clipindex>6</clipindex>
						<groupindex>1</groupindex>
					</link>
					<itemhistory>
						<uuid>02BA1461-0F2F-412F-94D2-7E328D8D1628</uuid>
					</itemhistory>
				</clipitem>
				<transitionitem>
					<rate>
						<ntsc>TRUE</ntsc>
						<timebase>30</timebase>
					</rate>
					<start>10527</start>
					<end>10783</end>
					<alignment>end-black</alignment>
					<effect>
						<name>Cross Fade (+3dB)</name>
						<effectid>KGAudioTransCrossFade3dB</effectid>
						<effecttype>transition</effecttype>
						<mediatype>audio</mediatype>
					</effect>
				</transitionitem>
				<clipitem id="STE-012.wav7">
					<name>STE-012.wav</name>
					<duration>13503</duration>
					<rate>
						<ntsc>TRUE</ntsc>
						<timebase>30</timebase>
					</rate>
					<in>8176</in>
					<out>8368</out>
					<start>11076</start>
					<end>11268</end>
					<subframeoffset>0</subframeoffset>
					<enabled>TRUE</enabled>
					<masterclipid>STE-012.wav1</masterclipid>
					<logginginfo>
						<scene/>
						<shottake/>
						<lognote/>
						<good>FALSE</good>
					</logginginfo>
					<labels>
						<label2/>
					</labels>
					<comments>
						<mastercomment1/>
						<mastercomment2/>
						<mastercomment3/>
						<mastercomment4/>
					</comments>
					<file id="STE-012 "/>
					<filter>
						<effect>
							<name>Audio Levels</name>
							<effectid>audiolevels</effectid>
							<effectcategory>audiolevels</effectcategory>
							<effecttype>audiolevels</effecttype>
							<mediatype>audio</mediatype>
							<parameter>
								<name>Level</name>
								<parameterid>level</parameterid>
								<valuemin>0</valuemin>
								<valuemax>3.98109</valuemax>
								<value>1.77828</value>
							</parameter>
						</effect>
					</filter>
					<filter>
						<effect>
							<name>Audio Pan</name>
							<effectid>audiopan</effectid>
							<effectcategory>audiopan</effectcategory>
							<effecttype>audiopan</effecttype>
							<mediatype>audio</mediatype>
							<parameter>
								<name>Pan</name>
								<parameterid>pan</parameterid>
								<valuemin>-1</valuemin>
								<valuemax>1</valuemax>
								<value>-0.965665</value>
							</parameter>
						</effect>
					</filter>
					<sourcetrack>
						<mediatype>audio</mediatype>
						<trackindex>1</trackindex>
					</sourcetrack>
					<link>
						<linkclipref>STE-012.wav7</linkclipref>
						<mediatype>audio</mediatype>
						<trackindex>7</trackindex>
						<clipindex>8</clipindex>
						<groupindex>1</groupindex>
					</link>
					<link>
						<linkclipref>STE-012.wav8</linkclipref>
						<mediatype>audio</mediatype>
						<trackindex>8</trackindex>
						<clipindex>3</clipindex>
						<groupindex>1</groupindex>
					</link>
					<itemhistory>
						<uuid>BC09CF49-D7D0-4413-9C67-49E5952053F1</uuid>
					</itemhistory>
				</clipitem>
				<clipitem id="ranchogallinas2.wav">
					<name>ranchogallinas2.wav</name>
					<duration>1383</duration>
					<rate>
						<ntsc>TRUE</ntsc>
						<timebase>30</timebase>
					</rate>
					<in>517</in>
					<out>1014</out>
					<start>12485</start>
					<end>12982</end>
					<subframeoffset>0</subframeoffset>
					<masterclipid>ranchogallinas2.wav1</masterclipid>
					<logginginfo>
						<scene/>
						<shottake/>
						<lognote/>
						<good>FALSE</good>
					</logginginfo>
					<labels>
						<label2/>
					</labels>
					<comments>
						<mastercomment1/>
						<mastercomment2/>
						<mastercomment3/>
						<mastercomment4/>
					</comments>
					<file id="ranchogallinas2 ">
						<name>ranchogallinas2.wav</name>
						<pathurl>file://localhost/Volumes/FILMS/FROM%20AWAY/Finishing%20Audio/ranchogallinas2.wav</pathurl>
						<rate>
							<timebase>30</timebase>
							<ntsc>TRUE</ntsc>
						</rate>
						<duration>1383</duration>
						<timecode>
							<rate>
								<timebase>30</timebase>
								<ntsc>TRUE</ntsc>
							</rate>
							<string>00:00:00:00</string>
							<frame>0</frame>
							<displayformat>NDF</displayformat>
							<source>source</source>
						</timecode>
						<media>
							<audio>
								<samplecharacteristics>
									<samplerate>44100</samplerate>
									<depth>16</depth>
								</samplecharacteristics>
								<channelcount>2</channelcount>
							</audio>
						</media>
					</file>
					<filter>
						<effect>
							<name>Audio Levels</name>
							<effectid>audiolevels</effectid>
							<effectcategory>audiolevels</effectcategory>
							<effecttype>audiolevels</effecttype>
							<mediatype>audio</mediatype>
							<parameter>
								<name>Level</name>
								<parameterid>level</parameterid>
								<valuemin>0</valuemin>
								<valuemax>3.98109</valuemax>
								<value>0.446684</value>
							</parameter>
						</effect>
					</filter>
					<filter>
						<effect>
							<name>Audio Pan</name>
							<effectid>audiopan</effectid>
							<effectcategory>audiopan</effectcategory>
							<effecttype>audiopan</effecttype>
							<mediatype>audio</mediatype>
							<parameter>
								<name>Pan</name>
								<parameterid>pan</parameterid>
								<valuemin>-1</valuemin>
								<valuemax>1</valuemax>
								<value>-1</value>
							</parameter>
						</effect>
					</filter>
					<sourcetrack>
						<mediatype>audio</mediatype>
						<trackindex>1</trackindex>
					</sourcetrack>
					<link>
						<linkclipref>ranchogallinas2.wav</linkclipref>
						<mediatype>audio</mediatype>
						<trackindex>7</trackindex>
						<clipindex>9</clipindex>
						<groupindex>1</groupindex>
					</link>
					<link>
						<linkclipref>ranchogallinas2.wav2</linkclipref>
						<mediatype>audio</mediatype>
						<trackindex>8</trackindex>
						<clipindex>4</clipindex>
						<groupindex>1</groupindex>
					</link>
					<itemhistory>
						<uuid>2794F5C5-482B-45D4-9828-616DCA99F1AE</uuid>
					</itemhistory>
				</clipitem>
				<transitionitem>
					<rate>
						<ntsc>TRUE</ntsc>
						<timebase>30</timebase>
					</rate>
					<start>13066</start>
					<end>13842</end>
					<alignment>start-black</alignment>
					<effect>
						<name>Cross Fade (+3dB)</name>
						<effectid>KGAudioTransCrossFade3dB</effectid>
						<effecttype>transition</effecttype>
						<mediatype>audio</mediatype>
					</effect>
				</transitionitem>
				<clipitem id="STE-025.wav">
					<name>STE-025.wav</name>
					<duration>30694</duration>
					<rate>
						<ntsc>TRUE</ntsc>
						<timebase>30</timebase>
					</rate>
					<in>1620</in>
					<out>2685</out>
					<start>-1</start>
					<end>14131</end>
					<subframeoffset>0</subframeoffset>
					<enabled>TRUE</enabled>
					<masterclipid>STE-025.wav1</masterclipid>
					<logginginfo>
						<scene/>
						<shottake/>
						<lognote/>
						<good>FALSE</good>
					</logginginfo>
					<labels>
						<label2/>
					</labels>
					<comments>
						<mastercomment1/>
						<mastercomment2/>
						<mastercomment3/>
						<mastercomment4/>
					</comments>
					<file id="STE-025 ">
						<name>STE-025.wav</name>
						<pathurl>file://localhost/Volumes/FILMS/FROM%20AWAY/FROM%20AWAY%20AUDIO/STE-025.wav</pathurl>
						<rate>
							<timebase>24</timebase>
						</rate>
						<duration>24555</duration>
						<timecode>
							<rate>
								<timebase>24</timebase>
							</rate>
							<string>00:00:00:00</string>
							<frame>0</frame>
							<displayformat>NDF</displayformat>
							<source>source</source>
						</timecode>
						<media>
							<audio>
								<samplecharacteristics>
									<samplerate>44100</samplerate>
									<depth>16</depth>
								</samplecharacteristics>
								<channelcount>2</channelcount>
							</audio>
						</media>
					</file>
					<filter>
						<effect>
							<name>Audio Levels</name>
							<effectid>audiolevels</effectid>
							<effectcategory>audiolevels</effectcategory>
							<effecttype>audiolevels</effecttype>
							<mediatype>audio</mediatype>
							<parameter>
								<name>Level</name>
								<parameterid>level</parameterid>
								<valuemin>0</valuemin>
								<valuemax>3.98109</valuemax>
								<value>1</value>
							</parameter>
						</effect>
					</filter>
					<filter>
						<effect>
							<name>Audio Pan</name>
							<effectid>audiopan</effectid>
							<effectcategory>audiopan</effectcategory>
							<effecttype>audiopan</effecttype>
							<mediatype>audio</mediatype>
							<parameter>
								<name>Pan</name>
								<parameterid>pan</parameterid>
								<valuemin>-1</valuemin>
								<valuemax>1</valuemax>
								<value>-1</value>
							</parameter>
						</effect>
					</filter>
					<sourcetrack>
						<mediatype>audio</mediatype>
						<trackindex>1</trackindex>
					</sourcetrack>
					<link>
						<linkclipref>STE-025.wav</linkclipref>
						<mediatype>audio</mediatype>
						<trackindex>7</trackindex>
						<clipindex>11</clipindex>
						<groupindex>1</groupindex>
					</link>
					<link>
						<linkclipref>STE-025.wav2</linkclipref>
						<mediatype>audio</mediatype>
						<trackindex>8</trackindex>
						<clipindex>6</clipindex>
						<groupindex>1</groupindex>
					</link>
					<itemhistory>
						<uuid>43018E4E-2A53-486B-A1CA-A0AC1DA90407</uuid>
					</itemhistory>
				</clipitem>
				<clipitem id="STE-006.wav7">
					<name>STE-006.wav</name>
					<duration>1758</duration>
					<rate>
						<ntsc>TRUE</ntsc>
						<timebase>30</timebase>
					</rate>
					<in>57</in>
					<out>130</out>
					<start>16676</start>
					<end>16749</end>
					<subframeoffset>0</subframeoffset>
					<masterclipid>STE-006.wav1</masterclipid>
					<logginginfo>
						<scene/>
						<shottake/>
						<lognote/>
						<good>FALSE</good>
					</logginginfo>
					<labels>
						<label2/>
					</labels>
					<comments>
						<mastercomment1/>
						<mastercomment2/>
						<mastercomment3/>
						<mastercomment4/>
					</comments>
					<file id="STE-006 "/>
					<filter>
						<effect>
							<name>Audio Levels</name>
							<effectid>audiolevels</effectid>
							<effectcategory>audiolevels</effectcategory>
							<effecttype>audiolevels</effecttype>
							<mediatype>audio</mediatype>
							<parameter>
								<name>Level</name>
								<parameterid>level</parameterid>
								<valuemin>0</valuemin>
								<valuemax>3.98109</valuemax>
								<value>2.81838</value>
							</parameter>
						</effect>
					</filter>
					<filter>
						<effect>
							<name>Audio Pan</name>
							<effectid>audiopan</effectid>
							<effectcategory>audiopan</effectcategory>
							<effecttype>audiopan</effecttype>
							<mediatype>audio</mediatype>
							<parameter>
								<name>Pan</name>
								<parameterid>pan</parameterid>
								<valuemin>-1</valuemin>
								<valuemax>1</valuemax>
								<value>-1</value>
							</parameter>
						</effect>
					</filter>
					<sourcetrack>
						<mediatype>audio</mediatype>
						<trackindex>1</trackindex>
					</sourcetrack>
					<link>
						<linkclipref>STE-006.wav7</linkclipref>
						<mediatype>audio</mediatype>
						<trackindex>7</trackindex>
						<clipindex>12</clipindex>
						<groupindex>1</groupindex>
					</link>
					<link>
						<linkclipref>STE-006.wav8</linkclipref>
						<mediatype>audio</mediatype>
						<trackindex>8</trackindex>
						<clipindex>7</clipindex>
						<groupindex>1</groupindex>
					</link>
					<itemhistory>
						<uuid>67F94FEC-CAE2-4D85-AEF0-0597576A360A</uuid>
					</itemhistory>
				</clipitem>
				<clipitem id="STE-007.wav11">
					<name>STE-007.wav</name>
					<duration>754</duration>
					<rate>
						<ntsc>TRUE</ntsc>
						<timebase>30</timebase>
					</rate>
					<in>115</in>
					<out>152</out>
					<start>16762</start>
					<end>16799</end>
					<subframeoffset>0</subframeoffset>
					<masterclipid>STE-007.wav1</masterclipid>
					<logginginfo>
						<scene/>
						<shottake/>
						<lognote/>
						<good>FALSE</good>
					</logginginfo>
					<labels>
						<label2/>
					</labels>
					<comments>
						<mastercomment1/>
						<mastercomment2/>
						<mastercomment3/>
						<mastercomment4/>
					</comments>
					<file id="STE-007 "/>
					<filter>
						<effect>
							<name>Audio Levels</name>
							<effectid>audiolevels</effectid>
							<effectcategory>audiolevels</effectcategory>
							<effecttype>audiolevels</effecttype>
							<mediatype>audio</mediatype>
							<parameter>
								<name>Level</name>
								<parameterid>level</parameterid>
								<valuemin>0</valuemin>
								<valuemax>3.98109</valuemax>
								<value>1</value>
							</parameter>
						</effect>
					</filter>
					<filter>
						<effect>
							<name>Audio Pan</name>
							<effectid>audiopan</effectid>
							<effectcategory>audiopan</effectcategory>
							<effecttype>audiopan</effecttype>
							<mediatype>audio</mediatype>
							<parameter>
								<name>Pan</name>
								<parameterid>pan</parameterid>
								<valuemin>-1</valuemin>
								<valuemax>1</valuemax>
								<value>-1</value>
							</parameter>
						</effect>
					</filter>
					<sourcetrack>
						<mediatype>audio</mediatype>
						<trackindex>1</trackindex>
					</sourcetrack>
					<link>
						<linkclipref>STE-007.wav11</linkclipref>
						<mediatype>audio</mediatype>
						<trackindex>7</trackindex>
						<clipindex>13</clipindex>
						<groupindex>1</groupindex>
					</link>
					<link>
						<linkclipref>STE-007.wav12</linkclipref>
						<mediatype>audio</mediatype>
						<trackindex>8</trackindex>
						<clipindex>8</clipindex>
						<groupindex>1</groupindex>
					</link>
					<itemhistory>
						<uuid>BCAB12B3-6DCB-425F-8459-179CC85ABD67</uuid>
					</itemhistory>
				</clipitem>
				<clipitem id="STE-006.wav9">
					<name>STE-006.wav</name>
					<duration>1758</duration>
					<rate>
						<ntsc>TRUE</ntsc>
						<timebase>30</timebase>
					</rate>
					<in>130</in>
					<out>155</out>
					<start>17004</start>
					<end>17029</end>
					<subframeoffset>0</subframeoffset>
					<masterclipid>STE-006.wav1</masterclipid>
					<logginginfo>
						<scene/>
						<shottake/>
						<lognote/>
						<good>FALSE</good>
					</logginginfo>
					<labels>
						<label2/>
					</labels>
					<comments>
						<mastercomment1/>
						<mastercomment2/>
						<mastercomment3/>
						<mastercomment4/>
					</comments>
					<file id="STE-006 "/>
					<filter>
						<effect>
							<name>Audio Levels</name>
							<effectid>audiolevels</effectid>
							<effectcategory>audiolevels</effectcategory>
							<effecttype>audiolevels</effecttype>
							<mediatype>audio</mediatype>
							<parameter>
								<name>Level</name>
								<parameterid>level</parameterid>
								<valuemin>0</valuemin>
								<valuemax>3.98109</valuemax>
								<value>2.81838</value>
							</parameter>
						</effect>
					</filter>
					<filter>
						<effect>
							<name>Audio Pan</name>
							<effectid>audiopan</effectid>
							<effectcategory>audiopan</effectcategory>
							<effecttype>audiopan</effecttype>
							<mediatype>audio</mediatype>
							<parameter>
								<name>Pan</name>
								<parameterid>pan</parameterid>
								<valuemin>-1</valuemin>
								<valuemax>1</valuemax>
								<value>-1</value>
							</parameter>
						</effect>
					</filter>
					<sourcetrack>
						<mediatype>audio</mediatype>
						<trackindex>1</trackindex>
					</sourcetrack>
					<link>
						<linkclipref>STE-006.wav9</linkclipref>
						<mediatype>audio</mediatype>
						<trackindex>7</trackindex>
						<clipindex>14</clipindex>
						<groupindex>1</groupindex>
					</link>
					<link>
						<linkclipref>STE-006.wav10</linkclipref>
						<mediatype>audio</mediatype>
						<trackindex>8</trackindex>
						<clipindex>9</clipindex>
						<groupindex>1</groupindex>
					</link>
					<itemhistory>
						<uuid>A83694B8-A56E-4CD6-817D-E0941D737001</uuid>
					</itemhistory>
				</clipitem>
				<clipitem id="STE-006.wav11">
					<name>STE-006.wav</name>
					<duration>1758</duration>
					<rate>
						<ntsc>TRUE</ntsc>
						<timebase>30</timebase>
					</rate>
					<in>155</in>
					<out>181</out>
					<start>17109</start>
					<end>17135</end>
					<subframeoffset>0</subframeoffset>
					<masterclipid>STE-006.wav1</masterclipid>
					<logginginfo>
						<scene/>
						<shottake/>
						<lognote/>
						<good>FALSE</good>
					</logginginfo>
					<labels>
						<label2/>
					</labels>
					<comments>
						<mastercomment1/>
						<mastercomment2/>
						<mastercomment3/>
						<mastercomment4/>
					</comments>
					<file id="STE-006 "/>
					<filter>
						<effect>
							<name>Audio Levels</name>
							<effectid>audiolevels</effectid>
							<effectcategory>audiolevels</effectcategory>
							<effecttype>audiolevels</effecttype>
							<mediatype>audio</mediatype>
							<parameter>
								<name>Level</name>
								<parameterid>level</parameterid>
								<valuemin>0</valuemin>
								<valuemax>3.98109</valuemax>
								<value>2.81838</value>
							</parameter>
						</effect>
					</filter>
					<filter>
						<effect>
							<name>Audio Pan</name>
							<effectid>audiopan</effectid>
							<effectcategory>audiopan</effectcategory>
							<effecttype>audiopan</effecttype>
							<mediatype>audio</mediatype>
							<parameter>
								<name>Pan</name>
								<parameterid>pan</parameterid>
								<valuemin>-1</valuemin>
								<valuemax>1</valuemax>
								<value>-1</value>
							</parameter>
						</effect>
					</filter>
					<sourcetrack>
						<mediatype>audio</mediatype>
						<trackindex>1</trackindex>
					</sourcetrack>
					<link>
						<linkclipref>STE-006.wav11</linkclipref>
						<mediatype>audio</mediatype>
						<trackindex>7</trackindex>
						<clipindex>15</clipindex>
						<groupindex>1</groupindex>
					</link>
					<link>
						<linkclipref>STE-006.wav12</linkclipref>
						<mediatype>audio</mediatype>
						<trackindex>8</trackindex>
						<clipindex>10</clipindex>
						<groupindex>1</groupindex>
					</link>
					<itemhistory>
						<uuid>C65385C5-35E9-4C70-A038-7C70C52F8D2A</uuid>
					</itemhistory>
				</clipitem>
				<clipitem id="STE-006.wav13">
					<name>STE-006.wav</name>
					<duration>1758</duration>
					<rate>
						<ntsc>TRUE</ntsc>
						<timebase>30</timebase>
					</rate>
					<in>750</in>
					<out>828</out>
					<start>17200</start>
					<end>17278</end>
					<subframeoffset>0</subframeoffset>
					<masterclipid>STE-006.wav1</masterclipid>
					<logginginfo>
						<scene/>
						<shottake/>
						<lognote/>
						<good>FALSE</good>
					</logginginfo>
					<labels>
						<label2/>
					</labels>
					<comments>
						<mastercomment1/>
						<mastercomment2/>
						<mastercomment3/>
						<mastercomment4/>
					</comments>
					<file id="STE-006 "/>
					<filter>
						<effect>
							<name>Audio Levels</name>
							<effectid>audiolevels</effectid>
							<effectcategory>audiolevels</effectcategory>
							<effecttype>audiolevels</effecttype>
							<mediatype>audio</mediatype>
							<parameter>
								<name>Level</name>
								<parameterid>level</parameterid>
								<valuemin>0</valuemin>
								<valuemax>3.98109</valuemax>
								<value>2.81838</value>
							</parameter>
						</effect>
					</filter>
					<filter>
						<effect>
							<name>Audio Pan</name>
							<effectid>audiopan</effectid>
							<effectcategory>audiopan</effectcategory>
							<effecttype>audiopan</effecttype>
							<mediatype>audio</mediatype>
							<parameter>
								<name>Pan</name>
								<parameterid>pan</parameterid>
								<valuemin>-1</valuemin>
								<valuemax>1</valuemax>
								<value>-1</value>
							</parameter>
						</effect>
					</filter>
					<sourcetrack>
						<mediatype>audio</mediatype>
						<trackindex>1</trackindex>
					</sourcetrack>
					<link>
						<linkclipref>STE-006.wav13</linkclipref>
						<mediatype>audio</mediatype>
						<trackindex>7</trackindex>
						<clipindex>16</clipindex>
						<groupindex>1</groupindex>
					</link>
					<link>
						<linkclipref>STE-006.wav14</linkclipref>
						<mediatype>audio</mediatype>
						<trackindex>8</trackindex>
						<clipindex>11</clipindex>
						<groupindex>1</groupindex>
					</link>
					<itemhistory>
						<uuid>DCCB30F9-611D-4116-9682-B5FDCF5DB8E2</uuid>
					</itemhistory>
				</clipitem>
				<clipitem id="STE-006.wav15">
					<name>STE-006.wav</name>
					<duration>1758</duration>
					<rate>
						<ntsc>TRUE</ntsc>
						<timebase>30</timebase>
					</rate>
					<in>973</in>
					<out>1069</out>
					<start>17391</start>
					<end>17487</end>
					<subframeoffset>0</subframeoffset>
					<masterclipid>STE-006.wav1</masterclipid>
					<logginginfo>
						<scene/>
						<shottake/>
						<lognote/>
						<good>FALSE</good>
					</logginginfo>
					<labels>
						<label2/>
					</labels>
					<comments>
						<mastercomment1/>
						<mastercomment2/>
						<mastercomment3/>
						<mastercomment4/>
					</comments>
					<file id="STE-006 "/>
					<filter>
						<effect>
							<name>Audio Levels</name>
							<effectid>audiolevels</effectid>
							<effectcategory>audiolevels</effectcategory>
							<effecttype>audiolevels</effecttype>
							<mediatype>audio</mediatype>
							<parameter>
								<name>Level</name>
								<parameterid>level</parameterid>
								<valuemin>0</valuemin>
								<valuemax>3.98109</valuemax>
								<value>2.51189</value>
							</parameter>
						</effect>
					</filter>
					<filter>
						<effect>
							<name>Audio Pan</name>
							<effectid>audiopan</effectid>
							<effectcategory>audiopan</effectcategory>
							<effecttype>audiopan</effecttype>
							<mediatype>audio</mediatype>
							<parameter>
								<name>Pan</name>
								<parameterid>pan</parameterid>
								<valuemin>-1</valuemin>
								<valuemax>1</valuemax>
								<value>-1</value>
							</parameter>
						</effect>
					</filter>
					<sourcetrack>
						<mediatype>audio</mediatype>
						<trackindex>1</trackindex>
					</sourcetrack>
					<link>
						<linkclipref>STE-006.wav15</linkclipref>
						<mediatype>audio</mediatype>
						<trackindex>7</trackindex>
						<clipindex>17</clipindex>
						<groupindex>1</groupindex>
					</link>
					<link>
						<linkclipref>STE-006.wav16</linkclipref>
						<mediatype>audio</mediatype>
						<trackindex>8</trackindex>
						<clipindex>12</clipindex>
						<groupindex>1</groupindex>
					</link>
					<itemhistory>
						<uuid>CEEC4DD4-AC72-4561-9244-D2F8BD1D0BD5</uuid>
					</itemhistory>
				</clipitem>
				<clipitem id="STE-007.wav13">
					<name>STE-007.wav</name>
					<duration>754</duration>
					<rate>
						<ntsc>TRUE</ntsc>
						<timebase>30</timebase>
					</rate>
					<in>7</in>
					<out>159</out>
					<start>17515</start>
					<end>17667</end>
					<subframeoffset>0</subframeoffset>
					<masterclipid>STE-007.wav1</masterclipid>
					<logginginfo>
						<scene/>
						<shottake/>
						<lognote/>
						<good>FALSE</good>
					</logginginfo>
					<labels>
						<label2/>
					</labels>
					<comments>
						<mastercomment1/>
						<mastercomment2/>
						<mastercomment3/>
						<mastercomment4/>
					</comments>
					<file id="STE-007 "/>
					<filter>
						<effect>
							<name>Audio Levels</name>
							<effectid>audiolevels</effectid>
							<effectcategory>audiolevels</effectcategory>
							<effecttype>audiolevels</effecttype>
							<mediatype>audio</mediatype>
							<parameter>
								<name>Level</name>
								<parameterid>level</parameterid>
								<valuemin>0</valuemin>
								<valuemax>3.98109</valuemax>
								<value>1</value>
							</parameter>
						</effect>
					</filter>
					<filter>
						<effect>
							<name>Audio Pan</name>
							<effectid>audiopan</effectid>
							<effectcategory>audiopan</effectcategory>
							<effecttype>audiopan</effecttype>
							<mediatype>audio</mediatype>
							<parameter>
								<name>Pan</name>
								<parameterid>pan</parameterid>
								<valuemin>-1</valuemin>
								<valuemax>1</valuemax>
								<value>-0.976471</value>
							</parameter>
						</effect>
					</filter>
					<sourcetrack>
						<mediatype>audio</mediatype>
						<trackindex>1</trackindex>
					</sourcetrack>
					<link>
						<linkclipref>STE-007.wav13</linkclipref>
						<mediatype>audio</mediatype>
						<trackindex>7</trackindex>
						<clipindex>18</clipindex>
						<groupindex>1</groupindex>
					</link>
					<link>
						<linkclipref>STE-007.wav14</linkclipref>
						<mediatype>audio</mediatype>
						<trackindex>8</trackindex>
						<clipindex>13</clipindex>
						<groupindex>1</groupindex>
					</link>
					<itemhistory>
						<uuid>6EE9DCC8-9589-45E1-848F-060DC8C1C714</uuid>
					</itemhistory>
				</clipitem>
				<clipitem id="STE-008.wav5">
					<name>STE-008.wav</name>
					<duration>2077</duration>
					<rate>
						<ntsc>TRUE</ntsc>
						<timebase>30</timebase>
					</rate>
					<in>343</in>
					<out>578</out>
					<start>17928</start>
					<end>18163</end>
					<subframeoffset>0</subframeoffset>
					<masterclipid>STE-008.wav1</masterclipid>
					<logginginfo>
						<scene/>
						<shottake/>
						<lognote/>
						<good>FALSE</good>
					</logginginfo>
					<labels>
						<label2/>
					</labels>
					<comments>
						<mastercomment1/>
						<mastercomment2/>
						<mastercomment3/>
						<mastercomment4/>
					</comments>
					<file id="STE-008 "/>
					<filter>
						<effect>
							<name>Audio Levels</name>
							<effectid>audiolevels</effectid>
							<effectcategory>audiolevels</effectcategory>
							<effecttype>audiolevels</effecttype>
							<mediatype>audio</mediatype>
							<parameter>
								<name>Level</name>
								<parameterid>level</parameterid>
								<valuemin>0</valuemin>
								<valuemax>3.98109</valuemax>
								<value>0.251189</value>
							</parameter>
						</effect>
					</filter>
					<filter>
						<effect>
							<name>Audio Pan</name>
							<effectid>audiopan</effectid>
							<effectcategory>audiopan</effectcategory>
							<effecttype>audiopan</effecttype>
							<mediatype>audio</mediatype>
							<parameter>
								<name>Pan</name>
								<parameterid>pan</parameterid>
								<valuemin>-1</valuemin>
								<valuemax>1</valuemax>
								<value>-1</value>
							</parameter>
						</effect>
					</filter>
					<sourcetrack>
						<mediatype>audio</mediatype>
						<trackindex>1</trackindex>
					</sourcetrack>
					<link>
						<linkclipref>STE-008.wav5</linkclipref>
						<mediatype>audio</mediatype>
						<trackindex>7</trackindex>
						<clipindex>19</clipindex>
						<groupindex>1</groupindex>
					</link>
					<link>
						<linkclipref>STE-008.wav6</linkclipref>
						<mediatype>audio</mediatype>
						<trackindex>8</trackindex>
						<clipindex>14</clipindex>
						<groupindex>1</groupindex>
					</link>
					<itemhistory>
						<uuid>404D1442-9556-4050-B6BC-EC1D1ED7AD5D</uuid>
					</itemhistory>
					<mixedratesoffset>1</mixedratesoffset>
				</clipitem>
				<enabled>TRUE</enabled>
				<locked>FALSE</locked>
				<outputchannelindex>1</outputchannelindex>
			</track>
			<track>
				<clipitem id="ranchogallinas.wav2">
					<name>ranchogallinas.wav</name>
					<duration>1424</duration>
					<rate>
						<ntsc>TRUE</ntsc>
						<timebase>30</timebase>
					</rate>
					<in>427</in>
					<out>1139</out>
					<start>6978</start>
					<end>-1</end>
					<subframeoffset>0</subframeoffset>
					<masterclipid>ranchogallinas.wav1</masterclipid>
					<logginginfo>
						<scene/>
						<shottake/>
						<lognote/>
						<good>FALSE</good>
					</logginginfo>
					<labels>
						<label2/>
					</labels>
					<comments>
						<mastercomment1/>
						<mastercomment2/>
						<mastercomment3/>
						<mastercomment4/>
					</comments>
					<file id="ranchogallinas"/>
					<filter>
						<effect>
							<name>Audio Levels</name>
							<effectid>audiolevels</effectid>
							<effectcategory>audiolevels</effectcategory>
							<effecttype>audiolevels</effecttype>
							<mediatype>audio</mediatype>
							<parameter>
								<name>Level</name>
								<parameterid>level</parameterid>
								<valuemin>0</valuemin>
								<valuemax>3.98109</valuemax>
								<value>1</value>
							</parameter>
						</effect>
					</filter>
					<filter>
						<effect>
							<name>Audio Pan</name>
							<effectid>audiopan</effectid>
							<effectcategory>audiopan</effectcategory>
							<effecttype>audiopan</effecttype>
							<mediatype>audio</mediatype>
							<parameter>
								<name>Pan</name>
								<parameterid>pan</parameterid>
								<valuemin>-1</valuemin>
								<valuemax>1</valuemax>
								<value>0.98</value>
							</parameter>
						</effect>
					</filter>
					<sourcetrack>
						<mediatype>audio</mediatype>
						<trackindex>2</trackindex>
					</sourcetrack>
					<link>
						<linkclipref>ranchogallinas.wav</linkclipref>
						<mediatype>audio</mediatype>
						<trackindex>7</trackindex>
						<clipindex>1</clipindex>
						<groupindex>1</groupindex>
					</link>
					<link>
						<linkclipref>ranchogallinas.wav2</linkclipref>
						<mediatype>audio</mediatype>
						<trackindex>8</trackindex>
						<clipindex>1</clipindex>
						<groupindex>1</groupindex>
					</link>
					<itemhistory>
						<uuid>7C043EA6-7168-434E-94D4-091DAF70BC25</uuid>
					</itemhistory>
				</clipitem>
				<transitionitem>
					<rate>
						<ntsc>TRUE</ntsc>
						<timebase>30</timebase>
					</rate>
					<start>7466</start>
					<end>7690</end>
					<alignment>end-black</alignment>
					<effect>
						<name>Cross Fade (+3dB)</name>
						<effectid>KGAudioTransCrossFade3dB</effectid>
						<effecttype>transition</effecttype>
						<mediatype>audio</mediatype>
					</effect>
				</transitionitem>
				<clipitem id="STE-012.wav8">
					<name>STE-012.wav</name>
					<duration>13503</duration>
					<rate>
						<ntsc>TRUE</ntsc>
						<timebase>30</timebase>
					</rate>
					<in>8176</in>
					<out>8368</out>
					<start>11076</start>
					<end>11268</end>
					<subframeoffset>0</subframeoffset>
					<enabled>TRUE</enabled>
					<masterclipid>STE-012.wav1</masterclipid>
					<logginginfo>
						<scene/>
						<shottake/>
						<lognote/>
						<good>FALSE</good>
					</logginginfo>
					<labels>
						<label2/>
					</labels>
					<comments>
						<mastercomment1/>
						<mastercomment2/>
						<mastercomment3/>
						<mastercomment4/>
					</comments>
					<file id="STE-012 "/>
					<filter>
						<effect>
							<name>Audio Levels</name>
							<effectid>audiolevels</effectid>
							<effectcategory>audiolevels</effectcategory>
							<effecttype>audiolevels</effecttype>
							<mediatype>audio</mediatype>
							<parameter>
								<name>Level</name>
								<parameterid>level</parameterid>
								<valuemin>0</valuemin>
								<valuemax>3.98109</valuemax>
								<value>1.77828</value>
							</parameter>
						</effect>
					</filter>
					<filter>
						<effect>
							<name>Audio Pan</name>
							<effectid>audiopan</effectid>
							<effectcategory>audiopan</effectcategory>
							<effecttype>audiopan</effecttype>
							<mediatype>audio</mediatype>
							<parameter>
								<name>Pan</name>
								<parameterid>pan</parameterid>
								<valuemin>-1</valuemin>
								<valuemax>1</valuemax>
								<value>0.965665</value>
							</parameter>
						</effect>
					</filter>
					<sourcetrack>
						<mediatype>audio</mediatype>
						<trackindex>2</trackindex>
					</sourcetrack>
					<link>
						<linkclipref>STE-012.wav7</linkclipref>
						<mediatype>audio</mediatype>
						<trackindex>7</trackindex>
						<clipindex>8</clipindex>
						<groupindex>1</groupindex>
					</link>
					<link>
						<linkclipref>STE-012.wav8</linkclipref>
						<mediatype>audio</mediatype>
						<trackindex>8</trackindex>
						<clipindex>3</clipindex>
						<groupindex>1</groupindex>
					</link>
					<itemhistory>
						<uuid>08DA7C39-8DD5-40AB-9B1D-36353CFB90A1</uuid>
					</itemhistory>
				</clipitem>
				<clipitem id="ranchogallinas2.wav2">
					<name>ranchogallinas2.wav</name>
					<duration>1383</duration>
					<rate>
						<ntsc>TRUE</ntsc>
						<timebase>30</timebase>
					</rate>
					<in>517</in>
					<out>1014</out>
					<start>12485</start>
					<end>12982</end>
					<subframeoffset>0</subframeoffset>
					<masterclipid>ranchogallinas2.wav1</masterclipid>
					<logginginfo>
						<scene/>
						<shottake/>
						<lognote/>
						<good>FALSE</good>
					</logginginfo>
					<labels>
						<label2/>
					</labels>
					<comments>
						<mastercomment1/>
						<mastercomment2/>
						<mastercomment3/>
						<mastercomment4/>
					</comments>
					<file id="ranchogallinas2 "/>
					<filter>
						<effect>
							<name>Audio Levels</name>
							<effectid>audiolevels</effectid>
							<effectcategory>audiolevels</effectcategory>
							<effecttype>audiolevels</effecttype>
							<mediatype>audio</mediatype>
							<parameter>
								<name>Level</name>
								<parameterid>level</parameterid>
								<valuemin>0</valuemin>
								<valuemax>3.98109</valuemax>
								<value>0.446684</value>
							</parameter>
						</effect>
					</filter>
					<filter>
						<effect>
							<name>Audio Pan</name>
							<effectid>audiopan</effectid>
							<effectcategory>audiopan</effectcategory>
							<effecttype>audiopan</effecttype>
							<mediatype>audio</mediatype>
							<parameter>
								<name>Pan</name>
								<parameterid>pan</parameterid>
								<valuemin>-1</valuemin>
								<valuemax>1</valuemax>
								<value>1</value>
							</parameter>
						</effect>
					</filter>
					<sourcetrack>
						<mediatype>audio</mediatype>
						<trackindex>2</trackindex>
					</sourcetrack>
					<link>
						<linkclipref>ranchogallinas2.wav</linkclipref>
						<mediatype>audio</mediatype>
						<trackindex>7</trackindex>
						<clipindex>9</clipindex>
						<groupindex>1</groupindex>
					</link>
					<link>
						<linkclipref>ranchogallinas2.wav2</linkclipref>
						<mediatype>audio</mediatype>
						<trackindex>8</trackindex>
						<clipindex>4</clipindex>
						<groupindex>1</groupindex>
					</link>
					<itemhistory>
						<uuid>E0B5BD6A-A679-4F7A-8E86-83038B2C7150</uuid>
					</itemhistory>
				</clipitem>
				<transitionitem>
					<rate>
						<ntsc>TRUE</ntsc>
						<timebase>30</timebase>
					</rate>
					<start>13066</start>
					<end>13842</end>
					<alignment>start-black</alignment>
					<effect>
						<name>Cross Fade (+3dB)</name>
						<effectid>KGAudioTransCrossFade3dB</effectid>
						<effecttype>transition</effecttype>
						<mediatype>audio</mediatype>
					</effect>
				</transitionitem>
				<clipitem id="STE-025.wav2">
					<name>STE-025.wav</name>
					<duration>30694</duration>
					<rate>
						<ntsc>TRUE</ntsc>
						<timebase>30</timebase>
					</rate>
					<in>1620</in>
					<out>2685</out>
					<start>-1</start>
					<end>14131</end>
					<subframeoffset>0</subframeoffset>
					<enabled>TRUE</enabled>
					<masterclipid>STE-025.wav1</masterclipid>
					<logginginfo>
						<scene/>
						<shottake/>
						<lognote/>
						<good>FALSE</good>
					</logginginfo>
					<labels>
						<label2/>
					</labels>
					<comments>
						<mastercomment1/>
						<mastercomment2/>
						<mastercomment3/>
						<mastercomment4/>
					</comments>
					<file id="STE-025 "/>
					<filter>
						<effect>
							<name>Audio Levels</name>
							<effectid>audiolevels</effectid>
							<effectcategory>audiolevels</effectcategory>
							<effecttype>audiolevels</effecttype>
							<mediatype>audio</mediatype>
							<parameter>
								<name>Level</name>
								<parameterid>level</parameterid>
								<valuemin>0</valuemin>
								<valuemax>3.98109</valuemax>
								<value>1</value>
							</parameter>
						</effect>
					</filter>
					<filter>
						<effect>
							<name>Audio Pan</name>
							<effectid>audiopan</effectid>
							<effectcategory>audiopan</effectcategory>
							<effecttype>audiopan</effecttype>
							<mediatype>audio</mediatype>
							<parameter>
								<name>Pan</name>
								<parameterid>pan</parameterid>
								<valuemin>-1</valuemin>
								<valuemax>1</valuemax>
								<value>1</value>
							</parameter>
						</effect>
					</filter>
					<sourcetrack>
						<mediatype>audio</mediatype>
						<trackindex>2</trackindex>
					</sourcetrack>
					<link>
						<linkclipref>STE-025.wav</linkclipref>
						<mediatype>audio</mediatype>
						<trackindex>7</trackindex>
						<clipindex>11</clipindex>
						<groupindex>1</groupindex>
					</link>
					<link>
						<linkclipref>STE-025.wav2</linkclipref>
						<mediatype>audio</mediatype>
						<trackindex>8</trackindex>
						<clipindex>6</clipindex>
						<groupindex>1</groupindex>
					</link>
					<itemhistory>
						<uuid>A2C06149-5EFE-4C74-8181-70AED7A8C4F0</uuid>
					</itemhistory>
				</clipitem>
				<clipitem id="STE-006.wav8">
					<name>STE-006.wav</name>
					<duration>1758</duration>
					<rate>
						<ntsc>TRUE</ntsc>
						<timebase>30</timebase>
					</rate>
					<in>57</in>
					<out>130</out>
					<start>16676</start>
					<end>16749</end>
					<subframeoffset>0</subframeoffset>
					<masterclipid>STE-006.wav1</masterclipid>
					<logginginfo>
						<scene/>
						<shottake/>
						<lognote/>
						<good>FALSE</good>
					</logginginfo>
					<labels>
						<label2/>
					</labels>
					<comments>
						<mastercomment1/>
						<mastercomment2/>
						<mastercomment3/>
						<mastercomment4/>
					</comments>
					<file id="STE-006 "/>
					<filter>
						<effect>
							<name>Audio Levels</name>
							<effectid>audiolevels</effectid>
							<effectcategory>audiolevels</effectcategory>
							<effecttype>audiolevels</effecttype>
							<mediatype>audio</mediatype>
							<parameter>
								<name>Level</name>
								<parameterid>level</parameterid>
								<valuemin>0</valuemin>
								<valuemax>3.98109</valuemax>
								<value>2.81838</value>
							</parameter>
						</effect>
					</filter>
					<filter>
						<effect>
							<name>Audio Pan</name>
							<effectid>audiopan</effectid>
							<effectcategory>audiopan</effectcategory>
							<effecttype>audiopan</effecttype>
							<mediatype>audio</mediatype>
							<parameter>
								<name>Pan</name>
								<parameterid>pan</parameterid>
								<valuemin>-1</valuemin>
								<valuemax>1</valuemax>
								<value>1</value>
							</parameter>
						</effect>
					</filter>
					<sourcetrack>
						<mediatype>audio</mediatype>
						<trackindex>2</trackindex>
					</sourcetrack>
					<link>
						<linkclipref>STE-006.wav7</linkclipref>
						<mediatype>audio</mediatype>
						<trackindex>7</trackindex>
						<clipindex>12</clipindex>
						<groupindex>1</groupindex>
					</link>
					<link>
						<linkclipref>STE-006.wav8</linkclipref>
						<mediatype>audio</mediatype>
						<trackindex>8</trackindex>
						<clipindex>7</clipindex>
						<groupindex>1</groupindex>
					</link>
					<itemhistory>
						<uuid>A5DA6989-A985-4777-965C-19F853CFDDB6</uuid>
					</itemhistory>
				</clipitem>
				<clipitem id="STE-007.wav12">
					<name>STE-007.wav</name>
					<duration>754</duration>
					<rate>
						<ntsc>TRUE</ntsc>
						<timebase>30</timebase>
					</rate>
					<in>115</in>
					<out>152</out>
					<start>16762</start>
					<end>16799</end>
					<subframeoffset>0</subframeoffset>
					<masterclipid>STE-007.wav1</masterclipid>
					<logginginfo>
						<scene/>
						<shottake/>
						<lognote/>
						<good>FALSE</good>
					</logginginfo>
					<labels>
						<label2/>
					</labels>
					<comments>
						<mastercomment1/>
						<mastercomment2/>
						<mastercomment3/>
						<mastercomment4/>
					</comments>
					<file id="STE-007 "/>
					<filter>
						<effect>
							<name>Audio Levels</name>
							<effectid>audiolevels</effectid>
							<effectcategory>audiolevels</effectcategory>
							<effecttype>audiolevels</effecttype>
							<mediatype>audio</mediatype>
							<parameter>
								<name>Level</name>
								<parameterid>level</parameterid>
								<valuemin>0</valuemin>
								<valuemax>3.98109</valuemax>
								<value>1</value>
							</parameter>
						</effect>
					</filter>
					<filter>
						<effect>
							<name>Audio Pan</name>
							<effectid>audiopan</effectid>
							<effectcategory>audiopan</effectcategory>
							<effecttype>audiopan</effecttype>
							<mediatype>audio</mediatype>
							<parameter>
								<name>Pan</name>
								<parameterid>pan</parameterid>
								<valuemin>-1</valuemin>
								<valuemax>1</valuemax>
								<value>1</value>
							</parameter>
						</effect>
					</filter>
					<sourcetrack>
						<mediatype>audio</mediatype>
						<trackindex>2</trackindex>
					</sourcetrack>
					<link>
						<linkclipref>STE-007.wav11</linkclipref>
						<mediatype>audio</mediatype>
						<trackindex>7</trackindex>
						<clipindex>13</clipindex>
						<groupindex>1</groupindex>
					</link>
					<link>
						<linkclipref>STE-007.wav12</linkclipref>
						<mediatype>audio</mediatype>
						<trackindex>8</trackindex>
						<clipindex>8</clipindex>
						<groupindex>1</groupindex>
					</link>
					<itemhistory>
						<uuid>56AC8D9C-6CBB-4D6E-8E0D-B14EC2F481C7</uuid>
					</itemhistory>
				</clipitem>
				<clipitem id="STE-006.wav10">
					<name>STE-006.wav</name>
					<duration>1758</duration>
					<rate>
						<ntsc>TRUE</ntsc>
						<timebase>30</timebase>
					</rate>
					<in>130</in>
					<out>155</out>
					<start>17004</start>
					<end>17029</end>
					<subframeoffset>0</subframeoffset>
					<masterclipid>STE-006.wav1</masterclipid>
					<logginginfo>
						<scene/>
						<shottake/>
						<lognote/>
						<good>FALSE</good>
					</logginginfo>
					<labels>
						<label2/>
					</labels>
					<comments>
						<mastercomment1/>
						<mastercomment2/>
						<mastercomment3/>
						<mastercomment4/>
					</comments>
					<file id="STE-006 "/>
					<filter>
						<effect>
							<name>Audio Levels</name>
							<effectid>audiolevels</effectid>
							<effectcategory>audiolevels</effectcategory>
							<effecttype>audiolevels</effecttype>
							<mediatype>audio</mediatype>
							<parameter>
								<name>Level</name>
								<parameterid>level</parameterid>
								<valuemin>0</valuemin>
								<valuemax>3.98109</valuemax>
								<value>2.81838</value>
							</parameter>
						</effect>
					</filter>
					<filter>
						<effect>
							<name>Audio Pan</name>
							<effectid>audiopan</effectid>
							<effectcategory>audiopan</effectcategory>
							<effecttype>audiopan</effecttype>
							<mediatype>audio</mediatype>
							<parameter>
								<name>Pan</name>
								<parameterid>pan</parameterid>
								<valuemin>-1</valuemin>
								<valuemax>1</valuemax>
								<value>1</value>
							</parameter>
						</effect>
					</filter>
					<sourcetrack>
						<mediatype>audio</mediatype>
						<trackindex>2</trackindex>
					</sourcetrack>
					<link>
						<linkclipref>STE-006.wav9</linkclipref>
						<mediatype>audio</mediatype>
						<trackindex>7</trackindex>
						<clipindex>14</clipindex>
						<groupindex>1</groupindex>
					</link>
					<link>
						<linkclipref>STE-006.wav10</linkclipref>
						<mediatype>audio</mediatype>
						<trackindex>8</trackindex>
						<clipindex>9</clipindex>
						<groupindex>1</groupindex>
					</link>
					<itemhistory>
						<uuid>1C6C1755-1E4B-49A1-9463-B489F05A9DEF</uuid>
					</itemhistory>
				</clipitem>
				<clipitem id="STE-006.wav12">
					<name>STE-006.wav</name>
					<duration>1758</duration>
					<rate>
						<ntsc>TRUE</ntsc>
						<timebase>30</timebase>
					</rate>
					<in>155</in>
					<out>181</out>
					<start>17109</start>
					<end>17135</end>
					<subframeoffset>0</subframeoffset>
					<masterclipid>STE-006.wav1</masterclipid>
					<logginginfo>
						<scene/>
						<shottake/>
						<lognote/>
						<good>FALSE</good>
					</logginginfo>
					<labels>
						<label2/>
					</labels>
					<comments>
						<mastercomment1/>
						<mastercomment2/>
						<mastercomment3/>
						<mastercomment4/>
					</comments>
					<file id="STE-006 "/>
					<filter>
						<effect>
							<name>Audio Levels</name>
							<effectid>audiolevels</effectid>
							<effectcategory>audiolevels</effectcategory>
							<effecttype>audiolevels</effecttype>
							<mediatype>audio</mediatype>
							<parameter>
								<name>Level</name>
								<parameterid>level</parameterid>
								<valuemin>0</valuemin>
								<valuemax>3.98109</valuemax>
								<value>2.81838</value>
							</parameter>
						</effect>
					</filter>
					<filter>
						<effect>
							<name>Audio Pan</name>
							<effectid>audiopan</effectid>
							<effectcategory>audiopan</effectcategory>
							<effecttype>audiopan</effecttype>
							<mediatype>audio</mediatype>
							<parameter>
								<name>Pan</name>
								<parameterid>pan</parameterid>
								<valuemin>-1</valuemin>
								<valuemax>1</valuemax>
								<value>1</value>
							</parameter>
						</effect>
					</filter>
					<sourcetrack>
						<mediatype>audio</mediatype>
						<trackindex>2</trackindex>
					</sourcetrack>
					<link>
						<linkclipref>STE-006.wav11</linkclipref>
						<mediatype>audio</mediatype>
						<trackindex>7</trackindex>
						<clipindex>15</clipindex>
						<groupindex>1</groupindex>
					</link>
					<link>
						<linkclipref>STE-006.wav12</linkclipref>
						<mediatype>audio</mediatype>
						<trackindex>8</trackindex>
						<clipindex>10</clipindex>
						<groupindex>1</groupindex>
					</link>
					<itemhistory>
						<uuid>660F4CCA-E726-4375-B628-0ED0B28DDDE9</uuid>
					</itemhistory>
				</clipitem>
				<clipitem id="STE-006.wav14">
					<name>STE-006.wav</name>
					<duration>1758</duration>
					<rate>
						<ntsc>TRUE</ntsc>
						<timebase>30</timebase>
					</rate>
					<in>750</in>
					<out>828</out>
					<start>17200</start>
					<end>17278</end>
					<subframeoffset>0</subframeoffset>
					<masterclipid>STE-006.wav1</masterclipid>
					<logginginfo>
						<scene/>
						<shottake/>
						<lognote/>
						<good>FALSE</good>
					</logginginfo>
					<labels>
						<label2/>
					</labels>
					<comments>
						<mastercomment1/>
						<mastercomment2/>
						<mastercomment3/>
						<mastercomment4/>
					</comments>
					<file id="STE-006 "/>
					<filter>
						<effect>
							<name>Audio Levels</name>
							<effectid>audiolevels</effectid>
							<effectcategory>audiolevels</effectcategory>
							<effecttype>audiolevels</effecttype>
							<mediatype>audio</mediatype>
							<parameter>
								<name>Level</name>
								<parameterid>level</parameterid>
								<valuemin>0</valuemin>
								<valuemax>3.98109</valuemax>
								<value>2.81838</value>
							</parameter>
						</effect>
					</filter>
					<filter>
						<effect>
							<name>Audio Pan</name>
							<effectid>audiopan</effectid>
							<effectcategory>audiopan</effectcategory>
							<effecttype>audiopan</effecttype>
							<mediatype>audio</mediatype>
							<parameter>
								<name>Pan</name>
								<parameterid>pan</parameterid>
								<valuemin>-1</valuemin>
								<valuemax>1</valuemax>
								<value>1</value>
							</parameter>
						</effect>
					</filter>
					<sourcetrack>
						<mediatype>audio</mediatype>
						<trackindex>2</trackindex>
					</sourcetrack>
					<link>
						<linkclipref>STE-006.wav13</linkclipref>
						<mediatype>audio</mediatype>
						<trackindex>7</trackindex>
						<clipindex>16</clipindex>
						<groupindex>1</groupindex>
					</link>
					<link>
						<linkclipref>STE-006.wav14</linkclipref>
						<mediatype>audio</mediatype>
						<trackindex>8</trackindex>
						<clipindex>11</clipindex>
						<groupindex>1</groupindex>
					</link>
					<itemhistory>
						<uuid>DC91FAD7-083A-4AB8-B56D-D057EBC060DB</uuid>
					</itemhistory>
				</clipitem>
				<clipitem id="STE-006.wav16">
					<name>STE-006.wav</name>
					<duration>1758</duration>
					<rate>
						<ntsc>TRUE</ntsc>
						<timebase>30</timebase>
					</rate>
					<in>973</in>
					<out>1069</out>
					<start>17391</start>
					<end>17487</end>
					<subframeoffset>0</subframeoffset>
					<masterclipid>STE-006.wav1</masterclipid>
					<logginginfo>
						<scene/>
						<shottake/>
						<lognote/>
						<good>FALSE</good>
					</logginginfo>
					<labels>
						<label2/>
					</labels>
					<comments>
						<mastercomment1/>
						<mastercomment2/>
						<mastercomment3/>
						<mastercomment4/>
					</comments>
					<file id="STE-006 "/>
					<filter>
						<effect>
							<name>Audio Levels</name>
							<effectid>audiolevels</effectid>
							<effectcategory>audiolevels</effectcategory>
							<effecttype>audiolevels</effecttype>
							<mediatype>audio</mediatype>
							<parameter>
								<name>Level</name>
								<parameterid>level</parameterid>
								<valuemin>0</valuemin>
								<valuemax>3.98109</valuemax>
								<value>2.51189</value>
							</parameter>
						</effect>
					</filter>
					<filter>
						<effect>
							<name>Audio Pan</name>
							<effectid>audiopan</effectid>
							<effectcategory>audiopan</effectcategory>
							<effecttype>audiopan</effecttype>
							<mediatype>audio</mediatype>
							<parameter>
								<name>Pan</name>
								<parameterid>pan</parameterid>
								<valuemin>-1</valuemin>
								<valuemax>1</valuemax>
								<value>1</value>
							</parameter>
						</effect>
					</filter>
					<sourcetrack>
						<mediatype>audio</mediatype>
						<trackindex>2</trackindex>
					</sourcetrack>
					<link>
						<linkclipref>STE-006.wav15</linkclipref>
						<mediatype>audio</mediatype>
						<trackindex>7</trackindex>
						<clipindex>17</clipindex>
						<groupindex>1</groupindex>
					</link>
					<link>
						<linkclipref>STE-006.wav16</linkclipref>
						<mediatype>audio</mediatype>
						<trackindex>8</trackindex>
						<clipindex>12</clipindex>
						<groupindex>1</groupindex>
					</link>
					<itemhistory>
						<uuid>38E23CC8-20E4-4BAB-A801-65353C872302</uuid>
					</itemhistory>
				</clipitem>
				<clipitem id="STE-007.wav14">
					<name>STE-007.wav</name>
					<duration>754</duration>
					<rate>
						<ntsc>TRUE</ntsc>
						<timebase>30</timebase>
					</rate>
					<in>7</in>
					<out>159</out>
					<start>17515</start>
					<end>17667</end>
					<subframeoffset>0</subframeoffset>
					<masterclipid>STE-007.wav1</masterclipid>
					<logginginfo>
						<scene/>
						<shottake/>
						<lognote/>
						<good>FALSE</good>
					</logginginfo>
					<labels>
						<label2/>
					</labels>
					<comments>
						<mastercomment1/>
						<mastercomment2/>
						<mastercomment3/>
						<mastercomment4/>
					</comments>
					<file id="STE-007 "/>
					<filter>
						<effect>
							<name>Audio Levels</name>
							<effectid>audiolevels</effectid>
							<effectcategory>audiolevels</effectcategory>
							<effecttype>audiolevels</effecttype>
							<mediatype>audio</mediatype>
							<parameter>
								<name>Level</name>
								<parameterid>level</parameterid>
								<valuemin>0</valuemin>
								<valuemax>3.98109</valuemax>
								<value>1</value>
							</parameter>
						</effect>
					</filter>
					<filter>
						<effect>
							<name>Audio Pan</name>
							<effectid>audiopan</effectid>
							<effectcategory>audiopan</effectcategory>
							<effecttype>audiopan</effecttype>
							<mediatype>audio</mediatype>
							<parameter>
								<name>Pan</name>
								<parameterid>pan</parameterid>
								<valuemin>-1</valuemin>
								<valuemax>1</valuemax>
								<value>0.976471</value>
							</parameter>
						</effect>
					</filter>
					<sourcetrack>
						<mediatype>audio</mediatype>
						<trackindex>2</trackindex>
					</sourcetrack>
					<link>
						<linkclipref>STE-007.wav13</linkclipref>
						<mediatype>audio</mediatype>
						<trackindex>7</trackindex>
						<clipindex>18</clipindex>
						<groupindex>1</groupindex>
					</link>
					<link>
						<linkclipref>STE-007.wav14</linkclipref>
						<mediatype>audio</mediatype>
						<trackindex>8</trackindex>
						<clipindex>13</clipindex>
						<groupindex>1</groupindex>
					</link>
					<itemhistory>
						<uuid>16A75D5A-0364-4EC1-AB1A-7B37E8985423</uuid>
					</itemhistory>
				</clipitem>
				<clipitem id="STE-008.wav6">
					<name>STE-008.wav</name>
					<duration>2077</duration>
					<rate>
						<ntsc>TRUE</ntsc>
						<timebase>30</timebase>
					</rate>
					<in>343</in>
					<out>578</out>
					<start>17928</start>
					<end>18163</end>
					<subframeoffset>0</subframeoffset>
					<masterclipid>STE-008.wav1</masterclipid>
					<logginginfo>
						<scene/>
						<shottake/>
						<lognote/>
						<good>FALSE</good>
					</logginginfo>
					<labels>
						<label2/>
					</labels>
					<comments>
						<mastercomment1/>
						<mastercomment2/>
						<mastercomment3/>
						<mastercomment4/>
					</comments>
					<file id="STE-008 "/>
					<filter>
						<effect>
							<name>Audio Levels</name>
							<effectid>audiolevels</effectid>
							<effectcategory>audiolevels</effectcategory>
							<effecttype>audiolevels</effecttype>
							<mediatype>audio</mediatype>
							<parameter>
								<name>Level</name>
								<parameterid>level</parameterid>
								<valuemin>0</valuemin>
								<valuemax>3.98109</valuemax>
								<value>0.251189</value>
							</parameter>
						</effect>
					</filter>
					<filter>
						<effect>
							<name>Audio Pan</name>
							<effectid>audiopan</effectid>
							<effectcategory>audiopan</effectcategory>
							<effecttype>audiopan</effecttype>
							<mediatype>audio</mediatype>
							<parameter>
								<name>Pan</name>
								<parameterid>pan</parameterid>
								<valuemin>-1</valuemin>
								<valuemax>1</valuemax>
								<value>1</value>
							</parameter>
						</effect>
					</filter>
					<sourcetrack>
						<mediatype>audio</mediatype>
						<trackindex>2</trackindex>
					</sourcetrack>
					<link>
						<linkclipref>STE-008.wav5</linkclipref>
						<mediatype>audio</mediatype>
						<trackindex>7</trackindex>
						<clipindex>19</clipindex>
						<groupindex>1</groupindex>
					</link>
					<link>
						<linkclipref>STE-008.wav6</linkclipref>
						<mediatype>audio</mediatype>
						<trackindex>8</trackindex>
						<clipindex>14</clipindex>
						<groupindex>1</groupindex>
					</link>
					<itemhistory>
						<uuid>8BC3472B-A4FC-4872-AD11-021E4EB29AE1</uuid>
					</itemhistory>
					<mixedratesoffset>1</mixedratesoffset>
				</clipitem>
				<enabled>TRUE</enabled>
				<locked>FALSE</locked>
				<outputchannelindex>2</outputchannelindex>
			</track>
			<filter>
				<effect>
					<name>Audio Levels</name>
					<effectid>audiolevels</effectid>
					<effectcategory>audiolevels</effectcategory>
					<effecttype>audiolevels</effecttype>
					<mediatype>audio</mediatype>
					<parameter>
						<name>Level</name>
						<parameterid>level</parameterid>
						<valuemin>0</valuemin>
						<valuemax>3.98109</valuemax>
						<value>1</value>
					</parameter>
				</effect>
			</filter>
		</audio>
	</media>
	<ismasterclip>FALSE</ismasterclip>
	<marker>
		<name>Marker 1</name>
		<color>
			<alpha>0</alpha>
			<red>255</red>
			<green>0</green>
			<blue>0</blue>
		</color>
		<in>6554</in>
		<out>-1</out>
	</marker>
	<marker>
		<name>Marker 2</name>
		<color>
			<alpha>0</alpha>
			<red>255</red>
			<green>0</green>
			<blue>0</blue>
		</color>
		<in>9867</in>
		<out>-1</out>
	</marker>
	<marker>
		<name>Marker 3</name>
		<color>
			<alpha>0</alpha>
			<red>255</red>
			<green>0</green>
			<blue>0</blue>
		</color>
		<in>12562</in>
		<out>-1</out>
	</marker>
	<marker>
		<name>Marker 4</name>
		<color>
			<alpha>0</alpha>
			<red>255</red>
			<green>0</green>
			<blue>0</blue>
		</color>
		<in>13841</in>
		<out>-1</out>
	</marker>
</sequence>
</xmeml>


