<?xml version="1.0" encoding="UTF-8"?>
<!DOCTYPE xmeml>
<xmeml version="5">
<sequence id="Parings">
	<uuid>74C54BD8-752D-42A6-813F-4C1D5EC578A6</uuid>
	<updatebehavior>add</updatebehavior>
	<name>Parings</name>
	<duration>7663</duration>
	<rate>
		<ntsc>TRUE</ntsc>
		<timebase>30</timebase>
	</rate>
	<timecode>
		<rate>
			<ntsc>TRUE</ntsc>
			<timebase>30</timebase>
		</rate>
		<string>01:00:00;00</string>
		<frame>107892</frame>
		<source>source</source>
		<displayformat>DF</displayformat>
	</timecode>
	<in>-1</in>
	<out>-1</out>
	<media>
		<video>
			<format>
				<samplecharacteristics>
					<width>720</width>
					<height>486</height>
					<anamorphic>FALSE</anamorphic>
					<pixelaspectratio>NTSC-601</pixelaspectratio>
					<fielddominance>lower</fielddominance>
					<rate>
						<ntsc>TRUE</ntsc>
						<timebase>30</timebase>
					</rate>
					<colordepth>24</colordepth>
					<codec>
						<name>Apple FCP Uncompressed 8-bit 4:2:2</name>
						<appspecificdata>
							<appname>Final Cut Pro</appname>
							<appmanufacturer>Apple Inc.</appmanufacturer>
							<appversion>7.0</appversion>
							<data>
								<qtcodec>
									<codecname>Apple FCP Uncompressed 8-bit 4:2:2</codecname>
									<codectypename>Uncompressed 8-bit 4:2:2</codectypename>
									<codectypecode>2vuy</codectypecode>
									<codecvendorcode>KeyG</codecvendorcode>
									<spatialquality>1024</spatialquality>
									<temporalquality>0</temporalquality>
									<keyframerate>0</keyframerate>
									<datarate>0</datarate>
								</qtcodec>
							</data>
						</appspecificdata>
					</codec>
				</samplecharacteristics>
				<appspecificdata>
					<appname>Final Cut Pro</appname>
					<appmanufacturer>Apple Inc.</appmanufacturer>
					<appversion>7.0</appversion>
					<data>
						<fcpimageprocessing>
							<useyuv>TRUE</useyuv>
							<usesuperwhite>FALSE</usesuperwhite>
							<rendermode>YUV8BPP</rendermode>
						</fcpimageprocessing>
					</data>
				</appspecificdata>
			</format>
			<track>
				<clipitem id="Roll 6 - Logged">
					<name>Roll 6 - Logged</name>
					<duration>5269</duration>
					<rate>
						<ntsc>TRUE</ntsc>
						<timebase>30</timebase>
					</rate>
					<in>2135</in>
					<out>2256</out>
					<start>56</start>
					<end>177</end>
					<sequence id="Roll 6 - Logged1">
						<name>Roll 6 - Logged</name>
						<duration>5269</duration>
						<rate>
							<ntsc>TRUE</ntsc>
							<timebase>30</timebase>
						</rate>
						<timecode>
							<rate>
								<ntsc>TRUE</ntsc>
								<timebase>30</timebase>
							</rate>
							<string>01:00:00;00</string>
							<frame>107892</frame>
							<source>source</source>
							<displayformat>DF</displayformat>
						</timecode>
						<in>2683</in>
						<out>3125</out>
						<media>
							<video>
								<format>
									<samplecharacteristics>
										<width>720</width>
										<height>486</height>
										<anamorphic>FALSE</anamorphic>
										<pixelaspectratio>NTSC-601</pixelaspectratio>
										<fielddominance>lower</fielddominance>
										<rate>
											<ntsc>TRUE</ntsc>
											<timebase>30</timebase>
										</rate>
										<colordepth>24</colordepth>
										<codec>
											<name>Apple FCP Uncompressed 8-bit 4:2:2</name>
											<appspecificdata>
												<appname>Final Cut Pro</appname>
												<appmanufacturer>Apple Inc.</appmanufacturer>
												<appversion>7.0</appversion>
												<data>
													<qtcodec>
														<codecname>Apple FCP Uncompressed 8-bit 4:2:2</codecname>
														<codectypename>Uncompressed 8-bit 4:2:2</codectypename>
														<codectypecode>2vuy</codectypecode>
														<codecvendorcode>KeyG</codecvendorcode>
														<spatialquality>1024</spatialquality>
														<temporalquality>0</temporalquality>
														<keyframerate>0</keyframerate>
														<datarate>0</datarate>
													</qtcodec>
												</data>
											</appspecificdata>
										</codec>
									</samplecharacteristics>
									<appspecificdata>
										<appname>Final Cut Pro</appname>
										<appmanufacturer>Apple Inc.</appmanufacturer>
										<appversion>7.0</appversion>
										<data>
											<fcpimageprocessing>
												<useyuv>TRUE</useyuv>
												<usesuperwhite>FALSE</usesuperwhite>
												<rendermode>Float10BPP</rendermode>
											</fcpimageprocessing>
										</data>
									</appspecificdata>
								</format>
								<track>
									<clipitem id="eileen r 12-21-11 ">
										<name>eileen r 12-21-11</name>
										<duration>53601</duration>
										<rate>
											<ntsc>TRUE</ntsc>
											<timebase>30</timebase>
										</rate>
										<in>27082</in>
										<out>32351</out>
										<start>0</start>
										<end>5269</end>
										<pixelaspectratio>NTSC-601</pixelaspectratio>
										<enabled>TRUE</enabled>
										<anamorphic>FALSE</anamorphic>
										<alphatype>none</alphatype>
										<alphareverse>FALSE</alphareverse>
										<masterclipid>eileen r 12-21-11 1</masterclipid>
										<logginginfo>
											<scene/>
											<shottake/>
											<lognote/>
											<good>FALSE</good>
										</logginginfo>
										<labels>
											<label2/>
										</labels>
										<comments>
											<mastercomment1/>
											<mastercomment2/>
											<mastercomment3/>
											<mastercomment4/>
										</comments>
										<file id="eileen r 12-21-11 2">
											<name>eileen r 12-21-11.mov</name>
											<pathurl>file://localhost/Volumes/TB/FOOTAGE/From%20Away/eileen%20r%2012-21-11.mov</pathurl>
											<rate>
												<timebase>30</timebase>
												<ntsc>TRUE</ntsc>
											</rate>
											<duration>53601</duration>
											<metadata>
												<storage>QuickTime</storage>
												<key>com.apple.finalcutstudio.media.uuid</key>
												<size>36</size>
												<type>UTF8</type>
												<value>1B719E46-A719-41A2-8FC6-522FE5702BBE</value>
											</metadata>
											<media>
												<video>
													<duration>53601</duration>
													<samplecharacteristics>
														<width>720</width>
														<height>486</height>
													</samplecharacteristics>
												</video>
											</media>
										</file>
										<filter>
											<enabled>TRUE</enabled>
											<start>-1</start>
											<end>-1</end>
											<effect>
												<name>Color Corrector</name>
												<effectid>Color Corrector</effectid>
												<effectcategory>Color Correction</effectcategory>
												<effecttype>filter</effecttype>
												<mediatype>video</mediatype>
												<parameter>
													<parameterid>dispmode</parameterid>
													<name>Display Mode</name>
													<valuemin>1</valuemin>
													<valuemax>3</valuemax>
													<valuelist>
														<valueentry>
															<name>Final</name>
															<value>1</value>
														</valueentry>
														<valueentry>
															<name>Matte</name>
															<value>2</value>
														</valueentry>
														<valueentry>
															<name>Source</name>
															<value>3</value>
														</valueentry>
													</valuelist>
													<value>1</value>
												</parameter>
												<parameter>
													<parameterid>label1</parameterid>
													<name>Level Controls</name>
													<value/>
												</parameter>
												<parameter>
													<parameterid>highlights</parameterid>
													<name>Highlights</name>
													<valuemin>64</valuemin>
													<valuemax>509</valuemax>
													<value>255</value>
												</parameter>
												<parameter>
													<parameterid>mids</parameterid>
													<name>Mids</name>
													<valuemin>0</valuemin>
													<valuemax>200</valuemax>
													<value>100</value>
												</parameter>
												<parameter>
													<parameterid>blacklevel</parameterid>
													<name>Blacks</name>
													<valuemin>-196</valuemin>
													<valuemax>254</valuemax>
													<value>0</value>
												</parameter>
												<parameter>
													<parameterid>label2</parameterid>
													<name>Color Balance</name>
													<value/>
												</parameter>
												<parameter>
													<parameterid>hue</parameterid>
													<name>Angle</name>
													<valuemin>-180</valuemin>
													<valuemax>180</valuemax>
													<value>-33</value>
												</parameter>
												<parameter>
													<parameterid>mag</parameterid>
													<name>Magnitude</name>
													<valuemin>0</valuemin>
													<valuemax>200</valuemax>
													<value>0</value>
												</parameter>
												<parameter>
													<parameterid>label4</parameterid>
													<name>Color Controls</name>
													<value/>
												</parameter>
												<parameter>
													<parameterid>chroma</parameterid>
													<name>Saturation</name>
													<valuemin>0</valuemin>
													<valuemax>200</valuemax>
													<value>100</value>
												</parameter>
												<parameter>
													<parameterid>phase</parameterid>
													<name>Phase shift</name>
													<valuemin>-180</valuemin>
													<valuemax>180</valuemax>
													<value>0</value>
												</parameter>
												<parameter>
													<parameterid>label5</parameterid>
													<name>Limit Effect Controls</name>
													<value/>
												</parameter>
												<parameter>
													<parameterid>dochroma</parameterid>
													<name>Limit on Chroma</name>
													<value>FALSE</value>
												</parameter>
												<parameter>
													<parameterid>centerang</parameterid>
													<name>Chroma Center</name>
													<valuemin>-760</valuemin>
													<valuemax>760</valuemax>
													<value>-110</value>
												</parameter>
												<parameter>
													<parameterid>chromawidth</parameterid>
													<name>Chroma Width</name>
													<valuemin>0</valuemin>
													<valuemax>360</valuemax>
													<value>15</value>
												</parameter>
												<parameter>
													<parameterid>chromasoft</parameterid>
													<name>Chroma Softness</name>
													<valuemin>0</valuemin>
													<valuemax>180</valuemax>
													<value>10</value>
												</parameter>
												<parameter>
													<parameterid>dosat</parameterid>
													<name>Limit on Saturation</name>
													<value>FALSE</value>
												</parameter>
												<parameter>
													<parameterid>satmin</parameterid>
													<name>Sat. Minimum</name>
													<valuemin>0</valuemin>
													<valuemax>125</valuemax>
													<value>35</value>
												</parameter>
												<parameter>
													<parameterid>satwidth</parameterid>
													<name>Sat. Width</name>
													<valuemin>0</valuemin>
													<valuemax>125</valuemax>
													<value>40</value>
												</parameter>
												<parameter>
													<parameterid>satsoft</parameterid>
													<name>Sat. Softness</name>
													<valuemin>0</valuemin>
													<valuemax>125</valuemax>
													<value>20</value>
												</parameter>
												<parameter>
													<parameterid>doluma</parameterid>
													<name>Limit on Luma</name>
													<value>FALSE</value>
												</parameter>
												<parameter>
													<parameterid>lumamin</parameterid>
													<name>Luma Minimum</name>
													<valuemin>0</valuemin>
													<valuemax>120</valuemax>
													<value>0</value>
												</parameter>
												<parameter>
													<parameterid>lumawidth</parameterid>
													<name>Luma Width</name>
													<valuemin>0</valuemin>
													<valuemax>120</valuemax>
													<value>40</value>
												</parameter>
												<parameter>
													<parameterid>lumasoft</parameterid>
													<name>Luma Softness</name>
													<valuemin>0</valuemin>
													<valuemax>120</valuemax>
													<value>20</value>
												</parameter>
												<parameter>
													<parameterid>label6</parameterid>
													<name>Edge Control</name>
													<value/>
												</parameter>
												<parameter>
													<parameterid>edgethin</parameterid>
													<name>Thin/Spread</name>
													<valuemin>-100</valuemin>
													<valuemax>100</valuemax>
													<value>0</value>
												</parameter>
												<parameter>
													<parameterid>edgefeather</parameterid>
													<name>Softening</name>
													<valuemin>0</valuemin>
													<valuemax>100</valuemax>
													<value>0</value>
												</parameter>
												<parameter>
													<parameterid>label7</parameterid>
													<name>Mask Control</name>
													<value/>
												</parameter>
												<parameter>
													<parameterid>invertsel</parameterid>
													<name>Invert</name>
													<value>FALSE</value>
												</parameter>
												<parameter>
													<parameterid>debugshow</parameterid>
													<name>Show Stats</name>
													<value>FALSE</value>
												</parameter>
											</effect>
										</filter>
										<filter>
											<enabled>TRUE</enabled>
											<start>-1</start>
											<end>-1</end>
											<effect>
												<name>Timecode Generator</name>
												<effectid>Timecode Generator</effectid>
												<effectcategory>Video</effectcategory>
												<effecttype>filter</effecttype>
												<mediatype>video</mediatype>
												<parameter>
													<parameterid>mode</parameterid>
													<name>Label</name>
													<value>TCG </value>
												</parameter>
												<parameter>
													<parameterid>tcformat</parameterid>
													<name>Format</name>
													<valuemin>1</valuemin>
													<valuemax>14</valuemax>
													<valuelist>
														<valueentry>
															<name>Frames</name>
															<value>1</value>
														</valueentry>
														<valueentry>
															<name>16mm</name>
															<value>2</value>
														</valueentry>
														<valueentry>
															<name>35mm</name>
															<value>3</value>
														</valueentry>
														<valueentry>
															<name>24fps</name>
															<value>4</value>
														</valueentry>
														<valueentry>
															<name>25fps</name>
															<value>5</value>
														</valueentry>
														<valueentry>
															<name>30fps</name>
															<value>6</value>
														</valueentry>
														<valueentry>
															<name>29.97fps(NDF)</name>
															<value>7</value>
														</valueentry>
														<valueentry>
															<name>29.97fps(DF)</name>
															<value>8</value>
														</valueentry>
														<valueentry>
															<name>50fps</name>
															<value>9</value>
														</valueentry>
														<valueentry>
															<name>50fps(50 @ 25)</name>
															<value>10</value>
														</valueentry>
														<valueentry>
															<name>60fps(NDF)</name>
															<value>11</value>
														</valueentry>
														<valueentry>
															<name>60fps(DF)</name>
															<value>12</value>
														</valueentry>
														<valueentry>
															<name>60fps(60 @ 30)</name>
															<value>13</value>
														</valueentry>
														<valueentry>
															<name>60fps(60 @ 30 DF)</name>
															<value>14</value>
														</valueentry>
													</valuelist>
													<value>1</value>
												</parameter>
												<parameter>
													<parameterid>hroffset</parameterid>
													<name>Hour Offset</name>
													<value>0</value>
												</parameter>
												<parameter>
													<parameterid>tcoffset</parameterid>
													<name>Frame Offset</name>
													<valuemin>-108000</valuemin>
													<valuemax>108000</valuemax>
													<value>0</value>
												</parameter>
												<parameter>
													<parameterid>fontsize</parameterid>
													<name>Size</name>
													<valuemin>8</valuemin>
													<valuemax>100</valuemax>
													<value>8</value>
												</parameter>
												<parameter>
													<parameterid>center</parameterid>
													<name>Center</name>
													<value>
														<horiz>0.423645</horiz>
														<vert>0.475676</vert>
													</value>
												</parameter>
												<parameter>
													<parameterid>fontcolor</parameterid>
													<name>Font Color</name>
													<value>
														<alpha>255</alpha>
														<red>255</red>
														<green>255</green>
														<blue>255</blue>
													</value>
												</parameter>
												<parameter>
													<parameterid>ignoreopacity</parameterid>
													<name>Ignore Opacity (Faster)</name>
													<value>TRUE</value>
												</parameter>
												<parameter>
													<parameterid>opacitytc</parameterid>
													<name>Opacity</name>
													<valuemin>0</valuemin>
													<valuemax>100</valuemax>
													<value>100</value>
												</parameter>
												<parameter>
													<parameterid>backcolor</parameterid>
													<name>Back Color</name>
													<value>
														<alpha>255</alpha>
														<red>0</red>
														<green>0</green>
														<blue>0</blue>
													</value>
												</parameter>
											</effect>
										</filter>
										<filter>
											<effect>
												<name>Basic Motion</name>
												<effectid>basic</effectid>
												<effectcategory>motion</effectcategory>
												<effecttype>motion</effecttype>
												<mediatype>video</mediatype>
												<parameter>
													<parameterid>scale</parameterid>
													<name>Scale</name>
													<valuemin>0</valuemin>
													<valuemax>1000</valuemax>
													<value>100</value>
												</parameter>
												<parameter>
													<parameterid>rotation</parameterid>
													<name>Rotation</name>
													<valuemin>-8640</valuemin>
													<valuemax>8640</valuemax>
													<value>0</value>
												</parameter>
												<parameter>
													<parameterid>center</parameterid>
													<name>Center</name>
													<value>
														<horiz>0</horiz>
														<vert>0</vert>
													</value>
												</parameter>
												<parameter>
													<parameterid>centerOffset</parameterid>
													<name>Anchor Point</name>
													<value>
														<horiz>0</horiz>
														<vert>0</vert>
													</value>
												</parameter>
											</effect>
										</filter>
										<filter>
											<enabled>FALSE</enabled>
											<effect>
												<name>Drop Shadow</name>
												<effectid>dropshadow</effectid>
												<effectcategory>motion</effectcategory>
												<effecttype>motion</effecttype>
												<mediatype>video</mediatype>
												<parameter>
													<parameterid>offset</parameterid>
													<name>offset</name>
													<valuemin>-100</valuemin>
													<valuemax>100</valuemax>
													<value>2</value>
												</parameter>
												<parameter>
													<parameterid>angle</parameterid>
													<name>angle</name>
													<valuemin>-720</valuemin>
													<valuemax>720</valuemax>
													<value>135</value>
												</parameter>
												<parameter>
													<parameterid>color</parameterid>
													<name>color</name>
													<value>
														<alpha>0</alpha>
														<red>0</red>
														<green>0</green>
														<blue>0</blue>
													</value>
												</parameter>
												<parameter>
													<parameterid>softness</parameterid>
													<name>softness</name>
													<valuemin>0</valuemin>
													<valuemax>100</valuemax>
													<value>10</value>
												</parameter>
												<parameter>
													<parameterid>opacity</parameterid>
													<name>opacity</name>
													<valuemin>0</valuemin>
													<valuemax>100</valuemax>
													<value>50</value>
												</parameter>
											</effect>
										</filter>
										<filter>
											<enabled>FALSE</enabled>
											<effect>
												<name>Motion Blur</name>
												<effectid>motionblur</effectid>
												<effectcategory>motion</effectcategory>
												<effecttype>motion</effecttype>
												<mediatype>video</mediatype>
												<parameter>
													<parameterid>duration</parameterid>
													<name>% Blur</name>
													<valuemin>0</valuemin>
													<valuemax>1000</valuemax>
													<value>500</value>
												</parameter>
												<parameter>
													<parameterid>samples</parameterid>
													<name>Samples</name>
													<valuemin>1</valuemin>
													<valuemax>16</valuemax>
													<value>4</value>
												</parameter>
											</effect>
										</filter>
										<filter>
											<effect>
												<name>Crop</name>
												<effectid>crop</effectid>
												<effectcategory>motion</effectcategory>
												<effecttype>motion</effecttype>
												<mediatype>video</mediatype>
												<parameter>
													<parameterid>left</parameterid>
													<name>left</name>
													<valuemin>0</valuemin>
													<valuemax>100</valuemax>
													<value>0</value>
												</parameter>
												<parameter>
													<parameterid>right</parameterid>
													<name>right</name>
													<valuemin>0</valuemin>
													<valuemax>100</valuemax>
													<value>0</value>
												</parameter>
												<parameter>
													<parameterid>top</parameterid>
													<name>top</name>
													<valuemin>0</valuemin>
													<valuemax>100</valuemax>
													<value>0</value>
												</parameter>
												<parameter>
													<parameterid>bottom</parameterid>
													<name>bottom</name>
													<valuemin>0</valuemin>
													<valuemax>100</valuemax>
													<value>0</value>
												</parameter>
												<parameter>
													<parameterid>edgefeather</parameterid>
													<name>edgefeather</name>
													<valuemin>0</valuemin>
													<valuemax>100</valuemax>
													<value>0</value>
												</parameter>
											</effect>
										</filter>
										<filter>
											<effect>
												<name>Distort</name>
												<effectid>deformation</effectid>
												<effectcategory>motion</effectcategory>
												<effecttype>motion</effecttype>
												<mediatype>video</mediatype>
												<parameter>
													<parameterid>ulcorner</parameterid>
													<name>Upper Left</name>
													<value>
														<horiz>-0.5</horiz>
														<vert>-0.5</vert>
													</value>
												</parameter>
												<parameter>
													<parameterid>urcorner</parameterid>
													<name>Upper Right</name>
													<value>
														<horiz>0.5</horiz>
														<vert>-0.5</vert>
													</value>
												</parameter>
												<parameter>
													<parameterid>lrcorner</parameterid>
													<name>Lower Right</name>
													<value>
														<horiz>0.5</horiz>
														<vert>0.5</vert>
													</value>
												</parameter>
												<parameter>
													<parameterid>llcorner</parameterid>
													<name>Lower Left</name>
													<value>
														<horiz>-0.5</horiz>
														<vert>0.5</vert>
													</value>
												</parameter>
												<parameter>
													<parameterid>aspect</parameterid>
													<name>Aspect</name>
													<valuemin>-10000</valuemin>
													<valuemax>10000</valuemax>
													<value>0</value>
												</parameter>
											</effect>
										</filter>
										<filter>
											<effect>
												<name>Opacity</name>
												<effectid>opacity</effectid>
												<effectcategory>motion</effectcategory>
												<effecttype>motion</effecttype>
												<mediatype>video</mediatype>
												<parameter>
													<parameterid>opacity</parameterid>
													<name>opacity</name>
													<valuemin>0</valuemin>
													<valuemax>100</valuemax>
													<value>100</value>
												</parameter>
											</effect>
										</filter>
										<sourcetrack>
											<mediatype>video</mediatype>
										</sourcetrack>
										<fielddominance>lower</fielddominance>
										<itemhistory>
											<uuid>012F2E60-6CE6-4ED8-A5CE-6AC514EB0A12</uuid>
										</itemhistory>
									</clipitem>
									<enabled>TRUE</enabled>
									<locked>FALSE</locked>
								</track>
							</video>
							<audio>
								<format>
									<samplecharacteristics>
										<depth>16</depth>
										<samplerate>48000</samplerate>
									</samplecharacteristics>
								</format>
								<outputs>
									<group>
										<index>1</index>
										<numchannels>2</numchannels>
										<downmix>0</downmix>
										<channel>
											<index>1</index>
										</channel>
										<channel>
											<index>2</index>
										</channel>
									</group>
								</outputs>
								<in>2683</in>
								<out>3125</out>
								<track>
									<enabled>TRUE</enabled>
									<locked>FALSE</locked>
									<outputchannelindex>1</outputchannelindex>
								</track>
								<track>
									<enabled>TRUE</enabled>
									<locked>FALSE</locked>
									<outputchannelindex>2</outputchannelindex>
								</track>
								<track>
									<enabled>TRUE</enabled>
									<locked>FALSE</locked>
									<outputchannelindex>1</outputchannelindex>
								</track>
								<track>
									<enabled>TRUE</enabled>
									<locked>FALSE</locked>
									<outputchannelindex>2</outputchannelindex>
								</track>
								<filter>
									<effect>
										<name>Audio Levels</name>
										<effectid>audiolevels</effectid>
										<effectcategory>audiolevels</effectcategory>
										<effecttype>audiolevels</effecttype>
										<mediatype>audio</mediatype>
										<parameter>
											<name>Level</name>
											<parameterid>level</parameterid>
											<valuemin>0</valuemin>
											<valuemax>3.98109</valuemax>
											<value>1</value>
										</parameter>
									</effect>
								</filter>
							</audio>
						</media>
					</sequence>
					<sourcetrack>
						<mediatype>video</mediatype>
					</sourcetrack>
					<link>
						<linkclipref>Roll 6 - Logged</linkclipref>
						<mediatype>video</mediatype>
						<trackindex>1</trackindex>
						<clipindex>1</clipindex>
					</link>
					<link>
						<linkclipref>Roll 6 - Logged2</linkclipref>
						<mediatype>audio</mediatype>
						<trackindex>1</trackindex>
						<clipindex>1</clipindex>
						<groupindex>1</groupindex>
					</link>
					<link>
						<linkclipref>Roll 6 - Logged3</linkclipref>
						<mediatype>audio</mediatype>
						<trackindex>2</trackindex>
						<clipindex>1</clipindex>
						<groupindex>1</groupindex>
					</link>
					<itemhistory>
						<uuid>720CB670-9F03-469C-B901-9E0FA4B37063</uuid>
					</itemhistory>
				</clipitem>
				<clipitem id="Roll 1 - Logged">
					<name>Roll 1 - Logged</name>
					<duration>5071</duration>
					<rate>
						<ntsc>TRUE</ntsc>
						<timebase>30</timebase>
					</rate>
					<in>506</in>
					<out>749</out>
					<start>177</start>
					<end>420</end>
					<sequence id="Roll 1 - Logged1">
						<name>Roll 1 - Logged</name>
						<duration>5071</duration>
						<rate>
							<ntsc>TRUE</ntsc>
							<timebase>30</timebase>
						</rate>
						<timecode>
							<rate>
								<ntsc>TRUE</ntsc>
								<timebase>30</timebase>
							</rate>
							<string>01:00:00;00</string>
							<frame>107892</frame>
							<source>source</source>
							<displayformat>DF</displayformat>
						</timecode>
						<in>508</in>
						<out>1901</out>
						<media>
							<video>
								<format>
									<samplecharacteristics>
										<width>720</width>
										<height>486</height>
										<anamorphic>FALSE</anamorphic>
										<pixelaspectratio>NTSC-601</pixelaspectratio>
										<fielddominance>lower</fielddominance>
										<rate>
											<ntsc>TRUE</ntsc>
											<timebase>30</timebase>
										</rate>
										<colordepth>24</colordepth>
										<codec>
											<name>Apple FCP Uncompressed 8-bit 4:2:2</name>
											<appspecificdata>
												<appname>Final Cut Pro</appname>
												<appmanufacturer>Apple Inc.</appmanufacturer>
												<appversion>7.0</appversion>
												<data>
													<qtcodec>
														<codecname>Apple FCP Uncompressed 8-bit 4:2:2</codecname>
														<codectypename>Uncompressed 8-bit 4:2:2</codectypename>
														<codectypecode>2vuy</codectypecode>
														<codecvendorcode>KeyG</codecvendorcode>
														<spatialquality>1024</spatialquality>
														<temporalquality>0</temporalquality>
														<keyframerate>0</keyframerate>
														<datarate>0</datarate>
													</qtcodec>
												</data>
											</appspecificdata>
										</codec>
									</samplecharacteristics>
									<appspecificdata>
										<appname>Final Cut Pro</appname>
										<appmanufacturer>Apple Inc.</appmanufacturer>
										<appversion>7.0</appversion>
										<data>
											<fcpimageprocessing>
												<useyuv>TRUE</useyuv>
												<usesuperwhite>FALSE</usesuperwhite>
												<rendermode>Float10BPP</rendermode>
											</fcpimageprocessing>
										</data>
									</appspecificdata>
								</format>
								<track>
									<clipitem id="eileen r 12-21-11 3">
										<name>eileen r 12-21-11</name>
										<duration>53601</duration>
										<rate>
											<ntsc>TRUE</ntsc>
											<timebase>30</timebase>
										</rate>
										<in>355</in>
										<out>5426</out>
										<start>0</start>
										<end>5071</end>
										<pixelaspectratio>NTSC-601</pixelaspectratio>
										<enabled>TRUE</enabled>
										<anamorphic>FALSE</anamorphic>
										<alphatype>none</alphatype>
										<alphareverse>FALSE</alphareverse>
										<masterclipid>eileen r 12-21-11 1</masterclipid>
										<logginginfo>
											<scene/>
											<shottake/>
											<lognote/>
											<good>FALSE</good>
										</logginginfo>
										<labels>
											<label2/>
										</labels>
										<comments>
											<mastercomment1/>
											<mastercomment2/>
											<mastercomment3/>
											<mastercomment4/>
										</comments>
										<file id="eileen r 12-21-11 2"/>
										<filter>
											<enabled>TRUE</enabled>
											<start>-1</start>
											<end>-1</end>
											<effect>
												<name>Color Corrector</name>
												<effectid>Color Corrector</effectid>
												<effectcategory>Color Correction</effectcategory>
												<effecttype>filter</effecttype>
												<mediatype>video</mediatype>
												<parameter>
													<parameterid>dispmode</parameterid>
													<name>Display Mode</name>
													<valuemin>1</valuemin>
													<valuemax>3</valuemax>
													<valuelist>
														<valueentry>
															<name>Final</name>
															<value>1</value>
														</valueentry>
														<valueentry>
															<name>Matte</name>
															<value>2</value>
														</valueentry>
														<valueentry>
															<name>Source</name>
															<value>3</value>
														</valueentry>
													</valuelist>
													<value>1</value>
												</parameter>
												<parameter>
													<parameterid>label1</parameterid>
													<name>Level Controls</name>
													<value/>
												</parameter>
												<parameter>
													<parameterid>highlights</parameterid>
													<name>Highlights</name>
													<valuemin>64</valuemin>
													<valuemax>509</valuemax>
													<keyframe>
														<when>1386</when>
														<value>258</value>
													</keyframe>
													<keyframe>
														<when>1389</when>
														<value>255</value>
													</keyframe>
													<keyframe>
														<when>2256</when>
														<value>255</value>
													</keyframe>
													<keyframe>
														<when>2257</when>
														<value>391</value>
													</keyframe>
													<interpolation>
														<name>FCPCurve</name>
													</interpolation>
													<value>258</value>
												</parameter>
												<parameter>
													<parameterid>mids</parameterid>
													<name>Mids</name>
													<valuemin>0</valuemin>
													<valuemax>200</valuemax>
													<keyframe>
														<when>1386</when>
														<value>100</value>
													</keyframe>
													<keyframe>
														<when>1389</when>
														<value>100</value>
													</keyframe>
													<keyframe>
														<when>2256</when>
														<value>100</value>
													</keyframe>
													<keyframe>
														<when>2257</when>
														<value>133</value>
													</keyframe>
													<interpolation>
														<name>FCPCurve</name>
													</interpolation>
													<value>100</value>
												</parameter>
												<parameter>
													<parameterid>blacklevel</parameterid>
													<name>Blacks</name>
													<valuemin>-196</valuemin>
													<valuemax>254</valuemax>
													<keyframe>
														<when>1386</when>
														<value>4</value>
													</keyframe>
													<keyframe>
														<when>1389</when>
														<value>4</value>
													</keyframe>
													<keyframe>
														<when>2256</when>
														<value>4</value>
													</keyframe>
													<keyframe>
														<when>2257</when>
														<value>4</value>
													</keyframe>
													<interpolation>
														<name>FCPCurve</name>
													</interpolation>
													<value>4</value>
												</parameter>
												<parameter>
													<parameterid>label2</parameterid>
													<name>Color Balance</name>
													<value/>
												</parameter>
												<parameter>
													<parameterid>hue</parameterid>
													<name>Angle</name>
													<valuemin>-180</valuemin>
													<valuemax>180</valuemax>
													<keyframe>
														<when>1386</when>
														<value>-33</value>
													</keyframe>
													<keyframe>
														<when>1389</when>
														<value>-33</value>
													</keyframe>
													<keyframe>
														<when>2256</when>
														<value>-33</value>
													</keyframe>
													<keyframe>
														<when>2257</when>
														<value>-33</value>
													</keyframe>
													<interpolation>
														<name>FCPCurve</name>
													</interpolation>
													<value>-33</value>
												</parameter>
												<parameter>
													<parameterid>mag</parameterid>
													<name>Magnitude</name>
													<valuemin>0</valuemin>
													<valuemax>200</valuemax>
													<keyframe>
														<when>1386</when>
														<value>0</value>
													</keyframe>
													<keyframe>
														<when>1389</when>
														<value>0</value>
													</keyframe>
													<keyframe>
														<when>2256</when>
														<value>0</value>
													</keyframe>
													<keyframe>
														<when>2257</when>
														<value>0</value>
													</keyframe>
													<interpolation>
														<name>FCPCurve</name>
													</interpolation>
													<value>0</value>
												</parameter>
												<parameter>
													<parameterid>label4</parameterid>
													<name>Color Controls</name>
													<value/>
												</parameter>
												<parameter>
													<parameterid>chroma</parameterid>
													<name>Saturation</name>
													<valuemin>0</valuemin>
													<valuemax>200</valuemax>
													<keyframe>
														<when>1386</when>
														<value>83</value>
													</keyframe>
													<keyframe>
														<when>1389</when>
														<value>83</value>
													</keyframe>
													<keyframe>
														<when>2256</when>
														<value>83</value>
													</keyframe>
													<keyframe>
														<when>2257</when>
														<value>83</value>
													</keyframe>
													<interpolation>
														<name>FCPCurve</name>
													</interpolation>
													<value>83</value>
												</parameter>
												<parameter>
													<parameterid>phase</parameterid>
													<name>Phase shift</name>
													<valuemin>-180</valuemin>
													<valuemax>180</valuemax>
													<keyframe>
														<when>1386</when>
														<value>0</value>
													</keyframe>
													<keyframe>
														<when>1389</when>
														<value>0</value>
													</keyframe>
													<keyframe>
														<when>2256</when>
														<value>0</value>
													</keyframe>
													<keyframe>
														<when>2257</when>
														<value>0</value>
													</keyframe>
													<interpolation>
														<name>FCPCurve</name>
													</interpolation>
													<value>0</value>
												</parameter>
												<parameter>
													<parameterid>label5</parameterid>
													<name>Limit Effect Controls</name>
													<value/>
												</parameter>
												<parameter>
													<parameterid>dochroma</parameterid>
													<name>Limit on Chroma</name>
													<value>FALSE</value>
												</parameter>
												<parameter>
													<parameterid>centerang</parameterid>
													<name>Chroma Center</name>
													<valuemin>-760</valuemin>
													<valuemax>760</valuemax>
													<keyframe>
														<when>1386</when>
														<value>-110</value>
													</keyframe>
													<keyframe>
														<when>1389</when>
														<value>-110</value>
													</keyframe>
													<keyframe>
														<when>2256</when>
														<value>-110</value>
													</keyframe>
													<keyframe>
														<when>2257</when>
														<value>-110</value>
													</keyframe>
													<interpolation>
														<name>FCPCurve</name>
													</interpolation>
													<value>-110</value>
												</parameter>
												<parameter>
													<parameterid>chromawidth</parameterid>
													<name>Chroma Width</name>
													<valuemin>0</valuemin>
													<valuemax>360</valuemax>
													<keyframe>
														<when>1386</when>
														<value>15</value>
													</keyframe>
													<keyframe>
														<when>1389</when>
														<value>15</value>
													</keyframe>
													<keyframe>
														<when>2256</when>
														<value>15</value>
													</keyframe>
													<keyframe>
														<when>2257</when>
														<value>15</value>
													</keyframe>
													<interpolation>
														<name>FCPCurve</name>
													</interpolation>
													<value>15</value>
												</parameter>
												<parameter>
													<parameterid>chromasoft</parameterid>
													<name>Chroma Softness</name>
													<valuemin>0</valuemin>
													<valuemax>180</valuemax>
													<keyframe>
														<when>1386</when>
														<value>10</value>
													</keyframe>
													<keyframe>
														<when>1389</when>
														<value>10</value>
													</keyframe>
													<keyframe>
														<when>2256</when>
														<value>10</value>
													</keyframe>
													<keyframe>
														<when>2257</when>
														<value>10</value>
													</keyframe>
													<interpolation>
														<name>FCPCurve</name>
													</interpolation>
													<value>10</value>
												</parameter>
												<parameter>
													<parameterid>dosat</parameterid>
													<name>Limit on Saturation</name>
													<value>FALSE</value>
												</parameter>
												<parameter>
													<parameterid>satmin</parameterid>
													<name>Sat. Minimum</name>
													<valuemin>0</valuemin>
													<valuemax>125</valuemax>
													<keyframe>
														<when>1386</when>
														<value>35</value>
													</keyframe>
													<keyframe>
														<when>1389</when>
														<value>35</value>
													</keyframe>
													<keyframe>
														<when>2256</when>
														<value>35</value>
													</keyframe>
													<keyframe>
														<when>2257</when>
														<value>35</value>
													</keyframe>
													<interpolation>
														<name>FCPCurve</name>
													</interpolation>
													<value>35</value>
												</parameter>
												<parameter>
													<parameterid>satwidth</parameterid>
													<name>Sat. Width</name>
													<valuemin>0</valuemin>
													<valuemax>125</valuemax>
													<keyframe>
														<when>1386</when>
														<value>40</value>
													</keyframe>
													<keyframe>
														<when>1389</when>
														<value>40</value>
													</keyframe>
													<keyframe>
														<when>2256</when>
														<value>40</value>
													</keyframe>
													<keyframe>
														<when>2257</when>
														<value>40</value>
													</keyframe>
													<interpolation>
														<name>FCPCurve</name>
													</interpolation>
													<value>40</value>
												</parameter>
												<parameter>
													<parameterid>satsoft</parameterid>
													<name>Sat. Softness</name>
													<valuemin>0</valuemin>
													<valuemax>125</valuemax>
													<keyframe>
														<when>1386</when>
														<value>20</value>
													</keyframe>
													<keyframe>
														<when>1389</when>
														<value>20</value>
													</keyframe>
													<keyframe>
														<when>2256</when>
														<value>20</value>
													</keyframe>
													<keyframe>
														<when>2257</when>
														<value>20</value>
													</keyframe>
													<interpolation>
														<name>FCPCurve</name>
													</interpolation>
													<value>20</value>
												</parameter>
												<parameter>
													<parameterid>doluma</parameterid>
													<name>Limit on Luma</name>
													<value>FALSE</value>
												</parameter>
												<parameter>
													<parameterid>lumamin</parameterid>
													<name>Luma Minimum</name>
													<valuemin>0</valuemin>
													<valuemax>120</valuemax>
													<keyframe>
														<when>1386</when>
														<value>0</value>
													</keyframe>
													<keyframe>
														<when>1389</when>
														<value>0</value>
													</keyframe>
													<keyframe>
														<when>2256</when>
														<value>0</value>
													</keyframe>
													<keyframe>
														<when>2257</when>
														<value>0</value>
													</keyframe>
													<interpolation>
														<name>FCPCurve</name>
													</interpolation>
													<value>0</value>
												</parameter>
												<parameter>
													<parameterid>lumawidth</parameterid>
													<name>Luma Width</name>
													<valuemin>0</valuemin>
													<valuemax>120</valuemax>
													<keyframe>
														<when>1386</when>
														<value>40</value>
													</keyframe>
													<keyframe>
														<when>1389</when>
														<value>40</value>
													</keyframe>
													<keyframe>
														<when>2256</when>
														<value>40</value>
													</keyframe>
													<keyframe>
														<when>2257</when>
														<value>40</value>
													</keyframe>
													<interpolation>
														<name>FCPCurve</name>
													</interpolation>
													<value>40</value>
												</parameter>
												<parameter>
													<parameterid>lumasoft</parameterid>
													<name>Luma Softness</name>
													<valuemin>0</valuemin>
													<valuemax>120</valuemax>
													<keyframe>
														<when>1386</when>
														<value>20</value>
													</keyframe>
													<keyframe>
														<when>1389</when>
														<value>20</value>
													</keyframe>
													<keyframe>
														<when>2256</when>
														<value>20</value>
													</keyframe>
													<keyframe>
														<when>2257</when>
														<value>20</value>
													</keyframe>
													<interpolation>
														<name>FCPCurve</name>
													</interpolation>
													<value>20</value>
												</parameter>
												<parameter>
													<parameterid>label6</parameterid>
													<name>Edge Control</name>
													<value/>
												</parameter>
												<parameter>
													<parameterid>edgethin</parameterid>
													<name>Thin/Spread</name>
													<valuemin>-100</valuemin>
													<valuemax>100</valuemax>
													<keyframe>
														<when>1386</when>
														<value>0</value>
													</keyframe>
													<keyframe>
														<when>1389</when>
														<value>0</value>
													</keyframe>
													<keyframe>
														<when>2256</when>
														<value>0</value>
													</keyframe>
													<keyframe>
														<when>2257</when>
														<value>0</value>
													</keyframe>
													<interpolation>
														<name>FCPCurve</name>
													</interpolation>
													<value>0</value>
												</parameter>
												<parameter>
													<parameterid>edgefeather</parameterid>
													<name>Softening</name>
													<valuemin>0</valuemin>
													<valuemax>100</valuemax>
													<keyframe>
														<when>1386</when>
														<value>0</value>
													</keyframe>
													<keyframe>
														<when>1389</when>
														<value>0</value>
													</keyframe>
													<keyframe>
														<when>2256</when>
														<value>0</value>
													</keyframe>
													<keyframe>
														<when>2257</when>
														<value>0</value>
													</keyframe>
													<interpolation>
														<name>FCPCurve</name>
													</interpolation>
													<value>0</value>
												</parameter>
												<parameter>
													<parameterid>label7</parameterid>
													<name>Mask Control</name>
													<value/>
												</parameter>
												<parameter>
													<parameterid>invertsel</parameterid>
													<name>Invert</name>
													<value>FALSE</value>
												</parameter>
												<parameter>
													<parameterid>debugshow</parameterid>
													<name>Show Stats</name>
													<value>FALSE</value>
												</parameter>
											</effect>
										</filter>
										<filter>
											<enabled>TRUE</enabled>
											<start>-1</start>
											<end>-1</end>
											<effect>
												<name>Timecode Generator</name>
												<effectid>Timecode Generator</effectid>
												<effectcategory>Video</effectcategory>
												<effecttype>filter</effecttype>
												<mediatype>video</mediatype>
												<parameter>
													<parameterid>mode</parameterid>
													<name>Label</name>
													<value>TCG </value>
												</parameter>
												<parameter>
													<parameterid>tcformat</parameterid>
													<name>Format</name>
													<valuemin>1</valuemin>
													<valuemax>14</valuemax>
													<valuelist>
														<valueentry>
															<name>Frames</name>
															<value>1</value>
														</valueentry>
														<valueentry>
															<name>16mm</name>
															<value>2</value>
														</valueentry>
														<valueentry>
															<name>35mm</name>
															<value>3</value>
														</valueentry>
														<valueentry>
															<name>24fps</name>
															<value>4</value>
														</valueentry>
														<valueentry>
															<name>25fps</name>
															<value>5</value>
														</valueentry>
														<valueentry>
															<name>30fps</name>
															<value>6</value>
														</valueentry>
														<valueentry>
															<name>29.97fps(NDF)</name>
															<value>7</value>
														</valueentry>
														<valueentry>
															<name>29.97fps(DF)</name>
															<value>8</value>
														</valueentry>
														<valueentry>
															<name>50fps</name>
															<value>9</value>
														</valueentry>
														<valueentry>
															<name>50fps(50 @ 25)</name>
															<value>10</value>
														</valueentry>
														<valueentry>
															<name>60fps(NDF)</name>
															<value>11</value>
														</valueentry>
														<valueentry>
															<name>60fps(DF)</name>
															<value>12</value>
														</valueentry>
														<valueentry>
															<name>60fps(60 @ 30)</name>
															<value>13</value>
														</valueentry>
														<valueentry>
															<name>60fps(60 @ 30 DF)</name>
															<value>14</value>
														</valueentry>
													</valuelist>
													<value>1</value>
												</parameter>
												<parameter>
													<parameterid>hroffset</parameterid>
													<name>Hour Offset</name>
													<value>0</value>
												</parameter>
												<parameter>
													<parameterid>tcoffset</parameterid>
													<name>Frame Offset</name>
													<valuemin>-108000</valuemin>
													<valuemax>108000</valuemax>
													<value>0</value>
												</parameter>
												<parameter>
													<parameterid>fontsize</parameterid>
													<name>Size</name>
													<valuemin>8</valuemin>
													<valuemax>100</valuemax>
													<value>8</value>
												</parameter>
												<parameter>
													<parameterid>center</parameterid>
													<name>Center</name>
													<value>
														<horiz>0.423645</horiz>
														<vert>0.475676</vert>
													</value>
												</parameter>
												<parameter>
													<parameterid>fontcolor</parameterid>
													<name>Font Color</name>
													<value>
														<alpha>255</alpha>
														<red>255</red>
														<green>255</green>
														<blue>255</blue>
													</value>
												</parameter>
												<parameter>
													<parameterid>ignoreopacity</parameterid>
													<name>Ignore Opacity (Faster)</name>
													<value>TRUE</value>
												</parameter>
												<parameter>
													<parameterid>opacitytc</parameterid>
													<name>Opacity</name>
													<valuemin>0</valuemin>
													<valuemax>100</valuemax>
													<value>100</value>
												</parameter>
												<parameter>
													<parameterid>backcolor</parameterid>
													<name>Back Color</name>
													<value>
														<alpha>255</alpha>
														<red>0</red>
														<green>0</green>
														<blue>0</blue>
													</value>
												</parameter>
											</effect>
										</filter>
										<filter>
											<effect>
												<name>Basic Motion</name>
												<effectid>basic</effectid>
												<effectcategory>motion</effectcategory>
												<effecttype>motion</effecttype>
												<mediatype>video</mediatype>
												<parameter>
													<parameterid>scale</parameterid>
													<name>Scale</name>
													<valuemin>0</valuemin>
													<valuemax>1000</valuemax>
													<value>100</value>
												</parameter>
												<parameter>
													<parameterid>rotation</parameterid>
													<name>Rotation</name>
													<valuemin>-8640</valuemin>
													<valuemax>8640</valuemax>
													<value>0</value>
												</parameter>
												<parameter>
													<parameterid>center</parameterid>
													<name>Center</name>
													<value>
														<horiz>0</horiz>
														<vert>0</vert>
													</value>
												</parameter>
												<parameter>
													<parameterid>centerOffset</parameterid>
													<name>Anchor Point</name>
													<value>
														<horiz>0</horiz>
														<vert>0</vert>
													</value>
												</parameter>
											</effect>
										</filter>
										<filter>
											<enabled>FALSE</enabled>
											<effect>
												<name>Drop Shadow</name>
												<effectid>dropshadow</effectid>
												<effectcategory>motion</effectcategory>
												<effecttype>motion</effecttype>
												<mediatype>video</mediatype>
												<parameter>
													<parameterid>offset</parameterid>
													<name>offset</name>
													<valuemin>-100</valuemin>
													<valuemax>100</valuemax>
													<value>2</value>
												</parameter>
												<parameter>
													<parameterid>angle</parameterid>
													<name>angle</name>
													<valuemin>-720</valuemin>
													<valuemax>720</valuemax>
													<value>135</value>
												</parameter>
												<parameter>
													<parameterid>color</parameterid>
													<name>color</name>
													<value>
														<alpha>0</alpha>
														<red>0</red>
														<green>0</green>
														<blue>0</blue>
													</value>
												</parameter>
												<parameter>
													<parameterid>softness</parameterid>
													<name>softness</name>
													<valuemin>0</valuemin>
													<valuemax>100</valuemax>
													<value>10</value>
												</parameter>
												<parameter>
													<parameterid>opacity</parameterid>
													<name>opacity</name>
													<valuemin>0</valuemin>
													<valuemax>100</valuemax>
													<value>50</value>
												</parameter>
											</effect>
										</filter>
										<filter>
											<enabled>FALSE</enabled>
											<effect>
												<name>Motion Blur</name>
												<effectid>motionblur</effectid>
												<effectcategory>motion</effectcategory>
												<effecttype>motion</effecttype>
												<mediatype>video</mediatype>
												<parameter>
													<parameterid>duration</parameterid>
													<name>% Blur</name>
													<valuemin>0</valuemin>
													<valuemax>1000</valuemax>
													<value>500</value>
												</parameter>
												<parameter>
													<parameterid>samples</parameterid>
													<name>Samples</name>
													<valuemin>1</valuemin>
													<valuemax>16</valuemax>
													<value>4</value>
												</parameter>
											</effect>
										</filter>
										<filter>
											<effect>
												<name>Crop</name>
												<effectid>crop</effectid>
												<effectcategory>motion</effectcategory>
												<effecttype>motion</effecttype>
												<mediatype>video</mediatype>
												<parameter>
													<parameterid>left</parameterid>
													<name>left</name>
													<valuemin>0</valuemin>
													<valuemax>100</valuemax>
													<value>0</value>
												</parameter>
												<parameter>
													<parameterid>right</parameterid>
													<name>right</name>
													<valuemin>0</valuemin>
													<valuemax>100</valuemax>
													<value>0</value>
												</parameter>
												<parameter>
													<parameterid>top</parameterid>
													<name>top</name>
													<valuemin>0</valuemin>
													<valuemax>100</valuemax>
													<value>0</value>
												</parameter>
												<parameter>
													<parameterid>bottom</parameterid>
													<name>bottom</name>
													<valuemin>0</valuemin>
													<valuemax>100</valuemax>
													<value>0</value>
												</parameter>
												<parameter>
													<parameterid>edgefeather</parameterid>
													<name>edgefeather</name>
													<valuemin>0</valuemin>
													<valuemax>100</valuemax>
													<value>0</value>
												</parameter>
											</effect>
										</filter>
										<filter>
											<effect>
												<name>Distort</name>
												<effectid>deformation</effectid>
												<effectcategory>motion</effectcategory>
												<effecttype>motion</effecttype>
												<mediatype>video</mediatype>
												<parameter>
													<parameterid>ulcorner</parameterid>
													<name>Upper Left</name>
													<value>
														<horiz>-0.5</horiz>
														<vert>-0.5</vert>
													</value>
												</parameter>
												<parameter>
													<parameterid>urcorner</parameterid>
													<name>Upper Right</name>
													<value>
														<horiz>0.5</horiz>
														<vert>-0.5</vert>
													</value>
												</parameter>
												<parameter>
													<parameterid>lrcorner</parameterid>
													<name>Lower Right</name>
													<value>
														<horiz>0.5</horiz>
														<vert>0.5</vert>
													</value>
												</parameter>
												<parameter>
													<parameterid>llcorner</parameterid>
													<name>Lower Left</name>
													<value>
														<horiz>-0.5</horiz>
														<vert>0.5</vert>
													</value>
												</parameter>
												<parameter>
													<parameterid>aspect</parameterid>
													<name>Aspect</name>
													<valuemin>-10000</valuemin>
													<valuemax>10000</valuemax>
													<value>0</value>
												</parameter>
											</effect>
										</filter>
										<filter>
											<effect>
												<name>Opacity</name>
												<effectid>opacity</effectid>
												<effectcategory>motion</effectcategory>
												<effecttype>motion</effecttype>
												<mediatype>video</mediatype>
												<parameter>
													<parameterid>opacity</parameterid>
													<name>opacity</name>
													<valuemin>0</valuemin>
													<valuemax>100</valuemax>
													<value>100</value>
												</parameter>
											</effect>
										</filter>
										<sourcetrack>
											<mediatype>video</mediatype>
										</sourcetrack>
										<fielddominance>lower</fielddominance>
										<itemhistory>
											<uuid>20154D08-1B2D-4FC9-AFCB-65FE06A34D48</uuid>
										</itemhistory>
									</clipitem>
									<enabled>TRUE</enabled>
									<locked>FALSE</locked>
								</track>
							</video>
							<audio>
								<format>
									<samplecharacteristics>
										<depth>16</depth>
										<samplerate>48000</samplerate>
									</samplecharacteristics>
								</format>
								<outputs>
									<group>
										<index>1</index>
										<numchannels>2</numchannels>
										<downmix>0</downmix>
										<channel>
											<index>1</index>
										</channel>
										<channel>
											<index>2</index>
										</channel>
									</group>
								</outputs>
								<in>508</in>
								<out>1901</out>
								<track>
									<enabled>TRUE</enabled>
									<locked>FALSE</locked>
									<outputchannelindex>1</outputchannelindex>
								</track>
								<track>
									<enabled>TRUE</enabled>
									<locked>FALSE</locked>
									<outputchannelindex>2</outputchannelindex>
								</track>
								<track>
									<enabled>TRUE</enabled>
									<locked>FALSE</locked>
									<outputchannelindex>1</outputchannelindex>
								</track>
								<track>
									<enabled>TRUE</enabled>
									<locked>FALSE</locked>
									<outputchannelindex>2</outputchannelindex>
								</track>
								<filter>
									<effect>
										<name>Audio Levels</name>
										<effectid>audiolevels</effectid>
										<effectcategory>audiolevels</effectcategory>
										<effecttype>audiolevels</effecttype>
										<mediatype>audio</mediatype>
										<parameter>
											<name>Level</name>
											<parameterid>level</parameterid>
											<valuemin>0</valuemin>
											<valuemax>3.98109</valuemax>
											<value>1</value>
										</parameter>
									</effect>
								</filter>
							</audio>
						</media>
					</sequence>
					<sourcetrack>
						<mediatype>video</mediatype>
					</sourcetrack>
					<link>
						<linkclipref>Roll 1 - Logged</linkclipref>
						<mediatype>video</mediatype>
						<trackindex>1</trackindex>
						<clipindex>2</clipindex>
					</link>
					<link>
						<linkclipref>Roll 1 - Logged2</linkclipref>
						<mediatype>audio</mediatype>
						<trackindex>1</trackindex>
						<clipindex>2</clipindex>
						<groupindex>1</groupindex>
					</link>
					<link>
						<linkclipref>Roll 1 - Logged3</linkclipref>
						<mediatype>audio</mediatype>
						<trackindex>2</trackindex>
						<clipindex>2</clipindex>
						<groupindex>1</groupindex>
					</link>
					<itemhistory>
						<uuid>0BFEB0D2-FD19-4663-9326-CD359AC9FE20</uuid>
					</itemhistory>
				</clipitem>
				<clipitem id="Roll 1 - Logged4">
					<name>Roll 1 - Logged</name>
					<duration>5071</duration>
					<rate>
						<ntsc>TRUE</ntsc>
						<timebase>30</timebase>
					</rate>
					<in>900</in>
					<out>1032</out>
					<start>571</start>
					<end>703</end>
					<sequence id="Roll 1 - Logged1"/>
					<sourcetrack>
						<mediatype>video</mediatype>
					</sourcetrack>
					<link>
						<linkclipref>Roll 1 - Logged4</linkclipref>
						<mediatype>video</mediatype>
						<trackindex>1</trackindex>
						<clipindex>3</clipindex>
					</link>
					<link>
						<linkclipref>Roll 1 - Logged5</linkclipref>
						<mediatype>audio</mediatype>
						<trackindex>1</trackindex>
						<clipindex>3</clipindex>
						<groupindex>1</groupindex>
					</link>
					<link>
						<linkclipref>Roll 1 - Logged6</linkclipref>
						<mediatype>audio</mediatype>
						<trackindex>2</trackindex>
						<clipindex>3</clipindex>
						<groupindex>1</groupindex>
					</link>
					<itemhistory>
						<uuid>01A8F05C-B67B-4589-B6BB-184081BE74B3</uuid>
					</itemhistory>
				</clipitem>
				<clipitem id="Roll 1 - Logged7">
					<name>Roll 1 - Logged</name>
					<duration>5071</duration>
					<rate>
						<ntsc>TRUE</ntsc>
						<timebase>30</timebase>
					</rate>
					<in>1451</in>
					<out>1685</out>
					<start>819</start>
					<end>1053</end>
					<sequence id="Roll 1 - Logged1"/>
					<sourcetrack>
						<mediatype>video</mediatype>
					</sourcetrack>
					<link>
						<linkclipref>Roll 1 - Logged7</linkclipref>
						<mediatype>video</mediatype>
						<trackindex>1</trackindex>
						<clipindex>4</clipindex>
					</link>
					<link>
						<linkclipref>Roll 1 - Logged8</linkclipref>
						<mediatype>audio</mediatype>
						<trackindex>1</trackindex>
						<clipindex>4</clipindex>
						<groupindex>1</groupindex>
					</link>
					<link>
						<linkclipref>Roll 1 - Logged9</linkclipref>
						<mediatype>audio</mediatype>
						<trackindex>2</trackindex>
						<clipindex>4</clipindex>
						<groupindex>1</groupindex>
					</link>
					<itemhistory>
						<uuid>0C836357-FD5B-4545-8EAA-937B8D6B08BB</uuid>
					</itemhistory>
				</clipitem>
				<clipitem id="Roll 6 - Logged4">
					<name>Roll 6 - Logged</name>
					<duration>5269</duration>
					<rate>
						<ntsc>TRUE</ntsc>
						<timebase>30</timebase>
					</rate>
					<in>1714</in>
					<out>2116</out>
					<start>1081</start>
					<end>1483</end>
					<sequence id="Roll 6 - Logged1"/>
					<sourcetrack>
						<mediatype>video</mediatype>
					</sourcetrack>
					<link>
						<linkclipref>Roll 6 - Logged4</linkclipref>
						<mediatype>video</mediatype>
						<trackindex>1</trackindex>
						<clipindex>5</clipindex>
					</link>
					<link>
						<linkclipref>Roll 6 - Logged5</linkclipref>
						<mediatype>audio</mediatype>
						<trackindex>1</trackindex>
						<clipindex>5</clipindex>
						<groupindex>1</groupindex>
					</link>
					<link>
						<linkclipref>Roll 6 - Logged6</linkclipref>
						<mediatype>audio</mediatype>
						<trackindex>2</trackindex>
						<clipindex>5</clipindex>
						<groupindex>1</groupindex>
					</link>
					<itemhistory>
						<uuid>BC715AE3-12AE-4D2D-B007-BCA7C9B05EA6</uuid>
					</itemhistory>
				</clipitem>
				<clipitem id="Roll 6 - Logged7">
					<name>Roll 6 - Logged</name>
					<duration>5269</duration>
					<rate>
						<ntsc>TRUE</ntsc>
						<timebase>30</timebase>
					</rate>
					<in>2683</in>
					<out>3125</out>
					<start>1483</start>
					<end>1925</end>
					<sequence id="Roll 6 - Logged1"/>
					<sourcetrack>
						<mediatype>video</mediatype>
					</sourcetrack>
					<link>
						<linkclipref>Roll 6 - Logged7</linkclipref>
						<mediatype>video</mediatype>
						<trackindex>1</trackindex>
						<clipindex>6</clipindex>
					</link>
					<link>
						<linkclipref>Roll 6 - Logged8</linkclipref>
						<mediatype>audio</mediatype>
						<trackindex>1</trackindex>
						<clipindex>6</clipindex>
						<groupindex>1</groupindex>
					</link>
					<link>
						<linkclipref>Roll 6 - Logged9</linkclipref>
						<mediatype>audio</mediatype>
						<trackindex>2</trackindex>
						<clipindex>6</clipindex>
						<groupindex>1</groupindex>
					</link>
					<itemhistory>
						<uuid>49987E56-571C-42C8-8D99-B3BA79EE61FA</uuid>
					</itemhistory>
				</clipitem>
				<clipitem id="Roll 1 - Logged10">
					<name>Roll 1 - Logged</name>
					<duration>5071</duration>
					<rate>
						<ntsc>TRUE</ntsc>
						<timebase>30</timebase>
					</rate>
					<in>1687</in>
					<out>1901</out>
					<start>1925</start>
					<end>2139</end>
					<sequence id="Roll 1 - Logged1"/>
					<sourcetrack>
						<mediatype>video</mediatype>
					</sourcetrack>
					<link>
						<linkclipref>Roll 1 - Logged10</linkclipref>
						<mediatype>video</mediatype>
						<trackindex>1</trackindex>
						<clipindex>7</clipindex>
					</link>
					<link>
						<linkclipref>Roll 1 - Logged11</linkclipref>
						<mediatype>audio</mediatype>
						<trackindex>1</trackindex>
						<clipindex>7</clipindex>
						<groupindex>1</groupindex>
					</link>
					<link>
						<linkclipref>Roll 1 - Logged12</linkclipref>
						<mediatype>audio</mediatype>
						<trackindex>2</trackindex>
						<clipindex>7</clipindex>
						<groupindex>1</groupindex>
					</link>
					<itemhistory>
						<uuid>6F3F3F1A-3021-4569-B4F6-C48EF8CCEC50</uuid>
					</itemhistory>
				</clipitem>
				<clipitem id="Roll 1 - Logged13">
					<name>Roll 1 - Logged</name>
					<duration>5071</duration>
					<rate>
						<ntsc>TRUE</ntsc>
						<timebase>30</timebase>
					</rate>
					<in>1216</in>
					<out>1444</out>
					<start>2539</start>
					<end>2767</end>
					<sequence id="Roll 1 - Logged1"/>
					<sourcetrack>
						<mediatype>video</mediatype>
					</sourcetrack>
					<link>
						<linkclipref>Roll 1 - Logged13</linkclipref>
						<mediatype>video</mediatype>
						<trackindex>1</trackindex>
						<clipindex>8</clipindex>
					</link>
					<link>
						<linkclipref>Roll 1 - Logged14</linkclipref>
						<mediatype>audio</mediatype>
						<trackindex>1</trackindex>
						<clipindex>8</clipindex>
						<groupindex>1</groupindex>
					</link>
					<link>
						<linkclipref>Roll 1 - Logged15</linkclipref>
						<mediatype>audio</mediatype>
						<trackindex>2</trackindex>
						<clipindex>8</clipindex>
						<groupindex>1</groupindex>
					</link>
					<itemhistory>
						<uuid>12BB9D80-4AE9-46F0-9A8E-71CA8E14A739</uuid>
					</itemhistory>
				</clipitem>
				<clipitem id="Roll 6 - Logged10">
					<name>Roll 6 - Logged</name>
					<duration>5269</duration>
					<rate>
						<ntsc>TRUE</ntsc>
						<timebase>30</timebase>
					</rate>
					<in>3179</in>
					<out>3511</out>
					<start>2850</start>
					<end>3182</end>
					<sequence id="Roll 6 - Logged1"/>
					<sourcetrack>
						<mediatype>video</mediatype>
					</sourcetrack>
					<link>
						<linkclipref>Roll 6 - Logged10</linkclipref>
						<mediatype>video</mediatype>
						<trackindex>1</trackindex>
						<clipindex>9</clipindex>
					</link>
					<link>
						<linkclipref>Roll 6 - Logged11</linkclipref>
						<mediatype>audio</mediatype>
						<trackindex>1</trackindex>
						<clipindex>9</clipindex>
						<groupindex>1</groupindex>
					</link>
					<link>
						<linkclipref>Roll 6 - Logged12</linkclipref>
						<mediatype>audio</mediatype>
						<trackindex>2</trackindex>
						<clipindex>9</clipindex>
						<groupindex>1</groupindex>
					</link>
					<itemhistory>
						<uuid>63CB2021-410E-4571-9938-76838D9DE30D</uuid>
					</itemhistory>
				</clipitem>
				<clipitem id="Roll 6 - Logged13">
					<name>Roll 6 - Logged</name>
					<duration>5269</duration>
					<rate>
						<ntsc>TRUE</ntsc>
						<timebase>30</timebase>
					</rate>
					<in>3645</in>
					<out>4077</out>
					<start>3262</start>
					<end>3694</end>
					<sequence id="Roll 6 - Logged1"/>
					<sourcetrack>
						<mediatype>video</mediatype>
					</sourcetrack>
					<link>
						<linkclipref>Roll 6 - Logged13</linkclipref>
						<mediatype>video</mediatype>
						<trackindex>1</trackindex>
						<clipindex>10</clipindex>
					</link>
					<link>
						<linkclipref>Roll 6 - Logged14</linkclipref>
						<mediatype>audio</mediatype>
						<trackindex>1</trackindex>
						<clipindex>10</clipindex>
						<groupindex>1</groupindex>
					</link>
					<link>
						<linkclipref>Roll 6 - Logged15</linkclipref>
						<mediatype>audio</mediatype>
						<trackindex>2</trackindex>
						<clipindex>10</clipindex>
						<groupindex>1</groupindex>
					</link>
					<itemhistory>
						<uuid>18611DFE-076E-408F-A974-69AD14D422CA</uuid>
					</itemhistory>
				</clipitem>
				<clipitem id="Roll 1 - Logged16">
					<name>Roll 1 - Logged</name>
					<duration>5071</duration>
					<rate>
						<ntsc>TRUE</ntsc>
						<timebase>30</timebase>
					</rate>
					<in>3581</in>
					<out>4018</out>
					<start>3718</start>
					<end>4155</end>
					<sequence id="Roll 1 - Logged1"/>
					<sourcetrack>
						<mediatype>video</mediatype>
					</sourcetrack>
					<link>
						<linkclipref>Roll 1 - Logged16</linkclipref>
						<mediatype>video</mediatype>
						<trackindex>1</trackindex>
						<clipindex>11</clipindex>
					</link>
					<link>
						<linkclipref>Roll 1 - Logged17</linkclipref>
						<mediatype>audio</mediatype>
						<trackindex>1</trackindex>
						<clipindex>11</clipindex>
						<groupindex>1</groupindex>
					</link>
					<link>
						<linkclipref>Roll 1 - Logged18</linkclipref>
						<mediatype>audio</mediatype>
						<trackindex>2</trackindex>
						<clipindex>11</clipindex>
						<groupindex>1</groupindex>
					</link>
					<itemhistory>
						<uuid>5BBCE907-902B-497D-B5AA-D02C90BA4DC0</uuid>
					</itemhistory>
				</clipitem>
				<clipitem id="Roll 1 - Logged19">
					<name>Roll 1 - Logged</name>
					<duration>5071</duration>
					<rate>
						<ntsc>TRUE</ntsc>
						<timebase>30</timebase>
					</rate>
					<in>4062</in>
					<out>4158</out>
					<start>4217</start>
					<end>4313</end>
					<sequence id="Roll 1 - Logged1"/>
					<sourcetrack>
						<mediatype>video</mediatype>
					</sourcetrack>
					<link>
						<linkclipref>Roll 1 - Logged19</linkclipref>
						<mediatype>video</mediatype>
						<trackindex>1</trackindex>
						<clipindex>12</clipindex>
					</link>
					<link>
						<linkclipref>Roll 1 - Logged20</linkclipref>
						<mediatype>audio</mediatype>
						<trackindex>1</trackindex>
						<clipindex>12</clipindex>
						<groupindex>1</groupindex>
					</link>
					<link>
						<linkclipref>Roll 1 - Logged21</linkclipref>
						<mediatype>audio</mediatype>
						<trackindex>2</trackindex>
						<clipindex>12</clipindex>
						<groupindex>1</groupindex>
					</link>
					<itemhistory>
						<uuid>A480F743-7C2F-4F79-932E-F11AA87D4CF7</uuid>
					</itemhistory>
				</clipitem>
				<clipitem id="Roll 1 - Logged22">
					<name>Roll 1 - Logged</name>
					<duration>5071</duration>
					<rate>
						<ntsc>TRUE</ntsc>
						<timebase>30</timebase>
					</rate>
					<in>4539</in>
					<out>4580</out>
					<start>4313</start>
					<end>4354</end>
					<sequence id="Roll 1 - Logged1"/>
					<sourcetrack>
						<mediatype>video</mediatype>
					</sourcetrack>
					<link>
						<linkclipref>Roll 1 - Logged22</linkclipref>
						<mediatype>video</mediatype>
						<trackindex>1</trackindex>
						<clipindex>13</clipindex>
					</link>
					<link>
						<linkclipref>Roll 1 - Logged23</linkclipref>
						<mediatype>audio</mediatype>
						<trackindex>1</trackindex>
						<clipindex>13</clipindex>
						<groupindex>1</groupindex>
					</link>
					<link>
						<linkclipref>Roll 1 - Logged24</linkclipref>
						<mediatype>audio</mediatype>
						<trackindex>2</trackindex>
						<clipindex>13</clipindex>
						<groupindex>1</groupindex>
					</link>
					<itemhistory>
						<uuid>C39AF8FB-819D-4245-A875-DA1CB111901F</uuid>
					</itemhistory>
				</clipitem>
				<clipitem id="Roll 6 - Logged16">
					<name>Roll 6 - Logged</name>
					<duration>5269</duration>
					<rate>
						<ntsc>TRUE</ntsc>
						<timebase>30</timebase>
					</rate>
					<in>1100</in>
					<out>1552</out>
					<start>4524</start>
					<end>4976</end>
					<sequence id="Roll 6 - Logged1"/>
					<sourcetrack>
						<mediatype>video</mediatype>
					</sourcetrack>
					<link>
						<linkclipref>Roll 6 - Logged16</linkclipref>
						<mediatype>video</mediatype>
						<trackindex>1</trackindex>
						<clipindex>14</clipindex>
					</link>
					<link>
						<linkclipref>Roll 6 - Logged17</linkclipref>
						<mediatype>audio</mediatype>
						<trackindex>1</trackindex>
						<clipindex>14</clipindex>
						<groupindex>1</groupindex>
					</link>
					<link>
						<linkclipref>Roll 6 - Logged18</linkclipref>
						<mediatype>audio</mediatype>
						<trackindex>2</trackindex>
						<clipindex>14</clipindex>
						<groupindex>1</groupindex>
					</link>
					<itemhistory>
						<uuid>FEC2A013-6A1B-4250-B353-A5EA11EFE9C9</uuid>
					</itemhistory>
				</clipitem>
				<clipitem id="Roll 7 - Logged">
					<name>Roll 7 - Logged</name>
					<duration>4695</duration>
					<rate>
						<ntsc>TRUE</ntsc>
						<timebase>30</timebase>
					</rate>
					<in>0</in>
					<out>1023</out>
					<start>5574</start>
					<end>6597</end>
					<sequence id="Roll 7 - Logged1">
						<name>Roll 7 - Logged</name>
						<duration>4695</duration>
						<rate>
							<ntsc>TRUE</ntsc>
							<timebase>30</timebase>
						</rate>
						<timecode>
							<rate>
								<ntsc>TRUE</ntsc>
								<timebase>30</timebase>
							</rate>
							<string>01:00:00;00</string>
							<frame>107892</frame>
							<source>source</source>
							<displayformat>DF</displayformat>
						</timecode>
						<in>2633</in>
						<out>-1</out>
						<media>
							<video>
								<format>
									<samplecharacteristics>
										<width>720</width>
										<height>486</height>
										<anamorphic>FALSE</anamorphic>
										<pixelaspectratio>NTSC-601</pixelaspectratio>
										<fielddominance>lower</fielddominance>
										<rate>
											<ntsc>TRUE</ntsc>
											<timebase>30</timebase>
										</rate>
										<colordepth>24</colordepth>
										<codec>
											<name>Apple FCP Uncompressed 8-bit 4:2:2</name>
											<appspecificdata>
												<appname>Final Cut Pro</appname>
												<appmanufacturer>Apple Inc.</appmanufacturer>
												<appversion>7.0</appversion>
												<data>
													<qtcodec>
														<codecname>Apple FCP Uncompressed 8-bit 4:2:2</codecname>
														<codectypename>Uncompressed 8-bit 4:2:2</codectypename>
														<codectypecode>2vuy</codectypecode>
														<codecvendorcode>KeyG</codecvendorcode>
														<spatialquality>1024</spatialquality>
														<temporalquality>0</temporalquality>
														<keyframerate>0</keyframerate>
														<datarate>0</datarate>
													</qtcodec>
												</data>
											</appspecificdata>
										</codec>
									</samplecharacteristics>
									<appspecificdata>
										<appname>Final Cut Pro</appname>
										<appmanufacturer>Apple Inc.</appmanufacturer>
										<appversion>7.0</appversion>
										<data>
											<fcpimageprocessing>
												<useyuv>TRUE</useyuv>
												<usesuperwhite>FALSE</usesuperwhite>
												<rendermode>Float10BPP</rendermode>
											</fcpimageprocessing>
										</data>
									</appspecificdata>
								</format>
								<track>
									<clipitem id="eileen r 12-21-11 4">
										<name>eileen r 12-21-11</name>
										<duration>53601</duration>
										<rate>
											<ntsc>TRUE</ntsc>
											<timebase>30</timebase>
										</rate>
										<in>32724</in>
										<out>37419</out>
										<start>0</start>
										<end>4695</end>
										<pixelaspectratio>NTSC-601</pixelaspectratio>
										<enabled>TRUE</enabled>
										<anamorphic>FALSE</anamorphic>
										<alphatype>none</alphatype>
										<alphareverse>FALSE</alphareverse>
										<masterclipid>eileen r 12-21-11 1</masterclipid>
										<logginginfo>
											<scene/>
											<shottake/>
											<lognote/>
											<good>FALSE</good>
										</logginginfo>
										<labels>
											<label2/>
										</labels>
										<comments>
											<mastercomment1/>
											<mastercomment2/>
											<mastercomment3/>
											<mastercomment4/>
										</comments>
										<file id="eileen r 12-21-11 2"/>
										<filter>
											<enabled>TRUE</enabled>
											<start>-1</start>
											<end>-1</end>
											<effect>
												<name>Color Corrector</name>
												<effectid>Color Corrector</effectid>
												<effectcategory>Color Correction</effectcategory>
												<effecttype>filter</effecttype>
												<mediatype>video</mediatype>
												<parameter>
													<parameterid>dispmode</parameterid>
													<name>Display Mode</name>
													<valuemin>1</valuemin>
													<valuemax>3</valuemax>
													<valuelist>
														<valueentry>
															<name>Final</name>
															<value>1</value>
														</valueentry>
														<valueentry>
															<name>Matte</name>
															<value>2</value>
														</valueentry>
														<valueentry>
															<name>Source</name>
															<value>3</value>
														</valueentry>
													</valuelist>
													<value>1</value>
												</parameter>
												<parameter>
													<parameterid>label1</parameterid>
													<name>Level Controls</name>
													<value/>
												</parameter>
												<parameter>
													<parameterid>highlights</parameterid>
													<name>Highlights</name>
													<valuemin>64</valuemin>
													<valuemax>509</valuemax>
													<value>255</value>
												</parameter>
												<parameter>
													<parameterid>mids</parameterid>
													<name>Mids</name>
													<valuemin>0</valuemin>
													<valuemax>200</valuemax>
													<value>100</value>
												</parameter>
												<parameter>
													<parameterid>blacklevel</parameterid>
													<name>Blacks</name>
													<valuemin>-196</valuemin>
													<valuemax>254</valuemax>
													<value>0</value>
												</parameter>
												<parameter>
													<parameterid>label2</parameterid>
													<name>Color Balance</name>
													<value/>
												</parameter>
												<parameter>
													<parameterid>hue</parameterid>
													<name>Angle</name>
													<valuemin>-180</valuemin>
													<valuemax>180</valuemax>
													<value>-33</value>
												</parameter>
												<parameter>
													<parameterid>mag</parameterid>
													<name>Magnitude</name>
													<valuemin>0</valuemin>
													<valuemax>200</valuemax>
													<value>0</value>
												</parameter>
												<parameter>
													<parameterid>label4</parameterid>
													<name>Color Controls</name>
													<value/>
												</parameter>
												<parameter>
													<parameterid>chroma</parameterid>
													<name>Saturation</name>
													<valuemin>0</valuemin>
													<valuemax>200</valuemax>
													<value>100</value>
												</parameter>
												<parameter>
													<parameterid>phase</parameterid>
													<name>Phase shift</name>
													<valuemin>-180</valuemin>
													<valuemax>180</valuemax>
													<value>0</value>
												</parameter>
												<parameter>
													<parameterid>label5</parameterid>
													<name>Limit Effect Controls</name>
													<value/>
												</parameter>
												<parameter>
													<parameterid>dochroma</parameterid>
													<name>Limit on Chroma</name>
													<value>FALSE</value>
												</parameter>
												<parameter>
													<parameterid>centerang</parameterid>
													<name>Chroma Center</name>
													<valuemin>-760</valuemin>
													<valuemax>760</valuemax>
													<value>-110</value>
												</parameter>
												<parameter>
													<parameterid>chromawidth</parameterid>
													<name>Chroma Width</name>
													<valuemin>0</valuemin>
													<valuemax>360</valuemax>
													<value>15</value>
												</parameter>
												<parameter>
													<parameterid>chromasoft</parameterid>
													<name>Chroma Softness</name>
													<valuemin>0</valuemin>
													<valuemax>180</valuemax>
													<value>10</value>
												</parameter>
												<parameter>
													<parameterid>dosat</parameterid>
													<name>Limit on Saturation</name>
													<value>FALSE</value>
												</parameter>
												<parameter>
													<parameterid>satmin</parameterid>
													<name>Sat. Minimum</name>
													<valuemin>0</valuemin>
													<valuemax>125</valuemax>
													<value>35</value>
												</parameter>
												<parameter>
													<parameterid>satwidth</parameterid>
													<name>Sat. Width</name>
													<valuemin>0</valuemin>
													<valuemax>125</valuemax>
													<value>40</value>
												</parameter>
												<parameter>
													<parameterid>satsoft</parameterid>
													<name>Sat. Softness</name>
													<valuemin>0</valuemin>
													<valuemax>125</valuemax>
													<value>20</value>
												</parameter>
												<parameter>
													<parameterid>doluma</parameterid>
													<name>Limit on Luma</name>
													<value>FALSE</value>
												</parameter>
												<parameter>
													<parameterid>lumamin</parameterid>
													<name>Luma Minimum</name>
													<valuemin>0</valuemin>
													<valuemax>120</valuemax>
													<value>0</value>
												</parameter>
												<parameter>
													<parameterid>lumawidth</parameterid>
													<name>Luma Width</name>
													<valuemin>0</valuemin>
													<valuemax>120</valuemax>
													<value>40</value>
												</parameter>
												<parameter>
													<parameterid>lumasoft</parameterid>
													<name>Luma Softness</name>
													<valuemin>0</valuemin>
													<valuemax>120</valuemax>
													<value>20</value>
												</parameter>
												<parameter>
													<parameterid>label6</parameterid>
													<name>Edge Control</name>
													<value/>
												</parameter>
												<parameter>
													<parameterid>edgethin</parameterid>
													<name>Thin/Spread</name>
													<valuemin>-100</valuemin>
													<valuemax>100</valuemax>
													<value>0</value>
												</parameter>
												<parameter>
													<parameterid>edgefeather</parameterid>
													<name>Softening</name>
													<valuemin>0</valuemin>
													<valuemax>100</valuemax>
													<value>0</value>
												</parameter>
												<parameter>
													<parameterid>label7</parameterid>
													<name>Mask Control</name>
													<value/>
												</parameter>
												<parameter>
													<parameterid>invertsel</parameterid>
													<name>Invert</name>
													<value>FALSE</value>
												</parameter>
												<parameter>
													<parameterid>debugshow</parameterid>
													<name>Show Stats</name>
													<value>FALSE</value>
												</parameter>
											</effect>
										</filter>
										<filter>
											<enabled>TRUE</enabled>
											<start>-1</start>
											<end>-1</end>
											<effect>
												<name>Timecode Generator</name>
												<effectid>Timecode Generator</effectid>
												<effectcategory>Video</effectcategory>
												<effecttype>filter</effecttype>
												<mediatype>video</mediatype>
												<parameter>
													<parameterid>mode</parameterid>
													<name>Label</name>
													<value>TCG </value>
												</parameter>
												<parameter>
													<parameterid>tcformat</parameterid>
													<name>Format</name>
													<valuemin>1</valuemin>
													<valuemax>14</valuemax>
													<valuelist>
														<valueentry>
															<name>Frames</name>
															<value>1</value>
														</valueentry>
														<valueentry>
															<name>16mm</name>
															<value>2</value>
														</valueentry>
														<valueentry>
															<name>35mm</name>
															<value>3</value>
														</valueentry>
														<valueentry>
															<name>24fps</name>
															<value>4</value>
														</valueentry>
														<valueentry>
															<name>25fps</name>
															<value>5</value>
														</valueentry>
														<valueentry>
															<name>30fps</name>
															<value>6</value>
														</valueentry>
														<valueentry>
															<name>29.97fps(NDF)</name>
															<value>7</value>
														</valueentry>
														<valueentry>
															<name>29.97fps(DF)</name>
															<value>8</value>
														</valueentry>
														<valueentry>
															<name>50fps</name>
															<value>9</value>
														</valueentry>
														<valueentry>
															<name>50fps(50 @ 25)</name>
															<value>10</value>
														</valueentry>
														<valueentry>
															<name>60fps(NDF)</name>
															<value>11</value>
														</valueentry>
														<valueentry>
															<name>60fps(DF)</name>
															<value>12</value>
														</valueentry>
														<valueentry>
															<name>60fps(60 @ 30)</name>
															<value>13</value>
														</valueentry>
														<valueentry>
															<name>60fps(60 @ 30 DF)</name>
															<value>14</value>
														</valueentry>
													</valuelist>
													<value>1</value>
												</parameter>
												<parameter>
													<parameterid>hroffset</parameterid>
													<name>Hour Offset</name>
													<value>0</value>
												</parameter>
												<parameter>
													<parameterid>tcoffset</parameterid>
													<name>Frame Offset</name>
													<valuemin>-108000</valuemin>
													<valuemax>108000</valuemax>
													<value>0</value>
												</parameter>
												<parameter>
													<parameterid>fontsize</parameterid>
													<name>Size</name>
													<valuemin>8</valuemin>
													<valuemax>100</valuemax>
													<value>8</value>
												</parameter>
												<parameter>
													<parameterid>center</parameterid>
													<name>Center</name>
													<value>
														<horiz>0.423645</horiz>
														<vert>0.475676</vert>
													</value>
												</parameter>
												<parameter>
													<parameterid>fontcolor</parameterid>
													<name>Font Color</name>
													<value>
														<alpha>255</alpha>
														<red>255</red>
														<green>255</green>
														<blue>255</blue>
													</value>
												</parameter>
												<parameter>
													<parameterid>ignoreopacity</parameterid>
													<name>Ignore Opacity (Faster)</name>
													<value>TRUE</value>
												</parameter>
												<parameter>
													<parameterid>opacitytc</parameterid>
													<name>Opacity</name>
													<valuemin>0</valuemin>
													<valuemax>100</valuemax>
													<value>100</value>
												</parameter>
												<parameter>
													<parameterid>backcolor</parameterid>
													<name>Back Color</name>
													<value>
														<alpha>255</alpha>
														<red>0</red>
														<green>0</green>
														<blue>0</blue>
													</value>
												</parameter>
											</effect>
										</filter>
										<filter>
											<effect>
												<name>Basic Motion</name>
												<effectid>basic</effectid>
												<effectcategory>motion</effectcategory>
												<effecttype>motion</effecttype>
												<mediatype>video</mediatype>
												<parameter>
													<parameterid>scale</parameterid>
													<name>Scale</name>
													<valuemin>0</valuemin>
													<valuemax>1000</valuemax>
													<value>100</value>
												</parameter>
												<parameter>
													<parameterid>rotation</parameterid>
													<name>Rotation</name>
													<valuemin>-8640</valuemin>
													<valuemax>8640</valuemax>
													<value>0</value>
												</parameter>
												<parameter>
													<parameterid>center</parameterid>
													<name>Center</name>
													<value>
														<horiz>0</horiz>
														<vert>0</vert>
													</value>
												</parameter>
												<parameter>
													<parameterid>centerOffset</parameterid>
													<name>Anchor Point</name>
													<value>
														<horiz>0</horiz>
														<vert>0</vert>
													</value>
												</parameter>
											</effect>
										</filter>
										<filter>
											<enabled>FALSE</enabled>
											<effect>
												<name>Drop Shadow</name>
												<effectid>dropshadow</effectid>
												<effectcategory>motion</effectcategory>
												<effecttype>motion</effecttype>
												<mediatype>video</mediatype>
												<parameter>
													<parameterid>offset</parameterid>
													<name>offset</name>
													<valuemin>-100</valuemin>
													<valuemax>100</valuemax>
													<value>2</value>
												</parameter>
												<parameter>
													<parameterid>angle</parameterid>
													<name>angle</name>
													<valuemin>-720</valuemin>
													<valuemax>720</valuemax>
													<value>135</value>
												</parameter>
												<parameter>
													<parameterid>color</parameterid>
													<name>color</name>
													<value>
														<alpha>0</alpha>
														<red>0</red>
														<green>0</green>
														<blue>0</blue>
													</value>
												</parameter>
												<parameter>
													<parameterid>softness</parameterid>
													<name>softness</name>
													<valuemin>0</valuemin>
													<valuemax>100</valuemax>
													<value>10</value>
												</parameter>
												<parameter>
													<parameterid>opacity</parameterid>
													<name>opacity</name>
													<valuemin>0</valuemin>
													<valuemax>100</valuemax>
													<value>50</value>
												</parameter>
											</effect>
										</filter>
										<filter>
											<enabled>FALSE</enabled>
											<effect>
												<name>Motion Blur</name>
												<effectid>motionblur</effectid>
												<effectcategory>motion</effectcategory>
												<effecttype>motion</effecttype>
												<mediatype>video</mediatype>
												<parameter>
													<parameterid>duration</parameterid>
													<name>% Blur</name>
													<valuemin>0</valuemin>
													<valuemax>1000</valuemax>
													<value>500</value>
												</parameter>
												<parameter>
													<parameterid>samples</parameterid>
													<name>Samples</name>
													<valuemin>1</valuemin>
													<valuemax>16</valuemax>
													<value>4</value>
												</parameter>
											</effect>
										</filter>
										<filter>
											<effect>
												<name>Crop</name>
												<effectid>crop</effectid>
												<effectcategory>motion</effectcategory>
												<effecttype>motion</effecttype>
												<mediatype>video</mediatype>
												<parameter>
													<parameterid>left</parameterid>
													<name>left</name>
													<valuemin>0</valuemin>
													<valuemax>100</valuemax>
													<value>0</value>
												</parameter>
												<parameter>
													<parameterid>right</parameterid>
													<name>right</name>
													<valuemin>0</valuemin>
													<valuemax>100</valuemax>
													<value>0</value>
												</parameter>
												<parameter>
													<parameterid>top</parameterid>
													<name>top</name>
													<valuemin>0</valuemin>
													<valuemax>100</valuemax>
													<value>0</value>
												</parameter>
												<parameter>
													<parameterid>bottom</parameterid>
													<name>bottom</name>
													<valuemin>0</valuemin>
													<valuemax>100</valuemax>
													<value>0</value>
												</parameter>
												<parameter>
													<parameterid>edgefeather</parameterid>
													<name>edgefeather</name>
													<valuemin>0</valuemin>
													<valuemax>100</valuemax>
													<value>0</value>
												</parameter>
											</effect>
										</filter>
										<filter>
											<effect>
												<name>Distort</name>
												<effectid>deformation</effectid>
												<effectcategory>motion</effectcategory>
												<effecttype>motion</effecttype>
												<mediatype>video</mediatype>
												<parameter>
													<parameterid>ulcorner</parameterid>
													<name>Upper Left</name>
													<value>
														<horiz>-0.5</horiz>
														<vert>-0.5</vert>
													</value>
												</parameter>
												<parameter>
													<parameterid>urcorner</parameterid>
													<name>Upper Right</name>
													<value>
														<horiz>0.5</horiz>
														<vert>-0.5</vert>
													</value>
												</parameter>
												<parameter>
													<parameterid>lrcorner</parameterid>
													<name>Lower Right</name>
													<value>
														<horiz>0.5</horiz>
														<vert>0.5</vert>
													</value>
												</parameter>
												<parameter>
													<parameterid>llcorner</parameterid>
													<name>Lower Left</name>
													<value>
														<horiz>-0.5</horiz>
														<vert>0.5</vert>
													</value>
												</parameter>
												<parameter>
													<parameterid>aspect</parameterid>
													<name>Aspect</name>
													<valuemin>-10000</valuemin>
													<valuemax>10000</valuemax>
													<value>0</value>
												</parameter>
											</effect>
										</filter>
										<filter>
											<effect>
												<name>Opacity</name>
												<effectid>opacity</effectid>
												<effectcategory>motion</effectcategory>
												<effecttype>motion</effecttype>
												<mediatype>video</mediatype>
												<parameter>
													<parameterid>opacity</parameterid>
													<name>opacity</name>
													<valuemin>0</valuemin>
													<valuemax>100</valuemax>
													<value>100</value>
												</parameter>
											</effect>
										</filter>
										<sourcetrack>
											<mediatype>video</mediatype>
										</sourcetrack>
										<fielddominance>lower</fielddominance>
										<itemhistory>
											<uuid>335ADBCD-3A72-4C7F-873A-D75F156BEB0C</uuid>
										</itemhistory>
									</clipitem>
									<enabled>TRUE</enabled>
									<locked>FALSE</locked>
								</track>
							</video>
							<audio>
								<format>
									<samplecharacteristics>
										<depth>16</depth>
										<samplerate>48000</samplerate>
									</samplecharacteristics>
								</format>
								<outputs>
									<group>
										<index>1</index>
										<numchannels>2</numchannels>
										<downmix>0</downmix>
										<channel>
											<index>1</index>
										</channel>
										<channel>
											<index>2</index>
										</channel>
									</group>
								</outputs>
								<in>2633</in>
								<out>-1</out>
								<track>
									<enabled>TRUE</enabled>
									<locked>FALSE</locked>
									<outputchannelindex>1</outputchannelindex>
								</track>
								<track>
									<enabled>TRUE</enabled>
									<locked>FALSE</locked>
									<outputchannelindex>2</outputchannelindex>
								</track>
								<track>
									<enabled>TRUE</enabled>
									<locked>FALSE</locked>
									<outputchannelindex>1</outputchannelindex>
								</track>
								<track>
									<enabled>TRUE</enabled>
									<locked>FALSE</locked>
									<outputchannelindex>2</outputchannelindex>
								</track>
								<filter>
									<effect>
										<name>Audio Levels</name>
										<effectid>audiolevels</effectid>
										<effectcategory>audiolevels</effectcategory>
										<effecttype>audiolevels</effecttype>
										<mediatype>audio</mediatype>
										<parameter>
											<name>Level</name>
											<parameterid>level</parameterid>
											<valuemin>0</valuemin>
											<valuemax>3.98109</valuemax>
											<value>1</value>
										</parameter>
									</effect>
								</filter>
							</audio>
						</media>
					</sequence>
					<sourcetrack>
						<mediatype>video</mediatype>
					</sourcetrack>
					<link>
						<linkclipref>Roll 7 - Logged</linkclipref>
						<mediatype>video</mediatype>
						<trackindex>1</trackindex>
						<clipindex>15</clipindex>
					</link>
					<link>
						<linkclipref>Roll 7 - Logged2</linkclipref>
						<mediatype>audio</mediatype>
						<trackindex>1</trackindex>
						<clipindex>15</clipindex>
						<groupindex>1</groupindex>
					</link>
					<link>
						<linkclipref>Roll 7 - Logged3</linkclipref>
						<mediatype>audio</mediatype>
						<trackindex>2</trackindex>
						<clipindex>15</clipindex>
						<groupindex>1</groupindex>
					</link>
					<itemhistory>
						<uuid>56D37418-98C8-4CB2-AFD2-46D14D1118F7</uuid>
					</itemhistory>
				</clipitem>
				<clipitem id="Roll 7 - Logged4">
					<name>Roll 7 - Logged</name>
					<duration>4695</duration>
					<rate>
						<ntsc>TRUE</ntsc>
						<timebase>30</timebase>
					</rate>
					<in>1211</in>
					<out>1518</out>
					<start>6597</start>
					<end>6904</end>
					<sequence id="Roll 7 - Logged1"/>
					<sourcetrack>
						<mediatype>video</mediatype>
					</sourcetrack>
					<link>
						<linkclipref>Roll 7 - Logged4</linkclipref>
						<mediatype>video</mediatype>
						<trackindex>1</trackindex>
						<clipindex>16</clipindex>
					</link>
					<link>
						<linkclipref>Roll 7 - Logged5</linkclipref>
						<mediatype>audio</mediatype>
						<trackindex>1</trackindex>
						<clipindex>16</clipindex>
						<groupindex>1</groupindex>
					</link>
					<link>
						<linkclipref>Roll 7 - Logged6</linkclipref>
						<mediatype>audio</mediatype>
						<trackindex>2</trackindex>
						<clipindex>16</clipindex>
						<groupindex>1</groupindex>
					</link>
					<itemhistory>
						<uuid>5857ED8D-790D-4FEA-A584-D49265FA9CD5</uuid>
					</itemhistory>
				</clipitem>
				<clipitem id="Roll 7 - Logged7">
					<name>Roll 7 - Logged</name>
					<duration>4695</duration>
					<rate>
						<ntsc>TRUE</ntsc>
						<timebase>30</timebase>
					</rate>
					<in>1025</in>
					<out>1211</out>
					<start>7165</start>
					<end>7351</end>
					<sequence id="Roll 7 - Logged1"/>
					<sourcetrack>
						<mediatype>video</mediatype>
					</sourcetrack>
					<link>
						<linkclipref>Roll 7 - Logged7</linkclipref>
						<mediatype>video</mediatype>
						<trackindex>1</trackindex>
						<clipindex>17</clipindex>
					</link>
					<link>
						<linkclipref>Roll 7 - Logged8</linkclipref>
						<mediatype>audio</mediatype>
						<trackindex>1</trackindex>
						<clipindex>17</clipindex>
						<groupindex>1</groupindex>
					</link>
					<link>
						<linkclipref>Roll 7 - Logged9</linkclipref>
						<mediatype>audio</mediatype>
						<trackindex>2</trackindex>
						<clipindex>17</clipindex>
						<groupindex>1</groupindex>
					</link>
					<itemhistory>
						<uuid>1D8E336F-87D3-43FC-8B8F-89955FEE7652</uuid>
					</itemhistory>
				</clipitem>
				<clipitem id="Roll 7 - Logged10">
					<name>Roll 7 - Logged</name>
					<duration>4695</duration>
					<rate>
						<ntsc>TRUE</ntsc>
						<timebase>30</timebase>
					</rate>
					<in>1524</in>
					<out>1836</out>
					<start>7351</start>
					<end>7663</end>
					<sequence id="Roll 7 - Logged1"/>
					<sourcetrack>
						<mediatype>video</mediatype>
					</sourcetrack>
					<link>
						<linkclipref>Roll 7 - Logged10</linkclipref>
						<mediatype>video</mediatype>
						<trackindex>1</trackindex>
						<clipindex>18</clipindex>
					</link>
					<link>
						<linkclipref>Roll 7 - Logged11</linkclipref>
						<mediatype>audio</mediatype>
						<trackindex>1</trackindex>
						<clipindex>18</clipindex>
						<groupindex>1</groupindex>
					</link>
					<link>
						<linkclipref>Roll 7 - Logged12</linkclipref>
						<mediatype>audio</mediatype>
						<trackindex>2</trackindex>
						<clipindex>18</clipindex>
						<groupindex>1</groupindex>
					</link>
					<itemhistory>
						<uuid>F1EC614F-A983-40EE-99CE-C6819F7F540D</uuid>
					</itemhistory>
				</clipitem>
				<enabled>TRUE</enabled>
				<locked>FALSE</locked>
			</track>
			<track>
				<clipitem id="Roll 1 - Logged25">
					<name>Roll 1 - Logged</name>
					<duration>5071</duration>
					<rate>
						<ntsc>TRUE</ntsc>
						<timebase>30</timebase>
					</rate>
					<in>749</in>
					<out>900</out>
					<start>420</start>
					<end>571</end>
					<sequence id="Roll 1 - Logged1"/>
					<sourcetrack>
						<mediatype>video</mediatype>
					</sourcetrack>
					<link>
						<linkclipref>Roll 1 - Logged25</linkclipref>
						<mediatype>video</mediatype>
						<trackindex>2</trackindex>
						<clipindex>1</clipindex>
					</link>
					<link>
						<linkclipref>Roll 1 - Logged26</linkclipref>
						<mediatype>audio</mediatype>
						<trackindex>3</trackindex>
						<clipindex>1</clipindex>
						<groupindex>1</groupindex>
					</link>
					<link>
						<linkclipref>Roll 1 - Logged27</linkclipref>
						<mediatype>audio</mediatype>
						<trackindex>4</trackindex>
						<clipindex>1</clipindex>
						<groupindex>1</groupindex>
					</link>
					<itemhistory>
						<uuid>568CB067-4B62-4251-B725-CD5A596012BB</uuid>
					</itemhistory>
				</clipitem>
				<clipitem id="Roll 1 - Logged28">
					<name>Roll 1 - Logged</name>
					<duration>5071</duration>
					<rate>
						<ntsc>TRUE</ntsc>
						<timebase>30</timebase>
					</rate>
					<in>3317</in>
					<out>3433</out>
					<start>703</start>
					<end>819</end>
					<sequence id="Roll 1 - Logged1"/>
					<sourcetrack>
						<mediatype>video</mediatype>
					</sourcetrack>
					<link>
						<linkclipref>Roll 1 - Logged28</linkclipref>
						<mediatype>video</mediatype>
						<trackindex>2</trackindex>
						<clipindex>2</clipindex>
					</link>
					<link>
						<linkclipref>Roll 1 - Logged29</linkclipref>
						<mediatype>audio</mediatype>
						<trackindex>3</trackindex>
						<clipindex>2</clipindex>
						<groupindex>1</groupindex>
					</link>
					<link>
						<linkclipref>Roll 1 - Logged30</linkclipref>
						<mediatype>audio</mediatype>
						<trackindex>4</trackindex>
						<clipindex>2</clipindex>
						<groupindex>1</groupindex>
					</link>
					<itemhistory>
						<uuid>67FFD4A9-DDE7-47BF-B7FD-6FCF0A7F1CBF</uuid>
					</itemhistory>
				</clipitem>
				<enabled>TRUE</enabled>
				<locked>FALSE</locked>
			</track>
			<track>
				<enabled>TRUE</enabled>
				<locked>FALSE</locked>
			</track>
		</video>
		<audio>
			<format>
				<samplecharacteristics>
					<depth>16</depth>
					<samplerate>48000</samplerate>
				</samplecharacteristics>
			</format>
			<outputs>
				<group>
					<index>1</index>
					<numchannels>2</numchannels>
					<downmix>0</downmix>
					<channel>
						<index>1</index>
					</channel>
					<channel>
						<index>2</index>
					</channel>
				</group>
			</outputs>
			<in>-1</in>
			<out>-1</out>
			<track>
				<clipitem id="Roll 6 - Logged2">
					<name>Roll 6 - Logged</name>
					<duration>5269</duration>
					<rate>
						<ntsc>TRUE</ntsc>
						<timebase>30</timebase>
					</rate>
					<in>2135</in>
					<out>2256</out>
					<start>56</start>
					<end>177</end>
					<filter>
						<effect>
							<name>Audio Levels</name>
							<effectid>audiolevels</effectid>
							<effectcategory>audiolevels</effectcategory>
							<effecttype>audiolevels</effecttype>
							<mediatype>audio</mediatype>
							<parameter>
								<name>Level</name>
								<parameterid>level</parameterid>
								<valuemin>0</valuemin>
								<valuemax>3.98109</valuemax>
								<value>1</value>
							</parameter>
						</effect>
					</filter>
					<filter>
						<effect>
							<name>Audio Pan</name>
							<effectid>audiopan</effectid>
							<effectcategory>audiopan</effectcategory>
							<effecttype>audiopan</effecttype>
							<mediatype>audio</mediatype>
							<parameter>
								<name>Pan</name>
								<parameterid>pan</parameterid>
								<valuemin>-1</valuemin>
								<valuemax>1</valuemax>
								<value>-1</value>
							</parameter>
						</effect>
					</filter>
					<sequence id="Roll 6 - Logged1"/>
					<sourcetrack>
						<mediatype>audio</mediatype>
						<trackindex>1</trackindex>
					</sourcetrack>
					<link>
						<linkclipref>Roll 6 - Logged</linkclipref>
						<mediatype>video</mediatype>
						<trackindex>1</trackindex>
						<clipindex>1</clipindex>
					</link>
					<link>
						<linkclipref>Roll 6 - Logged2</linkclipref>
						<mediatype>audio</mediatype>
						<trackindex>1</trackindex>
						<clipindex>1</clipindex>
						<groupindex>1</groupindex>
					</link>
					<link>
						<linkclipref>Roll 6 - Logged3</linkclipref>
						<mediatype>audio</mediatype>
						<trackindex>2</trackindex>
						<clipindex>1</clipindex>
						<groupindex>1</groupindex>
					</link>
					<itemhistory>
						<uuid>18C5F2AE-4013-4D4F-9261-A49C8FCEF448</uuid>
					</itemhistory>
				</clipitem>
				<clipitem id="Roll 1 - Logged2">
					<name>Roll 1 - Logged</name>
					<duration>5071</duration>
					<rate>
						<ntsc>TRUE</ntsc>
						<timebase>30</timebase>
					</rate>
					<in>506</in>
					<out>749</out>
					<start>177</start>
					<end>420</end>
					<filter>
						<effect>
							<name>Audio Levels</name>
							<effectid>audiolevels</effectid>
							<effectcategory>audiolevels</effectcategory>
							<effecttype>audiolevels</effecttype>
							<mediatype>audio</mediatype>
							<parameter>
								<name>Level</name>
								<parameterid>level</parameterid>
								<valuemin>0</valuemin>
								<valuemax>3.98109</valuemax>
								<value>1</value>
							</parameter>
						</effect>
					</filter>
					<filter>
						<effect>
							<name>Audio Pan</name>
							<effectid>audiopan</effectid>
							<effectcategory>audiopan</effectcategory>
							<effecttype>audiopan</effecttype>
							<mediatype>audio</mediatype>
							<parameter>
								<name>Pan</name>
								<parameterid>pan</parameterid>
								<valuemin>-1</valuemin>
								<valuemax>1</valuemax>
								<value>-1</value>
							</parameter>
						</effect>
					</filter>
					<sequence id="Roll 1 - Logged1"/>
					<sourcetrack>
						<mediatype>audio</mediatype>
						<trackindex>1</trackindex>
					</sourcetrack>
					<link>
						<linkclipref>Roll 1 - Logged</linkclipref>
						<mediatype>video</mediatype>
						<trackindex>1</trackindex>
						<clipindex>2</clipindex>
					</link>
					<link>
						<linkclipref>Roll 1 - Logged2</linkclipref>
						<mediatype>audio</mediatype>
						<trackindex>1</trackindex>
						<clipindex>2</clipindex>
						<groupindex>1</groupindex>
					</link>
					<link>
						<linkclipref>Roll 1 - Logged3</linkclipref>
						<mediatype>audio</mediatype>
						<trackindex>2</trackindex>
						<clipindex>2</clipindex>
						<groupindex>1</groupindex>
					</link>
					<itemhistory>
						<uuid>4C13576A-2DE0-47BE-8072-80547674A146</uuid>
					</itemhistory>
				</clipitem>
				<clipitem id="Roll 1 - Logged5">
					<name>Roll 1 - Logged</name>
					<duration>5071</duration>
					<rate>
						<ntsc>TRUE</ntsc>
						<timebase>30</timebase>
					</rate>
					<in>900</in>
					<out>1032</out>
					<start>571</start>
					<end>703</end>
					<filter>
						<effect>
							<name>Audio Levels</name>
							<effectid>audiolevels</effectid>
							<effectcategory>audiolevels</effectcategory>
							<effecttype>audiolevels</effecttype>
							<mediatype>audio</mediatype>
							<parameter>
								<name>Level</name>
								<parameterid>level</parameterid>
								<valuemin>0</valuemin>
								<valuemax>3.98109</valuemax>
								<value>1</value>
							</parameter>
						</effect>
					</filter>
					<filter>
						<effect>
							<name>Audio Pan</name>
							<effectid>audiopan</effectid>
							<effectcategory>audiopan</effectcategory>
							<effecttype>audiopan</effecttype>
							<mediatype>audio</mediatype>
							<parameter>
								<name>Pan</name>
								<parameterid>pan</parameterid>
								<valuemin>-1</valuemin>
								<valuemax>1</valuemax>
								<value>-1</value>
							</parameter>
						</effect>
					</filter>
					<sequence id="Roll 1 - Logged1"/>
					<sourcetrack>
						<mediatype>audio</mediatype>
						<trackindex>1</trackindex>
					</sourcetrack>
					<link>
						<linkclipref>Roll 1 - Logged4</linkclipref>
						<mediatype>video</mediatype>
						<trackindex>1</trackindex>
						<clipindex>3</clipindex>
					</link>
					<link>
						<linkclipref>Roll 1 - Logged5</linkclipref>
						<mediatype>audio</mediatype>
						<trackindex>1</trackindex>
						<clipindex>3</clipindex>
						<groupindex>1</groupindex>
					</link>
					<link>
						<linkclipref>Roll 1 - Logged6</linkclipref>
						<mediatype>audio</mediatype>
						<trackindex>2</trackindex>
						<clipindex>3</clipindex>
						<groupindex>1</groupindex>
					</link>
					<itemhistory>
						<uuid>534279CE-7DA3-416C-85D9-7E3A6FAC3167</uuid>
					</itemhistory>
				</clipitem>
				<clipitem id="Roll 1 - Logged8">
					<name>Roll 1 - Logged</name>
					<duration>5071</duration>
					<rate>
						<ntsc>TRUE</ntsc>
						<timebase>30</timebase>
					</rate>
					<in>1451</in>
					<out>1685</out>
					<start>819</start>
					<end>1053</end>
					<filter>
						<effect>
							<name>Audio Levels</name>
							<effectid>audiolevels</effectid>
							<effectcategory>audiolevels</effectcategory>
							<effecttype>audiolevels</effecttype>
							<mediatype>audio</mediatype>
							<parameter>
								<name>Level</name>
								<parameterid>level</parameterid>
								<valuemin>0</valuemin>
								<valuemax>3.98109</valuemax>
								<value>1</value>
							</parameter>
						</effect>
					</filter>
					<filter>
						<effect>
							<name>Audio Pan</name>
							<effectid>audiopan</effectid>
							<effectcategory>audiopan</effectcategory>
							<effecttype>audiopan</effecttype>
							<mediatype>audio</mediatype>
							<parameter>
								<name>Pan</name>
								<parameterid>pan</parameterid>
								<valuemin>-1</valuemin>
								<valuemax>1</valuemax>
								<value>-1</value>
							</parameter>
						</effect>
					</filter>
					<sequence id="Roll 1 - Logged1"/>
					<sourcetrack>
						<mediatype>audio</mediatype>
						<trackindex>1</trackindex>
					</sourcetrack>
					<link>
						<linkclipref>Roll 1 - Logged7</linkclipref>
						<mediatype>video</mediatype>
						<trackindex>1</trackindex>
						<clipindex>4</clipindex>
					</link>
					<link>
						<linkclipref>Roll 1 - Logged8</linkclipref>
						<mediatype>audio</mediatype>
						<trackindex>1</trackindex>
						<clipindex>4</clipindex>
						<groupindex>1</groupindex>
					</link>
					<link>
						<linkclipref>Roll 1 - Logged9</linkclipref>
						<mediatype>audio</mediatype>
						<trackindex>2</trackindex>
						<clipindex>4</clipindex>
						<groupindex>1</groupindex>
					</link>
					<itemhistory>
						<uuid>DF291BBE-4A38-4551-8486-D94BB6787BD0</uuid>
					</itemhistory>
				</clipitem>
				<clipitem id="Roll 6 - Logged5">
					<name>Roll 6 - Logged</name>
					<duration>5269</duration>
					<rate>
						<ntsc>TRUE</ntsc>
						<timebase>30</timebase>
					</rate>
					<in>1714</in>
					<out>2116</out>
					<start>1081</start>
					<end>1483</end>
					<filter>
						<effect>
							<name>Audio Levels</name>
							<effectid>audiolevels</effectid>
							<effectcategory>audiolevels</effectcategory>
							<effecttype>audiolevels</effecttype>
							<mediatype>audio</mediatype>
							<parameter>
								<name>Level</name>
								<parameterid>level</parameterid>
								<valuemin>0</valuemin>
								<valuemax>3.98109</valuemax>
								<value>1</value>
							</parameter>
						</effect>
					</filter>
					<filter>
						<effect>
							<name>Audio Pan</name>
							<effectid>audiopan</effectid>
							<effectcategory>audiopan</effectcategory>
							<effecttype>audiopan</effecttype>
							<mediatype>audio</mediatype>
							<parameter>
								<name>Pan</name>
								<parameterid>pan</parameterid>
								<valuemin>-1</valuemin>
								<valuemax>1</valuemax>
								<value>-1</value>
							</parameter>
						</effect>
					</filter>
					<sequence id="Roll 6 - Logged1"/>
					<sourcetrack>
						<mediatype>audio</mediatype>
						<trackindex>1</trackindex>
					</sourcetrack>
					<link>
						<linkclipref>Roll 6 - Logged4</linkclipref>
						<mediatype>video</mediatype>
						<trackindex>1</trackindex>
						<clipindex>5</clipindex>
					</link>
					<link>
						<linkclipref>Roll 6 - Logged5</linkclipref>
						<mediatype>audio</mediatype>
						<trackindex>1</trackindex>
						<clipindex>5</clipindex>
						<groupindex>1</groupindex>
					</link>
					<link>
						<linkclipref>Roll 6 - Logged6</linkclipref>
						<mediatype>audio</mediatype>
						<trackindex>2</trackindex>
						<clipindex>5</clipindex>
						<groupindex>1</groupindex>
					</link>
					<itemhistory>
						<uuid>04DA661A-C28C-4295-9C96-C7DB3639B3E7</uuid>
					</itemhistory>
				</clipitem>
				<clipitem id="Roll 6 - Logged8">
					<name>Roll 6 - Logged</name>
					<duration>5269</duration>
					<rate>
						<ntsc>TRUE</ntsc>
						<timebase>30</timebase>
					</rate>
					<in>2683</in>
					<out>3125</out>
					<start>1483</start>
					<end>1925</end>
					<filter>
						<effect>
							<name>Audio Levels</name>
							<effectid>audiolevels</effectid>
							<effectcategory>audiolevels</effectcategory>
							<effecttype>audiolevels</effecttype>
							<mediatype>audio</mediatype>
							<parameter>
								<name>Level</name>
								<parameterid>level</parameterid>
								<valuemin>0</valuemin>
								<valuemax>3.98109</valuemax>
								<value>1</value>
							</parameter>
						</effect>
					</filter>
					<filter>
						<effect>
							<name>Audio Pan</name>
							<effectid>audiopan</effectid>
							<effectcategory>audiopan</effectcategory>
							<effecttype>audiopan</effecttype>
							<mediatype>audio</mediatype>
							<parameter>
								<name>Pan</name>
								<parameterid>pan</parameterid>
								<valuemin>-1</valuemin>
								<valuemax>1</valuemax>
								<value>-1</value>
							</parameter>
						</effect>
					</filter>
					<sequence id="Roll 6 - Logged1"/>
					<sourcetrack>
						<mediatype>audio</mediatype>
						<trackindex>1</trackindex>
					</sourcetrack>
					<link>
						<linkclipref>Roll 6 - Logged7</linkclipref>
						<mediatype>video</mediatype>
						<trackindex>1</trackindex>
						<clipindex>6</clipindex>
					</link>
					<link>
						<linkclipref>Roll 6 - Logged8</linkclipref>
						<mediatype>audio</mediatype>
						<trackindex>1</trackindex>
						<clipindex>6</clipindex>
						<groupindex>1</groupindex>
					</link>
					<link>
						<linkclipref>Roll 6 - Logged9</linkclipref>
						<mediatype>audio</mediatype>
						<trackindex>2</trackindex>
						<clipindex>6</clipindex>
						<groupindex>1</groupindex>
					</link>
					<itemhistory>
						<uuid>1D8493EA-CF46-4414-80AE-90FCB61145A9</uuid>
					</itemhistory>
				</clipitem>
				<clipitem id="Roll 1 - Logged11">
					<name>Roll 1 - Logged</name>
					<duration>5071</duration>
					<rate>
						<ntsc>TRUE</ntsc>
						<timebase>30</timebase>
					</rate>
					<in>1687</in>
					<out>1901</out>
					<start>1925</start>
					<end>2139</end>
					<filter>
						<effect>
							<name>Audio Levels</name>
							<effectid>audiolevels</effectid>
							<effectcategory>audiolevels</effectcategory>
							<effecttype>audiolevels</effecttype>
							<mediatype>audio</mediatype>
							<parameter>
								<name>Level</name>
								<parameterid>level</parameterid>
								<valuemin>0</valuemin>
								<valuemax>3.98109</valuemax>
								<value>1</value>
							</parameter>
						</effect>
					</filter>
					<filter>
						<effect>
							<name>Audio Pan</name>
							<effectid>audiopan</effectid>
							<effectcategory>audiopan</effectcategory>
							<effecttype>audiopan</effecttype>
							<mediatype>audio</mediatype>
							<parameter>
								<name>Pan</name>
								<parameterid>pan</parameterid>
								<valuemin>-1</valuemin>
								<valuemax>1</valuemax>
								<value>-1</value>
							</parameter>
						</effect>
					</filter>
					<sequence id="Roll 1 - Logged1"/>
					<sourcetrack>
						<mediatype>audio</mediatype>
						<trackindex>1</trackindex>
					</sourcetrack>
					<link>
						<linkclipref>Roll 1 - Logged10</linkclipref>
						<mediatype>video</mediatype>
						<trackindex>1</trackindex>
						<clipindex>7</clipindex>
					</link>
					<link>
						<linkclipref>Roll 1 - Logged11</linkclipref>
						<mediatype>audio</mediatype>
						<trackindex>1</trackindex>
						<clipindex>7</clipindex>
						<groupindex>1</groupindex>
					</link>
					<link>
						<linkclipref>Roll 1 - Logged12</linkclipref>
						<mediatype>audio</mediatype>
						<trackindex>2</trackindex>
						<clipindex>7</clipindex>
						<groupindex>1</groupindex>
					</link>
					<itemhistory>
						<uuid>21CB587F-DC5D-4CFA-98D0-11E0F8EF3EE0</uuid>
					</itemhistory>
				</clipitem>
				<clipitem id="Roll 1 - Logged14">
					<name>Roll 1 - Logged</name>
					<duration>5071</duration>
					<rate>
						<ntsc>TRUE</ntsc>
						<timebase>30</timebase>
					</rate>
					<in>1216</in>
					<out>1444</out>
					<start>2539</start>
					<end>2767</end>
					<filter>
						<effect>
							<name>Audio Levels</name>
							<effectid>audiolevels</effectid>
							<effectcategory>audiolevels</effectcategory>
							<effecttype>audiolevels</effecttype>
							<mediatype>audio</mediatype>
							<parameter>
								<name>Level</name>
								<parameterid>level</parameterid>
								<valuemin>0</valuemin>
								<valuemax>3.98109</valuemax>
								<value>1</value>
							</parameter>
						</effect>
					</filter>
					<filter>
						<effect>
							<name>Audio Pan</name>
							<effectid>audiopan</effectid>
							<effectcategory>audiopan</effectcategory>
							<effecttype>audiopan</effecttype>
							<mediatype>audio</mediatype>
							<parameter>
								<name>Pan</name>
								<parameterid>pan</parameterid>
								<valuemin>-1</valuemin>
								<valuemax>1</valuemax>
								<value>-1</value>
							</parameter>
						</effect>
					</filter>
					<sequence id="Roll 1 - Logged1"/>
					<sourcetrack>
						<mediatype>audio</mediatype>
						<trackindex>1</trackindex>
					</sourcetrack>
					<link>
						<linkclipref>Roll 1 - Logged13</linkclipref>
						<mediatype>video</mediatype>
						<trackindex>1</trackindex>
						<clipindex>8</clipindex>
					</link>
					<link>
						<linkclipref>Roll 1 - Logged14</linkclipref>
						<mediatype>audio</mediatype>
						<trackindex>1</trackindex>
						<clipindex>8</clipindex>
						<groupindex>1</groupindex>
					</link>
					<link>
						<linkclipref>Roll 1 - Logged15</linkclipref>
						<mediatype>audio</mediatype>
						<trackindex>2</trackindex>
						<clipindex>8</clipindex>
						<groupindex>1</groupindex>
					</link>
					<itemhistory>
						<uuid>3C268F78-4DF8-4270-BD30-FBF887D338C0</uuid>
					</itemhistory>
				</clipitem>
				<clipitem id="Roll 6 - Logged11">
					<name>Roll 6 - Logged</name>
					<duration>5269</duration>
					<rate>
						<ntsc>TRUE</ntsc>
						<timebase>30</timebase>
					</rate>
					<in>3179</in>
					<out>3511</out>
					<start>2850</start>
					<end>3182</end>
					<filter>
						<effect>
							<name>Audio Levels</name>
							<effectid>audiolevels</effectid>
							<effectcategory>audiolevels</effectcategory>
							<effecttype>audiolevels</effecttype>
							<mediatype>audio</mediatype>
							<parameter>
								<name>Level</name>
								<parameterid>level</parameterid>
								<valuemin>0</valuemin>
								<valuemax>3.98109</valuemax>
								<value>1</value>
							</parameter>
						</effect>
					</filter>
					<filter>
						<effect>
							<name>Audio Pan</name>
							<effectid>audiopan</effectid>
							<effectcategory>audiopan</effectcategory>
							<effecttype>audiopan</effecttype>
							<mediatype>audio</mediatype>
							<parameter>
								<name>Pan</name>
								<parameterid>pan</parameterid>
								<valuemin>-1</valuemin>
								<valuemax>1</valuemax>
								<value>-1</value>
							</parameter>
						</effect>
					</filter>
					<sequence id="Roll 6 - Logged1"/>
					<sourcetrack>
						<mediatype>audio</mediatype>
						<trackindex>1</trackindex>
					</sourcetrack>
					<link>
						<linkclipref>Roll 6 - Logged10</linkclipref>
						<mediatype>video</mediatype>
						<trackindex>1</trackindex>
						<clipindex>9</clipindex>
					</link>
					<link>
						<linkclipref>Roll 6 - Logged11</linkclipref>
						<mediatype>audio</mediatype>
						<trackindex>1</trackindex>
						<clipindex>9</clipindex>
						<groupindex>1</groupindex>
					</link>
					<link>
						<linkclipref>Roll 6 - Logged12</linkclipref>
						<mediatype>audio</mediatype>
						<trackindex>2</trackindex>
						<clipindex>9</clipindex>
						<groupindex>1</groupindex>
					</link>
					<itemhistory>
						<uuid>9856BF96-397C-4660-970D-F7BB1A3134B5</uuid>
					</itemhistory>
				</clipitem>
				<clipitem id="Roll 6 - Logged14">
					<name>Roll 6 - Logged</name>
					<duration>5269</duration>
					<rate>
						<ntsc>TRUE</ntsc>
						<timebase>30</timebase>
					</rate>
					<in>3645</in>
					<out>4077</out>
					<start>3262</start>
					<end>3694</end>
					<filter>
						<effect>
							<name>Audio Levels</name>
							<effectid>audiolevels</effectid>
							<effectcategory>audiolevels</effectcategory>
							<effecttype>audiolevels</effecttype>
							<mediatype>audio</mediatype>
							<parameter>
								<name>Level</name>
								<parameterid>level</parameterid>
								<valuemin>0</valuemin>
								<valuemax>3.98109</valuemax>
								<value>1</value>
							</parameter>
						</effect>
					</filter>
					<filter>
						<effect>
							<name>Audio Pan</name>
							<effectid>audiopan</effectid>
							<effectcategory>audiopan</effectcategory>
							<effecttype>audiopan</effecttype>
							<mediatype>audio</mediatype>
							<parameter>
								<name>Pan</name>
								<parameterid>pan</parameterid>
								<valuemin>-1</valuemin>
								<valuemax>1</valuemax>
								<value>-1</value>
							</parameter>
						</effect>
					</filter>
					<sequence id="Roll 6 - Logged1"/>
					<sourcetrack>
						<mediatype>audio</mediatype>
						<trackindex>1</trackindex>
					</sourcetrack>
					<link>
						<linkclipref>Roll 6 - Logged13</linkclipref>
						<mediatype>video</mediatype>
						<trackindex>1</trackindex>
						<clipindex>10</clipindex>
					</link>
					<link>
						<linkclipref>Roll 6 - Logged14</linkclipref>
						<mediatype>audio</mediatype>
						<trackindex>1</trackindex>
						<clipindex>10</clipindex>
						<groupindex>1</groupindex>
					</link>
					<link>
						<linkclipref>Roll 6 - Logged15</linkclipref>
						<mediatype>audio</mediatype>
						<trackindex>2</trackindex>
						<clipindex>10</clipindex>
						<groupindex>1</groupindex>
					</link>
					<itemhistory>
						<uuid>1CB28EFC-A5D7-40F9-B22E-A4B204F71163</uuid>
					</itemhistory>
				</clipitem>
				<clipitem id="Roll 1 - Logged17">
					<name>Roll 1 - Logged</name>
					<duration>5071</duration>
					<rate>
						<ntsc>TRUE</ntsc>
						<timebase>30</timebase>
					</rate>
					<in>3581</in>
					<out>4018</out>
					<start>3718</start>
					<end>4155</end>
					<filter>
						<effect>
							<name>Audio Levels</name>
							<effectid>audiolevels</effectid>
							<effectcategory>audiolevels</effectcategory>
							<effecttype>audiolevels</effecttype>
							<mediatype>audio</mediatype>
							<parameter>
								<name>Level</name>
								<parameterid>level</parameterid>
								<valuemin>0</valuemin>
								<valuemax>3.98109</valuemax>
								<value>1</value>
							</parameter>
						</effect>
					</filter>
					<filter>
						<effect>
							<name>Audio Pan</name>
							<effectid>audiopan</effectid>
							<effectcategory>audiopan</effectcategory>
							<effecttype>audiopan</effecttype>
							<mediatype>audio</mediatype>
							<parameter>
								<name>Pan</name>
								<parameterid>pan</parameterid>
								<valuemin>-1</valuemin>
								<valuemax>1</valuemax>
								<value>-1</value>
							</parameter>
						</effect>
					</filter>
					<sequence id="Roll 1 - Logged1"/>
					<sourcetrack>
						<mediatype>audio</mediatype>
						<trackindex>1</trackindex>
					</sourcetrack>
					<link>
						<linkclipref>Roll 1 - Logged16</linkclipref>
						<mediatype>video</mediatype>
						<trackindex>1</trackindex>
						<clipindex>11</clipindex>
					</link>
					<link>
						<linkclipref>Roll 1 - Logged17</linkclipref>
						<mediatype>audio</mediatype>
						<trackindex>1</trackindex>
						<clipindex>11</clipindex>
						<groupindex>1</groupindex>
					</link>
					<link>
						<linkclipref>Roll 1 - Logged18</linkclipref>
						<mediatype>audio</mediatype>
						<trackindex>2</trackindex>
						<clipindex>11</clipindex>
						<groupindex>1</groupindex>
					</link>
					<itemhistory>
						<uuid>3813A0DF-85E7-44A6-9514-A4B14D8D70AB</uuid>
					</itemhistory>
				</clipitem>
				<clipitem id="Roll 1 - Logged20">
					<name>Roll 1 - Logged</name>
					<duration>5071</duration>
					<rate>
						<ntsc>TRUE</ntsc>
						<timebase>30</timebase>
					</rate>
					<in>4062</in>
					<out>4158</out>
					<start>4217</start>
					<end>4313</end>
					<filter>
						<effect>
							<name>Audio Levels</name>
							<effectid>audiolevels</effectid>
							<effectcategory>audiolevels</effectcategory>
							<effecttype>audiolevels</effecttype>
							<mediatype>audio</mediatype>
							<parameter>
								<name>Level</name>
								<parameterid>level</parameterid>
								<valuemin>0</valuemin>
								<valuemax>3.98109</valuemax>
								<value>1</value>
							</parameter>
						</effect>
					</filter>
					<filter>
						<effect>
							<name>Audio Pan</name>
							<effectid>audiopan</effectid>
							<effectcategory>audiopan</effectcategory>
							<effecttype>audiopan</effecttype>
							<mediatype>audio</mediatype>
							<parameter>
								<name>Pan</name>
								<parameterid>pan</parameterid>
								<valuemin>-1</valuemin>
								<valuemax>1</valuemax>
								<value>-1</value>
							</parameter>
						</effect>
					</filter>
					<sequence id="Roll 1 - Logged1"/>
					<sourcetrack>
						<mediatype>audio</mediatype>
						<trackindex>1</trackindex>
					</sourcetrack>
					<link>
						<linkclipref>Roll 1 - Logged19</linkclipref>
						<mediatype>video</mediatype>
						<trackindex>1</trackindex>
						<clipindex>12</clipindex>
					</link>
					<link>
						<linkclipref>Roll 1 - Logged20</linkclipref>
						<mediatype>audio</mediatype>
						<trackindex>1</trackindex>
						<clipindex>12</clipindex>
						<groupindex>1</groupindex>
					</link>
					<link>
						<linkclipref>Roll 1 - Logged21</linkclipref>
						<mediatype>audio</mediatype>
						<trackindex>2</trackindex>
						<clipindex>12</clipindex>
						<groupindex>1</groupindex>
					</link>
					<itemhistory>
						<uuid>0A68C652-14B6-4CBB-A125-C1092E8B6E79</uuid>
					</itemhistory>
				</clipitem>
				<clipitem id="Roll 1 - Logged23">
					<name>Roll 1 - Logged</name>
					<duration>5071</duration>
					<rate>
						<ntsc>TRUE</ntsc>
						<timebase>30</timebase>
					</rate>
					<in>4539</in>
					<out>4580</out>
					<start>4313</start>
					<end>4354</end>
					<filter>
						<effect>
							<name>Audio Levels</name>
							<effectid>audiolevels</effectid>
							<effectcategory>audiolevels</effectcategory>
							<effecttype>audiolevels</effecttype>
							<mediatype>audio</mediatype>
							<parameter>
								<name>Level</name>
								<parameterid>level</parameterid>
								<valuemin>0</valuemin>
								<valuemax>3.98109</valuemax>
								<value>1</value>
							</parameter>
						</effect>
					</filter>
					<filter>
						<effect>
							<name>Audio Pan</name>
							<effectid>audiopan</effectid>
							<effectcategory>audiopan</effectcategory>
							<effecttype>audiopan</effecttype>
							<mediatype>audio</mediatype>
							<parameter>
								<name>Pan</name>
								<parameterid>pan</parameterid>
								<valuemin>-1</valuemin>
								<valuemax>1</valuemax>
								<value>-1</value>
							</parameter>
						</effect>
					</filter>
					<sequence id="Roll 1 - Logged1"/>
					<sourcetrack>
						<mediatype>audio</mediatype>
						<trackindex>1</trackindex>
					</sourcetrack>
					<link>
						<linkclipref>Roll 1 - Logged22</linkclipref>
						<mediatype>video</mediatype>
						<trackindex>1</trackindex>
						<clipindex>13</clipindex>
					</link>
					<link>
						<linkclipref>Roll 1 - Logged23</linkclipref>
						<mediatype>audio</mediatype>
						<trackindex>1</trackindex>
						<clipindex>13</clipindex>
						<groupindex>1</groupindex>
					</link>
					<link>
						<linkclipref>Roll 1 - Logged24</linkclipref>
						<mediatype>audio</mediatype>
						<trackindex>2</trackindex>
						<clipindex>13</clipindex>
						<groupindex>1</groupindex>
					</link>
					<itemhistory>
						<uuid>E12B5FD5-F6B0-422F-9BF3-6C309FE8D1EE</uuid>
					</itemhistory>
				</clipitem>
				<clipitem id="Roll 6 - Logged17">
					<name>Roll 6 - Logged</name>
					<duration>5269</duration>
					<rate>
						<ntsc>TRUE</ntsc>
						<timebase>30</timebase>
					</rate>
					<in>1100</in>
					<out>1552</out>
					<start>4524</start>
					<end>4976</end>
					<filter>
						<effect>
							<name>Audio Levels</name>
							<effectid>audiolevels</effectid>
							<effectcategory>audiolevels</effectcategory>
							<effecttype>audiolevels</effecttype>
							<mediatype>audio</mediatype>
							<parameter>
								<name>Level</name>
								<parameterid>level</parameterid>
								<valuemin>0</valuemin>
								<valuemax>3.98109</valuemax>
								<value>1</value>
							</parameter>
						</effect>
					</filter>
					<filter>
						<effect>
							<name>Audio Pan</name>
							<effectid>audiopan</effectid>
							<effectcategory>audiopan</effectcategory>
							<effecttype>audiopan</effecttype>
							<mediatype>audio</mediatype>
							<parameter>
								<name>Pan</name>
								<parameterid>pan</parameterid>
								<valuemin>-1</valuemin>
								<valuemax>1</valuemax>
								<value>-1</value>
							</parameter>
						</effect>
					</filter>
					<sequence id="Roll 6 - Logged1"/>
					<sourcetrack>
						<mediatype>audio</mediatype>
						<trackindex>1</trackindex>
					</sourcetrack>
					<link>
						<linkclipref>Roll 6 - Logged16</linkclipref>
						<mediatype>video</mediatype>
						<trackindex>1</trackindex>
						<clipindex>14</clipindex>
					</link>
					<link>
						<linkclipref>Roll 6 - Logged17</linkclipref>
						<mediatype>audio</mediatype>
						<trackindex>1</trackindex>
						<clipindex>14</clipindex>
						<groupindex>1</groupindex>
					</link>
					<link>
						<linkclipref>Roll 6 - Logged18</linkclipref>
						<mediatype>audio</mediatype>
						<trackindex>2</trackindex>
						<clipindex>14</clipindex>
						<groupindex>1</groupindex>
					</link>
					<itemhistory>
						<uuid>E71B91ED-1F4D-4EEC-B6C5-E928D17A9D2B</uuid>
					</itemhistory>
				</clipitem>
				<clipitem id="Roll 7 - Logged2">
					<name>Roll 7 - Logged</name>
					<duration>4695</duration>
					<rate>
						<ntsc>TRUE</ntsc>
						<timebase>30</timebase>
					</rate>
					<in>0</in>
					<out>1023</out>
					<start>5574</start>
					<end>6597</end>
					<filter>
						<effect>
							<name>Audio Levels</name>
							<effectid>audiolevels</effectid>
							<effectcategory>audiolevels</effectcategory>
							<effecttype>audiolevels</effecttype>
							<mediatype>audio</mediatype>
							<parameter>
								<name>Level</name>
								<parameterid>level</parameterid>
								<valuemin>0</valuemin>
								<valuemax>3.98109</valuemax>
								<value>1</value>
							</parameter>
						</effect>
					</filter>
					<filter>
						<effect>
							<name>Audio Pan</name>
							<effectid>audiopan</effectid>
							<effectcategory>audiopan</effectcategory>
							<effecttype>audiopan</effecttype>
							<mediatype>audio</mediatype>
							<parameter>
								<name>Pan</name>
								<parameterid>pan</parameterid>
								<valuemin>-1</valuemin>
								<valuemax>1</valuemax>
								<value>-1</value>
							</parameter>
						</effect>
					</filter>
					<sequence id="Roll 7 - Logged1"/>
					<sourcetrack>
						<mediatype>audio</mediatype>
						<trackindex>1</trackindex>
					</sourcetrack>
					<link>
						<linkclipref>Roll 7 - Logged</linkclipref>
						<mediatype>video</mediatype>
						<trackindex>1</trackindex>
						<clipindex>15</clipindex>
					</link>
					<link>
						<linkclipref>Roll 7 - Logged2</linkclipref>
						<mediatype>audio</mediatype>
						<trackindex>1</trackindex>
						<clipindex>15</clipindex>
						<groupindex>1</groupindex>
					</link>
					<link>
						<linkclipref>Roll 7 - Logged3</linkclipref>
						<mediatype>audio</mediatype>
						<trackindex>2</trackindex>
						<clipindex>15</clipindex>
						<groupindex>1</groupindex>
					</link>
					<itemhistory>
						<uuid>29DFF487-1E2A-4154-BB2E-A388F377C435</uuid>
					</itemhistory>
				</clipitem>
				<clipitem id="Roll 7 - Logged5">
					<name>Roll 7 - Logged</name>
					<duration>4695</duration>
					<rate>
						<ntsc>TRUE</ntsc>
						<timebase>30</timebase>
					</rate>
					<in>1211</in>
					<out>1518</out>
					<start>6597</start>
					<end>6904</end>
					<filter>
						<effect>
							<name>Audio Levels</name>
							<effectid>audiolevels</effectid>
							<effectcategory>audiolevels</effectcategory>
							<effecttype>audiolevels</effecttype>
							<mediatype>audio</mediatype>
							<parameter>
								<name>Level</name>
								<parameterid>level</parameterid>
								<valuemin>0</valuemin>
								<valuemax>3.98109</valuemax>
								<value>1</value>
							</parameter>
						</effect>
					</filter>
					<filter>
						<effect>
							<name>Audio Pan</name>
							<effectid>audiopan</effectid>
							<effectcategory>audiopan</effectcategory>
							<effecttype>audiopan</effecttype>
							<mediatype>audio</mediatype>
							<parameter>
								<name>Pan</name>
								<parameterid>pan</parameterid>
								<valuemin>-1</valuemin>
								<valuemax>1</valuemax>
								<value>-1</value>
							</parameter>
						</effect>
					</filter>
					<sequence id="Roll 7 - Logged1"/>
					<sourcetrack>
						<mediatype>audio</mediatype>
						<trackindex>1</trackindex>
					</sourcetrack>
					<link>
						<linkclipref>Roll 7 - Logged4</linkclipref>
						<mediatype>video</mediatype>
						<trackindex>1</trackindex>
						<clipindex>16</clipindex>
					</link>
					<link>
						<linkclipref>Roll 7 - Logged5</linkclipref>
						<mediatype>audio</mediatype>
						<trackindex>1</trackindex>
						<clipindex>16</clipindex>
						<groupindex>1</groupindex>
					</link>
					<link>
						<linkclipref>Roll 7 - Logged6</linkclipref>
						<mediatype>audio</mediatype>
						<trackindex>2</trackindex>
						<clipindex>16</clipindex>
						<groupindex>1</groupindex>
					</link>
					<itemhistory>
						<uuid>3F1E81D0-FA6B-4350-B002-CD6CA7143F62</uuid>
					</itemhistory>
				</clipitem>
				<clipitem id="Roll 7 - Logged8">
					<name>Roll 7 - Logged</name>
					<duration>4695</duration>
					<rate>
						<ntsc>TRUE</ntsc>
						<timebase>30</timebase>
					</rate>
					<in>1025</in>
					<out>1211</out>
					<start>7165</start>
					<end>7351</end>
					<filter>
						<effect>
							<name>Audio Levels</name>
							<effectid>audiolevels</effectid>
							<effectcategory>audiolevels</effectcategory>
							<effecttype>audiolevels</effecttype>
							<mediatype>audio</mediatype>
							<parameter>
								<name>Level</name>
								<parameterid>level</parameterid>
								<valuemin>0</valuemin>
								<valuemax>3.98109</valuemax>
								<value>1</value>
							</parameter>
						</effect>
					</filter>
					<filter>
						<effect>
							<name>Audio Pan</name>
							<effectid>audiopan</effectid>
							<effectcategory>audiopan</effectcategory>
							<effecttype>audiopan</effecttype>
							<mediatype>audio</mediatype>
							<parameter>
								<name>Pan</name>
								<parameterid>pan</parameterid>
								<valuemin>-1</valuemin>
								<valuemax>1</valuemax>
								<value>-1</value>
							</parameter>
						</effect>
					</filter>
					<sequence id="Roll 7 - Logged1"/>
					<sourcetrack>
						<mediatype>audio</mediatype>
						<trackindex>1</trackindex>
					</sourcetrack>
					<link>
						<linkclipref>Roll 7 - Logged7</linkclipref>
						<mediatype>video</mediatype>
						<trackindex>1</trackindex>
						<clipindex>17</clipindex>
					</link>
					<link>
						<linkclipref>Roll 7 - Logged8</linkclipref>
						<mediatype>audio</mediatype>
						<trackindex>1</trackindex>
						<clipindex>17</clipindex>
						<groupindex>1</groupindex>
					</link>
					<link>
						<linkclipref>Roll 7 - Logged9</linkclipref>
						<mediatype>audio</mediatype>
						<trackindex>2</trackindex>
						<clipindex>17</clipindex>
						<groupindex>1</groupindex>
					</link>
					<itemhistory>
						<uuid>BD173000-B62C-4778-A297-E08AC0EB4BDB</uuid>
					</itemhistory>
				</clipitem>
				<clipitem id="Roll 7 - Logged11">
					<name>Roll 7 - Logged</name>
					<duration>4695</duration>
					<rate>
						<ntsc>TRUE</ntsc>
						<timebase>30</timebase>
					</rate>
					<in>1524</in>
					<out>1836</out>
					<start>7351</start>
					<end>7663</end>
					<filter>
						<effect>
							<name>Audio Levels</name>
							<effectid>audiolevels</effectid>
							<effectcategory>audiolevels</effectcategory>
							<effecttype>audiolevels</effecttype>
							<mediatype>audio</mediatype>
							<parameter>
								<name>Level</name>
								<parameterid>level</parameterid>
								<valuemin>0</valuemin>
								<valuemax>3.98109</valuemax>
								<value>1</value>
							</parameter>
						</effect>
					</filter>
					<filter>
						<effect>
							<name>Audio Pan</name>
							<effectid>audiopan</effectid>
							<effectcategory>audiopan</effectcategory>
							<effecttype>audiopan</effecttype>
							<mediatype>audio</mediatype>
							<parameter>
								<name>Pan</name>
								<parameterid>pan</parameterid>
								<valuemin>-1</valuemin>
								<valuemax>1</valuemax>
								<value>-1</value>
							</parameter>
						</effect>
					</filter>
					<sequence id="Roll 7 - Logged1"/>
					<sourcetrack>
						<mediatype>audio</mediatype>
						<trackindex>1</trackindex>
					</sourcetrack>
					<link>
						<linkclipref>Roll 7 - Logged10</linkclipref>
						<mediatype>video</mediatype>
						<trackindex>1</trackindex>
						<clipindex>18</clipindex>
					</link>
					<link>
						<linkclipref>Roll 7 - Logged11</linkclipref>
						<mediatype>audio</mediatype>
						<trackindex>1</trackindex>
						<clipindex>18</clipindex>
						<groupindex>1</groupindex>
					</link>
					<link>
						<linkclipref>Roll 7 - Logged12</linkclipref>
						<mediatype>audio</mediatype>
						<trackindex>2</trackindex>
						<clipindex>18</clipindex>
						<groupindex>1</groupindex>
					</link>
					<itemhistory>
						<uuid>7C4B7419-9EAA-4F22-BCC8-165878E5922F</uuid>
					</itemhistory>
				</clipitem>
				<enabled>TRUE</enabled>
				<locked>FALSE</locked>
				<outputchannelindex>1</outputchannelindex>
			</track>
			<track>
				<clipitem id="Roll 6 - Logged3">
					<name>Roll 6 - Logged</name>
					<duration>5269</duration>
					<rate>
						<ntsc>TRUE</ntsc>
						<timebase>30</timebase>
					</rate>
					<in>2135</in>
					<out>2256</out>
					<start>56</start>
					<end>177</end>
					<filter>
						<effect>
							<name>Audio Levels</name>
							<effectid>audiolevels</effectid>
							<effectcategory>audiolevels</effectcategory>
							<effecttype>audiolevels</effecttype>
							<mediatype>audio</mediatype>
							<parameter>
								<name>Level</name>
								<parameterid>level</parameterid>
								<valuemin>0</valuemin>
								<valuemax>3.98109</valuemax>
								<value>1</value>
							</parameter>
						</effect>
					</filter>
					<filter>
						<effect>
							<name>Audio Pan</name>
							<effectid>audiopan</effectid>
							<effectcategory>audiopan</effectcategory>
							<effecttype>audiopan</effecttype>
							<mediatype>audio</mediatype>
							<parameter>
								<name>Pan</name>
								<parameterid>pan</parameterid>
								<valuemin>-1</valuemin>
								<valuemax>1</valuemax>
								<value>1</value>
							</parameter>
						</effect>
					</filter>
					<sequence id="Roll 6 - Logged1"/>
					<sourcetrack>
						<mediatype>audio</mediatype>
						<trackindex>2</trackindex>
					</sourcetrack>
					<link>
						<linkclipref>Roll 6 - Logged</linkclipref>
						<mediatype>video</mediatype>
						<trackindex>1</trackindex>
						<clipindex>1</clipindex>
					</link>
					<link>
						<linkclipref>Roll 6 - Logged2</linkclipref>
						<mediatype>audio</mediatype>
						<trackindex>1</trackindex>
						<clipindex>1</clipindex>
						<groupindex>1</groupindex>
					</link>
					<link>
						<linkclipref>Roll 6 - Logged3</linkclipref>
						<mediatype>audio</mediatype>
						<trackindex>2</trackindex>
						<clipindex>1</clipindex>
						<groupindex>1</groupindex>
					</link>
					<itemhistory>
						<uuid>1B8D5AD8-7E0C-48A6-A52C-F9B732AF690B</uuid>
					</itemhistory>
				</clipitem>
				<clipitem id="Roll 1 - Logged3">
					<name>Roll 1 - Logged</name>
					<duration>5071</duration>
					<rate>
						<ntsc>TRUE</ntsc>
						<timebase>30</timebase>
					</rate>
					<in>506</in>
					<out>749</out>
					<start>177</start>
					<end>420</end>
					<filter>
						<effect>
							<name>Audio Levels</name>
							<effectid>audiolevels</effectid>
							<effectcategory>audiolevels</effectcategory>
							<effecttype>audiolevels</effecttype>
							<mediatype>audio</mediatype>
							<parameter>
								<name>Level</name>
								<parameterid>level</parameterid>
								<valuemin>0</valuemin>
								<valuemax>3.98109</valuemax>
								<value>1</value>
							</parameter>
						</effect>
					</filter>
					<filter>
						<effect>
							<name>Audio Pan</name>
							<effectid>audiopan</effectid>
							<effectcategory>audiopan</effectcategory>
							<effecttype>audiopan</effecttype>
							<mediatype>audio</mediatype>
							<parameter>
								<name>Pan</name>
								<parameterid>pan</parameterid>
								<valuemin>-1</valuemin>
								<valuemax>1</valuemax>
								<value>1</value>
							</parameter>
						</effect>
					</filter>
					<sequence id="Roll 1 - Logged1"/>
					<sourcetrack>
						<mediatype>audio</mediatype>
						<trackindex>2</trackindex>
					</sourcetrack>
					<link>
						<linkclipref>Roll 1 - Logged</linkclipref>
						<mediatype>video</mediatype>
						<trackindex>1</trackindex>
						<clipindex>2</clipindex>
					</link>
					<link>
						<linkclipref>Roll 1 - Logged2</linkclipref>
						<mediatype>audio</mediatype>
						<trackindex>1</trackindex>
						<clipindex>2</clipindex>
						<groupindex>1</groupindex>
					</link>
					<link>
						<linkclipref>Roll 1 - Logged3</linkclipref>
						<mediatype>audio</mediatype>
						<trackindex>2</trackindex>
						<clipindex>2</clipindex>
						<groupindex>1</groupindex>
					</link>
					<itemhistory>
						<uuid>F93ABC73-AF58-49CD-822C-9C6C9D527CFE</uuid>
					</itemhistory>
				</clipitem>
				<clipitem id="Roll 1 - Logged6">
					<name>Roll 1 - Logged</name>
					<duration>5071</duration>
					<rate>
						<ntsc>TRUE</ntsc>
						<timebase>30</timebase>
					</rate>
					<in>900</in>
					<out>1032</out>
					<start>571</start>
					<end>703</end>
					<filter>
						<effect>
							<name>Audio Levels</name>
							<effectid>audiolevels</effectid>
							<effectcategory>audiolevels</effectcategory>
							<effecttype>audiolevels</effecttype>
							<mediatype>audio</mediatype>
							<parameter>
								<name>Level</name>
								<parameterid>level</parameterid>
								<valuemin>0</valuemin>
								<valuemax>3.98109</valuemax>
								<value>1</value>
							</parameter>
						</effect>
					</filter>
					<filter>
						<effect>
							<name>Audio Pan</name>
							<effectid>audiopan</effectid>
							<effectcategory>audiopan</effectcategory>
							<effecttype>audiopan</effecttype>
							<mediatype>audio</mediatype>
							<parameter>
								<name>Pan</name>
								<parameterid>pan</parameterid>
								<valuemin>-1</valuemin>
								<valuemax>1</valuemax>
								<value>1</value>
							</parameter>
						</effect>
					</filter>
					<sequence id="Roll 1 - Logged1"/>
					<sourcetrack>
						<mediatype>audio</mediatype>
						<trackindex>2</trackindex>
					</sourcetrack>
					<link>
						<linkclipref>Roll 1 - Logged4</linkclipref>
						<mediatype>video</mediatype>
						<trackindex>1</trackindex>
						<clipindex>3</clipindex>
					</link>
					<link>
						<linkclipref>Roll 1 - Logged5</linkclipref>
						<mediatype>audio</mediatype>
						<trackindex>1</trackindex>
						<clipindex>3</clipindex>
						<groupindex>1</groupindex>
					</link>
					<link>
						<linkclipref>Roll 1 - Logged6</linkclipref>
						<mediatype>audio</mediatype>
						<trackindex>2</trackindex>
						<clipindex>3</clipindex>
						<groupindex>1</groupindex>
					</link>
					<itemhistory>
						<uuid>2F77CDC9-45A9-44FF-ACB1-357C1E3D368A</uuid>
					</itemhistory>
				</clipitem>
				<clipitem id="Roll 1 - Logged9">
					<name>Roll 1 - Logged</name>
					<duration>5071</duration>
					<rate>
						<ntsc>TRUE</ntsc>
						<timebase>30</timebase>
					</rate>
					<in>1451</in>
					<out>1685</out>
					<start>819</start>
					<end>1053</end>
					<filter>
						<effect>
							<name>Audio Levels</name>
							<effectid>audiolevels</effectid>
							<effectcategory>audiolevels</effectcategory>
							<effecttype>audiolevels</effecttype>
							<mediatype>audio</mediatype>
							<parameter>
								<name>Level</name>
								<parameterid>level</parameterid>
								<valuemin>0</valuemin>
								<valuemax>3.98109</valuemax>
								<value>1</value>
							</parameter>
						</effect>
					</filter>
					<filter>
						<effect>
							<name>Audio Pan</name>
							<effectid>audiopan</effectid>
							<effectcategory>audiopan</effectcategory>
							<effecttype>audiopan</effecttype>
							<mediatype>audio</mediatype>
							<parameter>
								<name>Pan</name>
								<parameterid>pan</parameterid>
								<valuemin>-1</valuemin>
								<valuemax>1</valuemax>
								<value>1</value>
							</parameter>
						</effect>
					</filter>
					<sequence id="Roll 1 - Logged1"/>
					<sourcetrack>
						<mediatype>audio</mediatype>
						<trackindex>2</trackindex>
					</sourcetrack>
					<link>
						<linkclipref>Roll 1 - Logged7</linkclipref>
						<mediatype>video</mediatype>
						<trackindex>1</trackindex>
						<clipindex>4</clipindex>
					</link>
					<link>
						<linkclipref>Roll 1 - Logged8</linkclipref>
						<mediatype>audio</mediatype>
						<trackindex>1</trackindex>
						<clipindex>4</clipindex>
						<groupindex>1</groupindex>
					</link>
					<link>
						<linkclipref>Roll 1 - Logged9</linkclipref>
						<mediatype>audio</mediatype>
						<trackindex>2</trackindex>
						<clipindex>4</clipindex>
						<groupindex>1</groupindex>
					</link>
					<itemhistory>
						<uuid>AE237D61-1280-4F93-8686-8ED6E10771C4</uuid>
					</itemhistory>
				</clipitem>
				<clipitem id="Roll 6 - Logged6">
					<name>Roll 6 - Logged</name>
					<duration>5269</duration>
					<rate>
						<ntsc>TRUE</ntsc>
						<timebase>30</timebase>
					</rate>
					<in>1714</in>
					<out>2116</out>
					<start>1081</start>
					<end>1483</end>
					<filter>
						<effect>
							<name>Audio Levels</name>
							<effectid>audiolevels</effectid>
							<effectcategory>audiolevels</effectcategory>
							<effecttype>audiolevels</effecttype>
							<mediatype>audio</mediatype>
							<parameter>
								<name>Level</name>
								<parameterid>level</parameterid>
								<valuemin>0</valuemin>
								<valuemax>3.98109</valuemax>
								<value>1</value>
							</parameter>
						</effect>
					</filter>
					<filter>
						<effect>
							<name>Audio Pan</name>
							<effectid>audiopan</effectid>
							<effectcategory>audiopan</effectcategory>
							<effecttype>audiopan</effecttype>
							<mediatype>audio</mediatype>
							<parameter>
								<name>Pan</name>
								<parameterid>pan</parameterid>
								<valuemin>-1</valuemin>
								<valuemax>1</valuemax>
								<value>1</value>
							</parameter>
						</effect>
					</filter>
					<sequence id="Roll 6 - Logged1"/>
					<sourcetrack>
						<mediatype>audio</mediatype>
						<trackindex>2</trackindex>
					</sourcetrack>
					<link>
						<linkclipref>Roll 6 - Logged4</linkclipref>
						<mediatype>video</mediatype>
						<trackindex>1</trackindex>
						<clipindex>5</clipindex>
					</link>
					<link>
						<linkclipref>Roll 6 - Logged5</linkclipref>
						<mediatype>audio</mediatype>
						<trackindex>1</trackindex>
						<clipindex>5</clipindex>
						<groupindex>1</groupindex>
					</link>
					<link>
						<linkclipref>Roll 6 - Logged6</linkclipref>
						<mediatype>audio</mediatype>
						<trackindex>2</trackindex>
						<clipindex>5</clipindex>
						<groupindex>1</groupindex>
					</link>
					<itemhistory>
						<uuid>8F1CCFC4-F040-4374-A471-3A7F1B274D0C</uuid>
					</itemhistory>
				</clipitem>
				<clipitem id="Roll 6 - Logged9">
					<name>Roll 6 - Logged</name>
					<duration>5269</duration>
					<rate>
						<ntsc>TRUE</ntsc>
						<timebase>30</timebase>
					</rate>
					<in>2683</in>
					<out>3125</out>
					<start>1483</start>
					<end>1925</end>
					<filter>
						<effect>
							<name>Audio Levels</name>
							<effectid>audiolevels</effectid>
							<effectcategory>audiolevels</effectcategory>
							<effecttype>audiolevels</effecttype>
							<mediatype>audio</mediatype>
							<parameter>
								<name>Level</name>
								<parameterid>level</parameterid>
								<valuemin>0</valuemin>
								<valuemax>3.98109</valuemax>
								<value>1</value>
							</parameter>
						</effect>
					</filter>
					<filter>
						<effect>
							<name>Audio Pan</name>
							<effectid>audiopan</effectid>
							<effectcategory>audiopan</effectcategory>
							<effecttype>audiopan</effecttype>
							<mediatype>audio</mediatype>
							<parameter>
								<name>Pan</name>
								<parameterid>pan</parameterid>
								<valuemin>-1</valuemin>
								<valuemax>1</valuemax>
								<value>1</value>
							</parameter>
						</effect>
					</filter>
					<sequence id="Roll 6 - Logged1"/>
					<sourcetrack>
						<mediatype>audio</mediatype>
						<trackindex>2</trackindex>
					</sourcetrack>
					<link>
						<linkclipref>Roll 6 - Logged7</linkclipref>
						<mediatype>video</mediatype>
						<trackindex>1</trackindex>
						<clipindex>6</clipindex>
					</link>
					<link>
						<linkclipref>Roll 6 - Logged8</linkclipref>
						<mediatype>audio</mediatype>
						<trackindex>1</trackindex>
						<clipindex>6</clipindex>
						<groupindex>1</groupindex>
					</link>
					<link>
						<linkclipref>Roll 6 - Logged9</linkclipref>
						<mediatype>audio</mediatype>
						<trackindex>2</trackindex>
						<clipindex>6</clipindex>
						<groupindex>1</groupindex>
					</link>
					<itemhistory>
						<uuid>0515F7C3-1AAB-47D5-B769-D3012C3C5175</uuid>
					</itemhistory>
				</clipitem>
				<clipitem id="Roll 1 - Logged12">
					<name>Roll 1 - Logged</name>
					<duration>5071</duration>
					<rate>
						<ntsc>TRUE</ntsc>
						<timebase>30</timebase>
					</rate>
					<in>1687</in>
					<out>1901</out>
					<start>1925</start>
					<end>2139</end>
					<filter>
						<effect>
							<name>Audio Levels</name>
							<effectid>audiolevels</effectid>
							<effectcategory>audiolevels</effectcategory>
							<effecttype>audiolevels</effecttype>
							<mediatype>audio</mediatype>
							<parameter>
								<name>Level</name>
								<parameterid>level</parameterid>
								<valuemin>0</valuemin>
								<valuemax>3.98109</valuemax>
								<value>1</value>
							</parameter>
						</effect>
					</filter>
					<filter>
						<effect>
							<name>Audio Pan</name>
							<effectid>audiopan</effectid>
							<effectcategory>audiopan</effectcategory>
							<effecttype>audiopan</effecttype>
							<mediatype>audio</mediatype>
							<parameter>
								<name>Pan</name>
								<parameterid>pan</parameterid>
								<valuemin>-1</valuemin>
								<valuemax>1</valuemax>
								<value>1</value>
							</parameter>
						</effect>
					</filter>
					<sequence id="Roll 1 - Logged1"/>
					<sourcetrack>
						<mediatype>audio</mediatype>
						<trackindex>2</trackindex>
					</sourcetrack>
					<link>
						<linkclipref>Roll 1 - Logged10</linkclipref>
						<mediatype>video</mediatype>
						<trackindex>1</trackindex>
						<clipindex>7</clipindex>
					</link>
					<link>
						<linkclipref>Roll 1 - Logged11</linkclipref>
						<mediatype>audio</mediatype>
						<trackindex>1</trackindex>
						<clipindex>7</clipindex>
						<groupindex>1</groupindex>
					</link>
					<link>
						<linkclipref>Roll 1 - Logged12</linkclipref>
						<mediatype>audio</mediatype>
						<trackindex>2</trackindex>
						<clipindex>7</clipindex>
						<groupindex>1</groupindex>
					</link>
					<itemhistory>
						<uuid>15D93009-B4BC-4F8F-85BB-EE3D7B1C54AC</uuid>
					</itemhistory>
				</clipitem>
				<clipitem id="Roll 1 - Logged15">
					<name>Roll 1 - Logged</name>
					<duration>5071</duration>
					<rate>
						<ntsc>TRUE</ntsc>
						<timebase>30</timebase>
					</rate>
					<in>1216</in>
					<out>1444</out>
					<start>2539</start>
					<end>2767</end>
					<filter>
						<effect>
							<name>Audio Levels</name>
							<effectid>audiolevels</effectid>
							<effectcategory>audiolevels</effectcategory>
							<effecttype>audiolevels</effecttype>
							<mediatype>audio</mediatype>
							<parameter>
								<name>Level</name>
								<parameterid>level</parameterid>
								<valuemin>0</valuemin>
								<valuemax>3.98109</valuemax>
								<value>1</value>
							</parameter>
						</effect>
					</filter>
					<filter>
						<effect>
							<name>Audio Pan</name>
							<effectid>audiopan</effectid>
							<effectcategory>audiopan</effectcategory>
							<effecttype>audiopan</effecttype>
							<mediatype>audio</mediatype>
							<parameter>
								<name>Pan</name>
								<parameterid>pan</parameterid>
								<valuemin>-1</valuemin>
								<valuemax>1</valuemax>
								<value>1</value>
							</parameter>
						</effect>
					</filter>
					<sequence id="Roll 1 - Logged1"/>
					<sourcetrack>
						<mediatype>audio</mediatype>
						<trackindex>2</trackindex>
					</sourcetrack>
					<link>
						<linkclipref>Roll 1 - Logged13</linkclipref>
						<mediatype>video</mediatype>
						<trackindex>1</trackindex>
						<clipindex>8</clipindex>
					</link>
					<link>
						<linkclipref>Roll 1 - Logged14</linkclipref>
						<mediatype>audio</mediatype>
						<trackindex>1</trackindex>
						<clipindex>8</clipindex>
						<groupindex>1</groupindex>
					</link>
					<link>
						<linkclipref>Roll 1 - Logged15</linkclipref>
						<mediatype>audio</mediatype>
						<trackindex>2</trackindex>
						<clipindex>8</clipindex>
						<groupindex>1</groupindex>
					</link>
					<itemhistory>
						<uuid>0C181F4A-FF92-4A0B-B8E3-B912310D8A87</uuid>
					</itemhistory>
				</clipitem>
				<clipitem id="Roll 6 - Logged12">
					<name>Roll 6 - Logged</name>
					<duration>5269</duration>
					<rate>
						<ntsc>TRUE</ntsc>
						<timebase>30</timebase>
					</rate>
					<in>3179</in>
					<out>3511</out>
					<start>2850</start>
					<end>3182</end>
					<filter>
						<effect>
							<name>Audio Levels</name>
							<effectid>audiolevels</effectid>
							<effectcategory>audiolevels</effectcategory>
							<effecttype>audiolevels</effecttype>
							<mediatype>audio</mediatype>
							<parameter>
								<name>Level</name>
								<parameterid>level</parameterid>
								<valuemin>0</valuemin>
								<valuemax>3.98109</valuemax>
								<value>1</value>
							</parameter>
						</effect>
					</filter>
					<filter>
						<effect>
							<name>Audio Pan</name>
							<effectid>audiopan</effectid>
							<effectcategory>audiopan</effectcategory>
							<effecttype>audiopan</effecttype>
							<mediatype>audio</mediatype>
							<parameter>
								<name>Pan</name>
								<parameterid>pan</parameterid>
								<valuemin>-1</valuemin>
								<valuemax>1</valuemax>
								<value>1</value>
							</parameter>
						</effect>
					</filter>
					<sequence id="Roll 6 - Logged1"/>
					<sourcetrack>
						<mediatype>audio</mediatype>
						<trackindex>2</trackindex>
					</sourcetrack>
					<link>
						<linkclipref>Roll 6 - Logged10</linkclipref>
						<mediatype>video</mediatype>
						<trackindex>1</trackindex>
						<clipindex>9</clipindex>
					</link>
					<link>
						<linkclipref>Roll 6 - Logged11</linkclipref>
						<mediatype>audio</mediatype>
						<trackindex>1</trackindex>
						<clipindex>9</clipindex>
						<groupindex>1</groupindex>
					</link>
					<link>
						<linkclipref>Roll 6 - Logged12</linkclipref>
						<mediatype>audio</mediatype>
						<trackindex>2</trackindex>
						<clipindex>9</clipindex>
						<groupindex>1</groupindex>
					</link>
					<itemhistory>
						<uuid>AABB28DB-AB50-48DA-A5C1-19D89E6DF6EF</uuid>
					</itemhistory>
				</clipitem>
				<clipitem id="Roll 6 - Logged15">
					<name>Roll 6 - Logged</name>
					<duration>5269</duration>
					<rate>
						<ntsc>TRUE</ntsc>
						<timebase>30</timebase>
					</rate>
					<in>3645</in>
					<out>4077</out>
					<start>3262</start>
					<end>3694</end>
					<filter>
						<effect>
							<name>Audio Levels</name>
							<effectid>audiolevels</effectid>
							<effectcategory>audiolevels</effectcategory>
							<effecttype>audiolevels</effecttype>
							<mediatype>audio</mediatype>
							<parameter>
								<name>Level</name>
								<parameterid>level</parameterid>
								<valuemin>0</valuemin>
								<valuemax>3.98109</valuemax>
								<value>1</value>
							</parameter>
						</effect>
					</filter>
					<filter>
						<effect>
							<name>Audio Pan</name>
							<effectid>audiopan</effectid>
							<effectcategory>audiopan</effectcategory>
							<effecttype>audiopan</effecttype>
							<mediatype>audio</mediatype>
							<parameter>
								<name>Pan</name>
								<parameterid>pan</parameterid>
								<valuemin>-1</valuemin>
								<valuemax>1</valuemax>
								<value>1</value>
							</parameter>
						</effect>
					</filter>
					<sequence id="Roll 6 - Logged1"/>
					<sourcetrack>
						<mediatype>audio</mediatype>
						<trackindex>2</trackindex>
					</sourcetrack>
					<link>
						<linkclipref>Roll 6 - Logged13</linkclipref>
						<mediatype>video</mediatype>
						<trackindex>1</trackindex>
						<clipindex>10</clipindex>
					</link>
					<link>
						<linkclipref>Roll 6 - Logged14</linkclipref>
						<mediatype>audio</mediatype>
						<trackindex>1</trackindex>
						<clipindex>10</clipindex>
						<groupindex>1</groupindex>
					</link>
					<link>
						<linkclipref>Roll 6 - Logged15</linkclipref>
						<mediatype>audio</mediatype>
						<trackindex>2</trackindex>
						<clipindex>10</clipindex>
						<groupindex>1</groupindex>
					</link>
					<itemhistory>
						<uuid>677EA036-0FC0-401B-A0A8-19467EC41043</uuid>
					</itemhistory>
				</clipitem>
				<clipitem id="Roll 1 - Logged18">
					<name>Roll 1 - Logged</name>
					<duration>5071</duration>
					<rate>
						<ntsc>TRUE</ntsc>
						<timebase>30</timebase>
					</rate>
					<in>3581</in>
					<out>4018</out>
					<start>3718</start>
					<end>4155</end>
					<filter>
						<effect>
							<name>Audio Levels</name>
							<effectid>audiolevels</effectid>
							<effectcategory>audiolevels</effectcategory>
							<effecttype>audiolevels</effecttype>
							<mediatype>audio</mediatype>
							<parameter>
								<name>Level</name>
								<parameterid>level</parameterid>
								<valuemin>0</valuemin>
								<valuemax>3.98109</valuemax>
								<value>1</value>
							</parameter>
						</effect>
					</filter>
					<filter>
						<effect>
							<name>Audio Pan</name>
							<effectid>audiopan</effectid>
							<effectcategory>audiopan</effectcategory>
							<effecttype>audiopan</effecttype>
							<mediatype>audio</mediatype>
							<parameter>
								<name>Pan</name>
								<parameterid>pan</parameterid>
								<valuemin>-1</valuemin>
								<valuemax>1</valuemax>
								<value>1</value>
							</parameter>
						</effect>
					</filter>
					<sequence id="Roll 1 - Logged1"/>
					<sourcetrack>
						<mediatype>audio</mediatype>
						<trackindex>2</trackindex>
					</sourcetrack>
					<link>
						<linkclipref>Roll 1 - Logged16</linkclipref>
						<mediatype>video</mediatype>
						<trackindex>1</trackindex>
						<clipindex>11</clipindex>
					</link>
					<link>
						<linkclipref>Roll 1 - Logged17</linkclipref>
						<mediatype>audio</mediatype>
						<trackindex>1</trackindex>
						<clipindex>11</clipindex>
						<groupindex>1</groupindex>
					</link>
					<link>
						<linkclipref>Roll 1 - Logged18</linkclipref>
						<mediatype>audio</mediatype>
						<trackindex>2</trackindex>
						<clipindex>11</clipindex>
						<groupindex>1</groupindex>
					</link>
					<itemhistory>
						<uuid>B704B3E2-0F7F-4485-B968-9DA747B44D1B</uuid>
					</itemhistory>
				</clipitem>
				<clipitem id="Roll 1 - Logged21">
					<name>Roll 1 - Logged</name>
					<duration>5071</duration>
					<rate>
						<ntsc>TRUE</ntsc>
						<timebase>30</timebase>
					</rate>
					<in>4062</in>
					<out>4158</out>
					<start>4217</start>
					<end>4313</end>
					<filter>
						<effect>
							<name>Audio Levels</name>
							<effectid>audiolevels</effectid>
							<effectcategory>audiolevels</effectcategory>
							<effecttype>audiolevels</effecttype>
							<mediatype>audio</mediatype>
							<parameter>
								<name>Level</name>
								<parameterid>level</parameterid>
								<valuemin>0</valuemin>
								<valuemax>3.98109</valuemax>
								<value>1</value>
							</parameter>
						</effect>
					</filter>
					<filter>
						<effect>
							<name>Audio Pan</name>
							<effectid>audiopan</effectid>
							<effectcategory>audiopan</effectcategory>
							<effecttype>audiopan</effecttype>
							<mediatype>audio</mediatype>
							<parameter>
								<name>Pan</name>
								<parameterid>pan</parameterid>
								<valuemin>-1</valuemin>
								<valuemax>1</valuemax>
								<value>1</value>
							</parameter>
						</effect>
					</filter>
					<sequence id="Roll 1 - Logged1"/>
					<sourcetrack>
						<mediatype>audio</mediatype>
						<trackindex>2</trackindex>
					</sourcetrack>
					<link>
						<linkclipref>Roll 1 - Logged19</linkclipref>
						<mediatype>video</mediatype>
						<trackindex>1</trackindex>
						<clipindex>12</clipindex>
					</link>
					<link>
						<linkclipref>Roll 1 - Logged20</linkclipref>
						<mediatype>audio</mediatype>
						<trackindex>1</trackindex>
						<clipindex>12</clipindex>
						<groupindex>1</groupindex>
					</link>
					<link>
						<linkclipref>Roll 1 - Logged21</linkclipref>
						<mediatype>audio</mediatype>
						<trackindex>2</trackindex>
						<clipindex>12</clipindex>
						<groupindex>1</groupindex>
					</link>
					<itemhistory>
						<uuid>30690F2F-F503-4C18-BA26-D7856C60779E</uuid>
					</itemhistory>
				</clipitem>
				<clipitem id="Roll 1 - Logged24">
					<name>Roll 1 - Logged</name>
					<duration>5071</duration>
					<rate>
						<ntsc>TRUE</ntsc>
						<timebase>30</timebase>
					</rate>
					<in>4539</in>
					<out>4580</out>
					<start>4313</start>
					<end>4354</end>
					<filter>
						<effect>
							<name>Audio Levels</name>
							<effectid>audiolevels</effectid>
							<effectcategory>audiolevels</effectcategory>
							<effecttype>audiolevels</effecttype>
							<mediatype>audio</mediatype>
							<parameter>
								<name>Level</name>
								<parameterid>level</parameterid>
								<valuemin>0</valuemin>
								<valuemax>3.98109</valuemax>
								<value>1</value>
							</parameter>
						</effect>
					</filter>
					<filter>
						<effect>
							<name>Audio Pan</name>
							<effectid>audiopan</effectid>
							<effectcategory>audiopan</effectcategory>
							<effecttype>audiopan</effecttype>
							<mediatype>audio</mediatype>
							<parameter>
								<name>Pan</name>
								<parameterid>pan</parameterid>
								<valuemin>-1</valuemin>
								<valuemax>1</valuemax>
								<value>1</value>
							</parameter>
						</effect>
					</filter>
					<sequence id="Roll 1 - Logged1"/>
					<sourcetrack>
						<mediatype>audio</mediatype>
						<trackindex>2</trackindex>
					</sourcetrack>
					<link>
						<linkclipref>Roll 1 - Logged22</linkclipref>
						<mediatype>video</mediatype>
						<trackindex>1</trackindex>
						<clipindex>13</clipindex>
					</link>
					<link>
						<linkclipref>Roll 1 - Logged23</linkclipref>
						<mediatype>audio</mediatype>
						<trackindex>1</trackindex>
						<clipindex>13</clipindex>
						<groupindex>1</groupindex>
					</link>
					<link>
						<linkclipref>Roll 1 - Logged24</linkclipref>
						<mediatype>audio</mediatype>
						<trackindex>2</trackindex>
						<clipindex>13</clipindex>
						<groupindex>1</groupindex>
					</link>
					<itemhistory>
						<uuid>8405FB7E-C99F-43FA-BEF9-6FF3C29CFD61</uuid>
					</itemhistory>
				</clipitem>
				<clipitem id="Roll 6 - Logged18">
					<name>Roll 6 - Logged</name>
					<duration>5269</duration>
					<rate>
						<ntsc>TRUE</ntsc>
						<timebase>30</timebase>
					</rate>
					<in>1100</in>
					<out>1552</out>
					<start>4524</start>
					<end>4976</end>
					<filter>
						<effect>
							<name>Audio Levels</name>
							<effectid>audiolevels</effectid>
							<effectcategory>audiolevels</effectcategory>
							<effecttype>audiolevels</effecttype>
							<mediatype>audio</mediatype>
							<parameter>
								<name>Level</name>
								<parameterid>level</parameterid>
								<valuemin>0</valuemin>
								<valuemax>3.98109</valuemax>
								<value>1</value>
							</parameter>
						</effect>
					</filter>
					<filter>
						<effect>
							<name>Audio Pan</name>
							<effectid>audiopan</effectid>
							<effectcategory>audiopan</effectcategory>
							<effecttype>audiopan</effecttype>
							<mediatype>audio</mediatype>
							<parameter>
								<name>Pan</name>
								<parameterid>pan</parameterid>
								<valuemin>-1</valuemin>
								<valuemax>1</valuemax>
								<value>1</value>
							</parameter>
						</effect>
					</filter>
					<sequence id="Roll 6 - Logged1"/>
					<sourcetrack>
						<mediatype>audio</mediatype>
						<trackindex>2</trackindex>
					</sourcetrack>
					<link>
						<linkclipref>Roll 6 - Logged16</linkclipref>
						<mediatype>video</mediatype>
						<trackindex>1</trackindex>
						<clipindex>14</clipindex>
					</link>
					<link>
						<linkclipref>Roll 6 - Logged17</linkclipref>
						<mediatype>audio</mediatype>
						<trackindex>1</trackindex>
						<clipindex>14</clipindex>
						<groupindex>1</groupindex>
					</link>
					<link>
						<linkclipref>Roll 6 - Logged18</linkclipref>
						<mediatype>audio</mediatype>
						<trackindex>2</trackindex>
						<clipindex>14</clipindex>
						<groupindex>1</groupindex>
					</link>
					<itemhistory>
						<uuid>D1139D11-2354-4184-B49C-5BFC9474EA55</uuid>
					</itemhistory>
				</clipitem>
				<clipitem id="Roll 7 - Logged3">
					<name>Roll 7 - Logged</name>
					<duration>4695</duration>
					<rate>
						<ntsc>TRUE</ntsc>
						<timebase>30</timebase>
					</rate>
					<in>0</in>
					<out>1023</out>
					<start>5574</start>
					<end>6597</end>
					<filter>
						<effect>
							<name>Audio Levels</name>
							<effectid>audiolevels</effectid>
							<effectcategory>audiolevels</effectcategory>
							<effecttype>audiolevels</effecttype>
							<mediatype>audio</mediatype>
							<parameter>
								<name>Level</name>
								<parameterid>level</parameterid>
								<valuemin>0</valuemin>
								<valuemax>3.98109</valuemax>
								<value>1</value>
							</parameter>
						</effect>
					</filter>
					<filter>
						<effect>
							<name>Audio Pan</name>
							<effectid>audiopan</effectid>
							<effectcategory>audiopan</effectcategory>
							<effecttype>audiopan</effecttype>
							<mediatype>audio</mediatype>
							<parameter>
								<name>Pan</name>
								<parameterid>pan</parameterid>
								<valuemin>-1</valuemin>
								<valuemax>1</valuemax>
								<value>1</value>
							</parameter>
						</effect>
					</filter>
					<sequence id="Roll 7 - Logged1"/>
					<sourcetrack>
						<mediatype>audio</mediatype>
						<trackindex>2</trackindex>
					</sourcetrack>
					<link>
						<linkclipref>Roll 7 - Logged</linkclipref>
						<mediatype>video</mediatype>
						<trackindex>1</trackindex>
						<clipindex>15</clipindex>
					</link>
					<link>
						<linkclipref>Roll 7 - Logged2</linkclipref>
						<mediatype>audio</mediatype>
						<trackindex>1</trackindex>
						<clipindex>15</clipindex>
						<groupindex>1</groupindex>
					</link>
					<link>
						<linkclipref>Roll 7 - Logged3</linkclipref>
						<mediatype>audio</mediatype>
						<trackindex>2</trackindex>
						<clipindex>15</clipindex>
						<groupindex>1</groupindex>
					</link>
					<itemhistory>
						<uuid>7F7B49CF-C0E0-4ED7-9058-D2A88C520DC4</uuid>
					</itemhistory>
				</clipitem>
				<clipitem id="Roll 7 - Logged6">
					<name>Roll 7 - Logged</name>
					<duration>4695</duration>
					<rate>
						<ntsc>TRUE</ntsc>
						<timebase>30</timebase>
					</rate>
					<in>1211</in>
					<out>1518</out>
					<start>6597</start>
					<end>6904</end>
					<filter>
						<effect>
							<name>Audio Levels</name>
							<effectid>audiolevels</effectid>
							<effectcategory>audiolevels</effectcategory>
							<effecttype>audiolevels</effecttype>
							<mediatype>audio</mediatype>
							<parameter>
								<name>Level</name>
								<parameterid>level</parameterid>
								<valuemin>0</valuemin>
								<valuemax>3.98109</valuemax>
								<value>1</value>
							</parameter>
						</effect>
					</filter>
					<filter>
						<effect>
							<name>Audio Pan</name>
							<effectid>audiopan</effectid>
							<effectcategory>audiopan</effectcategory>
							<effecttype>audiopan</effecttype>
							<mediatype>audio</mediatype>
							<parameter>
								<name>Pan</name>
								<parameterid>pan</parameterid>
								<valuemin>-1</valuemin>
								<valuemax>1</valuemax>
								<value>1</value>
							</parameter>
						</effect>
					</filter>
					<sequence id="Roll 7 - Logged1"/>
					<sourcetrack>
						<mediatype>audio</mediatype>
						<trackindex>2</trackindex>
					</sourcetrack>
					<link>
						<linkclipref>Roll 7 - Logged4</linkclipref>
						<mediatype>video</mediatype>
						<trackindex>1</trackindex>
						<clipindex>16</clipindex>
					</link>
					<link>
						<linkclipref>Roll 7 - Logged5</linkclipref>
						<mediatype>audio</mediatype>
						<trackindex>1</trackindex>
						<clipindex>16</clipindex>
						<groupindex>1</groupindex>
					</link>
					<link>
						<linkclipref>Roll 7 - Logged6</linkclipref>
						<mediatype>audio</mediatype>
						<trackindex>2</trackindex>
						<clipindex>16</clipindex>
						<groupindex>1</groupindex>
					</link>
					<itemhistory>
						<uuid>D17341CB-BE71-46A1-B4B6-FED9B66F236A</uuid>
					</itemhistory>
				</clipitem>
				<clipitem id="Roll 7 - Logged9">
					<name>Roll 7 - Logged</name>
					<duration>4695</duration>
					<rate>
						<ntsc>TRUE</ntsc>
						<timebase>30</timebase>
					</rate>
					<in>1025</in>
					<out>1211</out>
					<start>7165</start>
					<end>7351</end>
					<filter>
						<effect>
							<name>Audio Levels</name>
							<effectid>audiolevels</effectid>
							<effectcategory>audiolevels</effectcategory>
							<effecttype>audiolevels</effecttype>
							<mediatype>audio</mediatype>
							<parameter>
								<name>Level</name>
								<parameterid>level</parameterid>
								<valuemin>0</valuemin>
								<valuemax>3.98109</valuemax>
								<value>1</value>
							</parameter>
						</effect>
					</filter>
					<filter>
						<effect>
							<name>Audio Pan</name>
							<effectid>audiopan</effectid>
							<effectcategory>audiopan</effectcategory>
							<effecttype>audiopan</effecttype>
							<mediatype>audio</mediatype>
							<parameter>
								<name>Pan</name>
								<parameterid>pan</parameterid>
								<valuemin>-1</valuemin>
								<valuemax>1</valuemax>
								<value>1</value>
							</parameter>
						</effect>
					</filter>
					<sequence id="Roll 7 - Logged1"/>
					<sourcetrack>
						<mediatype>audio</mediatype>
						<trackindex>2</trackindex>
					</sourcetrack>
					<link>
						<linkclipref>Roll 7 - Logged7</linkclipref>
						<mediatype>video</mediatype>
						<trackindex>1</trackindex>
						<clipindex>17</clipindex>
					</link>
					<link>
						<linkclipref>Roll 7 - Logged8</linkclipref>
						<mediatype>audio</mediatype>
						<trackindex>1</trackindex>
						<clipindex>17</clipindex>
						<groupindex>1</groupindex>
					</link>
					<link>
						<linkclipref>Roll 7 - Logged9</linkclipref>
						<mediatype>audio</mediatype>
						<trackindex>2</trackindex>
						<clipindex>17</clipindex>
						<groupindex>1</groupindex>
					</link>
					<itemhistory>
						<uuid>1BD0C944-A6AE-4D33-B8A2-90D9C439FF95</uuid>
					</itemhistory>
				</clipitem>
				<clipitem id="Roll 7 - Logged12">
					<name>Roll 7 - Logged</name>
					<duration>4695</duration>
					<rate>
						<ntsc>TRUE</ntsc>
						<timebase>30</timebase>
					</rate>
					<in>1524</in>
					<out>1836</out>
					<start>7351</start>
					<end>7663</end>
					<filter>
						<effect>
							<name>Audio Levels</name>
							<effectid>audiolevels</effectid>
							<effectcategory>audiolevels</effectcategory>
							<effecttype>audiolevels</effecttype>
							<mediatype>audio</mediatype>
							<parameter>
								<name>Level</name>
								<parameterid>level</parameterid>
								<valuemin>0</valuemin>
								<valuemax>3.98109</valuemax>
								<value>1</value>
							</parameter>
						</effect>
					</filter>
					<filter>
						<effect>
							<name>Audio Pan</name>
							<effectid>audiopan</effectid>
							<effectcategory>audiopan</effectcategory>
							<effecttype>audiopan</effecttype>
							<mediatype>audio</mediatype>
							<parameter>
								<name>Pan</name>
								<parameterid>pan</parameterid>
								<valuemin>-1</valuemin>
								<valuemax>1</valuemax>
								<value>1</value>
							</parameter>
						</effect>
					</filter>
					<sequence id="Roll 7 - Logged1"/>
					<sourcetrack>
						<mediatype>audio</mediatype>
						<trackindex>2</trackindex>
					</sourcetrack>
					<link>
						<linkclipref>Roll 7 - Logged10</linkclipref>
						<mediatype>video</mediatype>
						<trackindex>1</trackindex>
						<clipindex>18</clipindex>
					</link>
					<link>
						<linkclipref>Roll 7 - Logged11</linkclipref>
						<mediatype>audio</mediatype>
						<trackindex>1</trackindex>
						<clipindex>18</clipindex>
						<groupindex>1</groupindex>
					</link>
					<link>
						<linkclipref>Roll 7 - Logged12</linkclipref>
						<mediatype>audio</mediatype>
						<trackindex>2</trackindex>
						<clipindex>18</clipindex>
						<groupindex>1</groupindex>
					</link>
					<itemhistory>
						<uuid>8D2D189D-6404-4309-B96A-60463664D2BC</uuid>
					</itemhistory>
				</clipitem>
				<enabled>TRUE</enabled>
				<locked>FALSE</locked>
				<outputchannelindex>2</outputchannelindex>
			</track>
			<track>
				<clipitem id="Roll 1 - Logged26">
					<name>Roll 1 - Logged</name>
					<duration>5071</duration>
					<rate>
						<ntsc>TRUE</ntsc>
						<timebase>30</timebase>
					</rate>
					<in>749</in>
					<out>900</out>
					<start>420</start>
					<end>571</end>
					<filter>
						<effect>
							<name>Audio Levels</name>
							<effectid>audiolevels</effectid>
							<effectcategory>audiolevels</effectcategory>
							<effecttype>audiolevels</effecttype>
							<mediatype>audio</mediatype>
							<parameter>
								<name>Level</name>
								<parameterid>level</parameterid>
								<valuemin>0</valuemin>
								<valuemax>3.98109</valuemax>
								<value>1</value>
							</parameter>
						</effect>
					</filter>
					<filter>
						<effect>
							<name>Audio Pan</name>
							<effectid>audiopan</effectid>
							<effectcategory>audiopan</effectcategory>
							<effecttype>audiopan</effecttype>
							<mediatype>audio</mediatype>
							<parameter>
								<name>Pan</name>
								<parameterid>pan</parameterid>
								<valuemin>-1</valuemin>
								<valuemax>1</valuemax>
								<value>-1</value>
							</parameter>
						</effect>
					</filter>
					<sequence id="Roll 1 - Logged1"/>
					<sourcetrack>
						<mediatype>audio</mediatype>
						<trackindex>1</trackindex>
					</sourcetrack>
					<link>
						<linkclipref>Roll 1 - Logged25</linkclipref>
						<mediatype>video</mediatype>
						<trackindex>2</trackindex>
						<clipindex>1</clipindex>
					</link>
					<link>
						<linkclipref>Roll 1 - Logged26</linkclipref>
						<mediatype>audio</mediatype>
						<trackindex>3</trackindex>
						<clipindex>1</clipindex>
						<groupindex>1</groupindex>
					</link>
					<link>
						<linkclipref>Roll 1 - Logged27</linkclipref>
						<mediatype>audio</mediatype>
						<trackindex>4</trackindex>
						<clipindex>1</clipindex>
						<groupindex>1</groupindex>
					</link>
					<itemhistory>
						<uuid>B6BDB7B4-DC28-4AFA-A5CA-7A7BF7C51599</uuid>
					</itemhistory>
				</clipitem>
				<clipitem id="Roll 1 - Logged29">
					<name>Roll 1 - Logged</name>
					<duration>5071</duration>
					<rate>
						<ntsc>TRUE</ntsc>
						<timebase>30</timebase>
					</rate>
					<in>3317</in>
					<out>3433</out>
					<start>703</start>
					<end>819</end>
					<filter>
						<effect>
							<name>Audio Levels</name>
							<effectid>audiolevels</effectid>
							<effectcategory>audiolevels</effectcategory>
							<effecttype>audiolevels</effecttype>
							<mediatype>audio</mediatype>
							<parameter>
								<name>Level</name>
								<parameterid>level</parameterid>
								<valuemin>0</valuemin>
								<valuemax>3.98109</valuemax>
								<value>1</value>
							</parameter>
						</effect>
					</filter>
					<filter>
						<effect>
							<name>Audio Pan</name>
							<effectid>audiopan</effectid>
							<effectcategory>audiopan</effectcategory>
							<effecttype>audiopan</effecttype>
							<mediatype>audio</mediatype>
							<parameter>
								<name>Pan</name>
								<parameterid>pan</parameterid>
								<valuemin>-1</valuemin>
								<valuemax>1</valuemax>
								<value>-1</value>
							</parameter>
						</effect>
					</filter>
					<sequence id="Roll 1 - Logged1"/>
					<sourcetrack>
						<mediatype>audio</mediatype>
						<trackindex>1</trackindex>
					</sourcetrack>
					<link>
						<linkclipref>Roll 1 - Logged28</linkclipref>
						<mediatype>video</mediatype>
						<trackindex>2</trackindex>
						<clipindex>2</clipindex>
					</link>
					<link>
						<linkclipref>Roll 1 - Logged29</linkclipref>
						<mediatype>audio</mediatype>
						<trackindex>3</trackindex>
						<clipindex>2</clipindex>
						<groupindex>1</groupindex>
					</link>
					<link>
						<linkclipref>Roll 1 - Logged30</linkclipref>
						<mediatype>audio</mediatype>
						<trackindex>4</trackindex>
						<clipindex>2</clipindex>
						<groupindex>1</groupindex>
					</link>
					<itemhistory>
						<uuid>48D925B8-0B91-431F-8516-96AA8D7489CD</uuid>
					</itemhistory>
				</clipitem>
				<enabled>TRUE</enabled>
				<locked>FALSE</locked>
				<outputchannelindex>1</outputchannelindex>
			</track>
			<track>
				<clipitem id="Roll 1 - Logged27">
					<name>Roll 1 - Logged</name>
					<duration>5071</duration>
					<rate>
						<ntsc>TRUE</ntsc>
						<timebase>30</timebase>
					</rate>
					<in>749</in>
					<out>900</out>
					<start>420</start>
					<end>571</end>
					<filter>
						<effect>
							<name>Audio Levels</name>
							<effectid>audiolevels</effectid>
							<effectcategory>audiolevels</effectcategory>
							<effecttype>audiolevels</effecttype>
							<mediatype>audio</mediatype>
							<parameter>
								<name>Level</name>
								<parameterid>level</parameterid>
								<valuemin>0</valuemin>
								<valuemax>3.98109</valuemax>
								<value>1</value>
							</parameter>
						</effect>
					</filter>
					<filter>
						<effect>
							<name>Audio Pan</name>
							<effectid>audiopan</effectid>
							<effectcategory>audiopan</effectcategory>
							<effecttype>audiopan</effecttype>
							<mediatype>audio</mediatype>
							<parameter>
								<name>Pan</name>
								<parameterid>pan</parameterid>
								<valuemin>-1</valuemin>
								<valuemax>1</valuemax>
								<value>1</value>
							</parameter>
						</effect>
					</filter>
					<sequence id="Roll 1 - Logged1"/>
					<sourcetrack>
						<mediatype>audio</mediatype>
						<trackindex>2</trackindex>
					</sourcetrack>
					<link>
						<linkclipref>Roll 1 - Logged25</linkclipref>
						<mediatype>video</mediatype>
						<trackindex>2</trackindex>
						<clipindex>1</clipindex>
					</link>
					<link>
						<linkclipref>Roll 1 - Logged26</linkclipref>
						<mediatype>audio</mediatype>
						<trackindex>3</trackindex>
						<clipindex>1</clipindex>
						<groupindex>1</groupindex>
					</link>
					<link>
						<linkclipref>Roll 1 - Logged27</linkclipref>
						<mediatype>audio</mediatype>
						<trackindex>4</trackindex>
						<clipindex>1</clipindex>
						<groupindex>1</groupindex>
					</link>
					<itemhistory>
						<uuid>A0AA6942-47F0-4D35-B15C-4B468739B12D</uuid>
					</itemhistory>
				</clipitem>
				<clipitem id="Roll 1 - Logged30">
					<name>Roll 1 - Logged</name>
					<duration>5071</duration>
					<rate>
						<ntsc>TRUE</ntsc>
						<timebase>30</timebase>
					</rate>
					<in>3317</in>
					<out>3433</out>
					<start>703</start>
					<end>819</end>
					<filter>
						<effect>
							<name>Audio Levels</name>
							<effectid>audiolevels</effectid>
							<effectcategory>audiolevels</effectcategory>
							<effecttype>audiolevels</effecttype>
							<mediatype>audio</mediatype>
							<parameter>
								<name>Level</name>
								<parameterid>level</parameterid>
								<valuemin>0</valuemin>
								<valuemax>3.98109</valuemax>
								<value>1</value>
							</parameter>
						</effect>
					</filter>
					<filter>
						<effect>
							<name>Audio Pan</name>
							<effectid>audiopan</effectid>
							<effectcategory>audiopan</effectcategory>
							<effecttype>audiopan</effecttype>
							<mediatype>audio</mediatype>
							<parameter>
								<name>Pan</name>
								<parameterid>pan</parameterid>
								<valuemin>-1</valuemin>
								<valuemax>1</valuemax>
								<value>1</value>
							</parameter>
						</effect>
					</filter>
					<sequence id="Roll 1 - Logged1"/>
					<sourcetrack>
						<mediatype>audio</mediatype>
						<trackindex>2</trackindex>
					</sourcetrack>
					<link>
						<linkclipref>Roll 1 - Logged28</linkclipref>
						<mediatype>video</mediatype>
						<trackindex>2</trackindex>
						<clipindex>2</clipindex>
					</link>
					<link>
						<linkclipref>Roll 1 - Logged29</linkclipref>
						<mediatype>audio</mediatype>
						<trackindex>3</trackindex>
						<clipindex>2</clipindex>
						<groupindex>1</groupindex>
					</link>
					<link>
						<linkclipref>Roll 1 - Logged30</linkclipref>
						<mediatype>audio</mediatype>
						<trackindex>4</trackindex>
						<clipindex>2</clipindex>
						<groupindex>1</groupindex>
					</link>
					<itemhistory>
						<uuid>4A071C15-07A7-4361-A359-A3979366A53A</uuid>
					</itemhistory>
				</clipitem>
				<enabled>TRUE</enabled>
				<locked>FALSE</locked>
				<outputchannelindex>2</outputchannelindex>
			</track>
			<track>
				<enabled>TRUE</enabled>
				<locked>FALSE</locked>
				<outputchannelindex>1</outputchannelindex>
			</track>
			<track>
				<enabled>TRUE</enabled>
				<locked>FALSE</locked>
				<outputchannelindex>2</outputchannelindex>
			</track>
			<filter>
				<effect>
					<name>Audio Levels</name>
					<effectid>audiolevels</effectid>
					<effectcategory>audiolevels</effectcategory>
					<effecttype>audiolevels</effecttype>
					<mediatype>audio</mediatype>
					<parameter>
						<name>Level</name>
						<parameterid>level</parameterid>
						<valuemin>0</valuemin>
						<valuemax>3.98109</valuemax>
						<value>1</value>
					</parameter>
				</effect>
			</filter>
		</audio>
	</media>
</sequence>
</xmeml>


